%TF.GenerationSoftware,KiCad,Pcbnew,5.1.6*%
%TF.CreationDate,2020-07-08T21:20:25+02:00*%
%TF.ProjectId,mainboard,6d61696e-626f-4617-9264-2e6b69636164,rev?*%
%TF.SameCoordinates,Original*%
%TF.FileFunction,Soldermask,Top*%
%TF.FilePolarity,Negative*%
%FSLAX46Y46*%
G04 Gerber Fmt 4.6, Leading zero omitted, Abs format (unit mm)*
G04 Created by KiCad (PCBNEW 5.1.6) date 2020-07-08 21:20:25*
%MOMM*%
%LPD*%
G01*
G04 APERTURE LIST*
%ADD10C,0.100000*%
G04 APERTURE END LIST*
D10*
G36*
X161983378Y-120276859D02*
G01*
X162347355Y-120427623D01*
X162674926Y-120646499D01*
X162953501Y-120925074D01*
X163172377Y-121252645D01*
X163323141Y-121616622D01*
X163400000Y-122003017D01*
X163400000Y-122396983D01*
X163323141Y-122783378D01*
X163172377Y-123147355D01*
X162953501Y-123474926D01*
X162674926Y-123753501D01*
X162347355Y-123972377D01*
X161983378Y-124123141D01*
X161596983Y-124200000D01*
X161203017Y-124200000D01*
X160816622Y-124123141D01*
X160452645Y-123972377D01*
X160125074Y-123753501D01*
X159846499Y-123474926D01*
X159627623Y-123147355D01*
X159476859Y-122783378D01*
X159400000Y-122396983D01*
X159400000Y-122003017D01*
X159476859Y-121616622D01*
X159627623Y-121252645D01*
X159846499Y-120925074D01*
X160125074Y-120646499D01*
X160452645Y-120427623D01*
X160816622Y-120276859D01*
X161203017Y-120200000D01*
X161596983Y-120200000D01*
X161983378Y-120276859D01*
G37*
G36*
X147213378Y-120246860D02*
G01*
X147577355Y-120397624D01*
X147904926Y-120616500D01*
X148183501Y-120895075D01*
X148402377Y-121222646D01*
X148553141Y-121586623D01*
X148630000Y-121973018D01*
X148630000Y-122366984D01*
X148553141Y-122753379D01*
X148402377Y-123117356D01*
X148183501Y-123444927D01*
X147904926Y-123723502D01*
X147577355Y-123942378D01*
X147213378Y-124093142D01*
X146826983Y-124170001D01*
X146433017Y-124170001D01*
X146046622Y-124093142D01*
X145682645Y-123942378D01*
X145355074Y-123723502D01*
X145076499Y-123444927D01*
X144857623Y-123117356D01*
X144706859Y-122753379D01*
X144630000Y-122366984D01*
X144630000Y-121973018D01*
X144706859Y-121586623D01*
X144857623Y-121222646D01*
X145076499Y-120895075D01*
X145355074Y-120616500D01*
X145682645Y-120397624D01*
X146046622Y-120246860D01*
X146433017Y-120170001D01*
X146826983Y-120170001D01*
X147213378Y-120246860D01*
G37*
G36*
X59213378Y-120246860D02*
G01*
X59577355Y-120397624D01*
X59904926Y-120616500D01*
X60183501Y-120895075D01*
X60402377Y-121222646D01*
X60553141Y-121586623D01*
X60630000Y-121973018D01*
X60630000Y-122366984D01*
X60553141Y-122753379D01*
X60402377Y-123117356D01*
X60183501Y-123444927D01*
X59904926Y-123723502D01*
X59577355Y-123942378D01*
X59213378Y-124093142D01*
X58826983Y-124170001D01*
X58433017Y-124170001D01*
X58046622Y-124093142D01*
X57682645Y-123942378D01*
X57355074Y-123723502D01*
X57076499Y-123444927D01*
X56857623Y-123117356D01*
X56706859Y-122753379D01*
X56630000Y-122366984D01*
X56630000Y-121973018D01*
X56706859Y-121586623D01*
X56857623Y-121222646D01*
X57076499Y-120895075D01*
X57355074Y-120616500D01*
X57682645Y-120397624D01*
X58046622Y-120246860D01*
X58433017Y-120170001D01*
X58826983Y-120170001D01*
X59213378Y-120246860D01*
G37*
G36*
X98157617Y-121138682D02*
G01*
X98157620Y-121138683D01*
X98157621Y-121138683D01*
X98270721Y-121172991D01*
X98374955Y-121228705D01*
X98466317Y-121303684D01*
X98541296Y-121395046D01*
X98597010Y-121499280D01*
X98631318Y-121612380D01*
X98631319Y-121612384D01*
X98640000Y-121700529D01*
X98640000Y-122559473D01*
X98631319Y-122647618D01*
X98631318Y-122647621D01*
X98631318Y-122647622D01*
X98597010Y-122760722D01*
X98541296Y-122864956D01*
X98466317Y-122956318D01*
X98374954Y-123031297D01*
X98270720Y-123087011D01*
X98157620Y-123121319D01*
X98157619Y-123121319D01*
X98157616Y-123121320D01*
X98040000Y-123132904D01*
X97922383Y-123121320D01*
X97922380Y-123121319D01*
X97922379Y-123121319D01*
X97809279Y-123087011D01*
X97705045Y-123031297D01*
X97613683Y-122956318D01*
X97538704Y-122864955D01*
X97482990Y-122760721D01*
X97448682Y-122647621D01*
X97448682Y-122647620D01*
X97448681Y-122647617D01*
X97440000Y-122559472D01*
X97440000Y-121700529D01*
X97448682Y-121612379D01*
X97482990Y-121499281D01*
X97508925Y-121450761D01*
X97538705Y-121395046D01*
X97613684Y-121303684D01*
X97705046Y-121228705D01*
X97809280Y-121172991D01*
X97922380Y-121138683D01*
X97922381Y-121138683D01*
X97922384Y-121138682D01*
X98040000Y-121127098D01*
X98157617Y-121138682D01*
G37*
G36*
X70217617Y-121138682D02*
G01*
X70217620Y-121138683D01*
X70217621Y-121138683D01*
X70330721Y-121172991D01*
X70434955Y-121228705D01*
X70526317Y-121303684D01*
X70601296Y-121395046D01*
X70657010Y-121499280D01*
X70691318Y-121612380D01*
X70691319Y-121612384D01*
X70700000Y-121700529D01*
X70700000Y-122559473D01*
X70691319Y-122647618D01*
X70691318Y-122647621D01*
X70691318Y-122647622D01*
X70657010Y-122760722D01*
X70601296Y-122864956D01*
X70526317Y-122956318D01*
X70434954Y-123031297D01*
X70330720Y-123087011D01*
X70217620Y-123121319D01*
X70217619Y-123121319D01*
X70217616Y-123121320D01*
X70100000Y-123132904D01*
X69982383Y-123121320D01*
X69982380Y-123121319D01*
X69982379Y-123121319D01*
X69869279Y-123087011D01*
X69765045Y-123031297D01*
X69673683Y-122956318D01*
X69598704Y-122864955D01*
X69542990Y-122760721D01*
X69508682Y-122647621D01*
X69508682Y-122647620D01*
X69508681Y-122647617D01*
X69500000Y-122559472D01*
X69500000Y-121700529D01*
X69508682Y-121612379D01*
X69542990Y-121499281D01*
X69568925Y-121450761D01*
X69598705Y-121395046D01*
X69673684Y-121303684D01*
X69765046Y-121228705D01*
X69869280Y-121172991D01*
X69982380Y-121138683D01*
X69982381Y-121138683D01*
X69982384Y-121138682D01*
X70100000Y-121127098D01*
X70217617Y-121138682D01*
G37*
G36*
X75297617Y-121138682D02*
G01*
X75297620Y-121138683D01*
X75297621Y-121138683D01*
X75410721Y-121172991D01*
X75514955Y-121228705D01*
X75606317Y-121303684D01*
X75681296Y-121395046D01*
X75737010Y-121499280D01*
X75771318Y-121612380D01*
X75771319Y-121612384D01*
X75780000Y-121700529D01*
X75780000Y-122559473D01*
X75771319Y-122647618D01*
X75771318Y-122647621D01*
X75771318Y-122647622D01*
X75737010Y-122760722D01*
X75681296Y-122864956D01*
X75606317Y-122956318D01*
X75514954Y-123031297D01*
X75410720Y-123087011D01*
X75297620Y-123121319D01*
X75297619Y-123121319D01*
X75297616Y-123121320D01*
X75180000Y-123132904D01*
X75062383Y-123121320D01*
X75062380Y-123121319D01*
X75062379Y-123121319D01*
X74949279Y-123087011D01*
X74845045Y-123031297D01*
X74753683Y-122956318D01*
X74678704Y-122864955D01*
X74622990Y-122760721D01*
X74588682Y-122647621D01*
X74588682Y-122647620D01*
X74588681Y-122647617D01*
X74580000Y-122559472D01*
X74580000Y-121700529D01*
X74588682Y-121612379D01*
X74622990Y-121499281D01*
X74648925Y-121450761D01*
X74678705Y-121395046D01*
X74753684Y-121303684D01*
X74845046Y-121228705D01*
X74949280Y-121172991D01*
X75062380Y-121138683D01*
X75062381Y-121138683D01*
X75062384Y-121138682D01*
X75180000Y-121127098D01*
X75297617Y-121138682D01*
G37*
G36*
X82917617Y-121138682D02*
G01*
X82917620Y-121138683D01*
X82917621Y-121138683D01*
X83030721Y-121172991D01*
X83134955Y-121228705D01*
X83226317Y-121303684D01*
X83301296Y-121395046D01*
X83357010Y-121499280D01*
X83391318Y-121612380D01*
X83391319Y-121612384D01*
X83400000Y-121700529D01*
X83400000Y-122559473D01*
X83391319Y-122647618D01*
X83391318Y-122647621D01*
X83391318Y-122647622D01*
X83357010Y-122760722D01*
X83301296Y-122864956D01*
X83226317Y-122956318D01*
X83134954Y-123031297D01*
X83030720Y-123087011D01*
X82917620Y-123121319D01*
X82917619Y-123121319D01*
X82917616Y-123121320D01*
X82800000Y-123132904D01*
X82682383Y-123121320D01*
X82682380Y-123121319D01*
X82682379Y-123121319D01*
X82569279Y-123087011D01*
X82465045Y-123031297D01*
X82373683Y-122956318D01*
X82298704Y-122864955D01*
X82242990Y-122760721D01*
X82208682Y-122647621D01*
X82208682Y-122647620D01*
X82208681Y-122647617D01*
X82200000Y-122559472D01*
X82200000Y-121700529D01*
X82208682Y-121612379D01*
X82242990Y-121499281D01*
X82268925Y-121450761D01*
X82298705Y-121395046D01*
X82373684Y-121303684D01*
X82465046Y-121228705D01*
X82569280Y-121172991D01*
X82682380Y-121138683D01*
X82682381Y-121138683D01*
X82682384Y-121138682D01*
X82800000Y-121127098D01*
X82917617Y-121138682D01*
G37*
G36*
X85457617Y-121138682D02*
G01*
X85457620Y-121138683D01*
X85457621Y-121138683D01*
X85570721Y-121172991D01*
X85674955Y-121228705D01*
X85766317Y-121303684D01*
X85841296Y-121395046D01*
X85897010Y-121499280D01*
X85931318Y-121612380D01*
X85931319Y-121612384D01*
X85940000Y-121700529D01*
X85940000Y-122559473D01*
X85931319Y-122647618D01*
X85931318Y-122647621D01*
X85931318Y-122647622D01*
X85897010Y-122760722D01*
X85841296Y-122864956D01*
X85766317Y-122956318D01*
X85674954Y-123031297D01*
X85570720Y-123087011D01*
X85457620Y-123121319D01*
X85457619Y-123121319D01*
X85457616Y-123121320D01*
X85340000Y-123132904D01*
X85222383Y-123121320D01*
X85222380Y-123121319D01*
X85222379Y-123121319D01*
X85109279Y-123087011D01*
X85005045Y-123031297D01*
X84913683Y-122956318D01*
X84838704Y-122864955D01*
X84782990Y-122760721D01*
X84748682Y-122647621D01*
X84748682Y-122647620D01*
X84748681Y-122647617D01*
X84740000Y-122559472D01*
X84740000Y-121700529D01*
X84748682Y-121612379D01*
X84782990Y-121499281D01*
X84808925Y-121450761D01*
X84838705Y-121395046D01*
X84913684Y-121303684D01*
X85005046Y-121228705D01*
X85109280Y-121172991D01*
X85222380Y-121138683D01*
X85222381Y-121138683D01*
X85222384Y-121138682D01*
X85340000Y-121127098D01*
X85457617Y-121138682D01*
G37*
G36*
X77837617Y-121138682D02*
G01*
X77837620Y-121138683D01*
X77837621Y-121138683D01*
X77950721Y-121172991D01*
X78054955Y-121228705D01*
X78146317Y-121303684D01*
X78221296Y-121395046D01*
X78277010Y-121499280D01*
X78311318Y-121612380D01*
X78311319Y-121612384D01*
X78320000Y-121700529D01*
X78320000Y-122559473D01*
X78311319Y-122647618D01*
X78311318Y-122647621D01*
X78311318Y-122647622D01*
X78277010Y-122760722D01*
X78221296Y-122864956D01*
X78146317Y-122956318D01*
X78054954Y-123031297D01*
X77950720Y-123087011D01*
X77837620Y-123121319D01*
X77837619Y-123121319D01*
X77837616Y-123121320D01*
X77720000Y-123132904D01*
X77602383Y-123121320D01*
X77602380Y-123121319D01*
X77602379Y-123121319D01*
X77489279Y-123087011D01*
X77385045Y-123031297D01*
X77293683Y-122956318D01*
X77218704Y-122864955D01*
X77162990Y-122760721D01*
X77128682Y-122647621D01*
X77128682Y-122647620D01*
X77128681Y-122647617D01*
X77120000Y-122559472D01*
X77120000Y-121700529D01*
X77128682Y-121612379D01*
X77162990Y-121499281D01*
X77188925Y-121450761D01*
X77218705Y-121395046D01*
X77293684Y-121303684D01*
X77385046Y-121228705D01*
X77489280Y-121172991D01*
X77602380Y-121138683D01*
X77602381Y-121138683D01*
X77602384Y-121138682D01*
X77720000Y-121127098D01*
X77837617Y-121138682D01*
G37*
G36*
X87997617Y-121138682D02*
G01*
X87997620Y-121138683D01*
X87997621Y-121138683D01*
X88110721Y-121172991D01*
X88214955Y-121228705D01*
X88306317Y-121303684D01*
X88381296Y-121395046D01*
X88437010Y-121499280D01*
X88471318Y-121612380D01*
X88471319Y-121612384D01*
X88480000Y-121700529D01*
X88480000Y-122559473D01*
X88471319Y-122647618D01*
X88471318Y-122647621D01*
X88471318Y-122647622D01*
X88437010Y-122760722D01*
X88381296Y-122864956D01*
X88306317Y-122956318D01*
X88214954Y-123031297D01*
X88110720Y-123087011D01*
X87997620Y-123121319D01*
X87997619Y-123121319D01*
X87997616Y-123121320D01*
X87880000Y-123132904D01*
X87762383Y-123121320D01*
X87762380Y-123121319D01*
X87762379Y-123121319D01*
X87649279Y-123087011D01*
X87545045Y-123031297D01*
X87453683Y-122956318D01*
X87378704Y-122864955D01*
X87322990Y-122760721D01*
X87288682Y-122647621D01*
X87288682Y-122647620D01*
X87288681Y-122647617D01*
X87280000Y-122559472D01*
X87280000Y-121700529D01*
X87288682Y-121612379D01*
X87322990Y-121499281D01*
X87348925Y-121450761D01*
X87378705Y-121395046D01*
X87453684Y-121303684D01*
X87545046Y-121228705D01*
X87649280Y-121172991D01*
X87762380Y-121138683D01*
X87762381Y-121138683D01*
X87762384Y-121138682D01*
X87880000Y-121127098D01*
X87997617Y-121138682D01*
G37*
G36*
X90537617Y-121138682D02*
G01*
X90537620Y-121138683D01*
X90537621Y-121138683D01*
X90650721Y-121172991D01*
X90754955Y-121228705D01*
X90846317Y-121303684D01*
X90921296Y-121395046D01*
X90977010Y-121499280D01*
X91011318Y-121612380D01*
X91011319Y-121612384D01*
X91020000Y-121700529D01*
X91020000Y-122559473D01*
X91011319Y-122647618D01*
X91011318Y-122647621D01*
X91011318Y-122647622D01*
X90977010Y-122760722D01*
X90921296Y-122864956D01*
X90846317Y-122956318D01*
X90754954Y-123031297D01*
X90650720Y-123087011D01*
X90537620Y-123121319D01*
X90537619Y-123121319D01*
X90537616Y-123121320D01*
X90420000Y-123132904D01*
X90302383Y-123121320D01*
X90302380Y-123121319D01*
X90302379Y-123121319D01*
X90189279Y-123087011D01*
X90085045Y-123031297D01*
X89993683Y-122956318D01*
X89918704Y-122864955D01*
X89862990Y-122760721D01*
X89828682Y-122647621D01*
X89828682Y-122647620D01*
X89828681Y-122647617D01*
X89820000Y-122559472D01*
X89820000Y-121700529D01*
X89828682Y-121612379D01*
X89862990Y-121499281D01*
X89888925Y-121450761D01*
X89918705Y-121395046D01*
X89993684Y-121303684D01*
X90085046Y-121228705D01*
X90189280Y-121172991D01*
X90302380Y-121138683D01*
X90302381Y-121138683D01*
X90302384Y-121138682D01*
X90420000Y-121127098D01*
X90537617Y-121138682D01*
G37*
G36*
X93077617Y-121138682D02*
G01*
X93077620Y-121138683D01*
X93077621Y-121138683D01*
X93190721Y-121172991D01*
X93294955Y-121228705D01*
X93386317Y-121303684D01*
X93461296Y-121395046D01*
X93517010Y-121499280D01*
X93551318Y-121612380D01*
X93551319Y-121612384D01*
X93560000Y-121700529D01*
X93560000Y-122559473D01*
X93551319Y-122647618D01*
X93551318Y-122647621D01*
X93551318Y-122647622D01*
X93517010Y-122760722D01*
X93461296Y-122864956D01*
X93386317Y-122956318D01*
X93294954Y-123031297D01*
X93190720Y-123087011D01*
X93077620Y-123121319D01*
X93077619Y-123121319D01*
X93077616Y-123121320D01*
X92960000Y-123132904D01*
X92842383Y-123121320D01*
X92842380Y-123121319D01*
X92842379Y-123121319D01*
X92729279Y-123087011D01*
X92625045Y-123031297D01*
X92533683Y-122956318D01*
X92458704Y-122864955D01*
X92402990Y-122760721D01*
X92368682Y-122647621D01*
X92368682Y-122647620D01*
X92368681Y-122647617D01*
X92360000Y-122559472D01*
X92360000Y-121700529D01*
X92368682Y-121612379D01*
X92402990Y-121499281D01*
X92428925Y-121450761D01*
X92458705Y-121395046D01*
X92533684Y-121303684D01*
X92625046Y-121228705D01*
X92729280Y-121172991D01*
X92842380Y-121138683D01*
X92842381Y-121138683D01*
X92842384Y-121138682D01*
X92960000Y-121127098D01*
X93077617Y-121138682D01*
G37*
G36*
X72757617Y-121138682D02*
G01*
X72757620Y-121138683D01*
X72757621Y-121138683D01*
X72870721Y-121172991D01*
X72974955Y-121228705D01*
X73066317Y-121303684D01*
X73141296Y-121395046D01*
X73197010Y-121499280D01*
X73231318Y-121612380D01*
X73231319Y-121612384D01*
X73240000Y-121700529D01*
X73240000Y-122559473D01*
X73231319Y-122647618D01*
X73231318Y-122647621D01*
X73231318Y-122647622D01*
X73197010Y-122760722D01*
X73141296Y-122864956D01*
X73066317Y-122956318D01*
X72974954Y-123031297D01*
X72870720Y-123087011D01*
X72757620Y-123121319D01*
X72757619Y-123121319D01*
X72757616Y-123121320D01*
X72640000Y-123132904D01*
X72522383Y-123121320D01*
X72522380Y-123121319D01*
X72522379Y-123121319D01*
X72409279Y-123087011D01*
X72305045Y-123031297D01*
X72213683Y-122956318D01*
X72138704Y-122864955D01*
X72082990Y-122760721D01*
X72048682Y-122647621D01*
X72048682Y-122647620D01*
X72048681Y-122647617D01*
X72040000Y-122559472D01*
X72040000Y-121700529D01*
X72048682Y-121612379D01*
X72082990Y-121499281D01*
X72108925Y-121450761D01*
X72138705Y-121395046D01*
X72213684Y-121303684D01*
X72305046Y-121228705D01*
X72409280Y-121172991D01*
X72522380Y-121138683D01*
X72522381Y-121138683D01*
X72522384Y-121138682D01*
X72640000Y-121127098D01*
X72757617Y-121138682D01*
G37*
G36*
X100697617Y-121138682D02*
G01*
X100697620Y-121138683D01*
X100697621Y-121138683D01*
X100810721Y-121172991D01*
X100914955Y-121228705D01*
X101006317Y-121303684D01*
X101081296Y-121395046D01*
X101137010Y-121499280D01*
X101171318Y-121612380D01*
X101171319Y-121612384D01*
X101180000Y-121700529D01*
X101180000Y-122559473D01*
X101171319Y-122647618D01*
X101171318Y-122647621D01*
X101171318Y-122647622D01*
X101137010Y-122760722D01*
X101081296Y-122864956D01*
X101006317Y-122956318D01*
X100914954Y-123031297D01*
X100810720Y-123087011D01*
X100697620Y-123121319D01*
X100697619Y-123121319D01*
X100697616Y-123121320D01*
X100580000Y-123132904D01*
X100462383Y-123121320D01*
X100462380Y-123121319D01*
X100462379Y-123121319D01*
X100349279Y-123087011D01*
X100245045Y-123031297D01*
X100153683Y-122956318D01*
X100078704Y-122864955D01*
X100022990Y-122760721D01*
X99988682Y-122647621D01*
X99988682Y-122647620D01*
X99988681Y-122647617D01*
X99980000Y-122559472D01*
X99980000Y-121700529D01*
X99988682Y-121612379D01*
X100022990Y-121499281D01*
X100048925Y-121450761D01*
X100078705Y-121395046D01*
X100153684Y-121303684D01*
X100245046Y-121228705D01*
X100349280Y-121172991D01*
X100462380Y-121138683D01*
X100462381Y-121138683D01*
X100462384Y-121138682D01*
X100580000Y-121127098D01*
X100697617Y-121138682D01*
G37*
G36*
X103237617Y-121138682D02*
G01*
X103237620Y-121138683D01*
X103237621Y-121138683D01*
X103350721Y-121172991D01*
X103454955Y-121228705D01*
X103546317Y-121303684D01*
X103621296Y-121395046D01*
X103677010Y-121499280D01*
X103711318Y-121612380D01*
X103711319Y-121612384D01*
X103720000Y-121700529D01*
X103720000Y-122559473D01*
X103711319Y-122647618D01*
X103711318Y-122647621D01*
X103711318Y-122647622D01*
X103677010Y-122760722D01*
X103621296Y-122864956D01*
X103546317Y-122956318D01*
X103454954Y-123031297D01*
X103350720Y-123087011D01*
X103237620Y-123121319D01*
X103237619Y-123121319D01*
X103237616Y-123121320D01*
X103120000Y-123132904D01*
X103002383Y-123121320D01*
X103002380Y-123121319D01*
X103002379Y-123121319D01*
X102889279Y-123087011D01*
X102785045Y-123031297D01*
X102693683Y-122956318D01*
X102618704Y-122864955D01*
X102562990Y-122760721D01*
X102528682Y-122647621D01*
X102528682Y-122647620D01*
X102528681Y-122647617D01*
X102520000Y-122559472D01*
X102520000Y-121700529D01*
X102528682Y-121612379D01*
X102562990Y-121499281D01*
X102588925Y-121450761D01*
X102618705Y-121395046D01*
X102693684Y-121303684D01*
X102785046Y-121228705D01*
X102889280Y-121172991D01*
X103002380Y-121138683D01*
X103002381Y-121138683D01*
X103002384Y-121138682D01*
X103120000Y-121127098D01*
X103237617Y-121138682D01*
G37*
G36*
X105777617Y-121138682D02*
G01*
X105777620Y-121138683D01*
X105777621Y-121138683D01*
X105890721Y-121172991D01*
X105994955Y-121228705D01*
X106086317Y-121303684D01*
X106161296Y-121395046D01*
X106217010Y-121499280D01*
X106251318Y-121612380D01*
X106251319Y-121612384D01*
X106260000Y-121700529D01*
X106260000Y-122559473D01*
X106251319Y-122647618D01*
X106251318Y-122647621D01*
X106251318Y-122647622D01*
X106217010Y-122760722D01*
X106161296Y-122864956D01*
X106086317Y-122956318D01*
X105994954Y-123031297D01*
X105890720Y-123087011D01*
X105777620Y-123121319D01*
X105777619Y-123121319D01*
X105777616Y-123121320D01*
X105660000Y-123132904D01*
X105542383Y-123121320D01*
X105542380Y-123121319D01*
X105542379Y-123121319D01*
X105429279Y-123087011D01*
X105325045Y-123031297D01*
X105233683Y-122956318D01*
X105158704Y-122864955D01*
X105102990Y-122760721D01*
X105068682Y-122647621D01*
X105068682Y-122647620D01*
X105068681Y-122647617D01*
X105060000Y-122559472D01*
X105060000Y-121700529D01*
X105068682Y-121612379D01*
X105102990Y-121499281D01*
X105128925Y-121450761D01*
X105158705Y-121395046D01*
X105233684Y-121303684D01*
X105325046Y-121228705D01*
X105429280Y-121172991D01*
X105542380Y-121138683D01*
X105542381Y-121138683D01*
X105542384Y-121138682D01*
X105660000Y-121127098D01*
X105777617Y-121138682D01*
G37*
G36*
X108317617Y-121138682D02*
G01*
X108317620Y-121138683D01*
X108317621Y-121138683D01*
X108430721Y-121172991D01*
X108534955Y-121228705D01*
X108626317Y-121303684D01*
X108701296Y-121395046D01*
X108757010Y-121499280D01*
X108791318Y-121612380D01*
X108791319Y-121612384D01*
X108800000Y-121700529D01*
X108800000Y-122559473D01*
X108791319Y-122647618D01*
X108791318Y-122647621D01*
X108791318Y-122647622D01*
X108757010Y-122760722D01*
X108701296Y-122864956D01*
X108626317Y-122956318D01*
X108534954Y-123031297D01*
X108430720Y-123087011D01*
X108317620Y-123121319D01*
X108317619Y-123121319D01*
X108317616Y-123121320D01*
X108200000Y-123132904D01*
X108082383Y-123121320D01*
X108082380Y-123121319D01*
X108082379Y-123121319D01*
X107969279Y-123087011D01*
X107865045Y-123031297D01*
X107773683Y-122956318D01*
X107698704Y-122864955D01*
X107642990Y-122760721D01*
X107608682Y-122647621D01*
X107608682Y-122647620D01*
X107608681Y-122647617D01*
X107600000Y-122559472D01*
X107600000Y-121700529D01*
X107608682Y-121612379D01*
X107642990Y-121499281D01*
X107668925Y-121450761D01*
X107698705Y-121395046D01*
X107773684Y-121303684D01*
X107865046Y-121228705D01*
X107969280Y-121172991D01*
X108082380Y-121138683D01*
X108082381Y-121138683D01*
X108082384Y-121138682D01*
X108200000Y-121127098D01*
X108317617Y-121138682D01*
G37*
G36*
X110857617Y-121138682D02*
G01*
X110857620Y-121138683D01*
X110857621Y-121138683D01*
X110970721Y-121172991D01*
X111074955Y-121228705D01*
X111166317Y-121303684D01*
X111241296Y-121395046D01*
X111297010Y-121499280D01*
X111331318Y-121612380D01*
X111331319Y-121612384D01*
X111340000Y-121700529D01*
X111340000Y-122559473D01*
X111331319Y-122647618D01*
X111331318Y-122647621D01*
X111331318Y-122647622D01*
X111297010Y-122760722D01*
X111241296Y-122864956D01*
X111166317Y-122956318D01*
X111074954Y-123031297D01*
X110970720Y-123087011D01*
X110857620Y-123121319D01*
X110857619Y-123121319D01*
X110857616Y-123121320D01*
X110740000Y-123132904D01*
X110622383Y-123121320D01*
X110622380Y-123121319D01*
X110622379Y-123121319D01*
X110509279Y-123087011D01*
X110405045Y-123031297D01*
X110313683Y-122956318D01*
X110238704Y-122864955D01*
X110182990Y-122760721D01*
X110148682Y-122647621D01*
X110148682Y-122647620D01*
X110148681Y-122647617D01*
X110140000Y-122559472D01*
X110140000Y-121700529D01*
X110148682Y-121612379D01*
X110182990Y-121499281D01*
X110208925Y-121450761D01*
X110238705Y-121395046D01*
X110313684Y-121303684D01*
X110405046Y-121228705D01*
X110509280Y-121172991D01*
X110622380Y-121138683D01*
X110622381Y-121138683D01*
X110622384Y-121138682D01*
X110740000Y-121127098D01*
X110857617Y-121138682D01*
G37*
G36*
X113397617Y-121138682D02*
G01*
X113397620Y-121138683D01*
X113397621Y-121138683D01*
X113510721Y-121172991D01*
X113614955Y-121228705D01*
X113706317Y-121303684D01*
X113781296Y-121395046D01*
X113837010Y-121499280D01*
X113871318Y-121612380D01*
X113871319Y-121612384D01*
X113880000Y-121700529D01*
X113880000Y-122559473D01*
X113871319Y-122647618D01*
X113871318Y-122647621D01*
X113871318Y-122647622D01*
X113837010Y-122760722D01*
X113781296Y-122864956D01*
X113706317Y-122956318D01*
X113614954Y-123031297D01*
X113510720Y-123087011D01*
X113397620Y-123121319D01*
X113397619Y-123121319D01*
X113397616Y-123121320D01*
X113280000Y-123132904D01*
X113162383Y-123121320D01*
X113162380Y-123121319D01*
X113162379Y-123121319D01*
X113049279Y-123087011D01*
X112945045Y-123031297D01*
X112853683Y-122956318D01*
X112778704Y-122864955D01*
X112722990Y-122760721D01*
X112688682Y-122647621D01*
X112688682Y-122647620D01*
X112688681Y-122647617D01*
X112680000Y-122559472D01*
X112680000Y-121700529D01*
X112688682Y-121612379D01*
X112722990Y-121499281D01*
X112748925Y-121450761D01*
X112778705Y-121395046D01*
X112853684Y-121303684D01*
X112945046Y-121228705D01*
X113049280Y-121172991D01*
X113162380Y-121138683D01*
X113162381Y-121138683D01*
X113162384Y-121138682D01*
X113280000Y-121127098D01*
X113397617Y-121138682D01*
G37*
G36*
X115937617Y-121138682D02*
G01*
X115937620Y-121138683D01*
X115937621Y-121138683D01*
X116050721Y-121172991D01*
X116154955Y-121228705D01*
X116246317Y-121303684D01*
X116321296Y-121395046D01*
X116377010Y-121499280D01*
X116411318Y-121612380D01*
X116411319Y-121612384D01*
X116420000Y-121700529D01*
X116420000Y-122559473D01*
X116411319Y-122647618D01*
X116411318Y-122647621D01*
X116411318Y-122647622D01*
X116377010Y-122760722D01*
X116321296Y-122864956D01*
X116246317Y-122956318D01*
X116154954Y-123031297D01*
X116050720Y-123087011D01*
X115937620Y-123121319D01*
X115937619Y-123121319D01*
X115937616Y-123121320D01*
X115820000Y-123132904D01*
X115702383Y-123121320D01*
X115702380Y-123121319D01*
X115702379Y-123121319D01*
X115589279Y-123087011D01*
X115485045Y-123031297D01*
X115393683Y-122956318D01*
X115318704Y-122864955D01*
X115262990Y-122760721D01*
X115228682Y-122647621D01*
X115228682Y-122647620D01*
X115228681Y-122647617D01*
X115220000Y-122559472D01*
X115220000Y-121700529D01*
X115228682Y-121612379D01*
X115262990Y-121499281D01*
X115288925Y-121450761D01*
X115318705Y-121395046D01*
X115393684Y-121303684D01*
X115485046Y-121228705D01*
X115589280Y-121172991D01*
X115702380Y-121138683D01*
X115702381Y-121138683D01*
X115702384Y-121138682D01*
X115820000Y-121127098D01*
X115937617Y-121138682D01*
G37*
G36*
X118477617Y-121138682D02*
G01*
X118477620Y-121138683D01*
X118477621Y-121138683D01*
X118590721Y-121172991D01*
X118694955Y-121228705D01*
X118786317Y-121303684D01*
X118861296Y-121395046D01*
X118917010Y-121499280D01*
X118951318Y-121612380D01*
X118951319Y-121612384D01*
X118960000Y-121700529D01*
X118960000Y-122559473D01*
X118951319Y-122647618D01*
X118951318Y-122647621D01*
X118951318Y-122647622D01*
X118917010Y-122760722D01*
X118861296Y-122864956D01*
X118786317Y-122956318D01*
X118694954Y-123031297D01*
X118590720Y-123087011D01*
X118477620Y-123121319D01*
X118477619Y-123121319D01*
X118477616Y-123121320D01*
X118360000Y-123132904D01*
X118242383Y-123121320D01*
X118242380Y-123121319D01*
X118242379Y-123121319D01*
X118129279Y-123087011D01*
X118025045Y-123031297D01*
X117933683Y-122956318D01*
X117858704Y-122864955D01*
X117802990Y-122760721D01*
X117768682Y-122647621D01*
X117768682Y-122647620D01*
X117768681Y-122647617D01*
X117760000Y-122559472D01*
X117760000Y-121700529D01*
X117768682Y-121612379D01*
X117802990Y-121499281D01*
X117828925Y-121450761D01*
X117858705Y-121395046D01*
X117933684Y-121303684D01*
X118025046Y-121228705D01*
X118129280Y-121172991D01*
X118242380Y-121138683D01*
X118242381Y-121138683D01*
X118242384Y-121138682D01*
X118360000Y-121127098D01*
X118477617Y-121138682D01*
G37*
G36*
X80377617Y-121138682D02*
G01*
X80377620Y-121138683D01*
X80377621Y-121138683D01*
X80490721Y-121172991D01*
X80594955Y-121228705D01*
X80686317Y-121303684D01*
X80761296Y-121395046D01*
X80817010Y-121499280D01*
X80851318Y-121612380D01*
X80851319Y-121612384D01*
X80860000Y-121700529D01*
X80860000Y-122559473D01*
X80851319Y-122647618D01*
X80851318Y-122647621D01*
X80851318Y-122647622D01*
X80817010Y-122760722D01*
X80761296Y-122864956D01*
X80686317Y-122956318D01*
X80594954Y-123031297D01*
X80490720Y-123087011D01*
X80377620Y-123121319D01*
X80377619Y-123121319D01*
X80377616Y-123121320D01*
X80260000Y-123132904D01*
X80142383Y-123121320D01*
X80142380Y-123121319D01*
X80142379Y-123121319D01*
X80029279Y-123087011D01*
X79925045Y-123031297D01*
X79833683Y-122956318D01*
X79758704Y-122864955D01*
X79702990Y-122760721D01*
X79668682Y-122647621D01*
X79668682Y-122647620D01*
X79668681Y-122647617D01*
X79660000Y-122559472D01*
X79660000Y-121700529D01*
X79668682Y-121612379D01*
X79702990Y-121499281D01*
X79728925Y-121450761D01*
X79758705Y-121395046D01*
X79833684Y-121303684D01*
X79925046Y-121228705D01*
X80029280Y-121172991D01*
X80142380Y-121138683D01*
X80142381Y-121138683D01*
X80142384Y-121138682D01*
X80260000Y-121127098D01*
X80377617Y-121138682D01*
G37*
G36*
X95617617Y-121138682D02*
G01*
X95617620Y-121138683D01*
X95617621Y-121138683D01*
X95730721Y-121172991D01*
X95834955Y-121228705D01*
X95926317Y-121303684D01*
X96001296Y-121395046D01*
X96057010Y-121499280D01*
X96091318Y-121612380D01*
X96091319Y-121612384D01*
X96100000Y-121700529D01*
X96100000Y-122559473D01*
X96091319Y-122647618D01*
X96091318Y-122647621D01*
X96091318Y-122647622D01*
X96057010Y-122760722D01*
X96001296Y-122864956D01*
X95926317Y-122956318D01*
X95834954Y-123031297D01*
X95730720Y-123087011D01*
X95617620Y-123121319D01*
X95617619Y-123121319D01*
X95617616Y-123121320D01*
X95500000Y-123132904D01*
X95382383Y-123121320D01*
X95382380Y-123121319D01*
X95382379Y-123121319D01*
X95269279Y-123087011D01*
X95165045Y-123031297D01*
X95073683Y-122956318D01*
X94998704Y-122864955D01*
X94942990Y-122760721D01*
X94908682Y-122647621D01*
X94908682Y-122647620D01*
X94908681Y-122647617D01*
X94900000Y-122559472D01*
X94900000Y-121700529D01*
X94908682Y-121612379D01*
X94942990Y-121499281D01*
X94968925Y-121450761D01*
X94998705Y-121395046D01*
X95073684Y-121303684D01*
X95165046Y-121228705D01*
X95269280Y-121172991D01*
X95382380Y-121138683D01*
X95382381Y-121138683D01*
X95382384Y-121138682D01*
X95500000Y-121127098D01*
X95617617Y-121138682D01*
G37*
G36*
X126384122Y-105157761D02*
G01*
X126482267Y-105177283D01*
X126620942Y-105234724D01*
X126620944Y-105234725D01*
X126683344Y-105276420D01*
X126745747Y-105318116D01*
X126851884Y-105424253D01*
X126935276Y-105549058D01*
X126992717Y-105687733D01*
X127022000Y-105834950D01*
X127022000Y-105985050D01*
X126992717Y-106132267D01*
X126935276Y-106270942D01*
X126851884Y-106395747D01*
X126745747Y-106501884D01*
X126683345Y-106543580D01*
X126620944Y-106585275D01*
X126620943Y-106585276D01*
X126620942Y-106585276D01*
X126482267Y-106642717D01*
X126384122Y-106662239D01*
X126335051Y-106672000D01*
X126184949Y-106672000D01*
X126135878Y-106662239D01*
X126037733Y-106642717D01*
X125899058Y-106585276D01*
X125899057Y-106585276D01*
X125899056Y-106585275D01*
X125836655Y-106543580D01*
X125774253Y-106501884D01*
X125668116Y-106395747D01*
X125584724Y-106270942D01*
X125527283Y-106132267D01*
X125498000Y-105985050D01*
X125498000Y-105834950D01*
X125527283Y-105687733D01*
X125584724Y-105549058D01*
X125668116Y-105424253D01*
X125774253Y-105318116D01*
X125836655Y-105276420D01*
X125899056Y-105234725D01*
X125899058Y-105234724D01*
X126037733Y-105177283D01*
X126135878Y-105157761D01*
X126184949Y-105148000D01*
X126335051Y-105148000D01*
X126384122Y-105157761D01*
G37*
G36*
X111144122Y-105157761D02*
G01*
X111242267Y-105177283D01*
X111380942Y-105234724D01*
X111380944Y-105234725D01*
X111443344Y-105276420D01*
X111505747Y-105318116D01*
X111611884Y-105424253D01*
X111695276Y-105549058D01*
X111752717Y-105687733D01*
X111782000Y-105834950D01*
X111782000Y-105985050D01*
X111752717Y-106132267D01*
X111695276Y-106270942D01*
X111611884Y-106395747D01*
X111505747Y-106501884D01*
X111443345Y-106543580D01*
X111380944Y-106585275D01*
X111380943Y-106585276D01*
X111380942Y-106585276D01*
X111242267Y-106642717D01*
X111144122Y-106662239D01*
X111095051Y-106672000D01*
X110944949Y-106672000D01*
X110895878Y-106662239D01*
X110797733Y-106642717D01*
X110659058Y-106585276D01*
X110659057Y-106585276D01*
X110659056Y-106585275D01*
X110596655Y-106543580D01*
X110534253Y-106501884D01*
X110428116Y-106395747D01*
X110344724Y-106270942D01*
X110287283Y-106132267D01*
X110258000Y-105985050D01*
X110258000Y-105834950D01*
X110287283Y-105687733D01*
X110344724Y-105549058D01*
X110428116Y-105424253D01*
X110534253Y-105318116D01*
X110596656Y-105276420D01*
X110659056Y-105234725D01*
X110659058Y-105234724D01*
X110797733Y-105177283D01*
X110895878Y-105157761D01*
X110944949Y-105148000D01*
X111095051Y-105148000D01*
X111144122Y-105157761D01*
G37*
G36*
X68250000Y-104350000D02*
G01*
X66550000Y-104350000D01*
X66550000Y-102650000D01*
X68250000Y-102650000D01*
X68250000Y-104350000D01*
G37*
G36*
X126384122Y-102617761D02*
G01*
X126482267Y-102637283D01*
X126620942Y-102694724D01*
X126620944Y-102694725D01*
X126683345Y-102736420D01*
X126745747Y-102778116D01*
X126851884Y-102884253D01*
X126935276Y-103009058D01*
X126992717Y-103147733D01*
X127022000Y-103294950D01*
X127022000Y-103445050D01*
X126992717Y-103592267D01*
X126935276Y-103730942D01*
X126851884Y-103855747D01*
X126745747Y-103961884D01*
X126683345Y-104003580D01*
X126620944Y-104045275D01*
X126620943Y-104045276D01*
X126620942Y-104045276D01*
X126482267Y-104102717D01*
X126384122Y-104122239D01*
X126335051Y-104132000D01*
X126184949Y-104132000D01*
X126135878Y-104122239D01*
X126037733Y-104102717D01*
X125899058Y-104045276D01*
X125899057Y-104045276D01*
X125899056Y-104045275D01*
X125836655Y-104003580D01*
X125774253Y-103961884D01*
X125668116Y-103855747D01*
X125584724Y-103730942D01*
X125527283Y-103592267D01*
X125498000Y-103445050D01*
X125498000Y-103294950D01*
X125527283Y-103147733D01*
X125584724Y-103009058D01*
X125668116Y-102884253D01*
X125774253Y-102778116D01*
X125836655Y-102736420D01*
X125899056Y-102694725D01*
X125899058Y-102694724D01*
X126037733Y-102637283D01*
X126135878Y-102617761D01*
X126184949Y-102608000D01*
X126335051Y-102608000D01*
X126384122Y-102617761D01*
G37*
G36*
X111144122Y-102617761D02*
G01*
X111242267Y-102637283D01*
X111380942Y-102694724D01*
X111380944Y-102694725D01*
X111443345Y-102736420D01*
X111505747Y-102778116D01*
X111611884Y-102884253D01*
X111695276Y-103009058D01*
X111752717Y-103147733D01*
X111782000Y-103294950D01*
X111782000Y-103445050D01*
X111752717Y-103592267D01*
X111695276Y-103730942D01*
X111611884Y-103855747D01*
X111505747Y-103961884D01*
X111443345Y-104003580D01*
X111380944Y-104045275D01*
X111380943Y-104045276D01*
X111380942Y-104045276D01*
X111242267Y-104102717D01*
X111144122Y-104122239D01*
X111095051Y-104132000D01*
X110944949Y-104132000D01*
X110895878Y-104122239D01*
X110797733Y-104102717D01*
X110659058Y-104045276D01*
X110659057Y-104045276D01*
X110659056Y-104045275D01*
X110596655Y-104003580D01*
X110534253Y-103961884D01*
X110428116Y-103855747D01*
X110344724Y-103730942D01*
X110287283Y-103592267D01*
X110258000Y-103445050D01*
X110258000Y-103294950D01*
X110287283Y-103147733D01*
X110344724Y-103009058D01*
X110428116Y-102884253D01*
X110534253Y-102778116D01*
X110596655Y-102736420D01*
X110659056Y-102694725D01*
X110659058Y-102694724D01*
X110797733Y-102637283D01*
X110895878Y-102617761D01*
X110944949Y-102608000D01*
X111095051Y-102608000D01*
X111144122Y-102617761D01*
G37*
G36*
X67647936Y-100142665D02*
G01*
X67802626Y-100206739D01*
X67849584Y-100238116D01*
X67941844Y-100299762D01*
X68060238Y-100418156D01*
X68094248Y-100469056D01*
X68153261Y-100557374D01*
X68217335Y-100712064D01*
X68250000Y-100876282D01*
X68250000Y-101043718D01*
X68217335Y-101207936D01*
X68153261Y-101362626D01*
X68113665Y-101421884D01*
X68060238Y-101501844D01*
X67941844Y-101620238D01*
X67872076Y-101666855D01*
X67802626Y-101713261D01*
X67647936Y-101777335D01*
X67483718Y-101810000D01*
X67316282Y-101810000D01*
X67152064Y-101777335D01*
X66997374Y-101713261D01*
X66927924Y-101666855D01*
X66858156Y-101620238D01*
X66739762Y-101501844D01*
X66686335Y-101421884D01*
X66646739Y-101362626D01*
X66582665Y-101207936D01*
X66550000Y-101043718D01*
X66550000Y-100876282D01*
X66582665Y-100712064D01*
X66646739Y-100557374D01*
X66705752Y-100469056D01*
X66739762Y-100418156D01*
X66858156Y-100299762D01*
X66950416Y-100238116D01*
X66997374Y-100206739D01*
X67152064Y-100142665D01*
X67316282Y-100110000D01*
X67483718Y-100110000D01*
X67647936Y-100142665D01*
G37*
G36*
X111144122Y-100077761D02*
G01*
X111242267Y-100097283D01*
X111380942Y-100154724D01*
X111380944Y-100154725D01*
X111443345Y-100196420D01*
X111505747Y-100238116D01*
X111611884Y-100344253D01*
X111695276Y-100469058D01*
X111752717Y-100607733D01*
X111782000Y-100754950D01*
X111782000Y-100905050D01*
X111752717Y-101052267D01*
X111695276Y-101190942D01*
X111611884Y-101315747D01*
X111505747Y-101421884D01*
X111443345Y-101463580D01*
X111380944Y-101505275D01*
X111380943Y-101505276D01*
X111380942Y-101505276D01*
X111242267Y-101562717D01*
X111144122Y-101582239D01*
X111095051Y-101592000D01*
X110944949Y-101592000D01*
X110895878Y-101582239D01*
X110797733Y-101562717D01*
X110659058Y-101505276D01*
X110659057Y-101505276D01*
X110659056Y-101505275D01*
X110596655Y-101463580D01*
X110534253Y-101421884D01*
X110428116Y-101315747D01*
X110344724Y-101190942D01*
X110287283Y-101052267D01*
X110258000Y-100905050D01*
X110258000Y-100754950D01*
X110287283Y-100607733D01*
X110344724Y-100469058D01*
X110428116Y-100344253D01*
X110534253Y-100238116D01*
X110596655Y-100196420D01*
X110659056Y-100154725D01*
X110659058Y-100154724D01*
X110797733Y-100097283D01*
X110895878Y-100077761D01*
X110944949Y-100068000D01*
X111095051Y-100068000D01*
X111144122Y-100077761D01*
G37*
G36*
X126384122Y-100077761D02*
G01*
X126482267Y-100097283D01*
X126620942Y-100154724D01*
X126620944Y-100154725D01*
X126683345Y-100196420D01*
X126745747Y-100238116D01*
X126851884Y-100344253D01*
X126935276Y-100469058D01*
X126992717Y-100607733D01*
X127022000Y-100754950D01*
X127022000Y-100905050D01*
X126992717Y-101052267D01*
X126935276Y-101190942D01*
X126851884Y-101315747D01*
X126745747Y-101421884D01*
X126683344Y-101463580D01*
X126620944Y-101505275D01*
X126620943Y-101505276D01*
X126620942Y-101505276D01*
X126482267Y-101562717D01*
X126384122Y-101582239D01*
X126335051Y-101592000D01*
X126184949Y-101592000D01*
X126135878Y-101582239D01*
X126037733Y-101562717D01*
X125899058Y-101505276D01*
X125899057Y-101505276D01*
X125899056Y-101505275D01*
X125836655Y-101463580D01*
X125774253Y-101421884D01*
X125668116Y-101315747D01*
X125584724Y-101190942D01*
X125527283Y-101052267D01*
X125498000Y-100905050D01*
X125498000Y-100754950D01*
X125527283Y-100607733D01*
X125584724Y-100469058D01*
X125668116Y-100344253D01*
X125774253Y-100238116D01*
X125836656Y-100196420D01*
X125899056Y-100154725D01*
X125899058Y-100154724D01*
X126037733Y-100097283D01*
X126135878Y-100077761D01*
X126184949Y-100068000D01*
X126335051Y-100068000D01*
X126384122Y-100077761D01*
G37*
G36*
X67647936Y-97602665D02*
G01*
X67802626Y-97666739D01*
X67849584Y-97698116D01*
X67941844Y-97759762D01*
X68060238Y-97878156D01*
X68099014Y-97936189D01*
X68153261Y-98017374D01*
X68217335Y-98172064D01*
X68250000Y-98336282D01*
X68250000Y-98503718D01*
X68217335Y-98667936D01*
X68153261Y-98822626D01*
X68113665Y-98881884D01*
X68060238Y-98961844D01*
X67941844Y-99080238D01*
X67872076Y-99126855D01*
X67802626Y-99173261D01*
X67647936Y-99237335D01*
X67483718Y-99270000D01*
X67316282Y-99270000D01*
X67152064Y-99237335D01*
X66997374Y-99173261D01*
X66927924Y-99126855D01*
X66858156Y-99080238D01*
X66739762Y-98961844D01*
X66686335Y-98881884D01*
X66646739Y-98822626D01*
X66582665Y-98667936D01*
X66550000Y-98503718D01*
X66550000Y-98336282D01*
X66582665Y-98172064D01*
X66646739Y-98017374D01*
X66700986Y-97936189D01*
X66739762Y-97878156D01*
X66858156Y-97759762D01*
X66950416Y-97698116D01*
X66997374Y-97666739D01*
X67152064Y-97602665D01*
X67316282Y-97570000D01*
X67483718Y-97570000D01*
X67647936Y-97602665D01*
G37*
G36*
X111144122Y-97537761D02*
G01*
X111242267Y-97557283D01*
X111380942Y-97614724D01*
X111380944Y-97614725D01*
X111443345Y-97656420D01*
X111505747Y-97698116D01*
X111611884Y-97804253D01*
X111695276Y-97929058D01*
X111752717Y-98067733D01*
X111782000Y-98214950D01*
X111782000Y-98365050D01*
X111752717Y-98512267D01*
X111695276Y-98650942D01*
X111611884Y-98775747D01*
X111505747Y-98881884D01*
X111443344Y-98923580D01*
X111380944Y-98965275D01*
X111380943Y-98965276D01*
X111380942Y-98965276D01*
X111242267Y-99022717D01*
X111144122Y-99042239D01*
X111095051Y-99052000D01*
X110944949Y-99052000D01*
X110895878Y-99042239D01*
X110797733Y-99022717D01*
X110659058Y-98965276D01*
X110659057Y-98965276D01*
X110659056Y-98965275D01*
X110596656Y-98923580D01*
X110534253Y-98881884D01*
X110428116Y-98775747D01*
X110344724Y-98650942D01*
X110287283Y-98512267D01*
X110258000Y-98365050D01*
X110258000Y-98214950D01*
X110287283Y-98067733D01*
X110344724Y-97929058D01*
X110428116Y-97804253D01*
X110534253Y-97698116D01*
X110596655Y-97656420D01*
X110659056Y-97614725D01*
X110659058Y-97614724D01*
X110797733Y-97557283D01*
X110895878Y-97537761D01*
X110944949Y-97528000D01*
X111095051Y-97528000D01*
X111144122Y-97537761D01*
G37*
G36*
X126384122Y-97537761D02*
G01*
X126482267Y-97557283D01*
X126620942Y-97614724D01*
X126620944Y-97614725D01*
X126683345Y-97656420D01*
X126745747Y-97698116D01*
X126851884Y-97804253D01*
X126935276Y-97929058D01*
X126992717Y-98067733D01*
X127022000Y-98214950D01*
X127022000Y-98365050D01*
X126992717Y-98512267D01*
X126935276Y-98650942D01*
X126851884Y-98775747D01*
X126745747Y-98881884D01*
X126683344Y-98923580D01*
X126620944Y-98965275D01*
X126620943Y-98965276D01*
X126620942Y-98965276D01*
X126482267Y-99022717D01*
X126384122Y-99042239D01*
X126335051Y-99052000D01*
X126184949Y-99052000D01*
X126135878Y-99042239D01*
X126037733Y-99022717D01*
X125899058Y-98965276D01*
X125899057Y-98965276D01*
X125899056Y-98965275D01*
X125836656Y-98923580D01*
X125774253Y-98881884D01*
X125668116Y-98775747D01*
X125584724Y-98650942D01*
X125527283Y-98512267D01*
X125498000Y-98365050D01*
X125498000Y-98214950D01*
X125527283Y-98067733D01*
X125584724Y-97929058D01*
X125668116Y-97804253D01*
X125774253Y-97698116D01*
X125836655Y-97656420D01*
X125899056Y-97614725D01*
X125899058Y-97614724D01*
X126037733Y-97557283D01*
X126135878Y-97537761D01*
X126184949Y-97528000D01*
X126335051Y-97528000D01*
X126384122Y-97537761D01*
G37*
G36*
X153945090Y-96069214D02*
G01*
X154041689Y-96088429D01*
X154223678Y-96163811D01*
X154387463Y-96273249D01*
X154526751Y-96412537D01*
X154636189Y-96576322D01*
X154711571Y-96758311D01*
X154750000Y-96951509D01*
X154750000Y-97148491D01*
X154711571Y-97341689D01*
X154636189Y-97523678D01*
X154526751Y-97687463D01*
X154387463Y-97826751D01*
X154223678Y-97936189D01*
X154041689Y-98011571D01*
X153945090Y-98030785D01*
X153848493Y-98050000D01*
X153651507Y-98050000D01*
X153554910Y-98030785D01*
X153458311Y-98011571D01*
X153276322Y-97936189D01*
X153112537Y-97826751D01*
X152973249Y-97687463D01*
X152863811Y-97523678D01*
X152788429Y-97341689D01*
X152750000Y-97148491D01*
X152750000Y-96951509D01*
X152788429Y-96758311D01*
X152863811Y-96576322D01*
X152973249Y-96412537D01*
X153112537Y-96273249D01*
X153276322Y-96163811D01*
X153458311Y-96088429D01*
X153554910Y-96069214D01*
X153651507Y-96050000D01*
X153848493Y-96050000D01*
X153945090Y-96069214D01*
G37*
G36*
X158945090Y-96069214D02*
G01*
X159041689Y-96088429D01*
X159223678Y-96163811D01*
X159387463Y-96273249D01*
X159526751Y-96412537D01*
X159636189Y-96576322D01*
X159711571Y-96758311D01*
X159750000Y-96951509D01*
X159750000Y-97148491D01*
X159711571Y-97341689D01*
X159636189Y-97523678D01*
X159526751Y-97687463D01*
X159387463Y-97826751D01*
X159223678Y-97936189D01*
X159041689Y-98011571D01*
X158945090Y-98030785D01*
X158848493Y-98050000D01*
X158651507Y-98050000D01*
X158554910Y-98030785D01*
X158458311Y-98011571D01*
X158276322Y-97936189D01*
X158112537Y-97826751D01*
X157973249Y-97687463D01*
X157863811Y-97523678D01*
X157788429Y-97341689D01*
X157750000Y-97148491D01*
X157750000Y-96951509D01*
X157788429Y-96758311D01*
X157863811Y-96576322D01*
X157973249Y-96412537D01*
X158112537Y-96273249D01*
X158276322Y-96163811D01*
X158458311Y-96088429D01*
X158554910Y-96069214D01*
X158651507Y-96050000D01*
X158848493Y-96050000D01*
X158945090Y-96069214D01*
G37*
G36*
X67647936Y-95062665D02*
G01*
X67802626Y-95126739D01*
X67849584Y-95158116D01*
X67941844Y-95219762D01*
X68060238Y-95338156D01*
X68094248Y-95389056D01*
X68153261Y-95477374D01*
X68217335Y-95632064D01*
X68250000Y-95796282D01*
X68250000Y-95963718D01*
X68217335Y-96127936D01*
X68153261Y-96282626D01*
X68113665Y-96341884D01*
X68060238Y-96421844D01*
X67941844Y-96540238D01*
X67887840Y-96576322D01*
X67802626Y-96633261D01*
X67647936Y-96697335D01*
X67483718Y-96730000D01*
X67316282Y-96730000D01*
X67152064Y-96697335D01*
X66997374Y-96633261D01*
X66912160Y-96576322D01*
X66858156Y-96540238D01*
X66739762Y-96421844D01*
X66686335Y-96341884D01*
X66646739Y-96282626D01*
X66582665Y-96127936D01*
X66550000Y-95963718D01*
X66550000Y-95796282D01*
X66582665Y-95632064D01*
X66646739Y-95477374D01*
X66705752Y-95389056D01*
X66739762Y-95338156D01*
X66858156Y-95219762D01*
X66950416Y-95158116D01*
X66997374Y-95126739D01*
X67152064Y-95062665D01*
X67316282Y-95030000D01*
X67483718Y-95030000D01*
X67647936Y-95062665D01*
G37*
G36*
X126384122Y-94997761D02*
G01*
X126482267Y-95017283D01*
X126620942Y-95074724D01*
X126620944Y-95074725D01*
X126683344Y-95116420D01*
X126745747Y-95158116D01*
X126851884Y-95264253D01*
X126935276Y-95389058D01*
X126992717Y-95527733D01*
X127022000Y-95674950D01*
X127022000Y-95825050D01*
X126992717Y-95972267D01*
X126935276Y-96110942D01*
X126851884Y-96235747D01*
X126745747Y-96341884D01*
X126683345Y-96383580D01*
X126620944Y-96425275D01*
X126620943Y-96425276D01*
X126620942Y-96425276D01*
X126482267Y-96482717D01*
X126384122Y-96502239D01*
X126335051Y-96512000D01*
X126184949Y-96512000D01*
X126135878Y-96502239D01*
X126037733Y-96482717D01*
X125899058Y-96425276D01*
X125899057Y-96425276D01*
X125899056Y-96425275D01*
X125836656Y-96383580D01*
X125774253Y-96341884D01*
X125668116Y-96235747D01*
X125584724Y-96110942D01*
X125527283Y-95972267D01*
X125498000Y-95825050D01*
X125498000Y-95674950D01*
X125527283Y-95527733D01*
X125584724Y-95389058D01*
X125668116Y-95264253D01*
X125774253Y-95158116D01*
X125836656Y-95116420D01*
X125899056Y-95074725D01*
X125899058Y-95074724D01*
X126037733Y-95017283D01*
X126135878Y-94997761D01*
X126184949Y-94988000D01*
X126335051Y-94988000D01*
X126384122Y-94997761D01*
G37*
G36*
X111144122Y-94997761D02*
G01*
X111242267Y-95017283D01*
X111380942Y-95074724D01*
X111380944Y-95074725D01*
X111443344Y-95116420D01*
X111505747Y-95158116D01*
X111611884Y-95264253D01*
X111695276Y-95389058D01*
X111752717Y-95527733D01*
X111782000Y-95674950D01*
X111782000Y-95825050D01*
X111752717Y-95972267D01*
X111695276Y-96110942D01*
X111611884Y-96235747D01*
X111505747Y-96341884D01*
X111443344Y-96383580D01*
X111380944Y-96425275D01*
X111380943Y-96425276D01*
X111380942Y-96425276D01*
X111242267Y-96482717D01*
X111144122Y-96502239D01*
X111095051Y-96512000D01*
X110944949Y-96512000D01*
X110895878Y-96502239D01*
X110797733Y-96482717D01*
X110659058Y-96425276D01*
X110659057Y-96425276D01*
X110659056Y-96425275D01*
X110596656Y-96383580D01*
X110534253Y-96341884D01*
X110428116Y-96235747D01*
X110344724Y-96110942D01*
X110287283Y-95972267D01*
X110258000Y-95825050D01*
X110258000Y-95674950D01*
X110287283Y-95527733D01*
X110344724Y-95389058D01*
X110428116Y-95264253D01*
X110534253Y-95158116D01*
X110596656Y-95116420D01*
X110659056Y-95074725D01*
X110659058Y-95074724D01*
X110797733Y-95017283D01*
X110895878Y-94997761D01*
X110944949Y-94988000D01*
X111095051Y-94988000D01*
X111144122Y-94997761D01*
G37*
G36*
X67647936Y-92522665D02*
G01*
X67802626Y-92586739D01*
X67849584Y-92618116D01*
X67941844Y-92679762D01*
X68060238Y-92798156D01*
X68094248Y-92849056D01*
X68153261Y-92937374D01*
X68217335Y-93092064D01*
X68250000Y-93256282D01*
X68250000Y-93423718D01*
X68217335Y-93587936D01*
X68153261Y-93742626D01*
X68113665Y-93801884D01*
X68060238Y-93881844D01*
X67941844Y-94000238D01*
X67872076Y-94046855D01*
X67802626Y-94093261D01*
X67647936Y-94157335D01*
X67483718Y-94190000D01*
X67316282Y-94190000D01*
X67152064Y-94157335D01*
X66997374Y-94093261D01*
X66927924Y-94046855D01*
X66858156Y-94000238D01*
X66739762Y-93881844D01*
X66686335Y-93801884D01*
X66646739Y-93742626D01*
X66582665Y-93587936D01*
X66550000Y-93423718D01*
X66550000Y-93256282D01*
X66582665Y-93092064D01*
X66646739Y-92937374D01*
X66705752Y-92849056D01*
X66739762Y-92798156D01*
X66858156Y-92679762D01*
X66950416Y-92618116D01*
X66997374Y-92586739D01*
X67152064Y-92522665D01*
X67316282Y-92490000D01*
X67483718Y-92490000D01*
X67647936Y-92522665D01*
G37*
G36*
X111144122Y-92457761D02*
G01*
X111242267Y-92477283D01*
X111380942Y-92534724D01*
X111380944Y-92534725D01*
X111443344Y-92576420D01*
X111505747Y-92618116D01*
X111611884Y-92724253D01*
X111695276Y-92849058D01*
X111752717Y-92987733D01*
X111782000Y-93134950D01*
X111782000Y-93285050D01*
X111752717Y-93432267D01*
X111695276Y-93570942D01*
X111611884Y-93695747D01*
X111505747Y-93801884D01*
X111443345Y-93843580D01*
X111380944Y-93885275D01*
X111380943Y-93885276D01*
X111380942Y-93885276D01*
X111242267Y-93942717D01*
X111144122Y-93962239D01*
X111095051Y-93972000D01*
X110944949Y-93972000D01*
X110895878Y-93962239D01*
X110797733Y-93942717D01*
X110659058Y-93885276D01*
X110659057Y-93885276D01*
X110659056Y-93885275D01*
X110596655Y-93843580D01*
X110534253Y-93801884D01*
X110428116Y-93695747D01*
X110344724Y-93570942D01*
X110287283Y-93432267D01*
X110258000Y-93285050D01*
X110258000Y-93134950D01*
X110287283Y-92987733D01*
X110344724Y-92849058D01*
X110428116Y-92724253D01*
X110534253Y-92618116D01*
X110596656Y-92576420D01*
X110659056Y-92534725D01*
X110659058Y-92534724D01*
X110797733Y-92477283D01*
X110895878Y-92457761D01*
X110944949Y-92448000D01*
X111095051Y-92448000D01*
X111144122Y-92457761D01*
G37*
G36*
X126384122Y-92457761D02*
G01*
X126482267Y-92477283D01*
X126620942Y-92534724D01*
X126620944Y-92534725D01*
X126683344Y-92576420D01*
X126745747Y-92618116D01*
X126851884Y-92724253D01*
X126935276Y-92849058D01*
X126992717Y-92987733D01*
X127022000Y-93134950D01*
X127022000Y-93285050D01*
X126992717Y-93432267D01*
X126935276Y-93570942D01*
X126851884Y-93695747D01*
X126745747Y-93801884D01*
X126683345Y-93843580D01*
X126620944Y-93885275D01*
X126620943Y-93885276D01*
X126620942Y-93885276D01*
X126482267Y-93942717D01*
X126384122Y-93962239D01*
X126335051Y-93972000D01*
X126184949Y-93972000D01*
X126135878Y-93962239D01*
X126037733Y-93942717D01*
X125899058Y-93885276D01*
X125899057Y-93885276D01*
X125899056Y-93885275D01*
X125836655Y-93843580D01*
X125774253Y-93801884D01*
X125668116Y-93695747D01*
X125584724Y-93570942D01*
X125527283Y-93432267D01*
X125498000Y-93285050D01*
X125498000Y-93134950D01*
X125527283Y-92987733D01*
X125584724Y-92849058D01*
X125668116Y-92724253D01*
X125774253Y-92618116D01*
X125836656Y-92576420D01*
X125899056Y-92534725D01*
X125899058Y-92534724D01*
X126037733Y-92477283D01*
X126135878Y-92457761D01*
X126184949Y-92448000D01*
X126335051Y-92448000D01*
X126384122Y-92457761D01*
G37*
G36*
X162850000Y-91650000D02*
G01*
X160850000Y-91650000D01*
X160850000Y-88450000D01*
X162850000Y-88450000D01*
X162850000Y-91650000D01*
G37*
G36*
X151650000Y-91650000D02*
G01*
X149650000Y-91650000D01*
X149650000Y-88450000D01*
X151650000Y-88450000D01*
X151650000Y-91650000D01*
G37*
G36*
X67647936Y-89982665D02*
G01*
X67802626Y-90046739D01*
X67849584Y-90078116D01*
X67941844Y-90139762D01*
X68060238Y-90258156D01*
X68094248Y-90309056D01*
X68153261Y-90397374D01*
X68217335Y-90552064D01*
X68250000Y-90716282D01*
X68250000Y-90883718D01*
X68217335Y-91047936D01*
X68153261Y-91202626D01*
X68113665Y-91261884D01*
X68060238Y-91341844D01*
X67941844Y-91460238D01*
X67872076Y-91506855D01*
X67802626Y-91553261D01*
X67647936Y-91617335D01*
X67483718Y-91650000D01*
X67316282Y-91650000D01*
X67152064Y-91617335D01*
X66997374Y-91553261D01*
X66927924Y-91506855D01*
X66858156Y-91460238D01*
X66739762Y-91341844D01*
X66686335Y-91261884D01*
X66646739Y-91202626D01*
X66582665Y-91047936D01*
X66550000Y-90883718D01*
X66550000Y-90716282D01*
X66582665Y-90552064D01*
X66646739Y-90397374D01*
X66705752Y-90309056D01*
X66739762Y-90258156D01*
X66858156Y-90139762D01*
X66950416Y-90078116D01*
X66997374Y-90046739D01*
X67152064Y-89982665D01*
X67316282Y-89950000D01*
X67483718Y-89950000D01*
X67647936Y-89982665D01*
G37*
G36*
X126384122Y-89917761D02*
G01*
X126482267Y-89937283D01*
X126620942Y-89994724D01*
X126620944Y-89994725D01*
X126683344Y-90036420D01*
X126745747Y-90078116D01*
X126851884Y-90184253D01*
X126935276Y-90309058D01*
X126992717Y-90447733D01*
X127022000Y-90594950D01*
X127022000Y-90745050D01*
X126992717Y-90892267D01*
X126935276Y-91030942D01*
X126851884Y-91155747D01*
X126745747Y-91261884D01*
X126683344Y-91303580D01*
X126620944Y-91345275D01*
X126620943Y-91345276D01*
X126620942Y-91345276D01*
X126482267Y-91402717D01*
X126384122Y-91422239D01*
X126335051Y-91432000D01*
X126184949Y-91432000D01*
X126135878Y-91422239D01*
X126037733Y-91402717D01*
X125899058Y-91345276D01*
X125899057Y-91345276D01*
X125899056Y-91345275D01*
X125836656Y-91303580D01*
X125774253Y-91261884D01*
X125668116Y-91155747D01*
X125584724Y-91030942D01*
X125527283Y-90892267D01*
X125498000Y-90745050D01*
X125498000Y-90594950D01*
X125527283Y-90447733D01*
X125584724Y-90309058D01*
X125668116Y-90184253D01*
X125774253Y-90078116D01*
X125836656Y-90036420D01*
X125899056Y-89994725D01*
X125899058Y-89994724D01*
X126037733Y-89937283D01*
X126135878Y-89917761D01*
X126184949Y-89908000D01*
X126335051Y-89908000D01*
X126384122Y-89917761D01*
G37*
G36*
X111144122Y-89917761D02*
G01*
X111242267Y-89937283D01*
X111380942Y-89994724D01*
X111380944Y-89994725D01*
X111443344Y-90036420D01*
X111505747Y-90078116D01*
X111611884Y-90184253D01*
X111695276Y-90309058D01*
X111752717Y-90447733D01*
X111782000Y-90594950D01*
X111782000Y-90745050D01*
X111752717Y-90892267D01*
X111695276Y-91030942D01*
X111611884Y-91155747D01*
X111505747Y-91261884D01*
X111443344Y-91303580D01*
X111380944Y-91345275D01*
X111380943Y-91345276D01*
X111380942Y-91345276D01*
X111242267Y-91402717D01*
X111144122Y-91422239D01*
X111095051Y-91432000D01*
X110944949Y-91432000D01*
X110895878Y-91422239D01*
X110797733Y-91402717D01*
X110659058Y-91345276D01*
X110659057Y-91345276D01*
X110659056Y-91345275D01*
X110596656Y-91303580D01*
X110534253Y-91261884D01*
X110428116Y-91155747D01*
X110344724Y-91030942D01*
X110287283Y-90892267D01*
X110258000Y-90745050D01*
X110258000Y-90594950D01*
X110287283Y-90447733D01*
X110344724Y-90309058D01*
X110428116Y-90184253D01*
X110534253Y-90078116D01*
X110596656Y-90036420D01*
X110659056Y-89994725D01*
X110659058Y-89994724D01*
X110797733Y-89937283D01*
X110895878Y-89917761D01*
X110944949Y-89908000D01*
X111095051Y-89908000D01*
X111144122Y-89917761D01*
G37*
G36*
X67647936Y-87442665D02*
G01*
X67802626Y-87506739D01*
X67849584Y-87538116D01*
X67941844Y-87599762D01*
X68060238Y-87718156D01*
X68094248Y-87769056D01*
X68153261Y-87857374D01*
X68217335Y-88012064D01*
X68250000Y-88176282D01*
X68250000Y-88343718D01*
X68217335Y-88507936D01*
X68153261Y-88662626D01*
X68113665Y-88721884D01*
X68060238Y-88801844D01*
X67941844Y-88920238D01*
X67872076Y-88966855D01*
X67802626Y-89013261D01*
X67647936Y-89077335D01*
X67483718Y-89110000D01*
X67316282Y-89110000D01*
X67152064Y-89077335D01*
X66997374Y-89013261D01*
X66927924Y-88966855D01*
X66858156Y-88920238D01*
X66739762Y-88801844D01*
X66686335Y-88721884D01*
X66646739Y-88662626D01*
X66582665Y-88507936D01*
X66550000Y-88343718D01*
X66550000Y-88176282D01*
X66582665Y-88012064D01*
X66646739Y-87857374D01*
X66705752Y-87769056D01*
X66739762Y-87718156D01*
X66858156Y-87599762D01*
X66950416Y-87538116D01*
X66997374Y-87506739D01*
X67152064Y-87442665D01*
X67316282Y-87410000D01*
X67483718Y-87410000D01*
X67647936Y-87442665D01*
G37*
G36*
X111144122Y-87377761D02*
G01*
X111242267Y-87397283D01*
X111380942Y-87454724D01*
X111380944Y-87454725D01*
X111443345Y-87496420D01*
X111505747Y-87538116D01*
X111611884Y-87644253D01*
X111695276Y-87769058D01*
X111752717Y-87907733D01*
X111782000Y-88054950D01*
X111782000Y-88205050D01*
X111752717Y-88352267D01*
X111695276Y-88490942D01*
X111611884Y-88615747D01*
X111505747Y-88721884D01*
X111443344Y-88763580D01*
X111380944Y-88805275D01*
X111380943Y-88805276D01*
X111380942Y-88805276D01*
X111242267Y-88862717D01*
X111144122Y-88882239D01*
X111095051Y-88892000D01*
X110944949Y-88892000D01*
X110895878Y-88882239D01*
X110797733Y-88862717D01*
X110659058Y-88805276D01*
X110659057Y-88805276D01*
X110659056Y-88805275D01*
X110596656Y-88763580D01*
X110534253Y-88721884D01*
X110428116Y-88615747D01*
X110344724Y-88490942D01*
X110287283Y-88352267D01*
X110258000Y-88205050D01*
X110258000Y-88054950D01*
X110287283Y-87907733D01*
X110344724Y-87769058D01*
X110428116Y-87644253D01*
X110534253Y-87538116D01*
X110596655Y-87496420D01*
X110659056Y-87454725D01*
X110659058Y-87454724D01*
X110797733Y-87397283D01*
X110895878Y-87377761D01*
X110944949Y-87368000D01*
X111095051Y-87368000D01*
X111144122Y-87377761D01*
G37*
G36*
X126384122Y-87377761D02*
G01*
X126482267Y-87397283D01*
X126620942Y-87454724D01*
X126620944Y-87454725D01*
X126683345Y-87496420D01*
X126745747Y-87538116D01*
X126851884Y-87644253D01*
X126935276Y-87769058D01*
X126992717Y-87907733D01*
X127022000Y-88054950D01*
X127022000Y-88205050D01*
X126992717Y-88352267D01*
X126935276Y-88490942D01*
X126851884Y-88615747D01*
X126745747Y-88721884D01*
X126683344Y-88763580D01*
X126620944Y-88805275D01*
X126620943Y-88805276D01*
X126620942Y-88805276D01*
X126482267Y-88862717D01*
X126384122Y-88882239D01*
X126335051Y-88892000D01*
X126184949Y-88892000D01*
X126135878Y-88882239D01*
X126037733Y-88862717D01*
X125899058Y-88805276D01*
X125899057Y-88805276D01*
X125899056Y-88805275D01*
X125836656Y-88763580D01*
X125774253Y-88721884D01*
X125668116Y-88615747D01*
X125584724Y-88490942D01*
X125527283Y-88352267D01*
X125498000Y-88205050D01*
X125498000Y-88054950D01*
X125527283Y-87907733D01*
X125584724Y-87769058D01*
X125668116Y-87644253D01*
X125774253Y-87538116D01*
X125836655Y-87496420D01*
X125899056Y-87454725D01*
X125899058Y-87454724D01*
X126037733Y-87397283D01*
X126135878Y-87377761D01*
X126184949Y-87368000D01*
X126335051Y-87368000D01*
X126384122Y-87377761D01*
G37*
G36*
X67647936Y-84902665D02*
G01*
X67802626Y-84966739D01*
X67849584Y-84998116D01*
X67941844Y-85059762D01*
X68060238Y-85178156D01*
X68094248Y-85229056D01*
X68153261Y-85317374D01*
X68217335Y-85472064D01*
X68250000Y-85636282D01*
X68250000Y-85803718D01*
X68217335Y-85967936D01*
X68153261Y-86122626D01*
X68113665Y-86181884D01*
X68060238Y-86261844D01*
X67941844Y-86380238D01*
X67872076Y-86426855D01*
X67802626Y-86473261D01*
X67647936Y-86537335D01*
X67483718Y-86570000D01*
X67316282Y-86570000D01*
X67152064Y-86537335D01*
X66997374Y-86473261D01*
X66927924Y-86426855D01*
X66858156Y-86380238D01*
X66739762Y-86261844D01*
X66686335Y-86181884D01*
X66646739Y-86122626D01*
X66582665Y-85967936D01*
X66550000Y-85803718D01*
X66550000Y-85636282D01*
X66582665Y-85472064D01*
X66646739Y-85317374D01*
X66705752Y-85229056D01*
X66739762Y-85178156D01*
X66858156Y-85059762D01*
X66950416Y-84998116D01*
X66997374Y-84966739D01*
X67152064Y-84902665D01*
X67316282Y-84870000D01*
X67483718Y-84870000D01*
X67647936Y-84902665D01*
G37*
G36*
X126384122Y-84837761D02*
G01*
X126482267Y-84857283D01*
X126620942Y-84914724D01*
X126620944Y-84914725D01*
X126683345Y-84956420D01*
X126745747Y-84998116D01*
X126851884Y-85104253D01*
X126935276Y-85229058D01*
X126992717Y-85367733D01*
X127022000Y-85514950D01*
X127022000Y-85665050D01*
X126992717Y-85812267D01*
X126935276Y-85950942D01*
X126851884Y-86075747D01*
X126745747Y-86181884D01*
X126683344Y-86223580D01*
X126620944Y-86265275D01*
X126620943Y-86265276D01*
X126620942Y-86265276D01*
X126482267Y-86322717D01*
X126384122Y-86342239D01*
X126335051Y-86352000D01*
X126184949Y-86352000D01*
X126135878Y-86342239D01*
X126037733Y-86322717D01*
X125899058Y-86265276D01*
X125899057Y-86265276D01*
X125899056Y-86265275D01*
X125836656Y-86223580D01*
X125774253Y-86181884D01*
X125668116Y-86075747D01*
X125584724Y-85950942D01*
X125527283Y-85812267D01*
X125498000Y-85665050D01*
X125498000Y-85514950D01*
X125527283Y-85367733D01*
X125584724Y-85229058D01*
X125668116Y-85104253D01*
X125774253Y-84998116D01*
X125836655Y-84956420D01*
X125899056Y-84914725D01*
X125899058Y-84914724D01*
X126037733Y-84857283D01*
X126135878Y-84837761D01*
X126184949Y-84828000D01*
X126335051Y-84828000D01*
X126384122Y-84837761D01*
G37*
G36*
X111144122Y-84837761D02*
G01*
X111242267Y-84857283D01*
X111380942Y-84914724D01*
X111380944Y-84914725D01*
X111443345Y-84956420D01*
X111505747Y-84998116D01*
X111611884Y-85104253D01*
X111695276Y-85229058D01*
X111752717Y-85367733D01*
X111782000Y-85514950D01*
X111782000Y-85665050D01*
X111752717Y-85812267D01*
X111695276Y-85950942D01*
X111611884Y-86075747D01*
X111505747Y-86181884D01*
X111443344Y-86223580D01*
X111380944Y-86265275D01*
X111380943Y-86265276D01*
X111380942Y-86265276D01*
X111242267Y-86322717D01*
X111144122Y-86342239D01*
X111095051Y-86352000D01*
X110944949Y-86352000D01*
X110895878Y-86342239D01*
X110797733Y-86322717D01*
X110659058Y-86265276D01*
X110659057Y-86265276D01*
X110659056Y-86265275D01*
X110596656Y-86223580D01*
X110534253Y-86181884D01*
X110428116Y-86075747D01*
X110344724Y-85950942D01*
X110287283Y-85812267D01*
X110258000Y-85665050D01*
X110258000Y-85514950D01*
X110287283Y-85367733D01*
X110344724Y-85229058D01*
X110428116Y-85104253D01*
X110534253Y-84998116D01*
X110596655Y-84956420D01*
X110659056Y-84914725D01*
X110659058Y-84914724D01*
X110797733Y-84857283D01*
X110895878Y-84837761D01*
X110944949Y-84828000D01*
X111095051Y-84828000D01*
X111144122Y-84837761D01*
G37*
G36*
X67647936Y-82362665D02*
G01*
X67802626Y-82426739D01*
X67849584Y-82458116D01*
X67941844Y-82519762D01*
X68060238Y-82638156D01*
X68094248Y-82689056D01*
X68153261Y-82777374D01*
X68217335Y-82932064D01*
X68250000Y-83096282D01*
X68250000Y-83263718D01*
X68217335Y-83427936D01*
X68153261Y-83582626D01*
X68113665Y-83641884D01*
X68060238Y-83721844D01*
X67941844Y-83840238D01*
X67872076Y-83886855D01*
X67802626Y-83933261D01*
X67647936Y-83997335D01*
X67483718Y-84030000D01*
X67316282Y-84030000D01*
X67152064Y-83997335D01*
X66997374Y-83933261D01*
X66927924Y-83886855D01*
X66858156Y-83840238D01*
X66739762Y-83721844D01*
X66686335Y-83641884D01*
X66646739Y-83582626D01*
X66582665Y-83427936D01*
X66550000Y-83263718D01*
X66550000Y-83096282D01*
X66582665Y-82932064D01*
X66646739Y-82777374D01*
X66705752Y-82689056D01*
X66739762Y-82638156D01*
X66858156Y-82519762D01*
X66950416Y-82458116D01*
X66997374Y-82426739D01*
X67152064Y-82362665D01*
X67316282Y-82330000D01*
X67483718Y-82330000D01*
X67647936Y-82362665D01*
G37*
G36*
X126384122Y-82297761D02*
G01*
X126482267Y-82317283D01*
X126620942Y-82374724D01*
X126620944Y-82374725D01*
X126683344Y-82416420D01*
X126745747Y-82458116D01*
X126851884Y-82564253D01*
X126935276Y-82689058D01*
X126992717Y-82827733D01*
X127022000Y-82974950D01*
X127022000Y-83125050D01*
X126992717Y-83272267D01*
X126935276Y-83410942D01*
X126851884Y-83535747D01*
X126745747Y-83641884D01*
X126683345Y-83683580D01*
X126620944Y-83725275D01*
X126620943Y-83725276D01*
X126620942Y-83725276D01*
X126482267Y-83782717D01*
X126384122Y-83802239D01*
X126335051Y-83812000D01*
X126184949Y-83812000D01*
X126135878Y-83802239D01*
X126037733Y-83782717D01*
X125899058Y-83725276D01*
X125899057Y-83725276D01*
X125899056Y-83725275D01*
X125836655Y-83683580D01*
X125774253Y-83641884D01*
X125668116Y-83535747D01*
X125584724Y-83410942D01*
X125527283Y-83272267D01*
X125498000Y-83125050D01*
X125498000Y-82974950D01*
X125527283Y-82827733D01*
X125584724Y-82689058D01*
X125668116Y-82564253D01*
X125774253Y-82458116D01*
X125836656Y-82416420D01*
X125899056Y-82374725D01*
X125899058Y-82374724D01*
X126037733Y-82317283D01*
X126135878Y-82297761D01*
X126184949Y-82288000D01*
X126335051Y-82288000D01*
X126384122Y-82297761D01*
G37*
G36*
X111144122Y-82297761D02*
G01*
X111242267Y-82317283D01*
X111380942Y-82374724D01*
X111380944Y-82374725D01*
X111443344Y-82416420D01*
X111505747Y-82458116D01*
X111611884Y-82564253D01*
X111695276Y-82689058D01*
X111752717Y-82827733D01*
X111782000Y-82974950D01*
X111782000Y-83125050D01*
X111752717Y-83272267D01*
X111695276Y-83410942D01*
X111611884Y-83535747D01*
X111505747Y-83641884D01*
X111443345Y-83683580D01*
X111380944Y-83725275D01*
X111380943Y-83725276D01*
X111380942Y-83725276D01*
X111242267Y-83782717D01*
X111144122Y-83802239D01*
X111095051Y-83812000D01*
X110944949Y-83812000D01*
X110895878Y-83802239D01*
X110797733Y-83782717D01*
X110659058Y-83725276D01*
X110659057Y-83725276D01*
X110659056Y-83725275D01*
X110596655Y-83683580D01*
X110534253Y-83641884D01*
X110428116Y-83535747D01*
X110344724Y-83410942D01*
X110287283Y-83272267D01*
X110258000Y-83125050D01*
X110258000Y-82974950D01*
X110287283Y-82827733D01*
X110344724Y-82689058D01*
X110428116Y-82564253D01*
X110534253Y-82458116D01*
X110596656Y-82416420D01*
X110659056Y-82374725D01*
X110659058Y-82374724D01*
X110797733Y-82317283D01*
X110895878Y-82297761D01*
X110944949Y-82288000D01*
X111095051Y-82288000D01*
X111144122Y-82297761D01*
G37*
G36*
X156445090Y-81569214D02*
G01*
X156541689Y-81588429D01*
X156723678Y-81663811D01*
X156887463Y-81773249D01*
X157026751Y-81912537D01*
X157136189Y-82076322D01*
X157211571Y-82258311D01*
X157250000Y-82451509D01*
X157250000Y-82648491D01*
X157211571Y-82841689D01*
X157136189Y-83023678D01*
X157026751Y-83187463D01*
X156887463Y-83326751D01*
X156723678Y-83436189D01*
X156541689Y-83511571D01*
X156445090Y-83530786D01*
X156348493Y-83550000D01*
X156151507Y-83550000D01*
X156054910Y-83530785D01*
X155958311Y-83511571D01*
X155776322Y-83436189D01*
X155612537Y-83326751D01*
X155473249Y-83187463D01*
X155363811Y-83023678D01*
X155288429Y-82841689D01*
X155250000Y-82648491D01*
X155250000Y-82451509D01*
X155288429Y-82258311D01*
X155363811Y-82076322D01*
X155473249Y-81912537D01*
X155612537Y-81773249D01*
X155776322Y-81663811D01*
X155958311Y-81588429D01*
X156054910Y-81569215D01*
X156151507Y-81550000D01*
X156348493Y-81550000D01*
X156445090Y-81569214D01*
G37*
G36*
X153945090Y-81569214D02*
G01*
X154041689Y-81588429D01*
X154223678Y-81663811D01*
X154387463Y-81773249D01*
X154526751Y-81912537D01*
X154636189Y-82076322D01*
X154711571Y-82258311D01*
X154750000Y-82451509D01*
X154750000Y-82648491D01*
X154711571Y-82841689D01*
X154636189Y-83023678D01*
X154526751Y-83187463D01*
X154387463Y-83326751D01*
X154223678Y-83436189D01*
X154041689Y-83511571D01*
X153945090Y-83530786D01*
X153848493Y-83550000D01*
X153651507Y-83550000D01*
X153554910Y-83530785D01*
X153458311Y-83511571D01*
X153276322Y-83436189D01*
X153112537Y-83326751D01*
X152973249Y-83187463D01*
X152863811Y-83023678D01*
X152788429Y-82841689D01*
X152750000Y-82648491D01*
X152750000Y-82451509D01*
X152788429Y-82258311D01*
X152863811Y-82076322D01*
X152973249Y-81912537D01*
X153112537Y-81773249D01*
X153276322Y-81663811D01*
X153458311Y-81588429D01*
X153554910Y-81569215D01*
X153651507Y-81550000D01*
X153848493Y-81550000D01*
X153945090Y-81569214D01*
G37*
G36*
X159750000Y-83550000D02*
G01*
X157750000Y-83550000D01*
X157750000Y-81550000D01*
X159750000Y-81550000D01*
X159750000Y-83550000D01*
G37*
G36*
X67647936Y-79822665D02*
G01*
X67802626Y-79886739D01*
X67849584Y-79918116D01*
X67941844Y-79979762D01*
X68060238Y-80098156D01*
X68085148Y-80135437D01*
X68153261Y-80237374D01*
X68217335Y-80392064D01*
X68250000Y-80556282D01*
X68250000Y-80723718D01*
X68217335Y-80887936D01*
X68153261Y-81042626D01*
X68113665Y-81101884D01*
X68060238Y-81181844D01*
X67941844Y-81300238D01*
X67872076Y-81346855D01*
X67802626Y-81393261D01*
X67647936Y-81457335D01*
X67483718Y-81490000D01*
X67316282Y-81490000D01*
X67152064Y-81457335D01*
X66997374Y-81393261D01*
X66927924Y-81346855D01*
X66858156Y-81300238D01*
X66739762Y-81181844D01*
X66686335Y-81101884D01*
X66646739Y-81042626D01*
X66582665Y-80887936D01*
X66550000Y-80723718D01*
X66550000Y-80556282D01*
X66582665Y-80392064D01*
X66646739Y-80237374D01*
X66714852Y-80135437D01*
X66739762Y-80098156D01*
X66858156Y-79979762D01*
X66950416Y-79918116D01*
X66997374Y-79886739D01*
X67152064Y-79822665D01*
X67316282Y-79790000D01*
X67483718Y-79790000D01*
X67647936Y-79822665D01*
G37*
G36*
X111144122Y-79757761D02*
G01*
X111242267Y-79777283D01*
X111380942Y-79834724D01*
X111380944Y-79834725D01*
X111443344Y-79876420D01*
X111505747Y-79918116D01*
X111611884Y-80024253D01*
X111611885Y-80024255D01*
X111665697Y-80104789D01*
X111695276Y-80149058D01*
X111752717Y-80287733D01*
X111782000Y-80434950D01*
X111782000Y-80585050D01*
X111752717Y-80732267D01*
X111695276Y-80870942D01*
X111611884Y-80995747D01*
X111505747Y-81101884D01*
X111443344Y-81143580D01*
X111380944Y-81185275D01*
X111380943Y-81185276D01*
X111380942Y-81185276D01*
X111242267Y-81242717D01*
X111144122Y-81262239D01*
X111095051Y-81272000D01*
X110944949Y-81272000D01*
X110895878Y-81262239D01*
X110797733Y-81242717D01*
X110659058Y-81185276D01*
X110659057Y-81185276D01*
X110659056Y-81185275D01*
X110596656Y-81143580D01*
X110534253Y-81101884D01*
X110428116Y-80995747D01*
X110344724Y-80870942D01*
X110287283Y-80732267D01*
X110258000Y-80585050D01*
X110258000Y-80434950D01*
X110287283Y-80287733D01*
X110344724Y-80149058D01*
X110374304Y-80104789D01*
X110428115Y-80024255D01*
X110428116Y-80024253D01*
X110534253Y-79918116D01*
X110596656Y-79876420D01*
X110659056Y-79834725D01*
X110659058Y-79834724D01*
X110797733Y-79777283D01*
X110895878Y-79757761D01*
X110944949Y-79748000D01*
X111095051Y-79748000D01*
X111144122Y-79757761D01*
G37*
G36*
X126384122Y-79757761D02*
G01*
X126482267Y-79777283D01*
X126620942Y-79834724D01*
X126620944Y-79834725D01*
X126683344Y-79876420D01*
X126745747Y-79918116D01*
X126851884Y-80024253D01*
X126851885Y-80024255D01*
X126905697Y-80104789D01*
X126935276Y-80149058D01*
X126992717Y-80287733D01*
X127022000Y-80434950D01*
X127022000Y-80585050D01*
X126992717Y-80732267D01*
X126935276Y-80870942D01*
X126851884Y-80995747D01*
X126745747Y-81101884D01*
X126683344Y-81143580D01*
X126620944Y-81185275D01*
X126620943Y-81185276D01*
X126620942Y-81185276D01*
X126482267Y-81242717D01*
X126384122Y-81262239D01*
X126335051Y-81272000D01*
X126184949Y-81272000D01*
X126135878Y-81262239D01*
X126037733Y-81242717D01*
X125899058Y-81185276D01*
X125899057Y-81185276D01*
X125899056Y-81185275D01*
X125836656Y-81143580D01*
X125774253Y-81101884D01*
X125668116Y-80995747D01*
X125584724Y-80870942D01*
X125527283Y-80732267D01*
X125498000Y-80585050D01*
X125498000Y-80434950D01*
X125527283Y-80287733D01*
X125584724Y-80149058D01*
X125614304Y-80104789D01*
X125668115Y-80024255D01*
X125668116Y-80024253D01*
X125774253Y-79918116D01*
X125836656Y-79876420D01*
X125899056Y-79834725D01*
X125899058Y-79834724D01*
X126037733Y-79777283D01*
X126135878Y-79757761D01*
X126184949Y-79748000D01*
X126335051Y-79748000D01*
X126384122Y-79757761D01*
G37*
G36*
X159057921Y-79094271D02*
G01*
X159096798Y-79106064D01*
X159132618Y-79125211D01*
X159164019Y-79150981D01*
X159189789Y-79182382D01*
X159208936Y-79218202D01*
X159220729Y-79257079D01*
X159225000Y-79300447D01*
X159225000Y-79929553D01*
X159220729Y-79972921D01*
X159208936Y-80011798D01*
X159189789Y-80047618D01*
X159164019Y-80079019D01*
X159132618Y-80104789D01*
X159096798Y-80123936D01*
X159057921Y-80135729D01*
X159014553Y-80140000D01*
X158485447Y-80140000D01*
X158442079Y-80135729D01*
X158403202Y-80123936D01*
X158367382Y-80104789D01*
X158335981Y-80079019D01*
X158310211Y-80047618D01*
X158291064Y-80011798D01*
X158279271Y-79972921D01*
X158275000Y-79929553D01*
X158275000Y-79300447D01*
X158279271Y-79257079D01*
X158291064Y-79218202D01*
X158310211Y-79182382D01*
X158335981Y-79150981D01*
X158367382Y-79125211D01*
X158403202Y-79106064D01*
X158442079Y-79094271D01*
X158485447Y-79090000D01*
X159014553Y-79090000D01*
X159057921Y-79094271D01*
G37*
G36*
X153977921Y-79094271D02*
G01*
X154016798Y-79106064D01*
X154052618Y-79125211D01*
X154084019Y-79150981D01*
X154109789Y-79182382D01*
X154128936Y-79218202D01*
X154140729Y-79257079D01*
X154145000Y-79300447D01*
X154145000Y-79929553D01*
X154140729Y-79972921D01*
X154128936Y-80011798D01*
X154109789Y-80047618D01*
X154084019Y-80079019D01*
X154052618Y-80104789D01*
X154016798Y-80123936D01*
X153977921Y-80135729D01*
X153934553Y-80140000D01*
X153405447Y-80140000D01*
X153362079Y-80135729D01*
X153323202Y-80123936D01*
X153287382Y-80104789D01*
X153255981Y-80079019D01*
X153230211Y-80047618D01*
X153211064Y-80011798D01*
X153199271Y-79972921D01*
X153195000Y-79929553D01*
X153195000Y-79300447D01*
X153199271Y-79257079D01*
X153211064Y-79218202D01*
X153230211Y-79182382D01*
X153255981Y-79150981D01*
X153287382Y-79125211D01*
X153323202Y-79106064D01*
X153362079Y-79094271D01*
X153405447Y-79090000D01*
X153934553Y-79090000D01*
X153977921Y-79094271D01*
G37*
G36*
X67647936Y-77282665D02*
G01*
X67802626Y-77346739D01*
X67872076Y-77393145D01*
X67941844Y-77439762D01*
X68060238Y-77558156D01*
X68094248Y-77609056D01*
X68153261Y-77697374D01*
X68217335Y-77852064D01*
X68250000Y-78016282D01*
X68250000Y-78183718D01*
X68217335Y-78347936D01*
X68153261Y-78502626D01*
X68113665Y-78561884D01*
X68060238Y-78641844D01*
X67941844Y-78760238D01*
X67872076Y-78806855D01*
X67802626Y-78853261D01*
X67647936Y-78917335D01*
X67483718Y-78950000D01*
X67316282Y-78950000D01*
X67152064Y-78917335D01*
X66997374Y-78853261D01*
X66927924Y-78806855D01*
X66858156Y-78760238D01*
X66739762Y-78641844D01*
X66686335Y-78561884D01*
X66646739Y-78502626D01*
X66582665Y-78347936D01*
X66550000Y-78183718D01*
X66550000Y-78016282D01*
X66582665Y-77852064D01*
X66646739Y-77697374D01*
X66705752Y-77609056D01*
X66739762Y-77558156D01*
X66858156Y-77439762D01*
X66927924Y-77393145D01*
X66997374Y-77346739D01*
X67152064Y-77282665D01*
X67316282Y-77250000D01*
X67483718Y-77250000D01*
X67647936Y-77282665D01*
G37*
G36*
X126384122Y-77217761D02*
G01*
X126482267Y-77237283D01*
X126620942Y-77294724D01*
X126620944Y-77294725D01*
X126683345Y-77336420D01*
X126745747Y-77378116D01*
X126851884Y-77484253D01*
X126935276Y-77609058D01*
X126992717Y-77747733D01*
X127022000Y-77894950D01*
X127022000Y-78045050D01*
X126992717Y-78192267D01*
X126935276Y-78330942D01*
X126851884Y-78455747D01*
X126745747Y-78561884D01*
X126683344Y-78603580D01*
X126620944Y-78645275D01*
X126620943Y-78645276D01*
X126620942Y-78645276D01*
X126482267Y-78702717D01*
X126384122Y-78722239D01*
X126335051Y-78732000D01*
X126184949Y-78732000D01*
X126135878Y-78722239D01*
X126037733Y-78702717D01*
X125899058Y-78645276D01*
X125899057Y-78645276D01*
X125899056Y-78645275D01*
X125836656Y-78603580D01*
X125774253Y-78561884D01*
X125668116Y-78455747D01*
X125584724Y-78330942D01*
X125527283Y-78192267D01*
X125498000Y-78045050D01*
X125498000Y-77894950D01*
X125527283Y-77747733D01*
X125584724Y-77609058D01*
X125668116Y-77484253D01*
X125774253Y-77378116D01*
X125836656Y-77336420D01*
X125899056Y-77294725D01*
X125899058Y-77294724D01*
X126037733Y-77237283D01*
X126135878Y-77217761D01*
X126184949Y-77208000D01*
X126335051Y-77208000D01*
X126384122Y-77217761D01*
G37*
G36*
X111144122Y-77217761D02*
G01*
X111242267Y-77237283D01*
X111380942Y-77294724D01*
X111380944Y-77294725D01*
X111443345Y-77336420D01*
X111505747Y-77378116D01*
X111611884Y-77484253D01*
X111695276Y-77609058D01*
X111752717Y-77747733D01*
X111782000Y-77894950D01*
X111782000Y-78045050D01*
X111752717Y-78192267D01*
X111695276Y-78330942D01*
X111611884Y-78455747D01*
X111505747Y-78561884D01*
X111443344Y-78603580D01*
X111380944Y-78645275D01*
X111380943Y-78645276D01*
X111380942Y-78645276D01*
X111242267Y-78702717D01*
X111144122Y-78722239D01*
X111095051Y-78732000D01*
X110944949Y-78732000D01*
X110895878Y-78722239D01*
X110797733Y-78702717D01*
X110659058Y-78645276D01*
X110659057Y-78645276D01*
X110659056Y-78645275D01*
X110596656Y-78603580D01*
X110534253Y-78561884D01*
X110428116Y-78455747D01*
X110344724Y-78330942D01*
X110287283Y-78192267D01*
X110258000Y-78045050D01*
X110258000Y-77894950D01*
X110287283Y-77747733D01*
X110344724Y-77609058D01*
X110428116Y-77484253D01*
X110534253Y-77378116D01*
X110596656Y-77336420D01*
X110659056Y-77294725D01*
X110659058Y-77294724D01*
X110797733Y-77237283D01*
X110895878Y-77217761D01*
X110944949Y-77208000D01*
X111095051Y-77208000D01*
X111144122Y-77217761D01*
G37*
G36*
X153977921Y-77344271D02*
G01*
X154016798Y-77356064D01*
X154052618Y-77375211D01*
X154084019Y-77400981D01*
X154109789Y-77432382D01*
X154128936Y-77468202D01*
X154140729Y-77507079D01*
X154145000Y-77550447D01*
X154145000Y-78179553D01*
X154140729Y-78222921D01*
X154128936Y-78261798D01*
X154109789Y-78297618D01*
X154084019Y-78329019D01*
X154052618Y-78354789D01*
X154016798Y-78373936D01*
X153977921Y-78385729D01*
X153934553Y-78390000D01*
X153405447Y-78390000D01*
X153362079Y-78385729D01*
X153323202Y-78373936D01*
X153287382Y-78354789D01*
X153255981Y-78329019D01*
X153230211Y-78297618D01*
X153211064Y-78261798D01*
X153199271Y-78222921D01*
X153195000Y-78179553D01*
X153195000Y-77550447D01*
X153199271Y-77507079D01*
X153211064Y-77468202D01*
X153230211Y-77432382D01*
X153255981Y-77400981D01*
X153287382Y-77375211D01*
X153323202Y-77356064D01*
X153362079Y-77344271D01*
X153405447Y-77340000D01*
X153934553Y-77340000D01*
X153977921Y-77344271D01*
G37*
G36*
X159057921Y-77344271D02*
G01*
X159096798Y-77356064D01*
X159132618Y-77375211D01*
X159164019Y-77400981D01*
X159189789Y-77432382D01*
X159208936Y-77468202D01*
X159220729Y-77507079D01*
X159225000Y-77550447D01*
X159225000Y-78179553D01*
X159220729Y-78222921D01*
X159208936Y-78261798D01*
X159189789Y-78297618D01*
X159164019Y-78329019D01*
X159132618Y-78354789D01*
X159096798Y-78373936D01*
X159057921Y-78385729D01*
X159014553Y-78390000D01*
X158485447Y-78390000D01*
X158442079Y-78385729D01*
X158403202Y-78373936D01*
X158367382Y-78354789D01*
X158335981Y-78329019D01*
X158310211Y-78297618D01*
X158291064Y-78261798D01*
X158279271Y-78222921D01*
X158275000Y-78179553D01*
X158275000Y-77550447D01*
X158279271Y-77507079D01*
X158291064Y-77468202D01*
X158310211Y-77432382D01*
X158335981Y-77400981D01*
X158367382Y-77375211D01*
X158403202Y-77356064D01*
X158442079Y-77344271D01*
X158485447Y-77340000D01*
X159014553Y-77340000D01*
X159057921Y-77344271D01*
G37*
G36*
X67647936Y-74742665D02*
G01*
X67802626Y-74806739D01*
X67849584Y-74838116D01*
X67941844Y-74899762D01*
X68060238Y-75018156D01*
X68094248Y-75069056D01*
X68153261Y-75157374D01*
X68217335Y-75312064D01*
X68250000Y-75476282D01*
X68250000Y-75643718D01*
X68217335Y-75807936D01*
X68153261Y-75962626D01*
X68113665Y-76021884D01*
X68060238Y-76101844D01*
X67941844Y-76220238D01*
X67872076Y-76266855D01*
X67802626Y-76313261D01*
X67647936Y-76377335D01*
X67483718Y-76410000D01*
X67316282Y-76410000D01*
X67152064Y-76377335D01*
X66997374Y-76313261D01*
X66927924Y-76266855D01*
X66858156Y-76220238D01*
X66739762Y-76101844D01*
X66686335Y-76021884D01*
X66646739Y-75962626D01*
X66582665Y-75807936D01*
X66550000Y-75643718D01*
X66550000Y-75476282D01*
X66582665Y-75312064D01*
X66646739Y-75157374D01*
X66705752Y-75069056D01*
X66739762Y-75018156D01*
X66858156Y-74899762D01*
X66950416Y-74838116D01*
X66997374Y-74806739D01*
X67152064Y-74742665D01*
X67316282Y-74710000D01*
X67483718Y-74710000D01*
X67647936Y-74742665D01*
G37*
G36*
X111144122Y-74677761D02*
G01*
X111242267Y-74697283D01*
X111380942Y-74754724D01*
X111380944Y-74754725D01*
X111443345Y-74796420D01*
X111505747Y-74838116D01*
X111611884Y-74944253D01*
X111695276Y-75069058D01*
X111752717Y-75207733D01*
X111782000Y-75354950D01*
X111782000Y-75505050D01*
X111752717Y-75652267D01*
X111695276Y-75790942D01*
X111611884Y-75915747D01*
X111505747Y-76021884D01*
X111443345Y-76063580D01*
X111380944Y-76105275D01*
X111380943Y-76105276D01*
X111380942Y-76105276D01*
X111242267Y-76162717D01*
X111144122Y-76182239D01*
X111095051Y-76192000D01*
X110944949Y-76192000D01*
X110895878Y-76182239D01*
X110797733Y-76162717D01*
X110659058Y-76105276D01*
X110659057Y-76105276D01*
X110659056Y-76105275D01*
X110596655Y-76063580D01*
X110534253Y-76021884D01*
X110428116Y-75915747D01*
X110344724Y-75790942D01*
X110287283Y-75652267D01*
X110258000Y-75505050D01*
X110258000Y-75354950D01*
X110287283Y-75207733D01*
X110344724Y-75069058D01*
X110428116Y-74944253D01*
X110534253Y-74838116D01*
X110596656Y-74796420D01*
X110659056Y-74754725D01*
X110659058Y-74754724D01*
X110797733Y-74697283D01*
X110895878Y-74677761D01*
X110944949Y-74668000D01*
X111095051Y-74668000D01*
X111144122Y-74677761D01*
G37*
G36*
X126384122Y-74677761D02*
G01*
X126482267Y-74697283D01*
X126620942Y-74754724D01*
X126620944Y-74754725D01*
X126683345Y-74796420D01*
X126745747Y-74838116D01*
X126851884Y-74944253D01*
X126935276Y-75069058D01*
X126992717Y-75207733D01*
X127022000Y-75354950D01*
X127022000Y-75505050D01*
X126992717Y-75652267D01*
X126935276Y-75790942D01*
X126851884Y-75915747D01*
X126745747Y-76021884D01*
X126683345Y-76063580D01*
X126620944Y-76105275D01*
X126620943Y-76105276D01*
X126620942Y-76105276D01*
X126482267Y-76162717D01*
X126384122Y-76182239D01*
X126335051Y-76192000D01*
X126184949Y-76192000D01*
X126135878Y-76182239D01*
X126037733Y-76162717D01*
X125899058Y-76105276D01*
X125899057Y-76105276D01*
X125899056Y-76105275D01*
X125836655Y-76063580D01*
X125774253Y-76021884D01*
X125668116Y-75915747D01*
X125584724Y-75790942D01*
X125527283Y-75652267D01*
X125498000Y-75505050D01*
X125498000Y-75354950D01*
X125527283Y-75207733D01*
X125584724Y-75069058D01*
X125668116Y-74944253D01*
X125774253Y-74838116D01*
X125836656Y-74796420D01*
X125899056Y-74754725D01*
X125899058Y-74754724D01*
X126037733Y-74697283D01*
X126135878Y-74677761D01*
X126184949Y-74668000D01*
X126335051Y-74668000D01*
X126384122Y-74677761D01*
G37*
G36*
X111144122Y-72137761D02*
G01*
X111242267Y-72157283D01*
X111380942Y-72214724D01*
X111380944Y-72214725D01*
X111443344Y-72256420D01*
X111505747Y-72298116D01*
X111611884Y-72404253D01*
X111695276Y-72529058D01*
X111752717Y-72667733D01*
X111782000Y-72814950D01*
X111782000Y-72965050D01*
X111752717Y-73112267D01*
X111695276Y-73250942D01*
X111611884Y-73375747D01*
X111505747Y-73481884D01*
X111443345Y-73523580D01*
X111380944Y-73565275D01*
X111380943Y-73565276D01*
X111380942Y-73565276D01*
X111242267Y-73622717D01*
X111144122Y-73642239D01*
X111095051Y-73652000D01*
X110944949Y-73652000D01*
X110895878Y-73642239D01*
X110797733Y-73622717D01*
X110659058Y-73565276D01*
X110659057Y-73565276D01*
X110659056Y-73565275D01*
X110596656Y-73523580D01*
X110534253Y-73481884D01*
X110428116Y-73375747D01*
X110344724Y-73250942D01*
X110287283Y-73112267D01*
X110258000Y-72965050D01*
X110258000Y-72814950D01*
X110287283Y-72667733D01*
X110344724Y-72529058D01*
X110428116Y-72404253D01*
X110534253Y-72298116D01*
X110596655Y-72256420D01*
X110659056Y-72214725D01*
X110659058Y-72214724D01*
X110797733Y-72157283D01*
X110895878Y-72137761D01*
X110944949Y-72128000D01*
X111095051Y-72128000D01*
X111144122Y-72137761D01*
G37*
G36*
X126384122Y-72137761D02*
G01*
X126482267Y-72157283D01*
X126620942Y-72214724D01*
X126620944Y-72214725D01*
X126683344Y-72256420D01*
X126745747Y-72298116D01*
X126851884Y-72404253D01*
X126935276Y-72529058D01*
X126992717Y-72667733D01*
X127022000Y-72814950D01*
X127022000Y-72965050D01*
X126992717Y-73112267D01*
X126935276Y-73250942D01*
X126851884Y-73375747D01*
X126745747Y-73481884D01*
X126683345Y-73523580D01*
X126620944Y-73565275D01*
X126620943Y-73565276D01*
X126620942Y-73565276D01*
X126482267Y-73622717D01*
X126384122Y-73642239D01*
X126335051Y-73652000D01*
X126184949Y-73652000D01*
X126135878Y-73642239D01*
X126037733Y-73622717D01*
X125899058Y-73565276D01*
X125899057Y-73565276D01*
X125899056Y-73565275D01*
X125836656Y-73523580D01*
X125774253Y-73481884D01*
X125668116Y-73375747D01*
X125584724Y-73250942D01*
X125527283Y-73112267D01*
X125498000Y-72965050D01*
X125498000Y-72814950D01*
X125527283Y-72667733D01*
X125584724Y-72529058D01*
X125668116Y-72404253D01*
X125774253Y-72298116D01*
X125836655Y-72256420D01*
X125899056Y-72214725D01*
X125899058Y-72214724D01*
X126037733Y-72157283D01*
X126135878Y-72137761D01*
X126184949Y-72128000D01*
X126335051Y-72128000D01*
X126384122Y-72137761D01*
G37*
G36*
X126384122Y-69597761D02*
G01*
X126482267Y-69617283D01*
X126620942Y-69674724D01*
X126620944Y-69674725D01*
X126683345Y-69716420D01*
X126745747Y-69758116D01*
X126851884Y-69864253D01*
X126935276Y-69989058D01*
X126992717Y-70127733D01*
X127022000Y-70274950D01*
X127022000Y-70425050D01*
X126992717Y-70572267D01*
X126935276Y-70710942D01*
X126851884Y-70835747D01*
X126745747Y-70941884D01*
X126683345Y-70983580D01*
X126620944Y-71025275D01*
X126620943Y-71025276D01*
X126620942Y-71025276D01*
X126482267Y-71082717D01*
X126384122Y-71102239D01*
X126335051Y-71112000D01*
X126184949Y-71112000D01*
X126135878Y-71102239D01*
X126037733Y-71082717D01*
X125899058Y-71025276D01*
X125899057Y-71025276D01*
X125899056Y-71025275D01*
X125836656Y-70983580D01*
X125774253Y-70941884D01*
X125668116Y-70835747D01*
X125584724Y-70710942D01*
X125527283Y-70572267D01*
X125498000Y-70425050D01*
X125498000Y-70274950D01*
X125527283Y-70127733D01*
X125584724Y-69989058D01*
X125668116Y-69864253D01*
X125774253Y-69758116D01*
X125836656Y-69716420D01*
X125899056Y-69674725D01*
X125899058Y-69674724D01*
X126037733Y-69617283D01*
X126135878Y-69597761D01*
X126184949Y-69588000D01*
X126335051Y-69588000D01*
X126384122Y-69597761D01*
G37*
G36*
X111144122Y-69597761D02*
G01*
X111242267Y-69617283D01*
X111380942Y-69674724D01*
X111380944Y-69674725D01*
X111443345Y-69716420D01*
X111505747Y-69758116D01*
X111611884Y-69864253D01*
X111695276Y-69989058D01*
X111752717Y-70127733D01*
X111782000Y-70274950D01*
X111782000Y-70425050D01*
X111752717Y-70572267D01*
X111695276Y-70710942D01*
X111611884Y-70835747D01*
X111505747Y-70941884D01*
X111443345Y-70983580D01*
X111380944Y-71025275D01*
X111380943Y-71025276D01*
X111380942Y-71025276D01*
X111242267Y-71082717D01*
X111144122Y-71102239D01*
X111095051Y-71112000D01*
X110944949Y-71112000D01*
X110895878Y-71102239D01*
X110797733Y-71082717D01*
X110659058Y-71025276D01*
X110659057Y-71025276D01*
X110659056Y-71025275D01*
X110596656Y-70983580D01*
X110534253Y-70941884D01*
X110428116Y-70835747D01*
X110344724Y-70710942D01*
X110287283Y-70572267D01*
X110258000Y-70425050D01*
X110258000Y-70274950D01*
X110287283Y-70127733D01*
X110344724Y-69989058D01*
X110428116Y-69864253D01*
X110534253Y-69758116D01*
X110596656Y-69716420D01*
X110659056Y-69674725D01*
X110659058Y-69674724D01*
X110797733Y-69617283D01*
X110895878Y-69597761D01*
X110944949Y-69588000D01*
X111095051Y-69588000D01*
X111144122Y-69597761D01*
G37*
G36*
X126384122Y-67057761D02*
G01*
X126482267Y-67077283D01*
X126620942Y-67134724D01*
X126620944Y-67134725D01*
X126683344Y-67176420D01*
X126745747Y-67218116D01*
X126851884Y-67324253D01*
X126935276Y-67449058D01*
X126992717Y-67587733D01*
X127022000Y-67734950D01*
X127022000Y-67885050D01*
X126992717Y-68032267D01*
X126935276Y-68170942D01*
X126851884Y-68295747D01*
X126745747Y-68401884D01*
X126683344Y-68443580D01*
X126620944Y-68485275D01*
X126620943Y-68485276D01*
X126620942Y-68485276D01*
X126482267Y-68542717D01*
X126384122Y-68562239D01*
X126335051Y-68572000D01*
X126184949Y-68572000D01*
X126135878Y-68562239D01*
X126037733Y-68542717D01*
X125899058Y-68485276D01*
X125899057Y-68485276D01*
X125899056Y-68485275D01*
X125836655Y-68443580D01*
X125774253Y-68401884D01*
X125668116Y-68295747D01*
X125584724Y-68170942D01*
X125527283Y-68032267D01*
X125498000Y-67885050D01*
X125498000Y-67734950D01*
X125527283Y-67587733D01*
X125584724Y-67449058D01*
X125668116Y-67324253D01*
X125774253Y-67218116D01*
X125836656Y-67176420D01*
X125899056Y-67134725D01*
X125899058Y-67134724D01*
X126037733Y-67077283D01*
X126135878Y-67057761D01*
X126184949Y-67048000D01*
X126335051Y-67048000D01*
X126384122Y-67057761D01*
G37*
G36*
X111144122Y-67057761D02*
G01*
X111242267Y-67077283D01*
X111380942Y-67134724D01*
X111380944Y-67134725D01*
X111443344Y-67176420D01*
X111505747Y-67218116D01*
X111611884Y-67324253D01*
X111695276Y-67449058D01*
X111752717Y-67587733D01*
X111782000Y-67734950D01*
X111782000Y-67885050D01*
X111752717Y-68032267D01*
X111695276Y-68170942D01*
X111611884Y-68295747D01*
X111505747Y-68401884D01*
X111443344Y-68443580D01*
X111380944Y-68485275D01*
X111380943Y-68485276D01*
X111380942Y-68485276D01*
X111242267Y-68542717D01*
X111144122Y-68562239D01*
X111095051Y-68572000D01*
X110944949Y-68572000D01*
X110895878Y-68562239D01*
X110797733Y-68542717D01*
X110659058Y-68485276D01*
X110659057Y-68485276D01*
X110659056Y-68485275D01*
X110596655Y-68443580D01*
X110534253Y-68401884D01*
X110428116Y-68295747D01*
X110344724Y-68170942D01*
X110287283Y-68032267D01*
X110258000Y-67885050D01*
X110258000Y-67734950D01*
X110287283Y-67587733D01*
X110344724Y-67449058D01*
X110428116Y-67324253D01*
X110534253Y-67218116D01*
X110596656Y-67176420D01*
X110659056Y-67134725D01*
X110659058Y-67134724D01*
X110797733Y-67077283D01*
X110895878Y-67057761D01*
X110944949Y-67048000D01*
X111095051Y-67048000D01*
X111144122Y-67057761D01*
G37*
G36*
X106187936Y-64652665D02*
G01*
X106342626Y-64716739D01*
X106412076Y-64763145D01*
X106481844Y-64809762D01*
X106600238Y-64928156D01*
X106646855Y-64997924D01*
X106693261Y-65067374D01*
X106757335Y-65222064D01*
X106790000Y-65386282D01*
X106790000Y-65553718D01*
X106757335Y-65717936D01*
X106693261Y-65872626D01*
X106646855Y-65942076D01*
X106600238Y-66011844D01*
X106481844Y-66130238D01*
X106412076Y-66176855D01*
X106342626Y-66223261D01*
X106187936Y-66287335D01*
X106023718Y-66320000D01*
X105856282Y-66320000D01*
X105692064Y-66287335D01*
X105537374Y-66223261D01*
X105467924Y-66176855D01*
X105398156Y-66130238D01*
X105279762Y-66011844D01*
X105233145Y-65942076D01*
X105186739Y-65872626D01*
X105122665Y-65717936D01*
X105090000Y-65553718D01*
X105090000Y-65386282D01*
X105122665Y-65222064D01*
X105186739Y-65067374D01*
X105233145Y-64997924D01*
X105279762Y-64928156D01*
X105398156Y-64809762D01*
X105467924Y-64763145D01*
X105537374Y-64716739D01*
X105692064Y-64652665D01*
X105856282Y-64620000D01*
X106023718Y-64620000D01*
X106187936Y-64652665D01*
G37*
G36*
X103647936Y-64652665D02*
G01*
X103802626Y-64716739D01*
X103872076Y-64763145D01*
X103941844Y-64809762D01*
X104060238Y-64928156D01*
X104106855Y-64997924D01*
X104153261Y-65067374D01*
X104217335Y-65222064D01*
X104250000Y-65386282D01*
X104250000Y-65553718D01*
X104217335Y-65717936D01*
X104153261Y-65872626D01*
X104106855Y-65942076D01*
X104060238Y-66011844D01*
X103941844Y-66130238D01*
X103872076Y-66176855D01*
X103802626Y-66223261D01*
X103647936Y-66287335D01*
X103483718Y-66320000D01*
X103316282Y-66320000D01*
X103152064Y-66287335D01*
X102997374Y-66223261D01*
X102927924Y-66176855D01*
X102858156Y-66130238D01*
X102739762Y-66011844D01*
X102693145Y-65942076D01*
X102646739Y-65872626D01*
X102582665Y-65717936D01*
X102550000Y-65553718D01*
X102550000Y-65386282D01*
X102582665Y-65222064D01*
X102646739Y-65067374D01*
X102693145Y-64997924D01*
X102739762Y-64928156D01*
X102858156Y-64809762D01*
X102927924Y-64763145D01*
X102997374Y-64716739D01*
X103152064Y-64652665D01*
X103316282Y-64620000D01*
X103483718Y-64620000D01*
X103647936Y-64652665D01*
G37*
G36*
X101710000Y-66320000D02*
G01*
X100010000Y-66320000D01*
X100010000Y-64620000D01*
X101710000Y-64620000D01*
X101710000Y-66320000D01*
G37*
G36*
X126384122Y-64517761D02*
G01*
X126482267Y-64537283D01*
X126620942Y-64594724D01*
X126620944Y-64594725D01*
X126658770Y-64620000D01*
X126745747Y-64678116D01*
X126851884Y-64784253D01*
X126935276Y-64909058D01*
X126992717Y-65047733D01*
X127022000Y-65194950D01*
X127022000Y-65345050D01*
X126992717Y-65492267D01*
X126935276Y-65630942D01*
X126851884Y-65755747D01*
X126745747Y-65861884D01*
X126729670Y-65872626D01*
X126620944Y-65945275D01*
X126620943Y-65945276D01*
X126620942Y-65945276D01*
X126482267Y-66002717D01*
X126384122Y-66022239D01*
X126335051Y-66032000D01*
X126184949Y-66032000D01*
X126135878Y-66022239D01*
X126037733Y-66002717D01*
X125899058Y-65945276D01*
X125899057Y-65945276D01*
X125899056Y-65945275D01*
X125790330Y-65872626D01*
X125774253Y-65861884D01*
X125668116Y-65755747D01*
X125584724Y-65630942D01*
X125527283Y-65492267D01*
X125498000Y-65345050D01*
X125498000Y-65194950D01*
X125527283Y-65047733D01*
X125584724Y-64909058D01*
X125668116Y-64784253D01*
X125774253Y-64678116D01*
X125861230Y-64620000D01*
X125899056Y-64594725D01*
X125899058Y-64594724D01*
X126037733Y-64537283D01*
X126135878Y-64517761D01*
X126184949Y-64508000D01*
X126335051Y-64508000D01*
X126384122Y-64517761D01*
G37*
G36*
X111144122Y-64517761D02*
G01*
X111242267Y-64537283D01*
X111380942Y-64594724D01*
X111380944Y-64594725D01*
X111418770Y-64620000D01*
X111505747Y-64678116D01*
X111611884Y-64784253D01*
X111695276Y-64909058D01*
X111752717Y-65047733D01*
X111782000Y-65194950D01*
X111782000Y-65345050D01*
X111752717Y-65492267D01*
X111695276Y-65630942D01*
X111611884Y-65755747D01*
X111505747Y-65861884D01*
X111489670Y-65872626D01*
X111380944Y-65945275D01*
X111380943Y-65945276D01*
X111380942Y-65945276D01*
X111242267Y-66002717D01*
X111144122Y-66022239D01*
X111095051Y-66032000D01*
X110944949Y-66032000D01*
X110895878Y-66022239D01*
X110797733Y-66002717D01*
X110659058Y-65945276D01*
X110659057Y-65945276D01*
X110659056Y-65945275D01*
X110550330Y-65872626D01*
X110534253Y-65861884D01*
X110428116Y-65755747D01*
X110344724Y-65630942D01*
X110287283Y-65492267D01*
X110258000Y-65345050D01*
X110258000Y-65194950D01*
X110287283Y-65047733D01*
X110344724Y-64909058D01*
X110428116Y-64784253D01*
X110534253Y-64678116D01*
X110621230Y-64620000D01*
X110659056Y-64594725D01*
X110659058Y-64594724D01*
X110797733Y-64537283D01*
X110895878Y-64517761D01*
X110944949Y-64508000D01*
X111095051Y-64508000D01*
X111144122Y-64517761D01*
G37*
G36*
X111144122Y-61977761D02*
G01*
X111242267Y-61997283D01*
X111380942Y-62054724D01*
X111380944Y-62054725D01*
X111443345Y-62096420D01*
X111505747Y-62138116D01*
X111611884Y-62244253D01*
X111695276Y-62369058D01*
X111752717Y-62507733D01*
X111782000Y-62654950D01*
X111782000Y-62805050D01*
X111752717Y-62952267D01*
X111695276Y-63090942D01*
X111611884Y-63215747D01*
X111505747Y-63321884D01*
X111443344Y-63363580D01*
X111380944Y-63405275D01*
X111380943Y-63405276D01*
X111380942Y-63405276D01*
X111242267Y-63462717D01*
X111144122Y-63482239D01*
X111095051Y-63492000D01*
X110944949Y-63492000D01*
X110895878Y-63482239D01*
X110797733Y-63462717D01*
X110659058Y-63405276D01*
X110659057Y-63405276D01*
X110659056Y-63405275D01*
X110596656Y-63363580D01*
X110534253Y-63321884D01*
X110428116Y-63215747D01*
X110344724Y-63090942D01*
X110287283Y-62952267D01*
X110258000Y-62805050D01*
X110258000Y-62654950D01*
X110287283Y-62507733D01*
X110344724Y-62369058D01*
X110428116Y-62244253D01*
X110534253Y-62138116D01*
X110596655Y-62096420D01*
X110659056Y-62054725D01*
X110659058Y-62054724D01*
X110797733Y-61997283D01*
X110895878Y-61977761D01*
X110944949Y-61968000D01*
X111095051Y-61968000D01*
X111144122Y-61977761D01*
G37*
G36*
X126384122Y-61977761D02*
G01*
X126482267Y-61997283D01*
X126620942Y-62054724D01*
X126620944Y-62054725D01*
X126683345Y-62096420D01*
X126745747Y-62138116D01*
X126851884Y-62244253D01*
X126935276Y-62369058D01*
X126992717Y-62507733D01*
X127022000Y-62654950D01*
X127022000Y-62805050D01*
X126992717Y-62952267D01*
X126935276Y-63090942D01*
X126851884Y-63215747D01*
X126745747Y-63321884D01*
X126683344Y-63363580D01*
X126620944Y-63405275D01*
X126620943Y-63405276D01*
X126620942Y-63405276D01*
X126482267Y-63462717D01*
X126384122Y-63482239D01*
X126335051Y-63492000D01*
X126184949Y-63492000D01*
X126135878Y-63482239D01*
X126037733Y-63462717D01*
X125899058Y-63405276D01*
X125899057Y-63405276D01*
X125899056Y-63405275D01*
X125836656Y-63363580D01*
X125774253Y-63321884D01*
X125668116Y-63215747D01*
X125584724Y-63090942D01*
X125527283Y-62952267D01*
X125498000Y-62805050D01*
X125498000Y-62654950D01*
X125527283Y-62507733D01*
X125584724Y-62369058D01*
X125668116Y-62244253D01*
X125774253Y-62138116D01*
X125836655Y-62096420D01*
X125899056Y-62054725D01*
X125899058Y-62054724D01*
X126037733Y-61997283D01*
X126135878Y-61977761D01*
X126184949Y-61968000D01*
X126335051Y-61968000D01*
X126384122Y-61977761D01*
G37*
G36*
X111144122Y-59437761D02*
G01*
X111242267Y-59457283D01*
X111380942Y-59514724D01*
X111380944Y-59514725D01*
X111443344Y-59556420D01*
X111505747Y-59598116D01*
X111611884Y-59704253D01*
X111695276Y-59829058D01*
X111752717Y-59967733D01*
X111782000Y-60114950D01*
X111782000Y-60265050D01*
X111752717Y-60412267D01*
X111695276Y-60550942D01*
X111611884Y-60675747D01*
X111505747Y-60781884D01*
X111443344Y-60823580D01*
X111380944Y-60865275D01*
X111380943Y-60865276D01*
X111380942Y-60865276D01*
X111242267Y-60922717D01*
X111144122Y-60942239D01*
X111095051Y-60952000D01*
X110944949Y-60952000D01*
X110895878Y-60942239D01*
X110797733Y-60922717D01*
X110659058Y-60865276D01*
X110659057Y-60865276D01*
X110659056Y-60865275D01*
X110596656Y-60823580D01*
X110534253Y-60781884D01*
X110428116Y-60675747D01*
X110344724Y-60550942D01*
X110287283Y-60412267D01*
X110258000Y-60265050D01*
X110258000Y-60114950D01*
X110287283Y-59967733D01*
X110344724Y-59829058D01*
X110428116Y-59704253D01*
X110534253Y-59598116D01*
X110596655Y-59556420D01*
X110659056Y-59514725D01*
X110659058Y-59514724D01*
X110797733Y-59457283D01*
X110895878Y-59437761D01*
X110944949Y-59428000D01*
X111095051Y-59428000D01*
X111144122Y-59437761D01*
G37*
G36*
X126384122Y-59437761D02*
G01*
X126482267Y-59457283D01*
X126620942Y-59514724D01*
X126620944Y-59514725D01*
X126683344Y-59556420D01*
X126745747Y-59598116D01*
X126851884Y-59704253D01*
X126935276Y-59829058D01*
X126992717Y-59967733D01*
X127022000Y-60114950D01*
X127022000Y-60265050D01*
X126992717Y-60412267D01*
X126935276Y-60550942D01*
X126851884Y-60675747D01*
X126745747Y-60781884D01*
X126683344Y-60823580D01*
X126620944Y-60865275D01*
X126620943Y-60865276D01*
X126620942Y-60865276D01*
X126482267Y-60922717D01*
X126384122Y-60942239D01*
X126335051Y-60952000D01*
X126184949Y-60952000D01*
X126135878Y-60942239D01*
X126037733Y-60922717D01*
X125899058Y-60865276D01*
X125899057Y-60865276D01*
X125899056Y-60865275D01*
X125836656Y-60823580D01*
X125774253Y-60781884D01*
X125668116Y-60675747D01*
X125584724Y-60550942D01*
X125527283Y-60412267D01*
X125498000Y-60265050D01*
X125498000Y-60114950D01*
X125527283Y-59967733D01*
X125584724Y-59829058D01*
X125668116Y-59704253D01*
X125774253Y-59598116D01*
X125836655Y-59556420D01*
X125899056Y-59514725D01*
X125899058Y-59514724D01*
X126037733Y-59457283D01*
X126135878Y-59437761D01*
X126184949Y-59428000D01*
X126335051Y-59428000D01*
X126384122Y-59437761D01*
G37*
G36*
X59213378Y-55246860D02*
G01*
X59577355Y-55397624D01*
X59904926Y-55616500D01*
X60183501Y-55895075D01*
X60402377Y-56222646D01*
X60553141Y-56586623D01*
X60630000Y-56973018D01*
X60630000Y-57366984D01*
X60553141Y-57753379D01*
X60402377Y-58117356D01*
X60183501Y-58444927D01*
X59904926Y-58723502D01*
X59577355Y-58942378D01*
X59213378Y-59093142D01*
X58826983Y-59170001D01*
X58433017Y-59170001D01*
X58046622Y-59093142D01*
X57682645Y-58942378D01*
X57355074Y-58723502D01*
X57076499Y-58444927D01*
X56857623Y-58117356D01*
X56706859Y-57753379D01*
X56630000Y-57366984D01*
X56630000Y-56973018D01*
X56706859Y-56586623D01*
X56857623Y-56222646D01*
X57076499Y-55895075D01*
X57355074Y-55616500D01*
X57682645Y-55397624D01*
X58046622Y-55246860D01*
X58433017Y-55170001D01*
X58826983Y-55170001D01*
X59213378Y-55246860D01*
G37*
G36*
X147213378Y-55246860D02*
G01*
X147577355Y-55397624D01*
X147904926Y-55616500D01*
X148183501Y-55895075D01*
X148402377Y-56222646D01*
X148553141Y-56586623D01*
X148630000Y-56973018D01*
X148630000Y-57366984D01*
X148553141Y-57753379D01*
X148402377Y-58117356D01*
X148183501Y-58444927D01*
X147904926Y-58723502D01*
X147577355Y-58942378D01*
X147213378Y-59093142D01*
X146826983Y-59170001D01*
X146433017Y-59170001D01*
X146046622Y-59093142D01*
X145682645Y-58942378D01*
X145355074Y-58723502D01*
X145076499Y-58444927D01*
X144857623Y-58117356D01*
X144706859Y-57753379D01*
X144630000Y-57366984D01*
X144630000Y-56973018D01*
X144706859Y-56586623D01*
X144857623Y-56222646D01*
X145076499Y-55895075D01*
X145355074Y-55616500D01*
X145682645Y-55397624D01*
X146046622Y-55246860D01*
X146433017Y-55170001D01*
X146826983Y-55170001D01*
X147213378Y-55246860D01*
G37*
G36*
X161983378Y-55226859D02*
G01*
X162347355Y-55377623D01*
X162674926Y-55596499D01*
X162953501Y-55875074D01*
X163172377Y-56202645D01*
X163323141Y-56566622D01*
X163400000Y-56953017D01*
X163400000Y-57346983D01*
X163323141Y-57733378D01*
X163172377Y-58097355D01*
X162953501Y-58424926D01*
X162674926Y-58703501D01*
X162347355Y-58922377D01*
X161983378Y-59073141D01*
X161596983Y-59150000D01*
X161203017Y-59150000D01*
X160816622Y-59073141D01*
X160452645Y-58922377D01*
X160125074Y-58703501D01*
X159846499Y-58424926D01*
X159627623Y-58097355D01*
X159476859Y-57733378D01*
X159400000Y-57346983D01*
X159400000Y-56953017D01*
X159476859Y-56566622D01*
X159627623Y-56202645D01*
X159846499Y-55875074D01*
X160125074Y-55596499D01*
X160452645Y-55377623D01*
X160816622Y-55226859D01*
X161203017Y-55150000D01*
X161596983Y-55150000D01*
X161983378Y-55226859D01*
G37*
G36*
X126384122Y-56897761D02*
G01*
X126482267Y-56917283D01*
X126616823Y-56973018D01*
X126620944Y-56974725D01*
X126683344Y-57016420D01*
X126745747Y-57058116D01*
X126851884Y-57164253D01*
X126935276Y-57289058D01*
X126992717Y-57427733D01*
X126992717Y-57427735D01*
X127022000Y-57574949D01*
X127022000Y-57725051D01*
X127016365Y-57753379D01*
X126992717Y-57872267D01*
X126935276Y-58010942D01*
X126851884Y-58135747D01*
X126745747Y-58241884D01*
X126683345Y-58283580D01*
X126620944Y-58325275D01*
X126620943Y-58325276D01*
X126620942Y-58325276D01*
X126482267Y-58382717D01*
X126384122Y-58402239D01*
X126335051Y-58412000D01*
X126184949Y-58412000D01*
X126135878Y-58402239D01*
X126037733Y-58382717D01*
X125899058Y-58325276D01*
X125899057Y-58325276D01*
X125899056Y-58325275D01*
X125836655Y-58283580D01*
X125774253Y-58241884D01*
X125668116Y-58135747D01*
X125584724Y-58010942D01*
X125527283Y-57872267D01*
X125503635Y-57753379D01*
X125498000Y-57725051D01*
X125498000Y-57574949D01*
X125527283Y-57427735D01*
X125527283Y-57427733D01*
X125584724Y-57289058D01*
X125668116Y-57164253D01*
X125774253Y-57058116D01*
X125836656Y-57016420D01*
X125899056Y-56974725D01*
X125903177Y-56973018D01*
X126037733Y-56917283D01*
X126135878Y-56897761D01*
X126184949Y-56888000D01*
X126335051Y-56888000D01*
X126384122Y-56897761D01*
G37*
G36*
X111782000Y-58412000D02*
G01*
X110258000Y-58412000D01*
X110258000Y-56888000D01*
X111782000Y-56888000D01*
X111782000Y-58412000D01*
G37*
M02*
