%TF.GenerationSoftware,KiCad,Pcbnew,5.1.6*%
%TF.CreationDate,2020-07-08T21:20:25+02:00*%
%TF.ProjectId,mainboard,6d61696e-626f-4617-9264-2e6b69636164,rev?*%
%TF.SameCoordinates,Original*%
%TF.FileFunction,Copper,L4,Bot*%
%TF.FilePolarity,Positive*%
%FSLAX46Y46*%
G04 Gerber Fmt 4.6, Leading zero omitted, Abs format (unit mm)*
G04 Created by KiCad (PCBNEW 5.1.6) date 2020-07-08 21:20:25*
%MOMM*%
%LPD*%
G01*
G04 APERTURE LIST*
%TA.AperFunction,ComponentPad*%
%ADD10O,1.700000X1.700000*%
%TD*%
%TA.AperFunction,ComponentPad*%
%ADD11R,1.700000X1.700000*%
%TD*%
%TA.AperFunction,ComponentPad*%
%ADD12C,4.000000*%
%TD*%
%TA.AperFunction,ComponentPad*%
%ADD13O,1.200000X2.000000*%
%TD*%
%TA.AperFunction,ComponentPad*%
%ADD14R,1.524000X1.524000*%
%TD*%
%TA.AperFunction,ComponentPad*%
%ADD15C,1.524000*%
%TD*%
%TA.AperFunction,ComponentPad*%
%ADD16C,2.000000*%
%TD*%
%TA.AperFunction,ComponentPad*%
%ADD17R,2.000000X3.200000*%
%TD*%
%TA.AperFunction,ComponentPad*%
%ADD18R,2.000000X2.000000*%
%TD*%
%TA.AperFunction,ViaPad*%
%ADD19C,0.800000*%
%TD*%
%TA.AperFunction,Conductor*%
%ADD20C,0.250000*%
%TD*%
%TA.AperFunction,Conductor*%
%ADD21C,0.254000*%
%TD*%
G04 APERTURE END LIST*
D10*
%TO.P,J1,12*%
%TO.N,GND*%
X67400000Y-75560000D03*
%TO.P,J1,11*%
%TO.N,+5V*%
X67400000Y-78100000D03*
%TO.P,J1,10*%
%TO.N,ESC_PWM*%
X67400000Y-80640000D03*
%TO.P,J1,9*%
%TO.N,GND*%
X67400000Y-83180000D03*
%TO.P,J1,8*%
%TO.N,Net-(J1-Pad8)*%
X67400000Y-85720000D03*
%TO.P,J1,7*%
%TO.N,ESC_DIR*%
X67400000Y-88260000D03*
%TO.P,J1,6*%
%TO.N,GND*%
X67400000Y-90800000D03*
%TO.P,J1,5*%
%TO.N,+3V3*%
X67400000Y-93340000D03*
%TO.P,J1,4*%
%TO.N,INCR_IN*%
X67400000Y-95880000D03*
%TO.P,J1,3*%
%TO.N,GND*%
X67400000Y-98420000D03*
%TO.P,J1,2*%
%TO.N,+3V3*%
X67400000Y-100960000D03*
D11*
%TO.P,J1,1*%
%TO.N,CUR_ADC*%
X67400000Y-103500000D03*
%TD*%
D12*
%TO.P,H1,1*%
%TO.N,N/C*%
X161400000Y-122200000D03*
%TD*%
%TO.P,H2,1*%
%TO.N,N/C*%
X161400000Y-57150000D03*
%TD*%
%TO.P,GLCD1,21*%
%TO.N,N/C*%
X146630000Y-122170001D03*
X146630000Y-57170001D03*
X58630000Y-57170001D03*
X58630000Y-122170001D03*
D13*
%TO.P,GLCD1,20*%
%TO.N,LCD_BL*%
X70100000Y-122130001D03*
%TO.P,GLCD1,19*%
%TO.N,+5V*%
X72640000Y-122130001D03*
%TO.P,GLCD1,18*%
%TO.N,Net-(GLCD1-Pad18)*%
X75180000Y-122130001D03*
%TO.P,GLCD1,17*%
%TO.N,LCD_RESET*%
X77720000Y-122130001D03*
%TO.P,GLCD1,16*%
%TO.N,Net-(GLCD1-Pad16)*%
X80260000Y-122130001D03*
%TO.P,GLCD1,15*%
%TO.N,GND*%
X82800000Y-122130001D03*
%TO.P,GLCD1,14*%
%TO.N,Net-(GLCD1-Pad14)*%
X85340000Y-122130001D03*
%TO.P,GLCD1,13*%
%TO.N,Net-(GLCD1-Pad13)*%
X87880000Y-122130001D03*
%TO.P,GLCD1,12*%
%TO.N,Net-(GLCD1-Pad12)*%
X90420000Y-122130001D03*
%TO.P,GLCD1,11*%
%TO.N,Net-(GLCD1-Pad11)*%
X92960000Y-122130001D03*
%TO.P,GLCD1,10*%
%TO.N,Net-(GLCD1-Pad10)*%
X95500000Y-122130001D03*
%TO.P,GLCD1,9*%
%TO.N,Net-(GLCD1-Pad9)*%
X98040000Y-122130001D03*
%TO.P,GLCD1,8*%
%TO.N,Net-(GLCD1-Pad8)*%
X100580000Y-122130001D03*
%TO.P,GLCD1,7*%
%TO.N,Net-(GLCD1-Pad7)*%
X103120000Y-122130001D03*
%TO.P,GLCD1,6*%
%TO.N,LCD_E*%
X105660000Y-122130001D03*
%TO.P,GLCD1,5*%
%TO.N,LCD_RW*%
X108200000Y-122130001D03*
%TO.P,GLCD1,4*%
%TO.N,LCD_RS*%
X110740000Y-122130001D03*
%TO.P,GLCD1,3*%
%TO.N,Net-(GLCD1-Pad3)*%
X113280000Y-122130001D03*
%TO.P,GLCD1,2*%
%TO.N,+5V*%
X115820000Y-122130001D03*
%TO.P,GLCD1,1*%
%TO.N,GND*%
X118360000Y-122130001D03*
%TD*%
D14*
%TO.P,A1,1*%
%TO.N,+3V3*%
X111020000Y-57650000D03*
D15*
%TO.P,A1,2*%
%TO.N,GND*%
X111020000Y-60190000D03*
%TO.P,A1,3*%
%TO.N,Net-(A1-Pad3)*%
X111020000Y-62730000D03*
%TO.P,A1,4*%
%TO.N,Net-(A1-Pad4)*%
X111020000Y-65270000D03*
%TO.P,A1,5*%
%TO.N,LCD_BL*%
X111020000Y-67810000D03*
%TO.P,A1,6*%
%TO.N,RTE_CCW*%
X111020000Y-70350000D03*
%TO.P,A1,7*%
%TO.N,RTE_CW*%
X111020000Y-72890000D03*
%TO.P,A1,8*%
%TO.N,RTE_BTN*%
X111020000Y-75430000D03*
%TO.P,A1,9*%
%TO.N,Net-(A1-Pad9)*%
X111020000Y-77970000D03*
%TO.P,A1,10*%
%TO.N,SWCLK*%
X111020000Y-80510000D03*
%TO.P,A1,11*%
%TO.N,SWDIO*%
X111020000Y-83050000D03*
%TO.P,A1,12*%
%TO.N,Net-(A1-Pad12)*%
X111020000Y-85590000D03*
%TO.P,A1,13*%
%TO.N,Net-(A1-Pad13)*%
X111020000Y-88130000D03*
%TO.P,A1,14*%
%TO.N,Net-(A1-Pad14)*%
X111020000Y-90670000D03*
%TO.P,A1,15*%
%TO.N,Net-(A1-Pad15)*%
X111020000Y-93210000D03*
%TO.P,A1,16*%
%TO.N,INCR_IN*%
X111020000Y-95750000D03*
%TO.P,A1,17*%
%TO.N,Net-(A1-Pad17)*%
X111020000Y-98290000D03*
%TO.P,A1,18*%
%TO.N,Net-(A1-Pad18)*%
X111020000Y-100830000D03*
%TO.P,A1,19*%
%TO.N,Net-(A1-Pad19)*%
X111020000Y-103370000D03*
%TO.P,A1,20*%
%TO.N,Net-(A1-Pad20)*%
X111020000Y-105910000D03*
%TO.P,A1,21*%
%TO.N,+5V*%
X126260000Y-105910000D03*
%TO.P,A1,22*%
%TO.N,Net-(A1-Pad22)*%
X126260000Y-103370000D03*
%TO.P,A1,23*%
%TO.N,ESC_DIR*%
X126260000Y-100830000D03*
%TO.P,A1,24*%
%TO.N,Net-(A1-Pad24)*%
X126260000Y-98290000D03*
%TO.P,A1,25*%
%TO.N,ESC_PWM*%
X126260000Y-95750000D03*
%TO.P,A1,26*%
%TO.N,LCD_RW*%
X126260000Y-93210000D03*
%TO.P,A1,27*%
%TO.N,LCD_RESET*%
X126260000Y-90670000D03*
%TO.P,A1,28*%
%TO.N,LCD_E*%
X126260000Y-88130000D03*
%TO.P,A1,29*%
%TO.N,LCD_RS*%
X126260000Y-85590000D03*
%TO.P,A1,30*%
%TO.N,Net-(A1-Pad30)*%
X126260000Y-83050000D03*
%TO.P,A1,31*%
%TO.N,Net-(A1-Pad31)*%
X126260000Y-80510000D03*
%TO.P,A1,32*%
%TO.N,Net-(A1-Pad32)*%
X126260000Y-77970000D03*
%TO.P,A1,33*%
%TO.N,CUR_ADC*%
X126260000Y-75430000D03*
%TO.P,A1,34*%
%TO.N,Net-(A1-Pad34)*%
X126260000Y-72890000D03*
%TO.P,A1,35*%
%TO.N,Net-(A1-Pad35)*%
X126260000Y-70350000D03*
%TO.P,A1,36*%
%TO.N,Net-(A1-Pad36)*%
X126260000Y-67810000D03*
%TO.P,A1,37*%
%TO.N,Net-(A1-Pad37)*%
X126260000Y-65270000D03*
%TO.P,A1,38*%
%TO.N,Net-(A1-Pad38)*%
X126260000Y-62730000D03*
%TO.P,A1,39*%
%TO.N,Net-(A1-Pad39)*%
X126260000Y-60190000D03*
%TO.P,A1,40*%
%TO.N,Net-(A1-Pad40)*%
X126260000Y-57650000D03*
%TD*%
D11*
%TO.P,J2,1*%
%TO.N,SWDIO*%
X100860000Y-65470000D03*
D10*
%TO.P,J2,2*%
%TO.N,SWCLK*%
X103400000Y-65470000D03*
%TO.P,J2,3*%
%TO.N,GND*%
X105940000Y-65470000D03*
%TD*%
D16*
%TO.P,SW1,S1*%
%TO.N,RTE_BTN*%
X153750000Y-97050000D03*
%TO.P,SW1,S2*%
%TO.N,GND*%
X158750000Y-97050000D03*
D17*
%TO.P,SW1,MP*%
%TO.N,N/C*%
X150650000Y-90050000D03*
X161850000Y-90050000D03*
D16*
%TO.P,SW1,B*%
%TO.N,RTE_CW*%
X153750000Y-82550000D03*
%TO.P,SW1,C*%
%TO.N,GND*%
X156250000Y-82550000D03*
D18*
%TO.P,SW1,A*%
%TO.N,RTE_CCW*%
X158750000Y-82550000D03*
%TD*%
D19*
%TO.N,LCD_BL*%
X85100000Y-106700000D03*
%TO.N,RTE_CCW*%
X119910000Y-100830000D03*
X143510000Y-86360000D03*
%TO.N,RTE_CW*%
X118640000Y-102100000D03*
%TO.N,RTE_BTN*%
X117370000Y-103370000D03*
%TO.N,+5V*%
X72390000Y-91440000D03*
X72390000Y-91440000D03*
X80010000Y-110490000D03*
X114300000Y-113030000D03*
%TO.N,LCD_RW*%
X133880000Y-106680000D03*
%TO.N,LCD_RS*%
X136420000Y-106680000D03*
%TD*%
D20*
%TO.N,+3V3*%
X64770000Y-100930000D02*
X67310000Y-100930000D01*
X63500000Y-99660000D02*
X64770000Y-100930000D01*
X64770000Y-93310000D02*
X63500000Y-92040000D01*
X67310000Y-93310000D02*
X64770000Y-93310000D01*
X63500000Y-92040000D02*
X63500000Y-99660000D01*
X63500000Y-69850000D02*
X63500000Y-91440000D01*
X75700000Y-57650000D02*
X63500000Y-69850000D01*
X111020000Y-57650000D02*
X75700000Y-57650000D01*
D21*
X63500000Y-92040000D02*
X63500000Y-91440000D01*
D20*
%TO.N,GND*%
X82800000Y-117090000D02*
X82800000Y-122130001D01*
X73660000Y-107950000D02*
X82800000Y-117090000D01*
X73660000Y-101600000D02*
X73660000Y-107950000D01*
X70450000Y-98390000D02*
X73660000Y-101600000D01*
X67310000Y-98390000D02*
X70450000Y-98390000D01*
%TO.N,LCD_BL*%
X83820000Y-105410000D02*
X85090000Y-106680000D01*
X83820000Y-76200000D02*
X83820000Y-105410000D01*
X92210000Y-67810000D02*
X83820000Y-76200000D01*
X111020000Y-67810000D02*
X92210000Y-67810000D01*
%TO.N,RTE_CCW*%
X111020000Y-70350000D02*
X116100000Y-70350000D01*
X116100000Y-70350000D02*
X119910000Y-74160000D01*
X119910000Y-74160000D02*
X119910000Y-99560000D01*
X119910000Y-99560000D02*
X119910000Y-100830000D01*
X119910000Y-100830000D02*
X119910000Y-100830000D01*
X158750000Y-82550000D02*
X158750000Y-85090000D01*
X158750000Y-85090000D02*
X157480000Y-86360000D01*
X157480000Y-86360000D02*
X143510000Y-86360000D01*
%TO.N,RTE_CW*%
X111020000Y-72890000D02*
X116100000Y-72890000D01*
X116100000Y-72890000D02*
X118640000Y-75430000D01*
X118640000Y-75430000D02*
X118640000Y-102100000D01*
X118640000Y-102100000D02*
X118640000Y-102100000D01*
%TO.N,RTE_BTN*%
X111020000Y-75430000D02*
X113560000Y-75430000D01*
X113560000Y-75430000D02*
X114830000Y-75430000D01*
X114830000Y-75430000D02*
X117370000Y-77970000D01*
X117370000Y-77970000D02*
X117370000Y-103370000D01*
X117370000Y-103370000D02*
X117370000Y-103370000D01*
%TO.N,+5V*%
X72390000Y-91440000D02*
X72390000Y-96520000D01*
X72390000Y-96520000D02*
X72390000Y-97790000D01*
X72390000Y-97790000D02*
X76200000Y-101600000D01*
X76200000Y-101600000D02*
X76200000Y-106680000D01*
X76200000Y-106680000D02*
X80010000Y-110490000D01*
X80010000Y-110490000D02*
X80010000Y-110490000D01*
X126260000Y-108690000D02*
X126260000Y-105410000D01*
X121920000Y-113030000D02*
X126260000Y-108690000D01*
X114300000Y-113030000D02*
X121920000Y-113030000D01*
X82550000Y-113030000D02*
X109570000Y-113030000D01*
X109570000Y-113030000D02*
X109220000Y-113030000D01*
X80010000Y-110490000D02*
X82550000Y-113030000D01*
X114300000Y-113030000D02*
X109570000Y-113030000D01*
%TO.N,ESC_DIR*%
X76800000Y-88230000D02*
X67310000Y-88230000D01*
X78740000Y-90170000D02*
X76800000Y-88230000D01*
X78740000Y-106680000D02*
X78740000Y-90170000D01*
X116840000Y-111760000D02*
X83820000Y-111760000D01*
X122450000Y-106150000D02*
X116840000Y-111760000D01*
X83820000Y-111760000D02*
X78740000Y-106680000D01*
X122450000Y-102100000D02*
X122450000Y-106150000D01*
X123720000Y-100830000D02*
X122450000Y-102100000D01*
X126260000Y-100830000D02*
X123720000Y-100830000D01*
%TO.N,ESC_PWM*%
X123720000Y-95750000D02*
X126260000Y-95750000D01*
X121180000Y-98290000D02*
X123720000Y-95750000D01*
X121180000Y-103370000D02*
X121180000Y-98290000D01*
X83820000Y-109220000D02*
X100330000Y-109220000D01*
X81280000Y-106680000D02*
X83820000Y-109220000D01*
X67310000Y-80610000D02*
X79110000Y-80610000D01*
X79110000Y-80610000D02*
X81280000Y-82780000D01*
X81280000Y-89220000D02*
X81280000Y-106680000D01*
X81280000Y-82780000D02*
X81280000Y-89220000D01*
X81280000Y-88900000D02*
X81280000Y-89220000D01*
X121180000Y-104880000D02*
X116840000Y-109220000D01*
X116840000Y-109220000D02*
X100330000Y-109220000D01*
X121180000Y-103370000D02*
X121180000Y-104880000D01*
%TO.N,LCD_RW*%
X133880000Y-107950000D02*
X133880000Y-106680000D01*
X133880000Y-109960000D02*
X133880000Y-107950000D01*
X128270000Y-115570000D02*
X133880000Y-109960000D01*
X111760000Y-115570000D02*
X128270000Y-115570000D01*
X108200000Y-119130000D02*
X111760000Y-115570000D01*
X108200000Y-122130001D02*
X108200000Y-119130000D01*
%TO.N,LCD_E*%
X105660000Y-119130000D02*
X105660000Y-122130001D01*
X110490000Y-114300000D02*
X105660000Y-119130000D01*
X127000000Y-114300000D02*
X110490000Y-114300000D01*
X131340000Y-109960000D02*
X127000000Y-114300000D01*
X131340000Y-90170000D02*
X131340000Y-109960000D01*
X129300000Y-88130000D02*
X131340000Y-90170000D01*
X126260000Y-88130000D02*
X129300000Y-88130000D01*
%TO.N,LCD_RS*%
X136420000Y-109960000D02*
X136420000Y-107950000D01*
X129540000Y-116840000D02*
X136420000Y-109960000D01*
X113030000Y-116840000D02*
X129540000Y-116840000D01*
X110740000Y-119130000D02*
X113030000Y-116840000D01*
X136420000Y-107950000D02*
X136420000Y-106680000D01*
X110740000Y-122130001D02*
X110740000Y-119130000D01*
%TD*%
D21*
%TO.N,GND*%
G36*
X144583262Y-55490286D02*
G01*
X144294893Y-55921860D01*
X144096261Y-56401400D01*
X143995000Y-56910476D01*
X143995000Y-57429526D01*
X144096261Y-57938602D01*
X144294893Y-58418142D01*
X144583262Y-58849716D01*
X144950285Y-59216739D01*
X145381859Y-59505108D01*
X145861399Y-59703740D01*
X146370475Y-59805001D01*
X146889525Y-59805001D01*
X147398601Y-59703740D01*
X147878141Y-59505108D01*
X148309715Y-59216739D01*
X148676738Y-58849716D01*
X148965107Y-58418142D01*
X149163739Y-57938602D01*
X149265000Y-57429526D01*
X149265000Y-56910476D01*
X149163739Y-56401400D01*
X148965107Y-55921860D01*
X148676738Y-55490286D01*
X148471452Y-55285000D01*
X159538547Y-55285000D01*
X159353262Y-55470285D01*
X159064893Y-55901859D01*
X158866261Y-56381399D01*
X158765000Y-56890475D01*
X158765000Y-57409525D01*
X158866261Y-57918601D01*
X159064893Y-58398141D01*
X159353262Y-58829715D01*
X159720285Y-59196738D01*
X160151859Y-59485107D01*
X160631399Y-59683739D01*
X161140475Y-59785000D01*
X161659525Y-59785000D01*
X162168601Y-59683739D01*
X162648141Y-59485107D01*
X163079715Y-59196738D01*
X163315000Y-58961453D01*
X163315000Y-88015649D01*
X163301185Y-87998815D01*
X163204494Y-87919463D01*
X163094180Y-87860498D01*
X162974482Y-87824188D01*
X162850000Y-87811928D01*
X160850000Y-87811928D01*
X160725518Y-87824188D01*
X160605820Y-87860498D01*
X160495506Y-87919463D01*
X160398815Y-87998815D01*
X160319463Y-88095506D01*
X160260498Y-88205820D01*
X160224188Y-88325518D01*
X160211928Y-88450000D01*
X160211928Y-91650000D01*
X160224188Y-91774482D01*
X160260498Y-91894180D01*
X160319463Y-92004494D01*
X160398815Y-92101185D01*
X160495506Y-92180537D01*
X160605820Y-92239502D01*
X160725518Y-92275812D01*
X160850000Y-92288072D01*
X162850000Y-92288072D01*
X162974482Y-92275812D01*
X163094180Y-92239502D01*
X163204494Y-92180537D01*
X163301185Y-92101185D01*
X163315001Y-92084351D01*
X163315001Y-120388548D01*
X163079715Y-120153262D01*
X162648141Y-119864893D01*
X162168601Y-119666261D01*
X161659525Y-119565000D01*
X161140475Y-119565000D01*
X160631399Y-119666261D01*
X160151859Y-119864893D01*
X159720285Y-120153262D01*
X159353262Y-120520285D01*
X159064893Y-120951859D01*
X158866261Y-121431399D01*
X158765000Y-121940475D01*
X158765000Y-122459525D01*
X158866261Y-122968601D01*
X159064893Y-123448141D01*
X159353262Y-123879715D01*
X159488547Y-124015000D01*
X148511454Y-124015000D01*
X148676738Y-123849716D01*
X148965107Y-123418142D01*
X149163739Y-122938602D01*
X149265000Y-122429526D01*
X149265000Y-121910476D01*
X149163739Y-121401400D01*
X148965107Y-120921860D01*
X148676738Y-120490286D01*
X148309715Y-120123263D01*
X147878141Y-119834894D01*
X147398601Y-119636262D01*
X146889525Y-119535001D01*
X146370475Y-119535001D01*
X145861399Y-119636262D01*
X145381859Y-119834894D01*
X144950285Y-120123263D01*
X144583262Y-120490286D01*
X144294893Y-120921860D01*
X144096261Y-121401400D01*
X143995000Y-121910476D01*
X143995000Y-122429526D01*
X144096261Y-122938602D01*
X144294893Y-123418142D01*
X144583262Y-123849716D01*
X144748546Y-124015000D01*
X60511454Y-124015000D01*
X60676738Y-123849716D01*
X60965107Y-123418142D01*
X61163739Y-122938602D01*
X61265000Y-122429526D01*
X61265000Y-121910476D01*
X61217035Y-121669336D01*
X68865000Y-121669336D01*
X68865000Y-122590665D01*
X68882870Y-122772102D01*
X68953489Y-123004901D01*
X69068167Y-123219449D01*
X69222498Y-123407503D01*
X69410551Y-123561834D01*
X69625099Y-123676512D01*
X69857898Y-123747131D01*
X70100000Y-123770976D01*
X70342101Y-123747131D01*
X70574900Y-123676512D01*
X70789448Y-123561834D01*
X70977502Y-123407503D01*
X71131833Y-123219450D01*
X71246511Y-123004902D01*
X71317130Y-122772103D01*
X71335000Y-122590666D01*
X71335000Y-121669337D01*
X71335000Y-121669336D01*
X71405000Y-121669336D01*
X71405000Y-122590665D01*
X71422870Y-122772102D01*
X71493489Y-123004901D01*
X71608167Y-123219449D01*
X71762498Y-123407503D01*
X71950551Y-123561834D01*
X72165099Y-123676512D01*
X72397898Y-123747131D01*
X72640000Y-123770976D01*
X72882101Y-123747131D01*
X73114900Y-123676512D01*
X73329448Y-123561834D01*
X73517502Y-123407503D01*
X73671833Y-123219450D01*
X73786511Y-123004902D01*
X73857130Y-122772103D01*
X73875000Y-122590666D01*
X73875000Y-121669337D01*
X73875000Y-121669336D01*
X73945000Y-121669336D01*
X73945000Y-122590665D01*
X73962870Y-122772102D01*
X74033489Y-123004901D01*
X74148167Y-123219449D01*
X74302498Y-123407503D01*
X74490551Y-123561834D01*
X74705099Y-123676512D01*
X74937898Y-123747131D01*
X75180000Y-123770976D01*
X75422101Y-123747131D01*
X75654900Y-123676512D01*
X75869448Y-123561834D01*
X76057502Y-123407503D01*
X76211833Y-123219450D01*
X76326511Y-123004902D01*
X76397130Y-122772103D01*
X76415000Y-122590666D01*
X76415000Y-121669337D01*
X76415000Y-121669336D01*
X76485000Y-121669336D01*
X76485000Y-122590665D01*
X76502870Y-122772102D01*
X76573489Y-123004901D01*
X76688167Y-123219449D01*
X76842498Y-123407503D01*
X77030551Y-123561834D01*
X77245099Y-123676512D01*
X77477898Y-123747131D01*
X77720000Y-123770976D01*
X77962101Y-123747131D01*
X78194900Y-123676512D01*
X78409448Y-123561834D01*
X78597502Y-123407503D01*
X78751833Y-123219450D01*
X78866511Y-123004902D01*
X78937130Y-122772103D01*
X78955000Y-122590666D01*
X78955000Y-121669337D01*
X78955000Y-121669336D01*
X79025000Y-121669336D01*
X79025000Y-122590665D01*
X79042870Y-122772102D01*
X79113489Y-123004901D01*
X79228167Y-123219449D01*
X79382498Y-123407503D01*
X79570551Y-123561834D01*
X79785099Y-123676512D01*
X80017898Y-123747131D01*
X80260000Y-123770976D01*
X80502101Y-123747131D01*
X80734900Y-123676512D01*
X80949448Y-123561834D01*
X81137502Y-123407503D01*
X81291833Y-123219450D01*
X81406511Y-123004902D01*
X81477130Y-122772103D01*
X81495000Y-122590666D01*
X81495000Y-122257001D01*
X81565000Y-122257001D01*
X81565000Y-122657001D01*
X81613507Y-122895497D01*
X81707610Y-123119947D01*
X81843693Y-123321726D01*
X82016526Y-123493079D01*
X82219467Y-123627422D01*
X82444718Y-123719592D01*
X82482391Y-123723463D01*
X82673000Y-123598732D01*
X82673000Y-122257001D01*
X82927000Y-122257001D01*
X82927000Y-123598732D01*
X83117609Y-123723463D01*
X83155282Y-123719592D01*
X83380533Y-123627422D01*
X83583474Y-123493079D01*
X83756307Y-123321726D01*
X83892390Y-123119947D01*
X83986493Y-122895497D01*
X84035000Y-122657001D01*
X84035000Y-122257001D01*
X82927000Y-122257001D01*
X82673000Y-122257001D01*
X81565000Y-122257001D01*
X81495000Y-122257001D01*
X81495000Y-121669337D01*
X81488467Y-121603001D01*
X81565000Y-121603001D01*
X81565000Y-122003001D01*
X82673000Y-122003001D01*
X82673000Y-120661270D01*
X82927000Y-120661270D01*
X82927000Y-122003001D01*
X84035000Y-122003001D01*
X84035000Y-121669336D01*
X84105000Y-121669336D01*
X84105000Y-122590665D01*
X84122870Y-122772102D01*
X84193489Y-123004901D01*
X84308167Y-123219449D01*
X84462498Y-123407503D01*
X84650551Y-123561834D01*
X84865099Y-123676512D01*
X85097898Y-123747131D01*
X85340000Y-123770976D01*
X85582101Y-123747131D01*
X85814900Y-123676512D01*
X86029448Y-123561834D01*
X86217502Y-123407503D01*
X86371833Y-123219450D01*
X86486511Y-123004902D01*
X86557130Y-122772103D01*
X86575000Y-122590666D01*
X86575000Y-121669337D01*
X86575000Y-121669336D01*
X86645000Y-121669336D01*
X86645000Y-122590665D01*
X86662870Y-122772102D01*
X86733489Y-123004901D01*
X86848167Y-123219449D01*
X87002498Y-123407503D01*
X87190551Y-123561834D01*
X87405099Y-123676512D01*
X87637898Y-123747131D01*
X87880000Y-123770976D01*
X88122101Y-123747131D01*
X88354900Y-123676512D01*
X88569448Y-123561834D01*
X88757502Y-123407503D01*
X88911833Y-123219450D01*
X89026511Y-123004902D01*
X89097130Y-122772103D01*
X89115000Y-122590666D01*
X89115000Y-121669337D01*
X89115000Y-121669336D01*
X89185000Y-121669336D01*
X89185000Y-122590665D01*
X89202870Y-122772102D01*
X89273489Y-123004901D01*
X89388167Y-123219449D01*
X89542498Y-123407503D01*
X89730551Y-123561834D01*
X89945099Y-123676512D01*
X90177898Y-123747131D01*
X90420000Y-123770976D01*
X90662101Y-123747131D01*
X90894900Y-123676512D01*
X91109448Y-123561834D01*
X91297502Y-123407503D01*
X91451833Y-123219450D01*
X91566511Y-123004902D01*
X91637130Y-122772103D01*
X91655000Y-122590666D01*
X91655000Y-121669337D01*
X91655000Y-121669336D01*
X91725000Y-121669336D01*
X91725000Y-122590665D01*
X91742870Y-122772102D01*
X91813489Y-123004901D01*
X91928167Y-123219449D01*
X92082498Y-123407503D01*
X92270551Y-123561834D01*
X92485099Y-123676512D01*
X92717898Y-123747131D01*
X92960000Y-123770976D01*
X93202101Y-123747131D01*
X93434900Y-123676512D01*
X93649448Y-123561834D01*
X93837502Y-123407503D01*
X93991833Y-123219450D01*
X94106511Y-123004902D01*
X94177130Y-122772103D01*
X94195000Y-122590666D01*
X94195000Y-121669337D01*
X94195000Y-121669336D01*
X94265000Y-121669336D01*
X94265000Y-122590665D01*
X94282870Y-122772102D01*
X94353489Y-123004901D01*
X94468167Y-123219449D01*
X94622498Y-123407503D01*
X94810551Y-123561834D01*
X95025099Y-123676512D01*
X95257898Y-123747131D01*
X95500000Y-123770976D01*
X95742101Y-123747131D01*
X95974900Y-123676512D01*
X96189448Y-123561834D01*
X96377502Y-123407503D01*
X96531833Y-123219450D01*
X96646511Y-123004902D01*
X96717130Y-122772103D01*
X96735000Y-122590666D01*
X96735000Y-121669337D01*
X96735000Y-121669336D01*
X96805000Y-121669336D01*
X96805000Y-122590665D01*
X96822870Y-122772102D01*
X96893489Y-123004901D01*
X97008167Y-123219449D01*
X97162498Y-123407503D01*
X97350551Y-123561834D01*
X97565099Y-123676512D01*
X97797898Y-123747131D01*
X98040000Y-123770976D01*
X98282101Y-123747131D01*
X98514900Y-123676512D01*
X98729448Y-123561834D01*
X98917502Y-123407503D01*
X99071833Y-123219450D01*
X99186511Y-123004902D01*
X99257130Y-122772103D01*
X99275000Y-122590666D01*
X99275000Y-121669337D01*
X99275000Y-121669336D01*
X99345000Y-121669336D01*
X99345000Y-122590665D01*
X99362870Y-122772102D01*
X99433489Y-123004901D01*
X99548167Y-123219449D01*
X99702498Y-123407503D01*
X99890551Y-123561834D01*
X100105099Y-123676512D01*
X100337898Y-123747131D01*
X100580000Y-123770976D01*
X100822101Y-123747131D01*
X101054900Y-123676512D01*
X101269448Y-123561834D01*
X101457502Y-123407503D01*
X101611833Y-123219450D01*
X101726511Y-123004902D01*
X101797130Y-122772103D01*
X101815000Y-122590666D01*
X101815000Y-121669337D01*
X101815000Y-121669336D01*
X101885000Y-121669336D01*
X101885000Y-122590665D01*
X101902870Y-122772102D01*
X101973489Y-123004901D01*
X102088167Y-123219449D01*
X102242498Y-123407503D01*
X102430551Y-123561834D01*
X102645099Y-123676512D01*
X102877898Y-123747131D01*
X103120000Y-123770976D01*
X103362101Y-123747131D01*
X103594900Y-123676512D01*
X103809448Y-123561834D01*
X103997502Y-123407503D01*
X104151833Y-123219450D01*
X104266511Y-123004902D01*
X104337130Y-122772103D01*
X104355000Y-122590666D01*
X104355000Y-121669337D01*
X104337130Y-121487900D01*
X104266511Y-121255100D01*
X104151833Y-121040552D01*
X103997502Y-120852499D01*
X103809449Y-120698168D01*
X103594901Y-120583490D01*
X103362102Y-120512871D01*
X103120000Y-120489026D01*
X102877899Y-120512871D01*
X102645100Y-120583490D01*
X102430552Y-120698168D01*
X102242499Y-120852499D01*
X102088168Y-121040552D01*
X101973489Y-121255100D01*
X101902870Y-121487899D01*
X101885000Y-121669336D01*
X101815000Y-121669336D01*
X101797130Y-121487900D01*
X101726511Y-121255100D01*
X101611833Y-121040552D01*
X101457502Y-120852499D01*
X101269449Y-120698168D01*
X101054901Y-120583490D01*
X100822102Y-120512871D01*
X100580000Y-120489026D01*
X100337899Y-120512871D01*
X100105100Y-120583490D01*
X99890552Y-120698168D01*
X99702499Y-120852499D01*
X99548168Y-121040552D01*
X99433489Y-121255100D01*
X99362870Y-121487899D01*
X99345000Y-121669336D01*
X99275000Y-121669336D01*
X99257130Y-121487900D01*
X99186511Y-121255100D01*
X99071833Y-121040552D01*
X98917502Y-120852499D01*
X98729449Y-120698168D01*
X98514901Y-120583490D01*
X98282102Y-120512871D01*
X98040000Y-120489026D01*
X97797899Y-120512871D01*
X97565100Y-120583490D01*
X97350552Y-120698168D01*
X97162499Y-120852499D01*
X97008168Y-121040552D01*
X96893489Y-121255100D01*
X96822870Y-121487899D01*
X96805000Y-121669336D01*
X96735000Y-121669336D01*
X96717130Y-121487900D01*
X96646511Y-121255100D01*
X96531833Y-121040552D01*
X96377502Y-120852499D01*
X96189449Y-120698168D01*
X95974901Y-120583490D01*
X95742102Y-120512871D01*
X95500000Y-120489026D01*
X95257899Y-120512871D01*
X95025100Y-120583490D01*
X94810552Y-120698168D01*
X94622499Y-120852499D01*
X94468168Y-121040552D01*
X94353489Y-121255100D01*
X94282870Y-121487899D01*
X94265000Y-121669336D01*
X94195000Y-121669336D01*
X94177130Y-121487900D01*
X94106511Y-121255100D01*
X93991833Y-121040552D01*
X93837502Y-120852499D01*
X93649449Y-120698168D01*
X93434901Y-120583490D01*
X93202102Y-120512871D01*
X92960000Y-120489026D01*
X92717899Y-120512871D01*
X92485100Y-120583490D01*
X92270552Y-120698168D01*
X92082499Y-120852499D01*
X91928168Y-121040552D01*
X91813489Y-121255100D01*
X91742870Y-121487899D01*
X91725000Y-121669336D01*
X91655000Y-121669336D01*
X91637130Y-121487900D01*
X91566511Y-121255100D01*
X91451833Y-121040552D01*
X91297502Y-120852499D01*
X91109449Y-120698168D01*
X90894901Y-120583490D01*
X90662102Y-120512871D01*
X90420000Y-120489026D01*
X90177899Y-120512871D01*
X89945100Y-120583490D01*
X89730552Y-120698168D01*
X89542499Y-120852499D01*
X89388168Y-121040552D01*
X89273489Y-121255100D01*
X89202870Y-121487899D01*
X89185000Y-121669336D01*
X89115000Y-121669336D01*
X89097130Y-121487900D01*
X89026511Y-121255100D01*
X88911833Y-121040552D01*
X88757502Y-120852499D01*
X88569449Y-120698168D01*
X88354901Y-120583490D01*
X88122102Y-120512871D01*
X87880000Y-120489026D01*
X87637899Y-120512871D01*
X87405100Y-120583490D01*
X87190552Y-120698168D01*
X87002499Y-120852499D01*
X86848168Y-121040552D01*
X86733489Y-121255100D01*
X86662870Y-121487899D01*
X86645000Y-121669336D01*
X86575000Y-121669336D01*
X86557130Y-121487900D01*
X86486511Y-121255100D01*
X86371833Y-121040552D01*
X86217502Y-120852499D01*
X86029449Y-120698168D01*
X85814901Y-120583490D01*
X85582102Y-120512871D01*
X85340000Y-120489026D01*
X85097899Y-120512871D01*
X84865100Y-120583490D01*
X84650552Y-120698168D01*
X84462499Y-120852499D01*
X84308168Y-121040552D01*
X84193489Y-121255100D01*
X84122870Y-121487899D01*
X84105000Y-121669336D01*
X84035000Y-121669336D01*
X84035000Y-121603001D01*
X83986493Y-121364505D01*
X83892390Y-121140055D01*
X83756307Y-120938276D01*
X83583474Y-120766923D01*
X83380533Y-120632580D01*
X83155282Y-120540410D01*
X83117609Y-120536539D01*
X82927000Y-120661270D01*
X82673000Y-120661270D01*
X82482391Y-120536539D01*
X82444718Y-120540410D01*
X82219467Y-120632580D01*
X82016526Y-120766923D01*
X81843693Y-120938276D01*
X81707610Y-121140055D01*
X81613507Y-121364505D01*
X81565000Y-121603001D01*
X81488467Y-121603001D01*
X81477130Y-121487900D01*
X81406511Y-121255100D01*
X81291833Y-121040552D01*
X81137502Y-120852499D01*
X80949449Y-120698168D01*
X80734901Y-120583490D01*
X80502102Y-120512871D01*
X80260000Y-120489026D01*
X80017899Y-120512871D01*
X79785100Y-120583490D01*
X79570552Y-120698168D01*
X79382499Y-120852499D01*
X79228168Y-121040552D01*
X79113489Y-121255100D01*
X79042870Y-121487899D01*
X79025000Y-121669336D01*
X78955000Y-121669336D01*
X78937130Y-121487900D01*
X78866511Y-121255100D01*
X78751833Y-121040552D01*
X78597502Y-120852499D01*
X78409449Y-120698168D01*
X78194901Y-120583490D01*
X77962102Y-120512871D01*
X77720000Y-120489026D01*
X77477899Y-120512871D01*
X77245100Y-120583490D01*
X77030552Y-120698168D01*
X76842499Y-120852499D01*
X76688168Y-121040552D01*
X76573489Y-121255100D01*
X76502870Y-121487899D01*
X76485000Y-121669336D01*
X76415000Y-121669336D01*
X76397130Y-121487900D01*
X76326511Y-121255100D01*
X76211833Y-121040552D01*
X76057502Y-120852499D01*
X75869449Y-120698168D01*
X75654901Y-120583490D01*
X75422102Y-120512871D01*
X75180000Y-120489026D01*
X74937899Y-120512871D01*
X74705100Y-120583490D01*
X74490552Y-120698168D01*
X74302499Y-120852499D01*
X74148168Y-121040552D01*
X74033489Y-121255100D01*
X73962870Y-121487899D01*
X73945000Y-121669336D01*
X73875000Y-121669336D01*
X73857130Y-121487900D01*
X73786511Y-121255100D01*
X73671833Y-121040552D01*
X73517502Y-120852499D01*
X73329449Y-120698168D01*
X73114901Y-120583490D01*
X72882102Y-120512871D01*
X72640000Y-120489026D01*
X72397899Y-120512871D01*
X72165100Y-120583490D01*
X71950552Y-120698168D01*
X71762499Y-120852499D01*
X71608168Y-121040552D01*
X71493489Y-121255100D01*
X71422870Y-121487899D01*
X71405000Y-121669336D01*
X71335000Y-121669336D01*
X71317130Y-121487900D01*
X71246511Y-121255100D01*
X71131833Y-121040552D01*
X70977502Y-120852499D01*
X70789449Y-120698168D01*
X70574901Y-120583490D01*
X70342102Y-120512871D01*
X70100000Y-120489026D01*
X69857899Y-120512871D01*
X69625100Y-120583490D01*
X69410552Y-120698168D01*
X69222499Y-120852499D01*
X69068168Y-121040552D01*
X68953489Y-121255100D01*
X68882870Y-121487899D01*
X68865000Y-121669336D01*
X61217035Y-121669336D01*
X61163739Y-121401400D01*
X60965107Y-120921860D01*
X60676738Y-120490286D01*
X60309715Y-120123263D01*
X59878141Y-119834894D01*
X59398601Y-119636262D01*
X58889525Y-119535001D01*
X58370475Y-119535001D01*
X57861399Y-119636262D01*
X57381859Y-119834894D01*
X56950285Y-120123263D01*
X56785000Y-120288548D01*
X56785000Y-69850000D01*
X62736324Y-69850000D01*
X62740000Y-69887322D01*
X62740001Y-91382257D01*
X62738000Y-91402574D01*
X62738000Y-92022984D01*
X62736324Y-92040000D01*
X62738000Y-92057016D01*
X62738000Y-92077425D01*
X62740000Y-92097732D01*
X62740001Y-99622668D01*
X62736324Y-99660000D01*
X62740001Y-99697333D01*
X62749621Y-99795000D01*
X62750998Y-99808985D01*
X62794454Y-99952246D01*
X62865026Y-100084276D01*
X62935379Y-100170000D01*
X62960000Y-100200001D01*
X62988998Y-100223799D01*
X64206201Y-101441003D01*
X64229999Y-101470001D01*
X64345724Y-101564974D01*
X64477753Y-101635546D01*
X64621014Y-101679003D01*
X64732667Y-101690000D01*
X64732676Y-101690000D01*
X64769999Y-101693676D01*
X64807322Y-101690000D01*
X66101776Y-101690000D01*
X66246525Y-101906632D01*
X66378380Y-102038487D01*
X66305820Y-102060498D01*
X66195506Y-102119463D01*
X66098815Y-102198815D01*
X66019463Y-102295506D01*
X65960498Y-102405820D01*
X65924188Y-102525518D01*
X65911928Y-102650000D01*
X65911928Y-104350000D01*
X65924188Y-104474482D01*
X65960498Y-104594180D01*
X66019463Y-104704494D01*
X66098815Y-104801185D01*
X66195506Y-104880537D01*
X66305820Y-104939502D01*
X66425518Y-104975812D01*
X66550000Y-104988072D01*
X68250000Y-104988072D01*
X68374482Y-104975812D01*
X68494180Y-104939502D01*
X68604494Y-104880537D01*
X68701185Y-104801185D01*
X68780537Y-104704494D01*
X68839502Y-104594180D01*
X68875812Y-104474482D01*
X68888072Y-104350000D01*
X68888072Y-102650000D01*
X68875812Y-102525518D01*
X68839502Y-102405820D01*
X68780537Y-102295506D01*
X68701185Y-102198815D01*
X68604494Y-102119463D01*
X68494180Y-102060498D01*
X68421620Y-102038487D01*
X68553475Y-101906632D01*
X68715990Y-101663411D01*
X68827932Y-101393158D01*
X68885000Y-101106260D01*
X68885000Y-100813740D01*
X68827932Y-100526842D01*
X68715990Y-100256589D01*
X68553475Y-100013368D01*
X68346632Y-99806525D01*
X68164466Y-99684805D01*
X68281355Y-99615178D01*
X68497588Y-99420269D01*
X68671641Y-99186920D01*
X68796825Y-98924099D01*
X68841476Y-98776890D01*
X68720155Y-98547000D01*
X67527000Y-98547000D01*
X67527000Y-98567000D01*
X67273000Y-98567000D01*
X67273000Y-98547000D01*
X66079845Y-98547000D01*
X65958524Y-98776890D01*
X66003175Y-98924099D01*
X66128359Y-99186920D01*
X66302412Y-99420269D01*
X66518645Y-99615178D01*
X66635534Y-99684805D01*
X66453368Y-99806525D01*
X66246525Y-100013368D01*
X66141867Y-100170000D01*
X65084802Y-100170000D01*
X64260000Y-99345199D01*
X64260000Y-93874622D01*
X64345724Y-93944974D01*
X64477753Y-94015546D01*
X64621014Y-94059003D01*
X64732667Y-94070000D01*
X64732676Y-94070000D01*
X64769999Y-94073676D01*
X64807322Y-94070000D01*
X66101776Y-94070000D01*
X66246525Y-94286632D01*
X66453368Y-94493475D01*
X66627760Y-94610000D01*
X66453368Y-94726525D01*
X66246525Y-94933368D01*
X66084010Y-95176589D01*
X65972068Y-95446842D01*
X65915000Y-95733740D01*
X65915000Y-96026260D01*
X65972068Y-96313158D01*
X66084010Y-96583411D01*
X66246525Y-96826632D01*
X66453368Y-97033475D01*
X66635534Y-97155195D01*
X66518645Y-97224822D01*
X66302412Y-97419731D01*
X66128359Y-97653080D01*
X66003175Y-97915901D01*
X65958524Y-98063110D01*
X66079845Y-98293000D01*
X67273000Y-98293000D01*
X67273000Y-98273000D01*
X67527000Y-98273000D01*
X67527000Y-98293000D01*
X68720155Y-98293000D01*
X68841476Y-98063110D01*
X68796825Y-97915901D01*
X68671641Y-97653080D01*
X68497588Y-97419731D01*
X68281355Y-97224822D01*
X68164466Y-97155195D01*
X68346632Y-97033475D01*
X68553475Y-96826632D01*
X68715990Y-96583411D01*
X68827932Y-96313158D01*
X68885000Y-96026260D01*
X68885000Y-95733740D01*
X68827932Y-95446842D01*
X68715990Y-95176589D01*
X68553475Y-94933368D01*
X68346632Y-94726525D01*
X68172240Y-94610000D01*
X68346632Y-94493475D01*
X68553475Y-94286632D01*
X68715990Y-94043411D01*
X68827932Y-93773158D01*
X68885000Y-93486260D01*
X68885000Y-93193740D01*
X68827932Y-92906842D01*
X68715990Y-92636589D01*
X68553475Y-92393368D01*
X68346632Y-92186525D01*
X68164466Y-92064805D01*
X68281355Y-91995178D01*
X68497588Y-91800269D01*
X68671641Y-91566920D01*
X68796825Y-91304099D01*
X68841476Y-91156890D01*
X68720155Y-90927000D01*
X67527000Y-90927000D01*
X67527000Y-90947000D01*
X67273000Y-90947000D01*
X67273000Y-90927000D01*
X66079845Y-90927000D01*
X65958524Y-91156890D01*
X66003175Y-91304099D01*
X66128359Y-91566920D01*
X66302412Y-91800269D01*
X66518645Y-91995178D01*
X66635534Y-92064805D01*
X66453368Y-92186525D01*
X66246525Y-92393368D01*
X66141867Y-92550000D01*
X65084802Y-92550000D01*
X64262000Y-91727199D01*
X64262000Y-91402574D01*
X64260000Y-91382267D01*
X64260000Y-77953740D01*
X65915000Y-77953740D01*
X65915000Y-78246260D01*
X65972068Y-78533158D01*
X66084010Y-78803411D01*
X66246525Y-79046632D01*
X66453368Y-79253475D01*
X66627760Y-79370000D01*
X66453368Y-79486525D01*
X66246525Y-79693368D01*
X66084010Y-79936589D01*
X65972068Y-80206842D01*
X65915000Y-80493740D01*
X65915000Y-80786260D01*
X65972068Y-81073158D01*
X66084010Y-81343411D01*
X66246525Y-81586632D01*
X66453368Y-81793475D01*
X66635534Y-81915195D01*
X66518645Y-81984822D01*
X66302412Y-82179731D01*
X66128359Y-82413080D01*
X66003175Y-82675901D01*
X65958524Y-82823110D01*
X66079845Y-83053000D01*
X67273000Y-83053000D01*
X67273000Y-83033000D01*
X67527000Y-83033000D01*
X67527000Y-83053000D01*
X68720155Y-83053000D01*
X68841476Y-82823110D01*
X68796825Y-82675901D01*
X68671641Y-82413080D01*
X68497588Y-82179731D01*
X68281355Y-81984822D01*
X68164466Y-81915195D01*
X68346632Y-81793475D01*
X68553475Y-81586632D01*
X68698224Y-81370000D01*
X78795199Y-81370000D01*
X80520000Y-83094803D01*
X80520001Y-88862658D01*
X80520000Y-88862668D01*
X80520000Y-89182668D01*
X80520001Y-106642667D01*
X80516324Y-106680000D01*
X80530998Y-106828985D01*
X80574454Y-106972246D01*
X80645026Y-107104276D01*
X80680914Y-107148005D01*
X80740000Y-107220001D01*
X80768998Y-107243799D01*
X83256205Y-109731008D01*
X83279999Y-109760001D01*
X83308992Y-109783795D01*
X83308996Y-109783799D01*
X83365568Y-109830226D01*
X83395724Y-109854974D01*
X83527753Y-109925546D01*
X83671014Y-109969003D01*
X83782667Y-109980000D01*
X83782676Y-109980000D01*
X83819999Y-109983676D01*
X83857322Y-109980000D01*
X116802678Y-109980000D01*
X116840000Y-109983676D01*
X116877322Y-109980000D01*
X116877333Y-109980000D01*
X116988986Y-109969003D01*
X117132247Y-109925546D01*
X117264276Y-109854974D01*
X117380001Y-109760001D01*
X117403804Y-109730997D01*
X121690001Y-105444801D01*
X121690001Y-105835197D01*
X116525199Y-111000000D01*
X84134802Y-111000000D01*
X79500000Y-106365199D01*
X79500000Y-90207322D01*
X79503676Y-90169999D01*
X79500000Y-90132676D01*
X79500000Y-90132667D01*
X79489003Y-90021014D01*
X79445546Y-89877753D01*
X79374974Y-89745724D01*
X79280001Y-89629999D01*
X79251003Y-89606201D01*
X77363804Y-87719003D01*
X77340001Y-87689999D01*
X77224276Y-87595026D01*
X77092247Y-87524454D01*
X76948986Y-87480997D01*
X76837333Y-87470000D01*
X76837322Y-87470000D01*
X76800000Y-87466324D01*
X76762678Y-87470000D01*
X68658133Y-87470000D01*
X68553475Y-87313368D01*
X68346632Y-87106525D01*
X68172240Y-86990000D01*
X68346632Y-86873475D01*
X68553475Y-86666632D01*
X68715990Y-86423411D01*
X68827932Y-86153158D01*
X68885000Y-85866260D01*
X68885000Y-85573740D01*
X68827932Y-85286842D01*
X68715990Y-85016589D01*
X68553475Y-84773368D01*
X68346632Y-84566525D01*
X68164466Y-84444805D01*
X68281355Y-84375178D01*
X68497588Y-84180269D01*
X68671641Y-83946920D01*
X68796825Y-83684099D01*
X68841476Y-83536890D01*
X68720155Y-83307000D01*
X67527000Y-83307000D01*
X67527000Y-83327000D01*
X67273000Y-83327000D01*
X67273000Y-83307000D01*
X66079845Y-83307000D01*
X65958524Y-83536890D01*
X66003175Y-83684099D01*
X66128359Y-83946920D01*
X66302412Y-84180269D01*
X66518645Y-84375178D01*
X66635534Y-84444805D01*
X66453368Y-84566525D01*
X66246525Y-84773368D01*
X66084010Y-85016589D01*
X65972068Y-85286842D01*
X65915000Y-85573740D01*
X65915000Y-85866260D01*
X65972068Y-86153158D01*
X66084010Y-86423411D01*
X66246525Y-86666632D01*
X66453368Y-86873475D01*
X66627760Y-86990000D01*
X66453368Y-87106525D01*
X66246525Y-87313368D01*
X66084010Y-87556589D01*
X65972068Y-87826842D01*
X65915000Y-88113740D01*
X65915000Y-88406260D01*
X65972068Y-88693158D01*
X66084010Y-88963411D01*
X66246525Y-89206632D01*
X66453368Y-89413475D01*
X66635534Y-89535195D01*
X66518645Y-89604822D01*
X66302412Y-89799731D01*
X66128359Y-90033080D01*
X66003175Y-90295901D01*
X65958524Y-90443110D01*
X66079845Y-90673000D01*
X67273000Y-90673000D01*
X67273000Y-90653000D01*
X67527000Y-90653000D01*
X67527000Y-90673000D01*
X68720155Y-90673000D01*
X68841476Y-90443110D01*
X68796825Y-90295901D01*
X68671641Y-90033080D01*
X68497588Y-89799731D01*
X68281355Y-89604822D01*
X68164466Y-89535195D01*
X68346632Y-89413475D01*
X68553475Y-89206632D01*
X68698224Y-88990000D01*
X76485199Y-88990000D01*
X77980001Y-90484803D01*
X77980000Y-106642678D01*
X77976324Y-106680000D01*
X77980000Y-106717322D01*
X77980000Y-106717332D01*
X77990997Y-106828985D01*
X78016688Y-106913677D01*
X78034454Y-106972246D01*
X78105026Y-107104276D01*
X78140914Y-107148005D01*
X78199999Y-107220001D01*
X78229003Y-107243804D01*
X83255198Y-112270000D01*
X82864803Y-112270000D01*
X81045000Y-110450199D01*
X81045000Y-110388061D01*
X81005226Y-110188102D01*
X80927205Y-109999744D01*
X80813937Y-109830226D01*
X80669774Y-109686063D01*
X80500256Y-109572795D01*
X80311898Y-109494774D01*
X80111939Y-109455000D01*
X80049802Y-109455000D01*
X76960000Y-106365199D01*
X76960000Y-101637325D01*
X76963676Y-101600000D01*
X76960000Y-101562675D01*
X76960000Y-101562667D01*
X76949003Y-101451014D01*
X76905546Y-101307753D01*
X76834974Y-101175724D01*
X76740001Y-101059999D01*
X76711004Y-101036202D01*
X73150000Y-97475199D01*
X73150000Y-92143711D01*
X73193937Y-92099774D01*
X73307205Y-91930256D01*
X73385226Y-91741898D01*
X73425000Y-91541939D01*
X73425000Y-91338061D01*
X73385226Y-91138102D01*
X73307205Y-90949744D01*
X73193937Y-90780226D01*
X73049774Y-90636063D01*
X72880256Y-90522795D01*
X72691898Y-90444774D01*
X72491939Y-90405000D01*
X72288061Y-90405000D01*
X72088102Y-90444774D01*
X71899744Y-90522795D01*
X71730226Y-90636063D01*
X71586063Y-90780226D01*
X71472795Y-90949744D01*
X71394774Y-91138102D01*
X71355000Y-91338061D01*
X71355000Y-91541939D01*
X71394774Y-91741898D01*
X71472795Y-91930256D01*
X71586063Y-92099774D01*
X71630000Y-92143711D01*
X71630001Y-96482658D01*
X71630000Y-96482668D01*
X71630001Y-97752668D01*
X71626324Y-97790000D01*
X71630001Y-97827333D01*
X71638148Y-97910044D01*
X71640998Y-97938985D01*
X71684454Y-98082246D01*
X71755026Y-98214276D01*
X71817172Y-98290000D01*
X71850000Y-98330001D01*
X71878998Y-98353799D01*
X75440000Y-101914802D01*
X75440001Y-106642667D01*
X75436324Y-106680000D01*
X75450998Y-106828985D01*
X75494454Y-106972246D01*
X75565026Y-107104276D01*
X75600914Y-107148005D01*
X75660000Y-107220001D01*
X75688998Y-107243799D01*
X78975000Y-110529802D01*
X78975000Y-110591939D01*
X79014774Y-110791898D01*
X79092795Y-110980256D01*
X79206063Y-111149774D01*
X79350226Y-111293937D01*
X79519744Y-111407205D01*
X79708102Y-111485226D01*
X79908061Y-111525000D01*
X79970199Y-111525000D01*
X81986205Y-113541008D01*
X82009999Y-113570001D01*
X82038992Y-113593795D01*
X82038996Y-113593799D01*
X82109685Y-113651811D01*
X82125724Y-113664974D01*
X82257753Y-113735546D01*
X82401014Y-113779003D01*
X82512667Y-113790000D01*
X82512676Y-113790000D01*
X82549999Y-113793676D01*
X82587322Y-113790000D01*
X109925198Y-113790000D01*
X105149003Y-118566196D01*
X105119999Y-118589999D01*
X105064871Y-118657174D01*
X105025026Y-118705724D01*
X104954455Y-118837753D01*
X104954454Y-118837754D01*
X104910997Y-118981015D01*
X104900000Y-119092668D01*
X104900000Y-119092678D01*
X104896324Y-119130000D01*
X104900000Y-119167323D01*
X104900001Y-120756068D01*
X104782499Y-120852499D01*
X104628168Y-121040552D01*
X104513489Y-121255100D01*
X104442870Y-121487899D01*
X104425000Y-121669336D01*
X104425000Y-122590665D01*
X104442870Y-122772102D01*
X104513489Y-123004901D01*
X104628167Y-123219449D01*
X104782498Y-123407503D01*
X104970551Y-123561834D01*
X105185099Y-123676512D01*
X105417898Y-123747131D01*
X105660000Y-123770976D01*
X105902101Y-123747131D01*
X106134900Y-123676512D01*
X106349448Y-123561834D01*
X106537502Y-123407503D01*
X106691833Y-123219450D01*
X106806511Y-123004902D01*
X106877130Y-122772103D01*
X106895000Y-122590666D01*
X106895000Y-121669337D01*
X106877130Y-121487900D01*
X106806511Y-121255100D01*
X106691833Y-121040552D01*
X106537502Y-120852499D01*
X106420000Y-120756068D01*
X106420000Y-119444801D01*
X110804802Y-115060000D01*
X111195198Y-115060000D01*
X107688998Y-118566201D01*
X107660000Y-118589999D01*
X107636202Y-118618997D01*
X107636201Y-118618998D01*
X107565026Y-118705724D01*
X107494454Y-118837754D01*
X107450998Y-118981015D01*
X107436324Y-119130000D01*
X107440001Y-119167332D01*
X107440000Y-120756068D01*
X107322499Y-120852499D01*
X107168168Y-121040552D01*
X107053489Y-121255100D01*
X106982870Y-121487899D01*
X106965000Y-121669336D01*
X106965000Y-122590665D01*
X106982870Y-122772102D01*
X107053489Y-123004901D01*
X107168167Y-123219449D01*
X107322498Y-123407503D01*
X107510551Y-123561834D01*
X107725099Y-123676512D01*
X107957898Y-123747131D01*
X108200000Y-123770976D01*
X108442101Y-123747131D01*
X108674900Y-123676512D01*
X108889448Y-123561834D01*
X109077502Y-123407503D01*
X109231833Y-123219450D01*
X109346511Y-123004902D01*
X109417130Y-122772103D01*
X109435000Y-122590666D01*
X109435000Y-121669337D01*
X109417130Y-121487900D01*
X109346511Y-121255100D01*
X109231833Y-121040552D01*
X109077502Y-120852499D01*
X108960000Y-120756068D01*
X108960000Y-119444801D01*
X112074802Y-116330000D01*
X112465198Y-116330000D01*
X110228998Y-118566201D01*
X110200000Y-118589999D01*
X110176202Y-118618997D01*
X110176201Y-118618998D01*
X110105026Y-118705724D01*
X110034454Y-118837754D01*
X109990998Y-118981015D01*
X109976324Y-119130000D01*
X109980001Y-119167332D01*
X109980000Y-120756068D01*
X109862499Y-120852499D01*
X109708168Y-121040552D01*
X109593489Y-121255100D01*
X109522870Y-121487899D01*
X109505000Y-121669336D01*
X109505000Y-122590665D01*
X109522870Y-122772102D01*
X109593489Y-123004901D01*
X109708167Y-123219449D01*
X109862498Y-123407503D01*
X110050551Y-123561834D01*
X110265099Y-123676512D01*
X110497898Y-123747131D01*
X110740000Y-123770976D01*
X110982101Y-123747131D01*
X111214900Y-123676512D01*
X111429448Y-123561834D01*
X111617502Y-123407503D01*
X111771833Y-123219450D01*
X111886511Y-123004902D01*
X111957130Y-122772103D01*
X111975000Y-122590666D01*
X111975000Y-121669337D01*
X111975000Y-121669336D01*
X112045000Y-121669336D01*
X112045000Y-122590665D01*
X112062870Y-122772102D01*
X112133489Y-123004901D01*
X112248167Y-123219449D01*
X112402498Y-123407503D01*
X112590551Y-123561834D01*
X112805099Y-123676512D01*
X113037898Y-123747131D01*
X113280000Y-123770976D01*
X113522101Y-123747131D01*
X113754900Y-123676512D01*
X113969448Y-123561834D01*
X114157502Y-123407503D01*
X114311833Y-123219450D01*
X114426511Y-123004902D01*
X114497130Y-122772103D01*
X114515000Y-122590666D01*
X114515000Y-121669337D01*
X114515000Y-121669336D01*
X114585000Y-121669336D01*
X114585000Y-122590665D01*
X114602870Y-122772102D01*
X114673489Y-123004901D01*
X114788167Y-123219449D01*
X114942498Y-123407503D01*
X115130551Y-123561834D01*
X115345099Y-123676512D01*
X115577898Y-123747131D01*
X115820000Y-123770976D01*
X116062101Y-123747131D01*
X116294900Y-123676512D01*
X116509448Y-123561834D01*
X116697502Y-123407503D01*
X116851833Y-123219450D01*
X116966511Y-123004902D01*
X117037130Y-122772103D01*
X117055000Y-122590666D01*
X117055000Y-122257001D01*
X117125000Y-122257001D01*
X117125000Y-122657001D01*
X117173507Y-122895497D01*
X117267610Y-123119947D01*
X117403693Y-123321726D01*
X117576526Y-123493079D01*
X117779467Y-123627422D01*
X118004718Y-123719592D01*
X118042391Y-123723463D01*
X118233000Y-123598732D01*
X118233000Y-122257001D01*
X118487000Y-122257001D01*
X118487000Y-123598732D01*
X118677609Y-123723463D01*
X118715282Y-123719592D01*
X118940533Y-123627422D01*
X119143474Y-123493079D01*
X119316307Y-123321726D01*
X119452390Y-123119947D01*
X119546493Y-122895497D01*
X119595000Y-122657001D01*
X119595000Y-122257001D01*
X118487000Y-122257001D01*
X118233000Y-122257001D01*
X117125000Y-122257001D01*
X117055000Y-122257001D01*
X117055000Y-121669337D01*
X117048467Y-121603001D01*
X117125000Y-121603001D01*
X117125000Y-122003001D01*
X118233000Y-122003001D01*
X118233000Y-120661270D01*
X118487000Y-120661270D01*
X118487000Y-122003001D01*
X119595000Y-122003001D01*
X119595000Y-121603001D01*
X119546493Y-121364505D01*
X119452390Y-121140055D01*
X119316307Y-120938276D01*
X119143474Y-120766923D01*
X118940533Y-120632580D01*
X118715282Y-120540410D01*
X118677609Y-120536539D01*
X118487000Y-120661270D01*
X118233000Y-120661270D01*
X118042391Y-120536539D01*
X118004718Y-120540410D01*
X117779467Y-120632580D01*
X117576526Y-120766923D01*
X117403693Y-120938276D01*
X117267610Y-121140055D01*
X117173507Y-121364505D01*
X117125000Y-121603001D01*
X117048467Y-121603001D01*
X117037130Y-121487900D01*
X116966511Y-121255100D01*
X116851833Y-121040552D01*
X116697502Y-120852499D01*
X116509449Y-120698168D01*
X116294901Y-120583490D01*
X116062102Y-120512871D01*
X115820000Y-120489026D01*
X115577899Y-120512871D01*
X115345100Y-120583490D01*
X115130552Y-120698168D01*
X114942499Y-120852499D01*
X114788168Y-121040552D01*
X114673489Y-121255100D01*
X114602870Y-121487899D01*
X114585000Y-121669336D01*
X114515000Y-121669336D01*
X114497130Y-121487900D01*
X114426511Y-121255100D01*
X114311833Y-121040552D01*
X114157502Y-120852499D01*
X113969449Y-120698168D01*
X113754901Y-120583490D01*
X113522102Y-120512871D01*
X113280000Y-120489026D01*
X113037899Y-120512871D01*
X112805100Y-120583490D01*
X112590552Y-120698168D01*
X112402499Y-120852499D01*
X112248168Y-121040552D01*
X112133489Y-121255100D01*
X112062870Y-121487899D01*
X112045000Y-121669336D01*
X111975000Y-121669336D01*
X111957130Y-121487900D01*
X111886511Y-121255100D01*
X111771833Y-121040552D01*
X111617502Y-120852499D01*
X111500000Y-120756068D01*
X111500000Y-119444801D01*
X113344802Y-117600000D01*
X129502678Y-117600000D01*
X129540000Y-117603676D01*
X129577322Y-117600000D01*
X129577333Y-117600000D01*
X129688986Y-117589003D01*
X129832247Y-117545546D01*
X129964276Y-117474974D01*
X130080001Y-117380001D01*
X130103804Y-117350997D01*
X136931004Y-110523798D01*
X136960001Y-110500001D01*
X137054974Y-110384276D01*
X137125546Y-110252247D01*
X137169003Y-110108986D01*
X137180000Y-109997333D01*
X137180000Y-109997324D01*
X137183676Y-109960001D01*
X137180000Y-109922678D01*
X137180000Y-107383711D01*
X137223937Y-107339774D01*
X137337205Y-107170256D01*
X137415226Y-106981898D01*
X137455000Y-106781939D01*
X137455000Y-106578061D01*
X137415226Y-106378102D01*
X137337205Y-106189744D01*
X137223937Y-106020226D01*
X137079774Y-105876063D01*
X136910256Y-105762795D01*
X136721898Y-105684774D01*
X136521939Y-105645000D01*
X136318061Y-105645000D01*
X136118102Y-105684774D01*
X135929744Y-105762795D01*
X135760226Y-105876063D01*
X135616063Y-106020226D01*
X135502795Y-106189744D01*
X135424774Y-106378102D01*
X135385000Y-106578061D01*
X135385000Y-106781939D01*
X135424774Y-106981898D01*
X135502795Y-107170256D01*
X135616063Y-107339774D01*
X135660000Y-107383711D01*
X135660000Y-107987332D01*
X135660001Y-107987342D01*
X135660000Y-109645198D01*
X129225199Y-116080000D01*
X128834801Y-116080000D01*
X134391004Y-110523798D01*
X134420001Y-110500001D01*
X134446332Y-110467917D01*
X134514974Y-110384277D01*
X134585546Y-110252247D01*
X134605004Y-110188102D01*
X134629003Y-110108986D01*
X134640000Y-109997333D01*
X134640000Y-109997324D01*
X134643676Y-109960001D01*
X134640000Y-109922678D01*
X134640000Y-107383711D01*
X134683937Y-107339774D01*
X134797205Y-107170256D01*
X134875226Y-106981898D01*
X134915000Y-106781939D01*
X134915000Y-106578061D01*
X134875226Y-106378102D01*
X134797205Y-106189744D01*
X134683937Y-106020226D01*
X134539774Y-105876063D01*
X134370256Y-105762795D01*
X134181898Y-105684774D01*
X133981939Y-105645000D01*
X133778061Y-105645000D01*
X133578102Y-105684774D01*
X133389744Y-105762795D01*
X133220226Y-105876063D01*
X133076063Y-106020226D01*
X132962795Y-106189744D01*
X132884774Y-106378102D01*
X132845000Y-106578061D01*
X132845000Y-106781939D01*
X132884774Y-106981898D01*
X132962795Y-107170256D01*
X133076063Y-107339774D01*
X133120000Y-107383711D01*
X133120000Y-107987332D01*
X133120001Y-107987342D01*
X133120000Y-109645198D01*
X127955199Y-114810000D01*
X127564801Y-114810000D01*
X131851003Y-110523799D01*
X131880001Y-110500001D01*
X131974974Y-110384276D01*
X132045546Y-110252247D01*
X132089003Y-110108986D01*
X132100000Y-109997333D01*
X132100000Y-109997323D01*
X132103676Y-109960000D01*
X132100000Y-109922677D01*
X132100000Y-96888967D01*
X152115000Y-96888967D01*
X152115000Y-97211033D01*
X152177832Y-97526912D01*
X152301082Y-97824463D01*
X152480013Y-98092252D01*
X152707748Y-98319987D01*
X152975537Y-98498918D01*
X153273088Y-98622168D01*
X153588967Y-98685000D01*
X153911033Y-98685000D01*
X154226912Y-98622168D01*
X154524463Y-98498918D01*
X154792252Y-98319987D01*
X154926826Y-98185413D01*
X157794192Y-98185413D01*
X157889956Y-98449814D01*
X158179571Y-98590704D01*
X158491108Y-98672384D01*
X158812595Y-98691718D01*
X159131675Y-98647961D01*
X159436088Y-98542795D01*
X159610044Y-98449814D01*
X159705808Y-98185413D01*
X158750000Y-97229605D01*
X157794192Y-98185413D01*
X154926826Y-98185413D01*
X155019987Y-98092252D01*
X155198918Y-97824463D01*
X155322168Y-97526912D01*
X155385000Y-97211033D01*
X155385000Y-97112595D01*
X157108282Y-97112595D01*
X157152039Y-97431675D01*
X157257205Y-97736088D01*
X157350186Y-97910044D01*
X157614587Y-98005808D01*
X158570395Y-97050000D01*
X158929605Y-97050000D01*
X159885413Y-98005808D01*
X160149814Y-97910044D01*
X160290704Y-97620429D01*
X160372384Y-97308892D01*
X160391718Y-96987405D01*
X160347961Y-96668325D01*
X160242795Y-96363912D01*
X160149814Y-96189956D01*
X159885413Y-96094192D01*
X158929605Y-97050000D01*
X158570395Y-97050000D01*
X157614587Y-96094192D01*
X157350186Y-96189956D01*
X157209296Y-96479571D01*
X157127616Y-96791108D01*
X157108282Y-97112595D01*
X155385000Y-97112595D01*
X155385000Y-96888967D01*
X155322168Y-96573088D01*
X155198918Y-96275537D01*
X155019987Y-96007748D01*
X154926826Y-95914587D01*
X157794192Y-95914587D01*
X158750000Y-96870395D01*
X159705808Y-95914587D01*
X159610044Y-95650186D01*
X159320429Y-95509296D01*
X159008892Y-95427616D01*
X158687405Y-95408282D01*
X158368325Y-95452039D01*
X158063912Y-95557205D01*
X157889956Y-95650186D01*
X157794192Y-95914587D01*
X154926826Y-95914587D01*
X154792252Y-95780013D01*
X154524463Y-95601082D01*
X154226912Y-95477832D01*
X153911033Y-95415000D01*
X153588967Y-95415000D01*
X153273088Y-95477832D01*
X152975537Y-95601082D01*
X152707748Y-95780013D01*
X152480013Y-96007748D01*
X152301082Y-96275537D01*
X152177832Y-96573088D01*
X152115000Y-96888967D01*
X132100000Y-96888967D01*
X132100000Y-90207325D01*
X132103676Y-90170000D01*
X132100000Y-90132675D01*
X132100000Y-90132667D01*
X132089003Y-90021014D01*
X132045546Y-89877753D01*
X131974974Y-89745724D01*
X131880001Y-89629999D01*
X131851004Y-89606202D01*
X130694802Y-88450000D01*
X149011928Y-88450000D01*
X149011928Y-91650000D01*
X149024188Y-91774482D01*
X149060498Y-91894180D01*
X149119463Y-92004494D01*
X149198815Y-92101185D01*
X149295506Y-92180537D01*
X149405820Y-92239502D01*
X149525518Y-92275812D01*
X149650000Y-92288072D01*
X151650000Y-92288072D01*
X151774482Y-92275812D01*
X151894180Y-92239502D01*
X152004494Y-92180537D01*
X152101185Y-92101185D01*
X152180537Y-92004494D01*
X152239502Y-91894180D01*
X152275812Y-91774482D01*
X152288072Y-91650000D01*
X152288072Y-88450000D01*
X152275812Y-88325518D01*
X152239502Y-88205820D01*
X152180537Y-88095506D01*
X152101185Y-87998815D01*
X152004494Y-87919463D01*
X151894180Y-87860498D01*
X151774482Y-87824188D01*
X151650000Y-87811928D01*
X149650000Y-87811928D01*
X149525518Y-87824188D01*
X149405820Y-87860498D01*
X149295506Y-87919463D01*
X149198815Y-87998815D01*
X149119463Y-88095506D01*
X149060498Y-88205820D01*
X149024188Y-88325518D01*
X149011928Y-88450000D01*
X130694802Y-88450000D01*
X129863804Y-87619003D01*
X129840001Y-87589999D01*
X129724276Y-87495026D01*
X129592247Y-87424454D01*
X129448986Y-87380997D01*
X129337333Y-87370000D01*
X129337322Y-87370000D01*
X129300000Y-87366324D01*
X129262678Y-87370000D01*
X127432341Y-87370000D01*
X127345120Y-87239465D01*
X127150535Y-87044880D01*
X126921727Y-86891995D01*
X126844485Y-86860000D01*
X126921727Y-86828005D01*
X127150535Y-86675120D01*
X127345120Y-86480535D01*
X127493772Y-86258061D01*
X142475000Y-86258061D01*
X142475000Y-86461939D01*
X142514774Y-86661898D01*
X142592795Y-86850256D01*
X142706063Y-87019774D01*
X142850226Y-87163937D01*
X143019744Y-87277205D01*
X143208102Y-87355226D01*
X143408061Y-87395000D01*
X143611939Y-87395000D01*
X143811898Y-87355226D01*
X144000256Y-87277205D01*
X144169774Y-87163937D01*
X144213711Y-87120000D01*
X157442678Y-87120000D01*
X157480000Y-87123676D01*
X157517322Y-87120000D01*
X157517333Y-87120000D01*
X157628986Y-87109003D01*
X157772247Y-87065546D01*
X157904276Y-86994974D01*
X158020001Y-86900001D01*
X158043804Y-86870997D01*
X159261003Y-85653799D01*
X159290001Y-85630001D01*
X159384974Y-85514276D01*
X159455546Y-85382247D01*
X159499003Y-85238986D01*
X159510000Y-85127333D01*
X159510000Y-85127324D01*
X159513676Y-85090001D01*
X159510000Y-85052678D01*
X159510000Y-84188072D01*
X159750000Y-84188072D01*
X159874482Y-84175812D01*
X159994180Y-84139502D01*
X160104494Y-84080537D01*
X160201185Y-84001185D01*
X160280537Y-83904494D01*
X160339502Y-83794180D01*
X160375812Y-83674482D01*
X160388072Y-83550000D01*
X160388072Y-81550000D01*
X160375812Y-81425518D01*
X160339502Y-81305820D01*
X160280537Y-81195506D01*
X160201185Y-81098815D01*
X160104494Y-81019463D01*
X159994180Y-80960498D01*
X159874482Y-80924188D01*
X159750000Y-80911928D01*
X157750000Y-80911928D01*
X157625518Y-80924188D01*
X157505820Y-80960498D01*
X157395506Y-81019463D01*
X157298815Y-81098815D01*
X157219463Y-81195506D01*
X157164024Y-81299223D01*
X157110044Y-81150186D01*
X156820429Y-81009296D01*
X156508892Y-80927616D01*
X156187405Y-80908282D01*
X155868325Y-80952039D01*
X155563912Y-81057205D01*
X155389956Y-81150186D01*
X155294192Y-81414587D01*
X156250000Y-82370395D01*
X156264143Y-82356253D01*
X156443748Y-82535858D01*
X156429605Y-82550000D01*
X156443748Y-82564143D01*
X156264143Y-82743748D01*
X156250000Y-82729605D01*
X155294192Y-83685413D01*
X155389956Y-83949814D01*
X155679571Y-84090704D01*
X155991108Y-84172384D01*
X156312595Y-84191718D01*
X156631675Y-84147961D01*
X156936088Y-84042795D01*
X157110044Y-83949814D01*
X157164024Y-83800777D01*
X157219463Y-83904494D01*
X157298815Y-84001185D01*
X157395506Y-84080537D01*
X157505820Y-84139502D01*
X157625518Y-84175812D01*
X157750000Y-84188072D01*
X157990001Y-84188072D01*
X157990001Y-84775197D01*
X157165199Y-85600000D01*
X144213711Y-85600000D01*
X144169774Y-85556063D01*
X144000256Y-85442795D01*
X143811898Y-85364774D01*
X143611939Y-85325000D01*
X143408061Y-85325000D01*
X143208102Y-85364774D01*
X143019744Y-85442795D01*
X142850226Y-85556063D01*
X142706063Y-85700226D01*
X142592795Y-85869744D01*
X142514774Y-86058102D01*
X142475000Y-86258061D01*
X127493772Y-86258061D01*
X127498005Y-86251727D01*
X127603314Y-85997490D01*
X127657000Y-85727592D01*
X127657000Y-85452408D01*
X127603314Y-85182510D01*
X127498005Y-84928273D01*
X127345120Y-84699465D01*
X127150535Y-84504880D01*
X126921727Y-84351995D01*
X126844485Y-84320000D01*
X126921727Y-84288005D01*
X127150535Y-84135120D01*
X127345120Y-83940535D01*
X127498005Y-83711727D01*
X127603314Y-83457490D01*
X127657000Y-83187592D01*
X127657000Y-82912408D01*
X127603314Y-82642510D01*
X127498293Y-82388967D01*
X152115000Y-82388967D01*
X152115000Y-82711033D01*
X152177832Y-83026912D01*
X152301082Y-83324463D01*
X152480013Y-83592252D01*
X152707748Y-83819987D01*
X152975537Y-83998918D01*
X153273088Y-84122168D01*
X153588967Y-84185000D01*
X153911033Y-84185000D01*
X154226912Y-84122168D01*
X154524463Y-83998918D01*
X154792252Y-83819987D01*
X155019987Y-83592252D01*
X155084925Y-83495065D01*
X155114587Y-83505808D01*
X156070395Y-82550000D01*
X155114587Y-81594192D01*
X155084925Y-81604935D01*
X155019987Y-81507748D01*
X154792252Y-81280013D01*
X154524463Y-81101082D01*
X154226912Y-80977832D01*
X153911033Y-80915000D01*
X153588967Y-80915000D01*
X153273088Y-80977832D01*
X152975537Y-81101082D01*
X152707748Y-81280013D01*
X152480013Y-81507748D01*
X152301082Y-81775537D01*
X152177832Y-82073088D01*
X152115000Y-82388967D01*
X127498293Y-82388967D01*
X127498005Y-82388273D01*
X127345120Y-82159465D01*
X127150535Y-81964880D01*
X126921727Y-81811995D01*
X126844485Y-81780000D01*
X126921727Y-81748005D01*
X127150535Y-81595120D01*
X127345120Y-81400535D01*
X127498005Y-81171727D01*
X127603314Y-80917490D01*
X127657000Y-80647592D01*
X127657000Y-80372408D01*
X127603314Y-80102510D01*
X127498005Y-79848273D01*
X127345120Y-79619465D01*
X127150535Y-79424880D01*
X126921727Y-79271995D01*
X126844485Y-79240000D01*
X126921727Y-79208005D01*
X127150535Y-79055120D01*
X127345120Y-78860535D01*
X127498005Y-78631727D01*
X127603314Y-78377490D01*
X127657000Y-78107592D01*
X127657000Y-77832408D01*
X127603314Y-77562510D01*
X127498005Y-77308273D01*
X127345120Y-77079465D01*
X127150535Y-76884880D01*
X126921727Y-76731995D01*
X126844485Y-76700000D01*
X126921727Y-76668005D01*
X127150535Y-76515120D01*
X127345120Y-76320535D01*
X127498005Y-76091727D01*
X127603314Y-75837490D01*
X127657000Y-75567592D01*
X127657000Y-75292408D01*
X127603314Y-75022510D01*
X127498005Y-74768273D01*
X127345120Y-74539465D01*
X127150535Y-74344880D01*
X126921727Y-74191995D01*
X126844485Y-74160000D01*
X126921727Y-74128005D01*
X127150535Y-73975120D01*
X127345120Y-73780535D01*
X127498005Y-73551727D01*
X127603314Y-73297490D01*
X127657000Y-73027592D01*
X127657000Y-72752408D01*
X127603314Y-72482510D01*
X127498005Y-72228273D01*
X127345120Y-71999465D01*
X127150535Y-71804880D01*
X126921727Y-71651995D01*
X126844485Y-71620000D01*
X126921727Y-71588005D01*
X127150535Y-71435120D01*
X127345120Y-71240535D01*
X127498005Y-71011727D01*
X127603314Y-70757490D01*
X127657000Y-70487592D01*
X127657000Y-70212408D01*
X127603314Y-69942510D01*
X127498005Y-69688273D01*
X127345120Y-69459465D01*
X127150535Y-69264880D01*
X126921727Y-69111995D01*
X126844485Y-69080000D01*
X126921727Y-69048005D01*
X127150535Y-68895120D01*
X127345120Y-68700535D01*
X127498005Y-68471727D01*
X127603314Y-68217490D01*
X127657000Y-67947592D01*
X127657000Y-67672408D01*
X127603314Y-67402510D01*
X127498005Y-67148273D01*
X127345120Y-66919465D01*
X127150535Y-66724880D01*
X126921727Y-66571995D01*
X126844485Y-66540000D01*
X126921727Y-66508005D01*
X127150535Y-66355120D01*
X127345120Y-66160535D01*
X127498005Y-65931727D01*
X127603314Y-65677490D01*
X127657000Y-65407592D01*
X127657000Y-65132408D01*
X127603314Y-64862510D01*
X127498005Y-64608273D01*
X127345120Y-64379465D01*
X127150535Y-64184880D01*
X126921727Y-64031995D01*
X126844485Y-64000000D01*
X126921727Y-63968005D01*
X127150535Y-63815120D01*
X127345120Y-63620535D01*
X127498005Y-63391727D01*
X127603314Y-63137490D01*
X127657000Y-62867592D01*
X127657000Y-62592408D01*
X127603314Y-62322510D01*
X127498005Y-62068273D01*
X127345120Y-61839465D01*
X127150535Y-61644880D01*
X126921727Y-61491995D01*
X126844485Y-61460000D01*
X126921727Y-61428005D01*
X127150535Y-61275120D01*
X127345120Y-61080535D01*
X127498005Y-60851727D01*
X127603314Y-60597490D01*
X127657000Y-60327592D01*
X127657000Y-60052408D01*
X127603314Y-59782510D01*
X127498005Y-59528273D01*
X127345120Y-59299465D01*
X127150535Y-59104880D01*
X126921727Y-58951995D01*
X126844485Y-58920000D01*
X126921727Y-58888005D01*
X127150535Y-58735120D01*
X127345120Y-58540535D01*
X127498005Y-58311727D01*
X127603314Y-58057490D01*
X127657000Y-57787592D01*
X127657000Y-57512408D01*
X127603314Y-57242510D01*
X127498005Y-56988273D01*
X127345120Y-56759465D01*
X127150535Y-56564880D01*
X126921727Y-56411995D01*
X126667490Y-56306686D01*
X126397592Y-56253000D01*
X126122408Y-56253000D01*
X125852510Y-56306686D01*
X125598273Y-56411995D01*
X125369465Y-56564880D01*
X125174880Y-56759465D01*
X125021995Y-56988273D01*
X124916686Y-57242510D01*
X124863000Y-57512408D01*
X124863000Y-57787592D01*
X124916686Y-58057490D01*
X125021995Y-58311727D01*
X125174880Y-58540535D01*
X125369465Y-58735120D01*
X125598273Y-58888005D01*
X125675515Y-58920000D01*
X125598273Y-58951995D01*
X125369465Y-59104880D01*
X125174880Y-59299465D01*
X125021995Y-59528273D01*
X124916686Y-59782510D01*
X124863000Y-60052408D01*
X124863000Y-60327592D01*
X124916686Y-60597490D01*
X125021995Y-60851727D01*
X125174880Y-61080535D01*
X125369465Y-61275120D01*
X125598273Y-61428005D01*
X125675515Y-61460000D01*
X125598273Y-61491995D01*
X125369465Y-61644880D01*
X125174880Y-61839465D01*
X125021995Y-62068273D01*
X124916686Y-62322510D01*
X124863000Y-62592408D01*
X124863000Y-62867592D01*
X124916686Y-63137490D01*
X125021995Y-63391727D01*
X125174880Y-63620535D01*
X125369465Y-63815120D01*
X125598273Y-63968005D01*
X125675515Y-64000000D01*
X125598273Y-64031995D01*
X125369465Y-64184880D01*
X125174880Y-64379465D01*
X125021995Y-64608273D01*
X124916686Y-64862510D01*
X124863000Y-65132408D01*
X124863000Y-65407592D01*
X124916686Y-65677490D01*
X125021995Y-65931727D01*
X125174880Y-66160535D01*
X125369465Y-66355120D01*
X125598273Y-66508005D01*
X125675515Y-66540000D01*
X125598273Y-66571995D01*
X125369465Y-66724880D01*
X125174880Y-66919465D01*
X125021995Y-67148273D01*
X124916686Y-67402510D01*
X124863000Y-67672408D01*
X124863000Y-67947592D01*
X124916686Y-68217490D01*
X125021995Y-68471727D01*
X125174880Y-68700535D01*
X125369465Y-68895120D01*
X125598273Y-69048005D01*
X125675515Y-69080000D01*
X125598273Y-69111995D01*
X125369465Y-69264880D01*
X125174880Y-69459465D01*
X125021995Y-69688273D01*
X124916686Y-69942510D01*
X124863000Y-70212408D01*
X124863000Y-70487592D01*
X124916686Y-70757490D01*
X125021995Y-71011727D01*
X125174880Y-71240535D01*
X125369465Y-71435120D01*
X125598273Y-71588005D01*
X125675515Y-71620000D01*
X125598273Y-71651995D01*
X125369465Y-71804880D01*
X125174880Y-71999465D01*
X125021995Y-72228273D01*
X124916686Y-72482510D01*
X124863000Y-72752408D01*
X124863000Y-73027592D01*
X124916686Y-73297490D01*
X125021995Y-73551727D01*
X125174880Y-73780535D01*
X125369465Y-73975120D01*
X125598273Y-74128005D01*
X125675515Y-74160000D01*
X125598273Y-74191995D01*
X125369465Y-74344880D01*
X125174880Y-74539465D01*
X125021995Y-74768273D01*
X124916686Y-75022510D01*
X124863000Y-75292408D01*
X124863000Y-75567592D01*
X124916686Y-75837490D01*
X125021995Y-76091727D01*
X125174880Y-76320535D01*
X125369465Y-76515120D01*
X125598273Y-76668005D01*
X125675515Y-76700000D01*
X125598273Y-76731995D01*
X125369465Y-76884880D01*
X125174880Y-77079465D01*
X125021995Y-77308273D01*
X124916686Y-77562510D01*
X124863000Y-77832408D01*
X124863000Y-78107592D01*
X124916686Y-78377490D01*
X125021995Y-78631727D01*
X125174880Y-78860535D01*
X125369465Y-79055120D01*
X125598273Y-79208005D01*
X125675515Y-79240000D01*
X125598273Y-79271995D01*
X125369465Y-79424880D01*
X125174880Y-79619465D01*
X125021995Y-79848273D01*
X124916686Y-80102510D01*
X124863000Y-80372408D01*
X124863000Y-80647592D01*
X124916686Y-80917490D01*
X125021995Y-81171727D01*
X125174880Y-81400535D01*
X125369465Y-81595120D01*
X125598273Y-81748005D01*
X125675515Y-81780000D01*
X125598273Y-81811995D01*
X125369465Y-81964880D01*
X125174880Y-82159465D01*
X125021995Y-82388273D01*
X124916686Y-82642510D01*
X124863000Y-82912408D01*
X124863000Y-83187592D01*
X124916686Y-83457490D01*
X125021995Y-83711727D01*
X125174880Y-83940535D01*
X125369465Y-84135120D01*
X125598273Y-84288005D01*
X125675515Y-84320000D01*
X125598273Y-84351995D01*
X125369465Y-84504880D01*
X125174880Y-84699465D01*
X125021995Y-84928273D01*
X124916686Y-85182510D01*
X124863000Y-85452408D01*
X124863000Y-85727592D01*
X124916686Y-85997490D01*
X125021995Y-86251727D01*
X125174880Y-86480535D01*
X125369465Y-86675120D01*
X125598273Y-86828005D01*
X125675515Y-86860000D01*
X125598273Y-86891995D01*
X125369465Y-87044880D01*
X125174880Y-87239465D01*
X125021995Y-87468273D01*
X124916686Y-87722510D01*
X124863000Y-87992408D01*
X124863000Y-88267592D01*
X124916686Y-88537490D01*
X125021995Y-88791727D01*
X125174880Y-89020535D01*
X125369465Y-89215120D01*
X125598273Y-89368005D01*
X125675515Y-89400000D01*
X125598273Y-89431995D01*
X125369465Y-89584880D01*
X125174880Y-89779465D01*
X125021995Y-90008273D01*
X124916686Y-90262510D01*
X124863000Y-90532408D01*
X124863000Y-90807592D01*
X124916686Y-91077490D01*
X125021995Y-91331727D01*
X125174880Y-91560535D01*
X125369465Y-91755120D01*
X125598273Y-91908005D01*
X125675515Y-91940000D01*
X125598273Y-91971995D01*
X125369465Y-92124880D01*
X125174880Y-92319465D01*
X125021995Y-92548273D01*
X124916686Y-92802510D01*
X124863000Y-93072408D01*
X124863000Y-93347592D01*
X124916686Y-93617490D01*
X125021995Y-93871727D01*
X125174880Y-94100535D01*
X125369465Y-94295120D01*
X125598273Y-94448005D01*
X125675515Y-94480000D01*
X125598273Y-94511995D01*
X125369465Y-94664880D01*
X125174880Y-94859465D01*
X125087659Y-94990000D01*
X123757322Y-94990000D01*
X123719999Y-94986324D01*
X123682676Y-94990000D01*
X123682667Y-94990000D01*
X123571014Y-95000997D01*
X123427753Y-95044454D01*
X123295724Y-95115026D01*
X123295722Y-95115027D01*
X123295723Y-95115027D01*
X123208996Y-95186201D01*
X123208992Y-95186205D01*
X123179999Y-95209999D01*
X123156205Y-95238992D01*
X120670000Y-97725199D01*
X120670000Y-74197325D01*
X120673676Y-74160000D01*
X120670000Y-74122675D01*
X120670000Y-74122667D01*
X120659003Y-74011014D01*
X120615546Y-73867753D01*
X120544974Y-73735724D01*
X120450001Y-73619999D01*
X120421004Y-73596202D01*
X116663804Y-69839003D01*
X116640001Y-69809999D01*
X116524276Y-69715026D01*
X116392247Y-69644454D01*
X116248986Y-69600997D01*
X116137333Y-69590000D01*
X116137322Y-69590000D01*
X116100000Y-69586324D01*
X116062678Y-69590000D01*
X112192341Y-69590000D01*
X112105120Y-69459465D01*
X111910535Y-69264880D01*
X111681727Y-69111995D01*
X111604485Y-69080000D01*
X111681727Y-69048005D01*
X111910535Y-68895120D01*
X112105120Y-68700535D01*
X112258005Y-68471727D01*
X112363314Y-68217490D01*
X112417000Y-67947592D01*
X112417000Y-67672408D01*
X112363314Y-67402510D01*
X112258005Y-67148273D01*
X112105120Y-66919465D01*
X111910535Y-66724880D01*
X111681727Y-66571995D01*
X111604485Y-66540000D01*
X111681727Y-66508005D01*
X111910535Y-66355120D01*
X112105120Y-66160535D01*
X112258005Y-65931727D01*
X112363314Y-65677490D01*
X112417000Y-65407592D01*
X112417000Y-65132408D01*
X112363314Y-64862510D01*
X112258005Y-64608273D01*
X112105120Y-64379465D01*
X111910535Y-64184880D01*
X111681727Y-64031995D01*
X111604485Y-64000000D01*
X111681727Y-63968005D01*
X111910535Y-63815120D01*
X112105120Y-63620535D01*
X112258005Y-63391727D01*
X112363314Y-63137490D01*
X112417000Y-62867592D01*
X112417000Y-62592408D01*
X112363314Y-62322510D01*
X112258005Y-62068273D01*
X112105120Y-61839465D01*
X111910535Y-61644880D01*
X111681727Y-61491995D01*
X111610057Y-61462308D01*
X111623023Y-61457636D01*
X111738980Y-61395656D01*
X111805960Y-61155565D01*
X111020000Y-60369605D01*
X110234040Y-61155565D01*
X110301020Y-61395656D01*
X110436760Y-61459485D01*
X110358273Y-61491995D01*
X110129465Y-61644880D01*
X109934880Y-61839465D01*
X109781995Y-62068273D01*
X109676686Y-62322510D01*
X109623000Y-62592408D01*
X109623000Y-62867592D01*
X109676686Y-63137490D01*
X109781995Y-63391727D01*
X109934880Y-63620535D01*
X110129465Y-63815120D01*
X110358273Y-63968005D01*
X110435515Y-64000000D01*
X110358273Y-64031995D01*
X110129465Y-64184880D01*
X109934880Y-64379465D01*
X109781995Y-64608273D01*
X109676686Y-64862510D01*
X109623000Y-65132408D01*
X109623000Y-65407592D01*
X109676686Y-65677490D01*
X109781995Y-65931727D01*
X109934880Y-66160535D01*
X110129465Y-66355120D01*
X110358273Y-66508005D01*
X110435515Y-66540000D01*
X110358273Y-66571995D01*
X110129465Y-66724880D01*
X109934880Y-66919465D01*
X109847659Y-67050000D01*
X92247325Y-67050000D01*
X92210000Y-67046324D01*
X92172675Y-67050000D01*
X92172667Y-67050000D01*
X92061014Y-67060997D01*
X91917753Y-67104454D01*
X91785724Y-67175026D01*
X91669999Y-67269999D01*
X91646201Y-67298997D01*
X83309003Y-75636196D01*
X83279999Y-75659999D01*
X83228915Y-75722246D01*
X83185026Y-75775724D01*
X83143039Y-75854276D01*
X83114454Y-75907754D01*
X83070997Y-76051015D01*
X83060000Y-76162668D01*
X83060000Y-76162678D01*
X83056324Y-76200000D01*
X83060000Y-76237322D01*
X83060001Y-105372667D01*
X83056324Y-105410000D01*
X83060001Y-105447333D01*
X83070998Y-105558986D01*
X83084180Y-105602442D01*
X83114454Y-105702246D01*
X83185026Y-105834276D01*
X83235734Y-105896063D01*
X83280000Y-105950001D01*
X83308998Y-105973799D01*
X84065000Y-106729802D01*
X84065000Y-106801939D01*
X84104774Y-107001898D01*
X84182795Y-107190256D01*
X84296063Y-107359774D01*
X84440226Y-107503937D01*
X84609744Y-107617205D01*
X84798102Y-107695226D01*
X84998061Y-107735000D01*
X85201939Y-107735000D01*
X85401898Y-107695226D01*
X85590256Y-107617205D01*
X85759774Y-107503937D01*
X85903937Y-107359774D01*
X86017205Y-107190256D01*
X86095226Y-107001898D01*
X86135000Y-106801939D01*
X86135000Y-106598061D01*
X86095226Y-106398102D01*
X86017205Y-106209744D01*
X85903937Y-106040226D01*
X85759774Y-105896063D01*
X85590256Y-105782795D01*
X85401898Y-105704774D01*
X85201939Y-105665000D01*
X85149802Y-105665000D01*
X84580000Y-105095199D01*
X84580000Y-76514801D01*
X92524802Y-68570000D01*
X109847659Y-68570000D01*
X109934880Y-68700535D01*
X110129465Y-68895120D01*
X110358273Y-69048005D01*
X110435515Y-69080000D01*
X110358273Y-69111995D01*
X110129465Y-69264880D01*
X109934880Y-69459465D01*
X109781995Y-69688273D01*
X109676686Y-69942510D01*
X109623000Y-70212408D01*
X109623000Y-70487592D01*
X109676686Y-70757490D01*
X109781995Y-71011727D01*
X109934880Y-71240535D01*
X110129465Y-71435120D01*
X110358273Y-71588005D01*
X110435515Y-71620000D01*
X110358273Y-71651995D01*
X110129465Y-71804880D01*
X109934880Y-71999465D01*
X109781995Y-72228273D01*
X109676686Y-72482510D01*
X109623000Y-72752408D01*
X109623000Y-73027592D01*
X109676686Y-73297490D01*
X109781995Y-73551727D01*
X109934880Y-73780535D01*
X110129465Y-73975120D01*
X110358273Y-74128005D01*
X110435515Y-74160000D01*
X110358273Y-74191995D01*
X110129465Y-74344880D01*
X109934880Y-74539465D01*
X109781995Y-74768273D01*
X109676686Y-75022510D01*
X109623000Y-75292408D01*
X109623000Y-75567592D01*
X109676686Y-75837490D01*
X109781995Y-76091727D01*
X109934880Y-76320535D01*
X110129465Y-76515120D01*
X110358273Y-76668005D01*
X110435515Y-76700000D01*
X110358273Y-76731995D01*
X110129465Y-76884880D01*
X109934880Y-77079465D01*
X109781995Y-77308273D01*
X109676686Y-77562510D01*
X109623000Y-77832408D01*
X109623000Y-78107592D01*
X109676686Y-78377490D01*
X109781995Y-78631727D01*
X109934880Y-78860535D01*
X110129465Y-79055120D01*
X110358273Y-79208005D01*
X110435515Y-79240000D01*
X110358273Y-79271995D01*
X110129465Y-79424880D01*
X109934880Y-79619465D01*
X109781995Y-79848273D01*
X109676686Y-80102510D01*
X109623000Y-80372408D01*
X109623000Y-80647592D01*
X109676686Y-80917490D01*
X109781995Y-81171727D01*
X109934880Y-81400535D01*
X110129465Y-81595120D01*
X110358273Y-81748005D01*
X110435515Y-81780000D01*
X110358273Y-81811995D01*
X110129465Y-81964880D01*
X109934880Y-82159465D01*
X109781995Y-82388273D01*
X109676686Y-82642510D01*
X109623000Y-82912408D01*
X109623000Y-83187592D01*
X109676686Y-83457490D01*
X109781995Y-83711727D01*
X109934880Y-83940535D01*
X110129465Y-84135120D01*
X110358273Y-84288005D01*
X110435515Y-84320000D01*
X110358273Y-84351995D01*
X110129465Y-84504880D01*
X109934880Y-84699465D01*
X109781995Y-84928273D01*
X109676686Y-85182510D01*
X109623000Y-85452408D01*
X109623000Y-85727592D01*
X109676686Y-85997490D01*
X109781995Y-86251727D01*
X109934880Y-86480535D01*
X110129465Y-86675120D01*
X110358273Y-86828005D01*
X110435515Y-86860000D01*
X110358273Y-86891995D01*
X110129465Y-87044880D01*
X109934880Y-87239465D01*
X109781995Y-87468273D01*
X109676686Y-87722510D01*
X109623000Y-87992408D01*
X109623000Y-88267592D01*
X109676686Y-88537490D01*
X109781995Y-88791727D01*
X109934880Y-89020535D01*
X110129465Y-89215120D01*
X110358273Y-89368005D01*
X110435515Y-89400000D01*
X110358273Y-89431995D01*
X110129465Y-89584880D01*
X109934880Y-89779465D01*
X109781995Y-90008273D01*
X109676686Y-90262510D01*
X109623000Y-90532408D01*
X109623000Y-90807592D01*
X109676686Y-91077490D01*
X109781995Y-91331727D01*
X109934880Y-91560535D01*
X110129465Y-91755120D01*
X110358273Y-91908005D01*
X110435515Y-91940000D01*
X110358273Y-91971995D01*
X110129465Y-92124880D01*
X109934880Y-92319465D01*
X109781995Y-92548273D01*
X109676686Y-92802510D01*
X109623000Y-93072408D01*
X109623000Y-93347592D01*
X109676686Y-93617490D01*
X109781995Y-93871727D01*
X109934880Y-94100535D01*
X110129465Y-94295120D01*
X110358273Y-94448005D01*
X110435515Y-94480000D01*
X110358273Y-94511995D01*
X110129465Y-94664880D01*
X109934880Y-94859465D01*
X109781995Y-95088273D01*
X109676686Y-95342510D01*
X109623000Y-95612408D01*
X109623000Y-95887592D01*
X109676686Y-96157490D01*
X109781995Y-96411727D01*
X109934880Y-96640535D01*
X110129465Y-96835120D01*
X110358273Y-96988005D01*
X110435515Y-97020000D01*
X110358273Y-97051995D01*
X110129465Y-97204880D01*
X109934880Y-97399465D01*
X109781995Y-97628273D01*
X109676686Y-97882510D01*
X109623000Y-98152408D01*
X109623000Y-98427592D01*
X109676686Y-98697490D01*
X109781995Y-98951727D01*
X109934880Y-99180535D01*
X110129465Y-99375120D01*
X110358273Y-99528005D01*
X110435515Y-99560000D01*
X110358273Y-99591995D01*
X110129465Y-99744880D01*
X109934880Y-99939465D01*
X109781995Y-100168273D01*
X109676686Y-100422510D01*
X109623000Y-100692408D01*
X109623000Y-100967592D01*
X109676686Y-101237490D01*
X109781995Y-101491727D01*
X109934880Y-101720535D01*
X110129465Y-101915120D01*
X110358273Y-102068005D01*
X110435515Y-102100000D01*
X110358273Y-102131995D01*
X110129465Y-102284880D01*
X109934880Y-102479465D01*
X109781995Y-102708273D01*
X109676686Y-102962510D01*
X109623000Y-103232408D01*
X109623000Y-103507592D01*
X109676686Y-103777490D01*
X109781995Y-104031727D01*
X109934880Y-104260535D01*
X110129465Y-104455120D01*
X110358273Y-104608005D01*
X110435515Y-104640000D01*
X110358273Y-104671995D01*
X110129465Y-104824880D01*
X109934880Y-105019465D01*
X109781995Y-105248273D01*
X109676686Y-105502510D01*
X109623000Y-105772408D01*
X109623000Y-106047592D01*
X109676686Y-106317490D01*
X109781995Y-106571727D01*
X109934880Y-106800535D01*
X110129465Y-106995120D01*
X110358273Y-107148005D01*
X110612510Y-107253314D01*
X110882408Y-107307000D01*
X111157592Y-107307000D01*
X111427490Y-107253314D01*
X111681727Y-107148005D01*
X111910535Y-106995120D01*
X112105120Y-106800535D01*
X112258005Y-106571727D01*
X112363314Y-106317490D01*
X112417000Y-106047592D01*
X112417000Y-105772408D01*
X112363314Y-105502510D01*
X112258005Y-105248273D01*
X112105120Y-105019465D01*
X111910535Y-104824880D01*
X111681727Y-104671995D01*
X111604485Y-104640000D01*
X111681727Y-104608005D01*
X111910535Y-104455120D01*
X112105120Y-104260535D01*
X112258005Y-104031727D01*
X112363314Y-103777490D01*
X112417000Y-103507592D01*
X112417000Y-103232408D01*
X112363314Y-102962510D01*
X112258005Y-102708273D01*
X112105120Y-102479465D01*
X111910535Y-102284880D01*
X111681727Y-102131995D01*
X111604485Y-102100000D01*
X111681727Y-102068005D01*
X111910535Y-101915120D01*
X112105120Y-101720535D01*
X112258005Y-101491727D01*
X112363314Y-101237490D01*
X112417000Y-100967592D01*
X112417000Y-100692408D01*
X112363314Y-100422510D01*
X112258005Y-100168273D01*
X112105120Y-99939465D01*
X111910535Y-99744880D01*
X111681727Y-99591995D01*
X111604485Y-99560000D01*
X111681727Y-99528005D01*
X111910535Y-99375120D01*
X112105120Y-99180535D01*
X112258005Y-98951727D01*
X112363314Y-98697490D01*
X112417000Y-98427592D01*
X112417000Y-98152408D01*
X112363314Y-97882510D01*
X112258005Y-97628273D01*
X112105120Y-97399465D01*
X111910535Y-97204880D01*
X111681727Y-97051995D01*
X111604485Y-97020000D01*
X111681727Y-96988005D01*
X111910535Y-96835120D01*
X112105120Y-96640535D01*
X112258005Y-96411727D01*
X112363314Y-96157490D01*
X112417000Y-95887592D01*
X112417000Y-95612408D01*
X112363314Y-95342510D01*
X112258005Y-95088273D01*
X112105120Y-94859465D01*
X111910535Y-94664880D01*
X111681727Y-94511995D01*
X111604485Y-94480000D01*
X111681727Y-94448005D01*
X111910535Y-94295120D01*
X112105120Y-94100535D01*
X112258005Y-93871727D01*
X112363314Y-93617490D01*
X112417000Y-93347592D01*
X112417000Y-93072408D01*
X112363314Y-92802510D01*
X112258005Y-92548273D01*
X112105120Y-92319465D01*
X111910535Y-92124880D01*
X111681727Y-91971995D01*
X111604485Y-91940000D01*
X111681727Y-91908005D01*
X111910535Y-91755120D01*
X112105120Y-91560535D01*
X112258005Y-91331727D01*
X112363314Y-91077490D01*
X112417000Y-90807592D01*
X112417000Y-90532408D01*
X112363314Y-90262510D01*
X112258005Y-90008273D01*
X112105120Y-89779465D01*
X111910535Y-89584880D01*
X111681727Y-89431995D01*
X111604485Y-89400000D01*
X111681727Y-89368005D01*
X111910535Y-89215120D01*
X112105120Y-89020535D01*
X112258005Y-88791727D01*
X112363314Y-88537490D01*
X112417000Y-88267592D01*
X112417000Y-87992408D01*
X112363314Y-87722510D01*
X112258005Y-87468273D01*
X112105120Y-87239465D01*
X111910535Y-87044880D01*
X111681727Y-86891995D01*
X111604485Y-86860000D01*
X111681727Y-86828005D01*
X111910535Y-86675120D01*
X112105120Y-86480535D01*
X112258005Y-86251727D01*
X112363314Y-85997490D01*
X112417000Y-85727592D01*
X112417000Y-85452408D01*
X112363314Y-85182510D01*
X112258005Y-84928273D01*
X112105120Y-84699465D01*
X111910535Y-84504880D01*
X111681727Y-84351995D01*
X111604485Y-84320000D01*
X111681727Y-84288005D01*
X111910535Y-84135120D01*
X112105120Y-83940535D01*
X112258005Y-83711727D01*
X112363314Y-83457490D01*
X112417000Y-83187592D01*
X112417000Y-82912408D01*
X112363314Y-82642510D01*
X112258005Y-82388273D01*
X112105120Y-82159465D01*
X111910535Y-81964880D01*
X111681727Y-81811995D01*
X111604485Y-81780000D01*
X111681727Y-81748005D01*
X111910535Y-81595120D01*
X112105120Y-81400535D01*
X112258005Y-81171727D01*
X112363314Y-80917490D01*
X112417000Y-80647592D01*
X112417000Y-80372408D01*
X112363314Y-80102510D01*
X112258005Y-79848273D01*
X112105120Y-79619465D01*
X111910535Y-79424880D01*
X111681727Y-79271995D01*
X111604485Y-79240000D01*
X111681727Y-79208005D01*
X111910535Y-79055120D01*
X112105120Y-78860535D01*
X112258005Y-78631727D01*
X112363314Y-78377490D01*
X112417000Y-78107592D01*
X112417000Y-77832408D01*
X112363314Y-77562510D01*
X112258005Y-77308273D01*
X112105120Y-77079465D01*
X111910535Y-76884880D01*
X111681727Y-76731995D01*
X111604485Y-76700000D01*
X111681727Y-76668005D01*
X111910535Y-76515120D01*
X112105120Y-76320535D01*
X112192341Y-76190000D01*
X114515199Y-76190000D01*
X116610000Y-78284803D01*
X116610001Y-102666288D01*
X116566063Y-102710226D01*
X116452795Y-102879744D01*
X116374774Y-103068102D01*
X116335000Y-103268061D01*
X116335000Y-103471939D01*
X116374774Y-103671898D01*
X116452795Y-103860256D01*
X116566063Y-104029774D01*
X116710226Y-104173937D01*
X116879744Y-104287205D01*
X117068102Y-104365226D01*
X117268061Y-104405000D01*
X117471939Y-104405000D01*
X117671898Y-104365226D01*
X117860256Y-104287205D01*
X118029774Y-104173937D01*
X118173937Y-104029774D01*
X118287205Y-103860256D01*
X118365226Y-103671898D01*
X118405000Y-103471939D01*
X118405000Y-103268061D01*
X118371961Y-103101961D01*
X118538061Y-103135000D01*
X118741939Y-103135000D01*
X118941898Y-103095226D01*
X119130256Y-103017205D01*
X119299774Y-102903937D01*
X119443937Y-102759774D01*
X119557205Y-102590256D01*
X119635226Y-102401898D01*
X119675000Y-102201939D01*
X119675000Y-101998061D01*
X119641961Y-101831961D01*
X119808061Y-101865000D01*
X120011939Y-101865000D01*
X120211898Y-101825226D01*
X120400256Y-101747205D01*
X120420000Y-101734012D01*
X120420000Y-103332668D01*
X120420001Y-104565197D01*
X116525199Y-108460000D01*
X84134803Y-108460000D01*
X82040000Y-106365199D01*
X82040000Y-82817322D01*
X82043676Y-82779999D01*
X82040000Y-82742676D01*
X82040000Y-82742667D01*
X82029003Y-82631014D01*
X81985546Y-82487753D01*
X81914974Y-82355724D01*
X81901811Y-82339685D01*
X81843799Y-82268996D01*
X81843795Y-82268992D01*
X81820001Y-82239999D01*
X81791009Y-82216206D01*
X79673804Y-80099002D01*
X79650001Y-80069999D01*
X79534276Y-79975026D01*
X79402247Y-79904454D01*
X79258986Y-79860997D01*
X79147333Y-79850000D01*
X79147322Y-79850000D01*
X79110000Y-79846324D01*
X79072678Y-79850000D01*
X68658133Y-79850000D01*
X68553475Y-79693368D01*
X68346632Y-79486525D01*
X68172240Y-79370000D01*
X68346632Y-79253475D01*
X68553475Y-79046632D01*
X68715990Y-78803411D01*
X68827932Y-78533158D01*
X68885000Y-78246260D01*
X68885000Y-77953740D01*
X68827932Y-77666842D01*
X68715990Y-77396589D01*
X68553475Y-77153368D01*
X68346632Y-76946525D01*
X68164466Y-76824805D01*
X68281355Y-76755178D01*
X68497588Y-76560269D01*
X68671641Y-76326920D01*
X68796825Y-76064099D01*
X68841476Y-75916890D01*
X68720155Y-75687000D01*
X67527000Y-75687000D01*
X67527000Y-75707000D01*
X67273000Y-75707000D01*
X67273000Y-75687000D01*
X66079845Y-75687000D01*
X65958524Y-75916890D01*
X66003175Y-76064099D01*
X66128359Y-76326920D01*
X66302412Y-76560269D01*
X66518645Y-76755178D01*
X66635534Y-76824805D01*
X66453368Y-76946525D01*
X66246525Y-77153368D01*
X66084010Y-77396589D01*
X65972068Y-77666842D01*
X65915000Y-77953740D01*
X64260000Y-77953740D01*
X64260000Y-75203110D01*
X65958524Y-75203110D01*
X66079845Y-75433000D01*
X67273000Y-75433000D01*
X67273000Y-74239186D01*
X67527000Y-74239186D01*
X67527000Y-75433000D01*
X68720155Y-75433000D01*
X68841476Y-75203110D01*
X68796825Y-75055901D01*
X68671641Y-74793080D01*
X68497588Y-74559731D01*
X68281355Y-74364822D01*
X68031252Y-74215843D01*
X67756891Y-74118519D01*
X67527000Y-74239186D01*
X67273000Y-74239186D01*
X67043109Y-74118519D01*
X66768748Y-74215843D01*
X66518645Y-74364822D01*
X66302412Y-74559731D01*
X66128359Y-74793080D01*
X66003175Y-75055901D01*
X65958524Y-75203110D01*
X64260000Y-75203110D01*
X64260000Y-70164801D01*
X69804801Y-64620000D01*
X99371928Y-64620000D01*
X99371928Y-66320000D01*
X99384188Y-66444482D01*
X99420498Y-66564180D01*
X99479463Y-66674494D01*
X99558815Y-66771185D01*
X99655506Y-66850537D01*
X99765820Y-66909502D01*
X99885518Y-66945812D01*
X100010000Y-66958072D01*
X101710000Y-66958072D01*
X101834482Y-66945812D01*
X101954180Y-66909502D01*
X102064494Y-66850537D01*
X102161185Y-66771185D01*
X102240537Y-66674494D01*
X102299502Y-66564180D01*
X102321513Y-66491620D01*
X102453368Y-66623475D01*
X102696589Y-66785990D01*
X102966842Y-66897932D01*
X103253740Y-66955000D01*
X103546260Y-66955000D01*
X103833158Y-66897932D01*
X104103411Y-66785990D01*
X104346632Y-66623475D01*
X104553475Y-66416632D01*
X104675195Y-66234466D01*
X104744822Y-66351355D01*
X104939731Y-66567588D01*
X105173080Y-66741641D01*
X105435901Y-66866825D01*
X105583110Y-66911476D01*
X105813000Y-66790155D01*
X105813000Y-65597000D01*
X106067000Y-65597000D01*
X106067000Y-66790155D01*
X106296890Y-66911476D01*
X106444099Y-66866825D01*
X106706920Y-66741641D01*
X106940269Y-66567588D01*
X107135178Y-66351355D01*
X107284157Y-66101252D01*
X107381481Y-65826891D01*
X107260814Y-65597000D01*
X106067000Y-65597000D01*
X105813000Y-65597000D01*
X105793000Y-65597000D01*
X105793000Y-65343000D01*
X105813000Y-65343000D01*
X105813000Y-64149845D01*
X106067000Y-64149845D01*
X106067000Y-65343000D01*
X107260814Y-65343000D01*
X107381481Y-65113109D01*
X107284157Y-64838748D01*
X107135178Y-64588645D01*
X106940269Y-64372412D01*
X106706920Y-64198359D01*
X106444099Y-64073175D01*
X106296890Y-64028524D01*
X106067000Y-64149845D01*
X105813000Y-64149845D01*
X105583110Y-64028524D01*
X105435901Y-64073175D01*
X105173080Y-64198359D01*
X104939731Y-64372412D01*
X104744822Y-64588645D01*
X104675195Y-64705534D01*
X104553475Y-64523368D01*
X104346632Y-64316525D01*
X104103411Y-64154010D01*
X103833158Y-64042068D01*
X103546260Y-63985000D01*
X103253740Y-63985000D01*
X102966842Y-64042068D01*
X102696589Y-64154010D01*
X102453368Y-64316525D01*
X102321513Y-64448380D01*
X102299502Y-64375820D01*
X102240537Y-64265506D01*
X102161185Y-64168815D01*
X102064494Y-64089463D01*
X101954180Y-64030498D01*
X101834482Y-63994188D01*
X101710000Y-63981928D01*
X100010000Y-63981928D01*
X99885518Y-63994188D01*
X99765820Y-64030498D01*
X99655506Y-64089463D01*
X99558815Y-64168815D01*
X99479463Y-64265506D01*
X99420498Y-64375820D01*
X99384188Y-64495518D01*
X99371928Y-64620000D01*
X69804801Y-64620000D01*
X74162785Y-60262017D01*
X109618090Y-60262017D01*
X109659078Y-60534133D01*
X109752364Y-60793023D01*
X109814344Y-60908980D01*
X110054435Y-60975960D01*
X110840395Y-60190000D01*
X111199605Y-60190000D01*
X111985565Y-60975960D01*
X112225656Y-60908980D01*
X112342756Y-60659952D01*
X112409023Y-60392865D01*
X112421910Y-60117983D01*
X112380922Y-59845867D01*
X112287636Y-59586977D01*
X112225656Y-59471020D01*
X111985565Y-59404040D01*
X111199605Y-60190000D01*
X110840395Y-60190000D01*
X110054435Y-59404040D01*
X109814344Y-59471020D01*
X109697244Y-59720048D01*
X109630977Y-59987135D01*
X109618090Y-60262017D01*
X74162785Y-60262017D01*
X76014803Y-58410000D01*
X109619928Y-58410000D01*
X109619928Y-58412000D01*
X109632188Y-58536482D01*
X109668498Y-58656180D01*
X109727463Y-58766494D01*
X109806815Y-58863185D01*
X109903506Y-58942537D01*
X110013820Y-59001502D01*
X110133518Y-59037812D01*
X110258000Y-59050072D01*
X110282683Y-59050072D01*
X110234040Y-59224435D01*
X111020000Y-60010395D01*
X111805960Y-59224435D01*
X111757317Y-59050072D01*
X111782000Y-59050072D01*
X111906482Y-59037812D01*
X112026180Y-59001502D01*
X112136494Y-58942537D01*
X112233185Y-58863185D01*
X112312537Y-58766494D01*
X112371502Y-58656180D01*
X112407812Y-58536482D01*
X112420072Y-58412000D01*
X112420072Y-56888000D01*
X112407812Y-56763518D01*
X112371502Y-56643820D01*
X112312537Y-56533506D01*
X112233185Y-56436815D01*
X112136494Y-56357463D01*
X112026180Y-56298498D01*
X111906482Y-56262188D01*
X111782000Y-56249928D01*
X110258000Y-56249928D01*
X110133518Y-56262188D01*
X110013820Y-56298498D01*
X109903506Y-56357463D01*
X109806815Y-56436815D01*
X109727463Y-56533506D01*
X109668498Y-56643820D01*
X109632188Y-56763518D01*
X109619928Y-56888000D01*
X109619928Y-56890000D01*
X75737322Y-56890000D01*
X75699999Y-56886324D01*
X75662676Y-56890000D01*
X75662667Y-56890000D01*
X75551014Y-56900997D01*
X75407753Y-56944454D01*
X75275724Y-57015026D01*
X75275722Y-57015027D01*
X75275723Y-57015027D01*
X75188996Y-57086201D01*
X75188992Y-57086205D01*
X75159999Y-57109999D01*
X75136205Y-57138992D01*
X62989003Y-69286196D01*
X62959999Y-69309999D01*
X62904871Y-69377174D01*
X62865026Y-69425724D01*
X62846991Y-69459465D01*
X62794454Y-69557754D01*
X62750997Y-69701015D01*
X62740000Y-69812668D01*
X62740000Y-69812678D01*
X62736324Y-69850000D01*
X56785000Y-69850000D01*
X56785000Y-59051454D01*
X56950285Y-59216739D01*
X57381859Y-59505108D01*
X57861399Y-59703740D01*
X58370475Y-59805001D01*
X58889525Y-59805001D01*
X59398601Y-59703740D01*
X59878141Y-59505108D01*
X60309715Y-59216739D01*
X60676738Y-58849716D01*
X60965107Y-58418142D01*
X61163739Y-57938602D01*
X61265000Y-57429526D01*
X61265000Y-56910476D01*
X61163739Y-56401400D01*
X60965107Y-55921860D01*
X60676738Y-55490286D01*
X60471452Y-55285000D01*
X144788548Y-55285000D01*
X144583262Y-55490286D01*
G37*
X144583262Y-55490286D02*
X144294893Y-55921860D01*
X144096261Y-56401400D01*
X143995000Y-56910476D01*
X143995000Y-57429526D01*
X144096261Y-57938602D01*
X144294893Y-58418142D01*
X144583262Y-58849716D01*
X144950285Y-59216739D01*
X145381859Y-59505108D01*
X145861399Y-59703740D01*
X146370475Y-59805001D01*
X146889525Y-59805001D01*
X147398601Y-59703740D01*
X147878141Y-59505108D01*
X148309715Y-59216739D01*
X148676738Y-58849716D01*
X148965107Y-58418142D01*
X149163739Y-57938602D01*
X149265000Y-57429526D01*
X149265000Y-56910476D01*
X149163739Y-56401400D01*
X148965107Y-55921860D01*
X148676738Y-55490286D01*
X148471452Y-55285000D01*
X159538547Y-55285000D01*
X159353262Y-55470285D01*
X159064893Y-55901859D01*
X158866261Y-56381399D01*
X158765000Y-56890475D01*
X158765000Y-57409525D01*
X158866261Y-57918601D01*
X159064893Y-58398141D01*
X159353262Y-58829715D01*
X159720285Y-59196738D01*
X160151859Y-59485107D01*
X160631399Y-59683739D01*
X161140475Y-59785000D01*
X161659525Y-59785000D01*
X162168601Y-59683739D01*
X162648141Y-59485107D01*
X163079715Y-59196738D01*
X163315000Y-58961453D01*
X163315000Y-88015649D01*
X163301185Y-87998815D01*
X163204494Y-87919463D01*
X163094180Y-87860498D01*
X162974482Y-87824188D01*
X162850000Y-87811928D01*
X160850000Y-87811928D01*
X160725518Y-87824188D01*
X160605820Y-87860498D01*
X160495506Y-87919463D01*
X160398815Y-87998815D01*
X160319463Y-88095506D01*
X160260498Y-88205820D01*
X160224188Y-88325518D01*
X160211928Y-88450000D01*
X160211928Y-91650000D01*
X160224188Y-91774482D01*
X160260498Y-91894180D01*
X160319463Y-92004494D01*
X160398815Y-92101185D01*
X160495506Y-92180537D01*
X160605820Y-92239502D01*
X160725518Y-92275812D01*
X160850000Y-92288072D01*
X162850000Y-92288072D01*
X162974482Y-92275812D01*
X163094180Y-92239502D01*
X163204494Y-92180537D01*
X163301185Y-92101185D01*
X163315001Y-92084351D01*
X163315001Y-120388548D01*
X163079715Y-120153262D01*
X162648141Y-119864893D01*
X162168601Y-119666261D01*
X161659525Y-119565000D01*
X161140475Y-119565000D01*
X160631399Y-119666261D01*
X160151859Y-119864893D01*
X159720285Y-120153262D01*
X159353262Y-120520285D01*
X159064893Y-120951859D01*
X158866261Y-121431399D01*
X158765000Y-121940475D01*
X158765000Y-122459525D01*
X158866261Y-122968601D01*
X159064893Y-123448141D01*
X159353262Y-123879715D01*
X159488547Y-124015000D01*
X148511454Y-124015000D01*
X148676738Y-123849716D01*
X148965107Y-123418142D01*
X149163739Y-122938602D01*
X149265000Y-122429526D01*
X149265000Y-121910476D01*
X149163739Y-121401400D01*
X148965107Y-120921860D01*
X148676738Y-120490286D01*
X148309715Y-120123263D01*
X147878141Y-119834894D01*
X147398601Y-119636262D01*
X146889525Y-119535001D01*
X146370475Y-119535001D01*
X145861399Y-119636262D01*
X145381859Y-119834894D01*
X144950285Y-120123263D01*
X144583262Y-120490286D01*
X144294893Y-120921860D01*
X144096261Y-121401400D01*
X143995000Y-121910476D01*
X143995000Y-122429526D01*
X144096261Y-122938602D01*
X144294893Y-123418142D01*
X144583262Y-123849716D01*
X144748546Y-124015000D01*
X60511454Y-124015000D01*
X60676738Y-123849716D01*
X60965107Y-123418142D01*
X61163739Y-122938602D01*
X61265000Y-122429526D01*
X61265000Y-121910476D01*
X61217035Y-121669336D01*
X68865000Y-121669336D01*
X68865000Y-122590665D01*
X68882870Y-122772102D01*
X68953489Y-123004901D01*
X69068167Y-123219449D01*
X69222498Y-123407503D01*
X69410551Y-123561834D01*
X69625099Y-123676512D01*
X69857898Y-123747131D01*
X70100000Y-123770976D01*
X70342101Y-123747131D01*
X70574900Y-123676512D01*
X70789448Y-123561834D01*
X70977502Y-123407503D01*
X71131833Y-123219450D01*
X71246511Y-123004902D01*
X71317130Y-122772103D01*
X71335000Y-122590666D01*
X71335000Y-121669337D01*
X71335000Y-121669336D01*
X71405000Y-121669336D01*
X71405000Y-122590665D01*
X71422870Y-122772102D01*
X71493489Y-123004901D01*
X71608167Y-123219449D01*
X71762498Y-123407503D01*
X71950551Y-123561834D01*
X72165099Y-123676512D01*
X72397898Y-123747131D01*
X72640000Y-123770976D01*
X72882101Y-123747131D01*
X73114900Y-123676512D01*
X73329448Y-123561834D01*
X73517502Y-123407503D01*
X73671833Y-123219450D01*
X73786511Y-123004902D01*
X73857130Y-122772103D01*
X73875000Y-122590666D01*
X73875000Y-121669337D01*
X73875000Y-121669336D01*
X73945000Y-121669336D01*
X73945000Y-122590665D01*
X73962870Y-122772102D01*
X74033489Y-123004901D01*
X74148167Y-123219449D01*
X74302498Y-123407503D01*
X74490551Y-123561834D01*
X74705099Y-123676512D01*
X74937898Y-123747131D01*
X75180000Y-123770976D01*
X75422101Y-123747131D01*
X75654900Y-123676512D01*
X75869448Y-123561834D01*
X76057502Y-123407503D01*
X76211833Y-123219450D01*
X76326511Y-123004902D01*
X76397130Y-122772103D01*
X76415000Y-122590666D01*
X76415000Y-121669337D01*
X76415000Y-121669336D01*
X76485000Y-121669336D01*
X76485000Y-122590665D01*
X76502870Y-122772102D01*
X76573489Y-123004901D01*
X76688167Y-123219449D01*
X76842498Y-123407503D01*
X77030551Y-123561834D01*
X77245099Y-123676512D01*
X77477898Y-123747131D01*
X77720000Y-123770976D01*
X77962101Y-123747131D01*
X78194900Y-123676512D01*
X78409448Y-123561834D01*
X78597502Y-123407503D01*
X78751833Y-123219450D01*
X78866511Y-123004902D01*
X78937130Y-122772103D01*
X78955000Y-122590666D01*
X78955000Y-121669337D01*
X78955000Y-121669336D01*
X79025000Y-121669336D01*
X79025000Y-122590665D01*
X79042870Y-122772102D01*
X79113489Y-123004901D01*
X79228167Y-123219449D01*
X79382498Y-123407503D01*
X79570551Y-123561834D01*
X79785099Y-123676512D01*
X80017898Y-123747131D01*
X80260000Y-123770976D01*
X80502101Y-123747131D01*
X80734900Y-123676512D01*
X80949448Y-123561834D01*
X81137502Y-123407503D01*
X81291833Y-123219450D01*
X81406511Y-123004902D01*
X81477130Y-122772103D01*
X81495000Y-122590666D01*
X81495000Y-122257001D01*
X81565000Y-122257001D01*
X81565000Y-122657001D01*
X81613507Y-122895497D01*
X81707610Y-123119947D01*
X81843693Y-123321726D01*
X82016526Y-123493079D01*
X82219467Y-123627422D01*
X82444718Y-123719592D01*
X82482391Y-123723463D01*
X82673000Y-123598732D01*
X82673000Y-122257001D01*
X82927000Y-122257001D01*
X82927000Y-123598732D01*
X83117609Y-123723463D01*
X83155282Y-123719592D01*
X83380533Y-123627422D01*
X83583474Y-123493079D01*
X83756307Y-123321726D01*
X83892390Y-123119947D01*
X83986493Y-122895497D01*
X84035000Y-122657001D01*
X84035000Y-122257001D01*
X82927000Y-122257001D01*
X82673000Y-122257001D01*
X81565000Y-122257001D01*
X81495000Y-122257001D01*
X81495000Y-121669337D01*
X81488467Y-121603001D01*
X81565000Y-121603001D01*
X81565000Y-122003001D01*
X82673000Y-122003001D01*
X82673000Y-120661270D01*
X82927000Y-120661270D01*
X82927000Y-122003001D01*
X84035000Y-122003001D01*
X84035000Y-121669336D01*
X84105000Y-121669336D01*
X84105000Y-122590665D01*
X84122870Y-122772102D01*
X84193489Y-123004901D01*
X84308167Y-123219449D01*
X84462498Y-123407503D01*
X84650551Y-123561834D01*
X84865099Y-123676512D01*
X85097898Y-123747131D01*
X85340000Y-123770976D01*
X85582101Y-123747131D01*
X85814900Y-123676512D01*
X86029448Y-123561834D01*
X86217502Y-123407503D01*
X86371833Y-123219450D01*
X86486511Y-123004902D01*
X86557130Y-122772103D01*
X86575000Y-122590666D01*
X86575000Y-121669337D01*
X86575000Y-121669336D01*
X86645000Y-121669336D01*
X86645000Y-122590665D01*
X86662870Y-122772102D01*
X86733489Y-123004901D01*
X86848167Y-123219449D01*
X87002498Y-123407503D01*
X87190551Y-123561834D01*
X87405099Y-123676512D01*
X87637898Y-123747131D01*
X87880000Y-123770976D01*
X88122101Y-123747131D01*
X88354900Y-123676512D01*
X88569448Y-123561834D01*
X88757502Y-123407503D01*
X88911833Y-123219450D01*
X89026511Y-123004902D01*
X89097130Y-122772103D01*
X89115000Y-122590666D01*
X89115000Y-121669337D01*
X89115000Y-121669336D01*
X89185000Y-121669336D01*
X89185000Y-122590665D01*
X89202870Y-122772102D01*
X89273489Y-123004901D01*
X89388167Y-123219449D01*
X89542498Y-123407503D01*
X89730551Y-123561834D01*
X89945099Y-123676512D01*
X90177898Y-123747131D01*
X90420000Y-123770976D01*
X90662101Y-123747131D01*
X90894900Y-123676512D01*
X91109448Y-123561834D01*
X91297502Y-123407503D01*
X91451833Y-123219450D01*
X91566511Y-123004902D01*
X91637130Y-122772103D01*
X91655000Y-122590666D01*
X91655000Y-121669337D01*
X91655000Y-121669336D01*
X91725000Y-121669336D01*
X91725000Y-122590665D01*
X91742870Y-122772102D01*
X91813489Y-123004901D01*
X91928167Y-123219449D01*
X92082498Y-123407503D01*
X92270551Y-123561834D01*
X92485099Y-123676512D01*
X92717898Y-123747131D01*
X92960000Y-123770976D01*
X93202101Y-123747131D01*
X93434900Y-123676512D01*
X93649448Y-123561834D01*
X93837502Y-123407503D01*
X93991833Y-123219450D01*
X94106511Y-123004902D01*
X94177130Y-122772103D01*
X94195000Y-122590666D01*
X94195000Y-121669337D01*
X94195000Y-121669336D01*
X94265000Y-121669336D01*
X94265000Y-122590665D01*
X94282870Y-122772102D01*
X94353489Y-123004901D01*
X94468167Y-123219449D01*
X94622498Y-123407503D01*
X94810551Y-123561834D01*
X95025099Y-123676512D01*
X95257898Y-123747131D01*
X95500000Y-123770976D01*
X95742101Y-123747131D01*
X95974900Y-123676512D01*
X96189448Y-123561834D01*
X96377502Y-123407503D01*
X96531833Y-123219450D01*
X96646511Y-123004902D01*
X96717130Y-122772103D01*
X96735000Y-122590666D01*
X96735000Y-121669337D01*
X96735000Y-121669336D01*
X96805000Y-121669336D01*
X96805000Y-122590665D01*
X96822870Y-122772102D01*
X96893489Y-123004901D01*
X97008167Y-123219449D01*
X97162498Y-123407503D01*
X97350551Y-123561834D01*
X97565099Y-123676512D01*
X97797898Y-123747131D01*
X98040000Y-123770976D01*
X98282101Y-123747131D01*
X98514900Y-123676512D01*
X98729448Y-123561834D01*
X98917502Y-123407503D01*
X99071833Y-123219450D01*
X99186511Y-123004902D01*
X99257130Y-122772103D01*
X99275000Y-122590666D01*
X99275000Y-121669337D01*
X99275000Y-121669336D01*
X99345000Y-121669336D01*
X99345000Y-122590665D01*
X99362870Y-122772102D01*
X99433489Y-123004901D01*
X99548167Y-123219449D01*
X99702498Y-123407503D01*
X99890551Y-123561834D01*
X100105099Y-123676512D01*
X100337898Y-123747131D01*
X100580000Y-123770976D01*
X100822101Y-123747131D01*
X101054900Y-123676512D01*
X101269448Y-123561834D01*
X101457502Y-123407503D01*
X101611833Y-123219450D01*
X101726511Y-123004902D01*
X101797130Y-122772103D01*
X101815000Y-122590666D01*
X101815000Y-121669337D01*
X101815000Y-121669336D01*
X101885000Y-121669336D01*
X101885000Y-122590665D01*
X101902870Y-122772102D01*
X101973489Y-123004901D01*
X102088167Y-123219449D01*
X102242498Y-123407503D01*
X102430551Y-123561834D01*
X102645099Y-123676512D01*
X102877898Y-123747131D01*
X103120000Y-123770976D01*
X103362101Y-123747131D01*
X103594900Y-123676512D01*
X103809448Y-123561834D01*
X103997502Y-123407503D01*
X104151833Y-123219450D01*
X104266511Y-123004902D01*
X104337130Y-122772103D01*
X104355000Y-122590666D01*
X104355000Y-121669337D01*
X104337130Y-121487900D01*
X104266511Y-121255100D01*
X104151833Y-121040552D01*
X103997502Y-120852499D01*
X103809449Y-120698168D01*
X103594901Y-120583490D01*
X103362102Y-120512871D01*
X103120000Y-120489026D01*
X102877899Y-120512871D01*
X102645100Y-120583490D01*
X102430552Y-120698168D01*
X102242499Y-120852499D01*
X102088168Y-121040552D01*
X101973489Y-121255100D01*
X101902870Y-121487899D01*
X101885000Y-121669336D01*
X101815000Y-121669336D01*
X101797130Y-121487900D01*
X101726511Y-121255100D01*
X101611833Y-121040552D01*
X101457502Y-120852499D01*
X101269449Y-120698168D01*
X101054901Y-120583490D01*
X100822102Y-120512871D01*
X100580000Y-120489026D01*
X100337899Y-120512871D01*
X100105100Y-120583490D01*
X99890552Y-120698168D01*
X99702499Y-120852499D01*
X99548168Y-121040552D01*
X99433489Y-121255100D01*
X99362870Y-121487899D01*
X99345000Y-121669336D01*
X99275000Y-121669336D01*
X99257130Y-121487900D01*
X99186511Y-121255100D01*
X99071833Y-121040552D01*
X98917502Y-120852499D01*
X98729449Y-120698168D01*
X98514901Y-120583490D01*
X98282102Y-120512871D01*
X98040000Y-120489026D01*
X97797899Y-120512871D01*
X97565100Y-120583490D01*
X97350552Y-120698168D01*
X97162499Y-120852499D01*
X97008168Y-121040552D01*
X96893489Y-121255100D01*
X96822870Y-121487899D01*
X96805000Y-121669336D01*
X96735000Y-121669336D01*
X96717130Y-121487900D01*
X96646511Y-121255100D01*
X96531833Y-121040552D01*
X96377502Y-120852499D01*
X96189449Y-120698168D01*
X95974901Y-120583490D01*
X95742102Y-120512871D01*
X95500000Y-120489026D01*
X95257899Y-120512871D01*
X95025100Y-120583490D01*
X94810552Y-120698168D01*
X94622499Y-120852499D01*
X94468168Y-121040552D01*
X94353489Y-121255100D01*
X94282870Y-121487899D01*
X94265000Y-121669336D01*
X94195000Y-121669336D01*
X94177130Y-121487900D01*
X94106511Y-121255100D01*
X93991833Y-121040552D01*
X93837502Y-120852499D01*
X93649449Y-120698168D01*
X93434901Y-120583490D01*
X93202102Y-120512871D01*
X92960000Y-120489026D01*
X92717899Y-120512871D01*
X92485100Y-120583490D01*
X92270552Y-120698168D01*
X92082499Y-120852499D01*
X91928168Y-121040552D01*
X91813489Y-121255100D01*
X91742870Y-121487899D01*
X91725000Y-121669336D01*
X91655000Y-121669336D01*
X91637130Y-121487900D01*
X91566511Y-121255100D01*
X91451833Y-121040552D01*
X91297502Y-120852499D01*
X91109449Y-120698168D01*
X90894901Y-120583490D01*
X90662102Y-120512871D01*
X90420000Y-120489026D01*
X90177899Y-120512871D01*
X89945100Y-120583490D01*
X89730552Y-120698168D01*
X89542499Y-120852499D01*
X89388168Y-121040552D01*
X89273489Y-121255100D01*
X89202870Y-121487899D01*
X89185000Y-121669336D01*
X89115000Y-121669336D01*
X89097130Y-121487900D01*
X89026511Y-121255100D01*
X88911833Y-121040552D01*
X88757502Y-120852499D01*
X88569449Y-120698168D01*
X88354901Y-120583490D01*
X88122102Y-120512871D01*
X87880000Y-120489026D01*
X87637899Y-120512871D01*
X87405100Y-120583490D01*
X87190552Y-120698168D01*
X87002499Y-120852499D01*
X86848168Y-121040552D01*
X86733489Y-121255100D01*
X86662870Y-121487899D01*
X86645000Y-121669336D01*
X86575000Y-121669336D01*
X86557130Y-121487900D01*
X86486511Y-121255100D01*
X86371833Y-121040552D01*
X86217502Y-120852499D01*
X86029449Y-120698168D01*
X85814901Y-120583490D01*
X85582102Y-120512871D01*
X85340000Y-120489026D01*
X85097899Y-120512871D01*
X84865100Y-120583490D01*
X84650552Y-120698168D01*
X84462499Y-120852499D01*
X84308168Y-121040552D01*
X84193489Y-121255100D01*
X84122870Y-121487899D01*
X84105000Y-121669336D01*
X84035000Y-121669336D01*
X84035000Y-121603001D01*
X83986493Y-121364505D01*
X83892390Y-121140055D01*
X83756307Y-120938276D01*
X83583474Y-120766923D01*
X83380533Y-120632580D01*
X83155282Y-120540410D01*
X83117609Y-120536539D01*
X82927000Y-120661270D01*
X82673000Y-120661270D01*
X82482391Y-120536539D01*
X82444718Y-120540410D01*
X82219467Y-120632580D01*
X82016526Y-120766923D01*
X81843693Y-120938276D01*
X81707610Y-121140055D01*
X81613507Y-121364505D01*
X81565000Y-121603001D01*
X81488467Y-121603001D01*
X81477130Y-121487900D01*
X81406511Y-121255100D01*
X81291833Y-121040552D01*
X81137502Y-120852499D01*
X80949449Y-120698168D01*
X80734901Y-120583490D01*
X80502102Y-120512871D01*
X80260000Y-120489026D01*
X80017899Y-120512871D01*
X79785100Y-120583490D01*
X79570552Y-120698168D01*
X79382499Y-120852499D01*
X79228168Y-121040552D01*
X79113489Y-121255100D01*
X79042870Y-121487899D01*
X79025000Y-121669336D01*
X78955000Y-121669336D01*
X78937130Y-121487900D01*
X78866511Y-121255100D01*
X78751833Y-121040552D01*
X78597502Y-120852499D01*
X78409449Y-120698168D01*
X78194901Y-120583490D01*
X77962102Y-120512871D01*
X77720000Y-120489026D01*
X77477899Y-120512871D01*
X77245100Y-120583490D01*
X77030552Y-120698168D01*
X76842499Y-120852499D01*
X76688168Y-121040552D01*
X76573489Y-121255100D01*
X76502870Y-121487899D01*
X76485000Y-121669336D01*
X76415000Y-121669336D01*
X76397130Y-121487900D01*
X76326511Y-121255100D01*
X76211833Y-121040552D01*
X76057502Y-120852499D01*
X75869449Y-120698168D01*
X75654901Y-120583490D01*
X75422102Y-120512871D01*
X75180000Y-120489026D01*
X74937899Y-120512871D01*
X74705100Y-120583490D01*
X74490552Y-120698168D01*
X74302499Y-120852499D01*
X74148168Y-121040552D01*
X74033489Y-121255100D01*
X73962870Y-121487899D01*
X73945000Y-121669336D01*
X73875000Y-121669336D01*
X73857130Y-121487900D01*
X73786511Y-121255100D01*
X73671833Y-121040552D01*
X73517502Y-120852499D01*
X73329449Y-120698168D01*
X73114901Y-120583490D01*
X72882102Y-120512871D01*
X72640000Y-120489026D01*
X72397899Y-120512871D01*
X72165100Y-120583490D01*
X71950552Y-120698168D01*
X71762499Y-120852499D01*
X71608168Y-121040552D01*
X71493489Y-121255100D01*
X71422870Y-121487899D01*
X71405000Y-121669336D01*
X71335000Y-121669336D01*
X71317130Y-121487900D01*
X71246511Y-121255100D01*
X71131833Y-121040552D01*
X70977502Y-120852499D01*
X70789449Y-120698168D01*
X70574901Y-120583490D01*
X70342102Y-120512871D01*
X70100000Y-120489026D01*
X69857899Y-120512871D01*
X69625100Y-120583490D01*
X69410552Y-120698168D01*
X69222499Y-120852499D01*
X69068168Y-121040552D01*
X68953489Y-121255100D01*
X68882870Y-121487899D01*
X68865000Y-121669336D01*
X61217035Y-121669336D01*
X61163739Y-121401400D01*
X60965107Y-120921860D01*
X60676738Y-120490286D01*
X60309715Y-120123263D01*
X59878141Y-119834894D01*
X59398601Y-119636262D01*
X58889525Y-119535001D01*
X58370475Y-119535001D01*
X57861399Y-119636262D01*
X57381859Y-119834894D01*
X56950285Y-120123263D01*
X56785000Y-120288548D01*
X56785000Y-69850000D01*
X62736324Y-69850000D01*
X62740000Y-69887322D01*
X62740001Y-91382257D01*
X62738000Y-91402574D01*
X62738000Y-92022984D01*
X62736324Y-92040000D01*
X62738000Y-92057016D01*
X62738000Y-92077425D01*
X62740000Y-92097732D01*
X62740001Y-99622668D01*
X62736324Y-99660000D01*
X62740001Y-99697333D01*
X62749621Y-99795000D01*
X62750998Y-99808985D01*
X62794454Y-99952246D01*
X62865026Y-100084276D01*
X62935379Y-100170000D01*
X62960000Y-100200001D01*
X62988998Y-100223799D01*
X64206201Y-101441003D01*
X64229999Y-101470001D01*
X64345724Y-101564974D01*
X64477753Y-101635546D01*
X64621014Y-101679003D01*
X64732667Y-101690000D01*
X64732676Y-101690000D01*
X64769999Y-101693676D01*
X64807322Y-101690000D01*
X66101776Y-101690000D01*
X66246525Y-101906632D01*
X66378380Y-102038487D01*
X66305820Y-102060498D01*
X66195506Y-102119463D01*
X66098815Y-102198815D01*
X66019463Y-102295506D01*
X65960498Y-102405820D01*
X65924188Y-102525518D01*
X65911928Y-102650000D01*
X65911928Y-104350000D01*
X65924188Y-104474482D01*
X65960498Y-104594180D01*
X66019463Y-104704494D01*
X66098815Y-104801185D01*
X66195506Y-104880537D01*
X66305820Y-104939502D01*
X66425518Y-104975812D01*
X66550000Y-104988072D01*
X68250000Y-104988072D01*
X68374482Y-104975812D01*
X68494180Y-104939502D01*
X68604494Y-104880537D01*
X68701185Y-104801185D01*
X68780537Y-104704494D01*
X68839502Y-104594180D01*
X68875812Y-104474482D01*
X68888072Y-104350000D01*
X68888072Y-102650000D01*
X68875812Y-102525518D01*
X68839502Y-102405820D01*
X68780537Y-102295506D01*
X68701185Y-102198815D01*
X68604494Y-102119463D01*
X68494180Y-102060498D01*
X68421620Y-102038487D01*
X68553475Y-101906632D01*
X68715990Y-101663411D01*
X68827932Y-101393158D01*
X68885000Y-101106260D01*
X68885000Y-100813740D01*
X68827932Y-100526842D01*
X68715990Y-100256589D01*
X68553475Y-100013368D01*
X68346632Y-99806525D01*
X68164466Y-99684805D01*
X68281355Y-99615178D01*
X68497588Y-99420269D01*
X68671641Y-99186920D01*
X68796825Y-98924099D01*
X68841476Y-98776890D01*
X68720155Y-98547000D01*
X67527000Y-98547000D01*
X67527000Y-98567000D01*
X67273000Y-98567000D01*
X67273000Y-98547000D01*
X66079845Y-98547000D01*
X65958524Y-98776890D01*
X66003175Y-98924099D01*
X66128359Y-99186920D01*
X66302412Y-99420269D01*
X66518645Y-99615178D01*
X66635534Y-99684805D01*
X66453368Y-99806525D01*
X66246525Y-100013368D01*
X66141867Y-100170000D01*
X65084802Y-100170000D01*
X64260000Y-99345199D01*
X64260000Y-93874622D01*
X64345724Y-93944974D01*
X64477753Y-94015546D01*
X64621014Y-94059003D01*
X64732667Y-94070000D01*
X64732676Y-94070000D01*
X64769999Y-94073676D01*
X64807322Y-94070000D01*
X66101776Y-94070000D01*
X66246525Y-94286632D01*
X66453368Y-94493475D01*
X66627760Y-94610000D01*
X66453368Y-94726525D01*
X66246525Y-94933368D01*
X66084010Y-95176589D01*
X65972068Y-95446842D01*
X65915000Y-95733740D01*
X65915000Y-96026260D01*
X65972068Y-96313158D01*
X66084010Y-96583411D01*
X66246525Y-96826632D01*
X66453368Y-97033475D01*
X66635534Y-97155195D01*
X66518645Y-97224822D01*
X66302412Y-97419731D01*
X66128359Y-97653080D01*
X66003175Y-97915901D01*
X65958524Y-98063110D01*
X66079845Y-98293000D01*
X67273000Y-98293000D01*
X67273000Y-98273000D01*
X67527000Y-98273000D01*
X67527000Y-98293000D01*
X68720155Y-98293000D01*
X68841476Y-98063110D01*
X68796825Y-97915901D01*
X68671641Y-97653080D01*
X68497588Y-97419731D01*
X68281355Y-97224822D01*
X68164466Y-97155195D01*
X68346632Y-97033475D01*
X68553475Y-96826632D01*
X68715990Y-96583411D01*
X68827932Y-96313158D01*
X68885000Y-96026260D01*
X68885000Y-95733740D01*
X68827932Y-95446842D01*
X68715990Y-95176589D01*
X68553475Y-94933368D01*
X68346632Y-94726525D01*
X68172240Y-94610000D01*
X68346632Y-94493475D01*
X68553475Y-94286632D01*
X68715990Y-94043411D01*
X68827932Y-93773158D01*
X68885000Y-93486260D01*
X68885000Y-93193740D01*
X68827932Y-92906842D01*
X68715990Y-92636589D01*
X68553475Y-92393368D01*
X68346632Y-92186525D01*
X68164466Y-92064805D01*
X68281355Y-91995178D01*
X68497588Y-91800269D01*
X68671641Y-91566920D01*
X68796825Y-91304099D01*
X68841476Y-91156890D01*
X68720155Y-90927000D01*
X67527000Y-90927000D01*
X67527000Y-90947000D01*
X67273000Y-90947000D01*
X67273000Y-90927000D01*
X66079845Y-90927000D01*
X65958524Y-91156890D01*
X66003175Y-91304099D01*
X66128359Y-91566920D01*
X66302412Y-91800269D01*
X66518645Y-91995178D01*
X66635534Y-92064805D01*
X66453368Y-92186525D01*
X66246525Y-92393368D01*
X66141867Y-92550000D01*
X65084802Y-92550000D01*
X64262000Y-91727199D01*
X64262000Y-91402574D01*
X64260000Y-91382267D01*
X64260000Y-77953740D01*
X65915000Y-77953740D01*
X65915000Y-78246260D01*
X65972068Y-78533158D01*
X66084010Y-78803411D01*
X66246525Y-79046632D01*
X66453368Y-79253475D01*
X66627760Y-79370000D01*
X66453368Y-79486525D01*
X66246525Y-79693368D01*
X66084010Y-79936589D01*
X65972068Y-80206842D01*
X65915000Y-80493740D01*
X65915000Y-80786260D01*
X65972068Y-81073158D01*
X66084010Y-81343411D01*
X66246525Y-81586632D01*
X66453368Y-81793475D01*
X66635534Y-81915195D01*
X66518645Y-81984822D01*
X66302412Y-82179731D01*
X66128359Y-82413080D01*
X66003175Y-82675901D01*
X65958524Y-82823110D01*
X66079845Y-83053000D01*
X67273000Y-83053000D01*
X67273000Y-83033000D01*
X67527000Y-83033000D01*
X67527000Y-83053000D01*
X68720155Y-83053000D01*
X68841476Y-82823110D01*
X68796825Y-82675901D01*
X68671641Y-82413080D01*
X68497588Y-82179731D01*
X68281355Y-81984822D01*
X68164466Y-81915195D01*
X68346632Y-81793475D01*
X68553475Y-81586632D01*
X68698224Y-81370000D01*
X78795199Y-81370000D01*
X80520000Y-83094803D01*
X80520001Y-88862658D01*
X80520000Y-88862668D01*
X80520000Y-89182668D01*
X80520001Y-106642667D01*
X80516324Y-106680000D01*
X80530998Y-106828985D01*
X80574454Y-106972246D01*
X80645026Y-107104276D01*
X80680914Y-107148005D01*
X80740000Y-107220001D01*
X80768998Y-107243799D01*
X83256205Y-109731008D01*
X83279999Y-109760001D01*
X83308992Y-109783795D01*
X83308996Y-109783799D01*
X83365568Y-109830226D01*
X83395724Y-109854974D01*
X83527753Y-109925546D01*
X83671014Y-109969003D01*
X83782667Y-109980000D01*
X83782676Y-109980000D01*
X83819999Y-109983676D01*
X83857322Y-109980000D01*
X116802678Y-109980000D01*
X116840000Y-109983676D01*
X116877322Y-109980000D01*
X116877333Y-109980000D01*
X116988986Y-109969003D01*
X117132247Y-109925546D01*
X117264276Y-109854974D01*
X117380001Y-109760001D01*
X117403804Y-109730997D01*
X121690001Y-105444801D01*
X121690001Y-105835197D01*
X116525199Y-111000000D01*
X84134802Y-111000000D01*
X79500000Y-106365199D01*
X79500000Y-90207322D01*
X79503676Y-90169999D01*
X79500000Y-90132676D01*
X79500000Y-90132667D01*
X79489003Y-90021014D01*
X79445546Y-89877753D01*
X79374974Y-89745724D01*
X79280001Y-89629999D01*
X79251003Y-89606201D01*
X77363804Y-87719003D01*
X77340001Y-87689999D01*
X77224276Y-87595026D01*
X77092247Y-87524454D01*
X76948986Y-87480997D01*
X76837333Y-87470000D01*
X76837322Y-87470000D01*
X76800000Y-87466324D01*
X76762678Y-87470000D01*
X68658133Y-87470000D01*
X68553475Y-87313368D01*
X68346632Y-87106525D01*
X68172240Y-86990000D01*
X68346632Y-86873475D01*
X68553475Y-86666632D01*
X68715990Y-86423411D01*
X68827932Y-86153158D01*
X68885000Y-85866260D01*
X68885000Y-85573740D01*
X68827932Y-85286842D01*
X68715990Y-85016589D01*
X68553475Y-84773368D01*
X68346632Y-84566525D01*
X68164466Y-84444805D01*
X68281355Y-84375178D01*
X68497588Y-84180269D01*
X68671641Y-83946920D01*
X68796825Y-83684099D01*
X68841476Y-83536890D01*
X68720155Y-83307000D01*
X67527000Y-83307000D01*
X67527000Y-83327000D01*
X67273000Y-83327000D01*
X67273000Y-83307000D01*
X66079845Y-83307000D01*
X65958524Y-83536890D01*
X66003175Y-83684099D01*
X66128359Y-83946920D01*
X66302412Y-84180269D01*
X66518645Y-84375178D01*
X66635534Y-84444805D01*
X66453368Y-84566525D01*
X66246525Y-84773368D01*
X66084010Y-85016589D01*
X65972068Y-85286842D01*
X65915000Y-85573740D01*
X65915000Y-85866260D01*
X65972068Y-86153158D01*
X66084010Y-86423411D01*
X66246525Y-86666632D01*
X66453368Y-86873475D01*
X66627760Y-86990000D01*
X66453368Y-87106525D01*
X66246525Y-87313368D01*
X66084010Y-87556589D01*
X65972068Y-87826842D01*
X65915000Y-88113740D01*
X65915000Y-88406260D01*
X65972068Y-88693158D01*
X66084010Y-88963411D01*
X66246525Y-89206632D01*
X66453368Y-89413475D01*
X66635534Y-89535195D01*
X66518645Y-89604822D01*
X66302412Y-89799731D01*
X66128359Y-90033080D01*
X66003175Y-90295901D01*
X65958524Y-90443110D01*
X66079845Y-90673000D01*
X67273000Y-90673000D01*
X67273000Y-90653000D01*
X67527000Y-90653000D01*
X67527000Y-90673000D01*
X68720155Y-90673000D01*
X68841476Y-90443110D01*
X68796825Y-90295901D01*
X68671641Y-90033080D01*
X68497588Y-89799731D01*
X68281355Y-89604822D01*
X68164466Y-89535195D01*
X68346632Y-89413475D01*
X68553475Y-89206632D01*
X68698224Y-88990000D01*
X76485199Y-88990000D01*
X77980001Y-90484803D01*
X77980000Y-106642678D01*
X77976324Y-106680000D01*
X77980000Y-106717322D01*
X77980000Y-106717332D01*
X77990997Y-106828985D01*
X78016688Y-106913677D01*
X78034454Y-106972246D01*
X78105026Y-107104276D01*
X78140914Y-107148005D01*
X78199999Y-107220001D01*
X78229003Y-107243804D01*
X83255198Y-112270000D01*
X82864803Y-112270000D01*
X81045000Y-110450199D01*
X81045000Y-110388061D01*
X81005226Y-110188102D01*
X80927205Y-109999744D01*
X80813937Y-109830226D01*
X80669774Y-109686063D01*
X80500256Y-109572795D01*
X80311898Y-109494774D01*
X80111939Y-109455000D01*
X80049802Y-109455000D01*
X76960000Y-106365199D01*
X76960000Y-101637325D01*
X76963676Y-101600000D01*
X76960000Y-101562675D01*
X76960000Y-101562667D01*
X76949003Y-101451014D01*
X76905546Y-101307753D01*
X76834974Y-101175724D01*
X76740001Y-101059999D01*
X76711004Y-101036202D01*
X73150000Y-97475199D01*
X73150000Y-92143711D01*
X73193937Y-92099774D01*
X73307205Y-91930256D01*
X73385226Y-91741898D01*
X73425000Y-91541939D01*
X73425000Y-91338061D01*
X73385226Y-91138102D01*
X73307205Y-90949744D01*
X73193937Y-90780226D01*
X73049774Y-90636063D01*
X72880256Y-90522795D01*
X72691898Y-90444774D01*
X72491939Y-90405000D01*
X72288061Y-90405000D01*
X72088102Y-90444774D01*
X71899744Y-90522795D01*
X71730226Y-90636063D01*
X71586063Y-90780226D01*
X71472795Y-90949744D01*
X71394774Y-91138102D01*
X71355000Y-91338061D01*
X71355000Y-91541939D01*
X71394774Y-91741898D01*
X71472795Y-91930256D01*
X71586063Y-92099774D01*
X71630000Y-92143711D01*
X71630001Y-96482658D01*
X71630000Y-96482668D01*
X71630001Y-97752668D01*
X71626324Y-97790000D01*
X71630001Y-97827333D01*
X71638148Y-97910044D01*
X71640998Y-97938985D01*
X71684454Y-98082246D01*
X71755026Y-98214276D01*
X71817172Y-98290000D01*
X71850000Y-98330001D01*
X71878998Y-98353799D01*
X75440000Y-101914802D01*
X75440001Y-106642667D01*
X75436324Y-106680000D01*
X75450998Y-106828985D01*
X75494454Y-106972246D01*
X75565026Y-107104276D01*
X75600914Y-107148005D01*
X75660000Y-107220001D01*
X75688998Y-107243799D01*
X78975000Y-110529802D01*
X78975000Y-110591939D01*
X79014774Y-110791898D01*
X79092795Y-110980256D01*
X79206063Y-111149774D01*
X79350226Y-111293937D01*
X79519744Y-111407205D01*
X79708102Y-111485226D01*
X79908061Y-111525000D01*
X79970199Y-111525000D01*
X81986205Y-113541008D01*
X82009999Y-113570001D01*
X82038992Y-113593795D01*
X82038996Y-113593799D01*
X82109685Y-113651811D01*
X82125724Y-113664974D01*
X82257753Y-113735546D01*
X82401014Y-113779003D01*
X82512667Y-113790000D01*
X82512676Y-113790000D01*
X82549999Y-113793676D01*
X82587322Y-113790000D01*
X109925198Y-113790000D01*
X105149003Y-118566196D01*
X105119999Y-118589999D01*
X105064871Y-118657174D01*
X105025026Y-118705724D01*
X104954455Y-118837753D01*
X104954454Y-118837754D01*
X104910997Y-118981015D01*
X104900000Y-119092668D01*
X104900000Y-119092678D01*
X104896324Y-119130000D01*
X104900000Y-119167323D01*
X104900001Y-120756068D01*
X104782499Y-120852499D01*
X104628168Y-121040552D01*
X104513489Y-121255100D01*
X104442870Y-121487899D01*
X104425000Y-121669336D01*
X104425000Y-122590665D01*
X104442870Y-122772102D01*
X104513489Y-123004901D01*
X104628167Y-123219449D01*
X104782498Y-123407503D01*
X104970551Y-123561834D01*
X105185099Y-123676512D01*
X105417898Y-123747131D01*
X105660000Y-123770976D01*
X105902101Y-123747131D01*
X106134900Y-123676512D01*
X106349448Y-123561834D01*
X106537502Y-123407503D01*
X106691833Y-123219450D01*
X106806511Y-123004902D01*
X106877130Y-122772103D01*
X106895000Y-122590666D01*
X106895000Y-121669337D01*
X106877130Y-121487900D01*
X106806511Y-121255100D01*
X106691833Y-121040552D01*
X106537502Y-120852499D01*
X106420000Y-120756068D01*
X106420000Y-119444801D01*
X110804802Y-115060000D01*
X111195198Y-115060000D01*
X107688998Y-118566201D01*
X107660000Y-118589999D01*
X107636202Y-118618997D01*
X107636201Y-118618998D01*
X107565026Y-118705724D01*
X107494454Y-118837754D01*
X107450998Y-118981015D01*
X107436324Y-119130000D01*
X107440001Y-119167332D01*
X107440000Y-120756068D01*
X107322499Y-120852499D01*
X107168168Y-121040552D01*
X107053489Y-121255100D01*
X106982870Y-121487899D01*
X106965000Y-121669336D01*
X106965000Y-122590665D01*
X106982870Y-122772102D01*
X107053489Y-123004901D01*
X107168167Y-123219449D01*
X107322498Y-123407503D01*
X107510551Y-123561834D01*
X107725099Y-123676512D01*
X107957898Y-123747131D01*
X108200000Y-123770976D01*
X108442101Y-123747131D01*
X108674900Y-123676512D01*
X108889448Y-123561834D01*
X109077502Y-123407503D01*
X109231833Y-123219450D01*
X109346511Y-123004902D01*
X109417130Y-122772103D01*
X109435000Y-122590666D01*
X109435000Y-121669337D01*
X109417130Y-121487900D01*
X109346511Y-121255100D01*
X109231833Y-121040552D01*
X109077502Y-120852499D01*
X108960000Y-120756068D01*
X108960000Y-119444801D01*
X112074802Y-116330000D01*
X112465198Y-116330000D01*
X110228998Y-118566201D01*
X110200000Y-118589999D01*
X110176202Y-118618997D01*
X110176201Y-118618998D01*
X110105026Y-118705724D01*
X110034454Y-118837754D01*
X109990998Y-118981015D01*
X109976324Y-119130000D01*
X109980001Y-119167332D01*
X109980000Y-120756068D01*
X109862499Y-120852499D01*
X109708168Y-121040552D01*
X109593489Y-121255100D01*
X109522870Y-121487899D01*
X109505000Y-121669336D01*
X109505000Y-122590665D01*
X109522870Y-122772102D01*
X109593489Y-123004901D01*
X109708167Y-123219449D01*
X109862498Y-123407503D01*
X110050551Y-123561834D01*
X110265099Y-123676512D01*
X110497898Y-123747131D01*
X110740000Y-123770976D01*
X110982101Y-123747131D01*
X111214900Y-123676512D01*
X111429448Y-123561834D01*
X111617502Y-123407503D01*
X111771833Y-123219450D01*
X111886511Y-123004902D01*
X111957130Y-122772103D01*
X111975000Y-122590666D01*
X111975000Y-121669337D01*
X111975000Y-121669336D01*
X112045000Y-121669336D01*
X112045000Y-122590665D01*
X112062870Y-122772102D01*
X112133489Y-123004901D01*
X112248167Y-123219449D01*
X112402498Y-123407503D01*
X112590551Y-123561834D01*
X112805099Y-123676512D01*
X113037898Y-123747131D01*
X113280000Y-123770976D01*
X113522101Y-123747131D01*
X113754900Y-123676512D01*
X113969448Y-123561834D01*
X114157502Y-123407503D01*
X114311833Y-123219450D01*
X114426511Y-123004902D01*
X114497130Y-122772103D01*
X114515000Y-122590666D01*
X114515000Y-121669337D01*
X114515000Y-121669336D01*
X114585000Y-121669336D01*
X114585000Y-122590665D01*
X114602870Y-122772102D01*
X114673489Y-123004901D01*
X114788167Y-123219449D01*
X114942498Y-123407503D01*
X115130551Y-123561834D01*
X115345099Y-123676512D01*
X115577898Y-123747131D01*
X115820000Y-123770976D01*
X116062101Y-123747131D01*
X116294900Y-123676512D01*
X116509448Y-123561834D01*
X116697502Y-123407503D01*
X116851833Y-123219450D01*
X116966511Y-123004902D01*
X117037130Y-122772103D01*
X117055000Y-122590666D01*
X117055000Y-122257001D01*
X117125000Y-122257001D01*
X117125000Y-122657001D01*
X117173507Y-122895497D01*
X117267610Y-123119947D01*
X117403693Y-123321726D01*
X117576526Y-123493079D01*
X117779467Y-123627422D01*
X118004718Y-123719592D01*
X118042391Y-123723463D01*
X118233000Y-123598732D01*
X118233000Y-122257001D01*
X118487000Y-122257001D01*
X118487000Y-123598732D01*
X118677609Y-123723463D01*
X118715282Y-123719592D01*
X118940533Y-123627422D01*
X119143474Y-123493079D01*
X119316307Y-123321726D01*
X119452390Y-123119947D01*
X119546493Y-122895497D01*
X119595000Y-122657001D01*
X119595000Y-122257001D01*
X118487000Y-122257001D01*
X118233000Y-122257001D01*
X117125000Y-122257001D01*
X117055000Y-122257001D01*
X117055000Y-121669337D01*
X117048467Y-121603001D01*
X117125000Y-121603001D01*
X117125000Y-122003001D01*
X118233000Y-122003001D01*
X118233000Y-120661270D01*
X118487000Y-120661270D01*
X118487000Y-122003001D01*
X119595000Y-122003001D01*
X119595000Y-121603001D01*
X119546493Y-121364505D01*
X119452390Y-121140055D01*
X119316307Y-120938276D01*
X119143474Y-120766923D01*
X118940533Y-120632580D01*
X118715282Y-120540410D01*
X118677609Y-120536539D01*
X118487000Y-120661270D01*
X118233000Y-120661270D01*
X118042391Y-120536539D01*
X118004718Y-120540410D01*
X117779467Y-120632580D01*
X117576526Y-120766923D01*
X117403693Y-120938276D01*
X117267610Y-121140055D01*
X117173507Y-121364505D01*
X117125000Y-121603001D01*
X117048467Y-121603001D01*
X117037130Y-121487900D01*
X116966511Y-121255100D01*
X116851833Y-121040552D01*
X116697502Y-120852499D01*
X116509449Y-120698168D01*
X116294901Y-120583490D01*
X116062102Y-120512871D01*
X115820000Y-120489026D01*
X115577899Y-120512871D01*
X115345100Y-120583490D01*
X115130552Y-120698168D01*
X114942499Y-120852499D01*
X114788168Y-121040552D01*
X114673489Y-121255100D01*
X114602870Y-121487899D01*
X114585000Y-121669336D01*
X114515000Y-121669336D01*
X114497130Y-121487900D01*
X114426511Y-121255100D01*
X114311833Y-121040552D01*
X114157502Y-120852499D01*
X113969449Y-120698168D01*
X113754901Y-120583490D01*
X113522102Y-120512871D01*
X113280000Y-120489026D01*
X113037899Y-120512871D01*
X112805100Y-120583490D01*
X112590552Y-120698168D01*
X112402499Y-120852499D01*
X112248168Y-121040552D01*
X112133489Y-121255100D01*
X112062870Y-121487899D01*
X112045000Y-121669336D01*
X111975000Y-121669336D01*
X111957130Y-121487900D01*
X111886511Y-121255100D01*
X111771833Y-121040552D01*
X111617502Y-120852499D01*
X111500000Y-120756068D01*
X111500000Y-119444801D01*
X113344802Y-117600000D01*
X129502678Y-117600000D01*
X129540000Y-117603676D01*
X129577322Y-117600000D01*
X129577333Y-117600000D01*
X129688986Y-117589003D01*
X129832247Y-117545546D01*
X129964276Y-117474974D01*
X130080001Y-117380001D01*
X130103804Y-117350997D01*
X136931004Y-110523798D01*
X136960001Y-110500001D01*
X137054974Y-110384276D01*
X137125546Y-110252247D01*
X137169003Y-110108986D01*
X137180000Y-109997333D01*
X137180000Y-109997324D01*
X137183676Y-109960001D01*
X137180000Y-109922678D01*
X137180000Y-107383711D01*
X137223937Y-107339774D01*
X137337205Y-107170256D01*
X137415226Y-106981898D01*
X137455000Y-106781939D01*
X137455000Y-106578061D01*
X137415226Y-106378102D01*
X137337205Y-106189744D01*
X137223937Y-106020226D01*
X137079774Y-105876063D01*
X136910256Y-105762795D01*
X136721898Y-105684774D01*
X136521939Y-105645000D01*
X136318061Y-105645000D01*
X136118102Y-105684774D01*
X135929744Y-105762795D01*
X135760226Y-105876063D01*
X135616063Y-106020226D01*
X135502795Y-106189744D01*
X135424774Y-106378102D01*
X135385000Y-106578061D01*
X135385000Y-106781939D01*
X135424774Y-106981898D01*
X135502795Y-107170256D01*
X135616063Y-107339774D01*
X135660000Y-107383711D01*
X135660000Y-107987332D01*
X135660001Y-107987342D01*
X135660000Y-109645198D01*
X129225199Y-116080000D01*
X128834801Y-116080000D01*
X134391004Y-110523798D01*
X134420001Y-110500001D01*
X134446332Y-110467917D01*
X134514974Y-110384277D01*
X134585546Y-110252247D01*
X134605004Y-110188102D01*
X134629003Y-110108986D01*
X134640000Y-109997333D01*
X134640000Y-109997324D01*
X134643676Y-109960001D01*
X134640000Y-109922678D01*
X134640000Y-107383711D01*
X134683937Y-107339774D01*
X134797205Y-107170256D01*
X134875226Y-106981898D01*
X134915000Y-106781939D01*
X134915000Y-106578061D01*
X134875226Y-106378102D01*
X134797205Y-106189744D01*
X134683937Y-106020226D01*
X134539774Y-105876063D01*
X134370256Y-105762795D01*
X134181898Y-105684774D01*
X133981939Y-105645000D01*
X133778061Y-105645000D01*
X133578102Y-105684774D01*
X133389744Y-105762795D01*
X133220226Y-105876063D01*
X133076063Y-106020226D01*
X132962795Y-106189744D01*
X132884774Y-106378102D01*
X132845000Y-106578061D01*
X132845000Y-106781939D01*
X132884774Y-106981898D01*
X132962795Y-107170256D01*
X133076063Y-107339774D01*
X133120000Y-107383711D01*
X133120000Y-107987332D01*
X133120001Y-107987342D01*
X133120000Y-109645198D01*
X127955199Y-114810000D01*
X127564801Y-114810000D01*
X131851003Y-110523799D01*
X131880001Y-110500001D01*
X131974974Y-110384276D01*
X132045546Y-110252247D01*
X132089003Y-110108986D01*
X132100000Y-109997333D01*
X132100000Y-109997323D01*
X132103676Y-109960000D01*
X132100000Y-109922677D01*
X132100000Y-96888967D01*
X152115000Y-96888967D01*
X152115000Y-97211033D01*
X152177832Y-97526912D01*
X152301082Y-97824463D01*
X152480013Y-98092252D01*
X152707748Y-98319987D01*
X152975537Y-98498918D01*
X153273088Y-98622168D01*
X153588967Y-98685000D01*
X153911033Y-98685000D01*
X154226912Y-98622168D01*
X154524463Y-98498918D01*
X154792252Y-98319987D01*
X154926826Y-98185413D01*
X157794192Y-98185413D01*
X157889956Y-98449814D01*
X158179571Y-98590704D01*
X158491108Y-98672384D01*
X158812595Y-98691718D01*
X159131675Y-98647961D01*
X159436088Y-98542795D01*
X159610044Y-98449814D01*
X159705808Y-98185413D01*
X158750000Y-97229605D01*
X157794192Y-98185413D01*
X154926826Y-98185413D01*
X155019987Y-98092252D01*
X155198918Y-97824463D01*
X155322168Y-97526912D01*
X155385000Y-97211033D01*
X155385000Y-97112595D01*
X157108282Y-97112595D01*
X157152039Y-97431675D01*
X157257205Y-97736088D01*
X157350186Y-97910044D01*
X157614587Y-98005808D01*
X158570395Y-97050000D01*
X158929605Y-97050000D01*
X159885413Y-98005808D01*
X160149814Y-97910044D01*
X160290704Y-97620429D01*
X160372384Y-97308892D01*
X160391718Y-96987405D01*
X160347961Y-96668325D01*
X160242795Y-96363912D01*
X160149814Y-96189956D01*
X159885413Y-96094192D01*
X158929605Y-97050000D01*
X158570395Y-97050000D01*
X157614587Y-96094192D01*
X157350186Y-96189956D01*
X157209296Y-96479571D01*
X157127616Y-96791108D01*
X157108282Y-97112595D01*
X155385000Y-97112595D01*
X155385000Y-96888967D01*
X155322168Y-96573088D01*
X155198918Y-96275537D01*
X155019987Y-96007748D01*
X154926826Y-95914587D01*
X157794192Y-95914587D01*
X158750000Y-96870395D01*
X159705808Y-95914587D01*
X159610044Y-95650186D01*
X159320429Y-95509296D01*
X159008892Y-95427616D01*
X158687405Y-95408282D01*
X158368325Y-95452039D01*
X158063912Y-95557205D01*
X157889956Y-95650186D01*
X157794192Y-95914587D01*
X154926826Y-95914587D01*
X154792252Y-95780013D01*
X154524463Y-95601082D01*
X154226912Y-95477832D01*
X153911033Y-95415000D01*
X153588967Y-95415000D01*
X153273088Y-95477832D01*
X152975537Y-95601082D01*
X152707748Y-95780013D01*
X152480013Y-96007748D01*
X152301082Y-96275537D01*
X152177832Y-96573088D01*
X152115000Y-96888967D01*
X132100000Y-96888967D01*
X132100000Y-90207325D01*
X132103676Y-90170000D01*
X132100000Y-90132675D01*
X132100000Y-90132667D01*
X132089003Y-90021014D01*
X132045546Y-89877753D01*
X131974974Y-89745724D01*
X131880001Y-89629999D01*
X131851004Y-89606202D01*
X130694802Y-88450000D01*
X149011928Y-88450000D01*
X149011928Y-91650000D01*
X149024188Y-91774482D01*
X149060498Y-91894180D01*
X149119463Y-92004494D01*
X149198815Y-92101185D01*
X149295506Y-92180537D01*
X149405820Y-92239502D01*
X149525518Y-92275812D01*
X149650000Y-92288072D01*
X151650000Y-92288072D01*
X151774482Y-92275812D01*
X151894180Y-92239502D01*
X152004494Y-92180537D01*
X152101185Y-92101185D01*
X152180537Y-92004494D01*
X152239502Y-91894180D01*
X152275812Y-91774482D01*
X152288072Y-91650000D01*
X152288072Y-88450000D01*
X152275812Y-88325518D01*
X152239502Y-88205820D01*
X152180537Y-88095506D01*
X152101185Y-87998815D01*
X152004494Y-87919463D01*
X151894180Y-87860498D01*
X151774482Y-87824188D01*
X151650000Y-87811928D01*
X149650000Y-87811928D01*
X149525518Y-87824188D01*
X149405820Y-87860498D01*
X149295506Y-87919463D01*
X149198815Y-87998815D01*
X149119463Y-88095506D01*
X149060498Y-88205820D01*
X149024188Y-88325518D01*
X149011928Y-88450000D01*
X130694802Y-88450000D01*
X129863804Y-87619003D01*
X129840001Y-87589999D01*
X129724276Y-87495026D01*
X129592247Y-87424454D01*
X129448986Y-87380997D01*
X129337333Y-87370000D01*
X129337322Y-87370000D01*
X129300000Y-87366324D01*
X129262678Y-87370000D01*
X127432341Y-87370000D01*
X127345120Y-87239465D01*
X127150535Y-87044880D01*
X126921727Y-86891995D01*
X126844485Y-86860000D01*
X126921727Y-86828005D01*
X127150535Y-86675120D01*
X127345120Y-86480535D01*
X127493772Y-86258061D01*
X142475000Y-86258061D01*
X142475000Y-86461939D01*
X142514774Y-86661898D01*
X142592795Y-86850256D01*
X142706063Y-87019774D01*
X142850226Y-87163937D01*
X143019744Y-87277205D01*
X143208102Y-87355226D01*
X143408061Y-87395000D01*
X143611939Y-87395000D01*
X143811898Y-87355226D01*
X144000256Y-87277205D01*
X144169774Y-87163937D01*
X144213711Y-87120000D01*
X157442678Y-87120000D01*
X157480000Y-87123676D01*
X157517322Y-87120000D01*
X157517333Y-87120000D01*
X157628986Y-87109003D01*
X157772247Y-87065546D01*
X157904276Y-86994974D01*
X158020001Y-86900001D01*
X158043804Y-86870997D01*
X159261003Y-85653799D01*
X159290001Y-85630001D01*
X159384974Y-85514276D01*
X159455546Y-85382247D01*
X159499003Y-85238986D01*
X159510000Y-85127333D01*
X159510000Y-85127324D01*
X159513676Y-85090001D01*
X159510000Y-85052678D01*
X159510000Y-84188072D01*
X159750000Y-84188072D01*
X159874482Y-84175812D01*
X159994180Y-84139502D01*
X160104494Y-84080537D01*
X160201185Y-84001185D01*
X160280537Y-83904494D01*
X160339502Y-83794180D01*
X160375812Y-83674482D01*
X160388072Y-83550000D01*
X160388072Y-81550000D01*
X160375812Y-81425518D01*
X160339502Y-81305820D01*
X160280537Y-81195506D01*
X160201185Y-81098815D01*
X160104494Y-81019463D01*
X159994180Y-80960498D01*
X159874482Y-80924188D01*
X159750000Y-80911928D01*
X157750000Y-80911928D01*
X157625518Y-80924188D01*
X157505820Y-80960498D01*
X157395506Y-81019463D01*
X157298815Y-81098815D01*
X157219463Y-81195506D01*
X157164024Y-81299223D01*
X157110044Y-81150186D01*
X156820429Y-81009296D01*
X156508892Y-80927616D01*
X156187405Y-80908282D01*
X155868325Y-80952039D01*
X155563912Y-81057205D01*
X155389956Y-81150186D01*
X155294192Y-81414587D01*
X156250000Y-82370395D01*
X156264143Y-82356253D01*
X156443748Y-82535858D01*
X156429605Y-82550000D01*
X156443748Y-82564143D01*
X156264143Y-82743748D01*
X156250000Y-82729605D01*
X155294192Y-83685413D01*
X155389956Y-83949814D01*
X155679571Y-84090704D01*
X155991108Y-84172384D01*
X156312595Y-84191718D01*
X156631675Y-84147961D01*
X156936088Y-84042795D01*
X157110044Y-83949814D01*
X157164024Y-83800777D01*
X157219463Y-83904494D01*
X157298815Y-84001185D01*
X157395506Y-84080537D01*
X157505820Y-84139502D01*
X157625518Y-84175812D01*
X157750000Y-84188072D01*
X157990001Y-84188072D01*
X157990001Y-84775197D01*
X157165199Y-85600000D01*
X144213711Y-85600000D01*
X144169774Y-85556063D01*
X144000256Y-85442795D01*
X143811898Y-85364774D01*
X143611939Y-85325000D01*
X143408061Y-85325000D01*
X143208102Y-85364774D01*
X143019744Y-85442795D01*
X142850226Y-85556063D01*
X142706063Y-85700226D01*
X142592795Y-85869744D01*
X142514774Y-86058102D01*
X142475000Y-86258061D01*
X127493772Y-86258061D01*
X127498005Y-86251727D01*
X127603314Y-85997490D01*
X127657000Y-85727592D01*
X127657000Y-85452408D01*
X127603314Y-85182510D01*
X127498005Y-84928273D01*
X127345120Y-84699465D01*
X127150535Y-84504880D01*
X126921727Y-84351995D01*
X126844485Y-84320000D01*
X126921727Y-84288005D01*
X127150535Y-84135120D01*
X127345120Y-83940535D01*
X127498005Y-83711727D01*
X127603314Y-83457490D01*
X127657000Y-83187592D01*
X127657000Y-82912408D01*
X127603314Y-82642510D01*
X127498293Y-82388967D01*
X152115000Y-82388967D01*
X152115000Y-82711033D01*
X152177832Y-83026912D01*
X152301082Y-83324463D01*
X152480013Y-83592252D01*
X152707748Y-83819987D01*
X152975537Y-83998918D01*
X153273088Y-84122168D01*
X153588967Y-84185000D01*
X153911033Y-84185000D01*
X154226912Y-84122168D01*
X154524463Y-83998918D01*
X154792252Y-83819987D01*
X155019987Y-83592252D01*
X155084925Y-83495065D01*
X155114587Y-83505808D01*
X156070395Y-82550000D01*
X155114587Y-81594192D01*
X155084925Y-81604935D01*
X155019987Y-81507748D01*
X154792252Y-81280013D01*
X154524463Y-81101082D01*
X154226912Y-80977832D01*
X153911033Y-80915000D01*
X153588967Y-80915000D01*
X153273088Y-80977832D01*
X152975537Y-81101082D01*
X152707748Y-81280013D01*
X152480013Y-81507748D01*
X152301082Y-81775537D01*
X152177832Y-82073088D01*
X152115000Y-82388967D01*
X127498293Y-82388967D01*
X127498005Y-82388273D01*
X127345120Y-82159465D01*
X127150535Y-81964880D01*
X126921727Y-81811995D01*
X126844485Y-81780000D01*
X126921727Y-81748005D01*
X127150535Y-81595120D01*
X127345120Y-81400535D01*
X127498005Y-81171727D01*
X127603314Y-80917490D01*
X127657000Y-80647592D01*
X127657000Y-80372408D01*
X127603314Y-80102510D01*
X127498005Y-79848273D01*
X127345120Y-79619465D01*
X127150535Y-79424880D01*
X126921727Y-79271995D01*
X126844485Y-79240000D01*
X126921727Y-79208005D01*
X127150535Y-79055120D01*
X127345120Y-78860535D01*
X127498005Y-78631727D01*
X127603314Y-78377490D01*
X127657000Y-78107592D01*
X127657000Y-77832408D01*
X127603314Y-77562510D01*
X127498005Y-77308273D01*
X127345120Y-77079465D01*
X127150535Y-76884880D01*
X126921727Y-76731995D01*
X126844485Y-76700000D01*
X126921727Y-76668005D01*
X127150535Y-76515120D01*
X127345120Y-76320535D01*
X127498005Y-76091727D01*
X127603314Y-75837490D01*
X127657000Y-75567592D01*
X127657000Y-75292408D01*
X127603314Y-75022510D01*
X127498005Y-74768273D01*
X127345120Y-74539465D01*
X127150535Y-74344880D01*
X126921727Y-74191995D01*
X126844485Y-74160000D01*
X126921727Y-74128005D01*
X127150535Y-73975120D01*
X127345120Y-73780535D01*
X127498005Y-73551727D01*
X127603314Y-73297490D01*
X127657000Y-73027592D01*
X127657000Y-72752408D01*
X127603314Y-72482510D01*
X127498005Y-72228273D01*
X127345120Y-71999465D01*
X127150535Y-71804880D01*
X126921727Y-71651995D01*
X126844485Y-71620000D01*
X126921727Y-71588005D01*
X127150535Y-71435120D01*
X127345120Y-71240535D01*
X127498005Y-71011727D01*
X127603314Y-70757490D01*
X127657000Y-70487592D01*
X127657000Y-70212408D01*
X127603314Y-69942510D01*
X127498005Y-69688273D01*
X127345120Y-69459465D01*
X127150535Y-69264880D01*
X126921727Y-69111995D01*
X126844485Y-69080000D01*
X126921727Y-69048005D01*
X127150535Y-68895120D01*
X127345120Y-68700535D01*
X127498005Y-68471727D01*
X127603314Y-68217490D01*
X127657000Y-67947592D01*
X127657000Y-67672408D01*
X127603314Y-67402510D01*
X127498005Y-67148273D01*
X127345120Y-66919465D01*
X127150535Y-66724880D01*
X126921727Y-66571995D01*
X126844485Y-66540000D01*
X126921727Y-66508005D01*
X127150535Y-66355120D01*
X127345120Y-66160535D01*
X127498005Y-65931727D01*
X127603314Y-65677490D01*
X127657000Y-65407592D01*
X127657000Y-65132408D01*
X127603314Y-64862510D01*
X127498005Y-64608273D01*
X127345120Y-64379465D01*
X127150535Y-64184880D01*
X126921727Y-64031995D01*
X126844485Y-64000000D01*
X126921727Y-63968005D01*
X127150535Y-63815120D01*
X127345120Y-63620535D01*
X127498005Y-63391727D01*
X127603314Y-63137490D01*
X127657000Y-62867592D01*
X127657000Y-62592408D01*
X127603314Y-62322510D01*
X127498005Y-62068273D01*
X127345120Y-61839465D01*
X127150535Y-61644880D01*
X126921727Y-61491995D01*
X126844485Y-61460000D01*
X126921727Y-61428005D01*
X127150535Y-61275120D01*
X127345120Y-61080535D01*
X127498005Y-60851727D01*
X127603314Y-60597490D01*
X127657000Y-60327592D01*
X127657000Y-60052408D01*
X127603314Y-59782510D01*
X127498005Y-59528273D01*
X127345120Y-59299465D01*
X127150535Y-59104880D01*
X126921727Y-58951995D01*
X126844485Y-58920000D01*
X126921727Y-58888005D01*
X127150535Y-58735120D01*
X127345120Y-58540535D01*
X127498005Y-58311727D01*
X127603314Y-58057490D01*
X127657000Y-57787592D01*
X127657000Y-57512408D01*
X127603314Y-57242510D01*
X127498005Y-56988273D01*
X127345120Y-56759465D01*
X127150535Y-56564880D01*
X126921727Y-56411995D01*
X126667490Y-56306686D01*
X126397592Y-56253000D01*
X126122408Y-56253000D01*
X125852510Y-56306686D01*
X125598273Y-56411995D01*
X125369465Y-56564880D01*
X125174880Y-56759465D01*
X125021995Y-56988273D01*
X124916686Y-57242510D01*
X124863000Y-57512408D01*
X124863000Y-57787592D01*
X124916686Y-58057490D01*
X125021995Y-58311727D01*
X125174880Y-58540535D01*
X125369465Y-58735120D01*
X125598273Y-58888005D01*
X125675515Y-58920000D01*
X125598273Y-58951995D01*
X125369465Y-59104880D01*
X125174880Y-59299465D01*
X125021995Y-59528273D01*
X124916686Y-59782510D01*
X124863000Y-60052408D01*
X124863000Y-60327592D01*
X124916686Y-60597490D01*
X125021995Y-60851727D01*
X125174880Y-61080535D01*
X125369465Y-61275120D01*
X125598273Y-61428005D01*
X125675515Y-61460000D01*
X125598273Y-61491995D01*
X125369465Y-61644880D01*
X125174880Y-61839465D01*
X125021995Y-62068273D01*
X124916686Y-62322510D01*
X124863000Y-62592408D01*
X124863000Y-62867592D01*
X124916686Y-63137490D01*
X125021995Y-63391727D01*
X125174880Y-63620535D01*
X125369465Y-63815120D01*
X125598273Y-63968005D01*
X125675515Y-64000000D01*
X125598273Y-64031995D01*
X125369465Y-64184880D01*
X125174880Y-64379465D01*
X125021995Y-64608273D01*
X124916686Y-64862510D01*
X124863000Y-65132408D01*
X124863000Y-65407592D01*
X124916686Y-65677490D01*
X125021995Y-65931727D01*
X125174880Y-66160535D01*
X125369465Y-66355120D01*
X125598273Y-66508005D01*
X125675515Y-66540000D01*
X125598273Y-66571995D01*
X125369465Y-66724880D01*
X125174880Y-66919465D01*
X125021995Y-67148273D01*
X124916686Y-67402510D01*
X124863000Y-67672408D01*
X124863000Y-67947592D01*
X124916686Y-68217490D01*
X125021995Y-68471727D01*
X125174880Y-68700535D01*
X125369465Y-68895120D01*
X125598273Y-69048005D01*
X125675515Y-69080000D01*
X125598273Y-69111995D01*
X125369465Y-69264880D01*
X125174880Y-69459465D01*
X125021995Y-69688273D01*
X124916686Y-69942510D01*
X124863000Y-70212408D01*
X124863000Y-70487592D01*
X124916686Y-70757490D01*
X125021995Y-71011727D01*
X125174880Y-71240535D01*
X125369465Y-71435120D01*
X125598273Y-71588005D01*
X125675515Y-71620000D01*
X125598273Y-71651995D01*
X125369465Y-71804880D01*
X125174880Y-71999465D01*
X125021995Y-72228273D01*
X124916686Y-72482510D01*
X124863000Y-72752408D01*
X124863000Y-73027592D01*
X124916686Y-73297490D01*
X125021995Y-73551727D01*
X125174880Y-73780535D01*
X125369465Y-73975120D01*
X125598273Y-74128005D01*
X125675515Y-74160000D01*
X125598273Y-74191995D01*
X125369465Y-74344880D01*
X125174880Y-74539465D01*
X125021995Y-74768273D01*
X124916686Y-75022510D01*
X124863000Y-75292408D01*
X124863000Y-75567592D01*
X124916686Y-75837490D01*
X125021995Y-76091727D01*
X125174880Y-76320535D01*
X125369465Y-76515120D01*
X125598273Y-76668005D01*
X125675515Y-76700000D01*
X125598273Y-76731995D01*
X125369465Y-76884880D01*
X125174880Y-77079465D01*
X125021995Y-77308273D01*
X124916686Y-77562510D01*
X124863000Y-77832408D01*
X124863000Y-78107592D01*
X124916686Y-78377490D01*
X125021995Y-78631727D01*
X125174880Y-78860535D01*
X125369465Y-79055120D01*
X125598273Y-79208005D01*
X125675515Y-79240000D01*
X125598273Y-79271995D01*
X125369465Y-79424880D01*
X125174880Y-79619465D01*
X125021995Y-79848273D01*
X124916686Y-80102510D01*
X124863000Y-80372408D01*
X124863000Y-80647592D01*
X124916686Y-80917490D01*
X125021995Y-81171727D01*
X125174880Y-81400535D01*
X125369465Y-81595120D01*
X125598273Y-81748005D01*
X125675515Y-81780000D01*
X125598273Y-81811995D01*
X125369465Y-81964880D01*
X125174880Y-82159465D01*
X125021995Y-82388273D01*
X124916686Y-82642510D01*
X124863000Y-82912408D01*
X124863000Y-83187592D01*
X124916686Y-83457490D01*
X125021995Y-83711727D01*
X125174880Y-83940535D01*
X125369465Y-84135120D01*
X125598273Y-84288005D01*
X125675515Y-84320000D01*
X125598273Y-84351995D01*
X125369465Y-84504880D01*
X125174880Y-84699465D01*
X125021995Y-84928273D01*
X124916686Y-85182510D01*
X124863000Y-85452408D01*
X124863000Y-85727592D01*
X124916686Y-85997490D01*
X125021995Y-86251727D01*
X125174880Y-86480535D01*
X125369465Y-86675120D01*
X125598273Y-86828005D01*
X125675515Y-86860000D01*
X125598273Y-86891995D01*
X125369465Y-87044880D01*
X125174880Y-87239465D01*
X125021995Y-87468273D01*
X124916686Y-87722510D01*
X124863000Y-87992408D01*
X124863000Y-88267592D01*
X124916686Y-88537490D01*
X125021995Y-88791727D01*
X125174880Y-89020535D01*
X125369465Y-89215120D01*
X125598273Y-89368005D01*
X125675515Y-89400000D01*
X125598273Y-89431995D01*
X125369465Y-89584880D01*
X125174880Y-89779465D01*
X125021995Y-90008273D01*
X124916686Y-90262510D01*
X124863000Y-90532408D01*
X124863000Y-90807592D01*
X124916686Y-91077490D01*
X125021995Y-91331727D01*
X125174880Y-91560535D01*
X125369465Y-91755120D01*
X125598273Y-91908005D01*
X125675515Y-91940000D01*
X125598273Y-91971995D01*
X125369465Y-92124880D01*
X125174880Y-92319465D01*
X125021995Y-92548273D01*
X124916686Y-92802510D01*
X124863000Y-93072408D01*
X124863000Y-93347592D01*
X124916686Y-93617490D01*
X125021995Y-93871727D01*
X125174880Y-94100535D01*
X125369465Y-94295120D01*
X125598273Y-94448005D01*
X125675515Y-94480000D01*
X125598273Y-94511995D01*
X125369465Y-94664880D01*
X125174880Y-94859465D01*
X125087659Y-94990000D01*
X123757322Y-94990000D01*
X123719999Y-94986324D01*
X123682676Y-94990000D01*
X123682667Y-94990000D01*
X123571014Y-95000997D01*
X123427753Y-95044454D01*
X123295724Y-95115026D01*
X123295722Y-95115027D01*
X123295723Y-95115027D01*
X123208996Y-95186201D01*
X123208992Y-95186205D01*
X123179999Y-95209999D01*
X123156205Y-95238992D01*
X120670000Y-97725199D01*
X120670000Y-74197325D01*
X120673676Y-74160000D01*
X120670000Y-74122675D01*
X120670000Y-74122667D01*
X120659003Y-74011014D01*
X120615546Y-73867753D01*
X120544974Y-73735724D01*
X120450001Y-73619999D01*
X120421004Y-73596202D01*
X116663804Y-69839003D01*
X116640001Y-69809999D01*
X116524276Y-69715026D01*
X116392247Y-69644454D01*
X116248986Y-69600997D01*
X116137333Y-69590000D01*
X116137322Y-69590000D01*
X116100000Y-69586324D01*
X116062678Y-69590000D01*
X112192341Y-69590000D01*
X112105120Y-69459465D01*
X111910535Y-69264880D01*
X111681727Y-69111995D01*
X111604485Y-69080000D01*
X111681727Y-69048005D01*
X111910535Y-68895120D01*
X112105120Y-68700535D01*
X112258005Y-68471727D01*
X112363314Y-68217490D01*
X112417000Y-67947592D01*
X112417000Y-67672408D01*
X112363314Y-67402510D01*
X112258005Y-67148273D01*
X112105120Y-66919465D01*
X111910535Y-66724880D01*
X111681727Y-66571995D01*
X111604485Y-66540000D01*
X111681727Y-66508005D01*
X111910535Y-66355120D01*
X112105120Y-66160535D01*
X112258005Y-65931727D01*
X112363314Y-65677490D01*
X112417000Y-65407592D01*
X112417000Y-65132408D01*
X112363314Y-64862510D01*
X112258005Y-64608273D01*
X112105120Y-64379465D01*
X111910535Y-64184880D01*
X111681727Y-64031995D01*
X111604485Y-64000000D01*
X111681727Y-63968005D01*
X111910535Y-63815120D01*
X112105120Y-63620535D01*
X112258005Y-63391727D01*
X112363314Y-63137490D01*
X112417000Y-62867592D01*
X112417000Y-62592408D01*
X112363314Y-62322510D01*
X112258005Y-62068273D01*
X112105120Y-61839465D01*
X111910535Y-61644880D01*
X111681727Y-61491995D01*
X111610057Y-61462308D01*
X111623023Y-61457636D01*
X111738980Y-61395656D01*
X111805960Y-61155565D01*
X111020000Y-60369605D01*
X110234040Y-61155565D01*
X110301020Y-61395656D01*
X110436760Y-61459485D01*
X110358273Y-61491995D01*
X110129465Y-61644880D01*
X109934880Y-61839465D01*
X109781995Y-62068273D01*
X109676686Y-62322510D01*
X109623000Y-62592408D01*
X109623000Y-62867592D01*
X109676686Y-63137490D01*
X109781995Y-63391727D01*
X109934880Y-63620535D01*
X110129465Y-63815120D01*
X110358273Y-63968005D01*
X110435515Y-64000000D01*
X110358273Y-64031995D01*
X110129465Y-64184880D01*
X109934880Y-64379465D01*
X109781995Y-64608273D01*
X109676686Y-64862510D01*
X109623000Y-65132408D01*
X109623000Y-65407592D01*
X109676686Y-65677490D01*
X109781995Y-65931727D01*
X109934880Y-66160535D01*
X110129465Y-66355120D01*
X110358273Y-66508005D01*
X110435515Y-66540000D01*
X110358273Y-66571995D01*
X110129465Y-66724880D01*
X109934880Y-66919465D01*
X109847659Y-67050000D01*
X92247325Y-67050000D01*
X92210000Y-67046324D01*
X92172675Y-67050000D01*
X92172667Y-67050000D01*
X92061014Y-67060997D01*
X91917753Y-67104454D01*
X91785724Y-67175026D01*
X91669999Y-67269999D01*
X91646201Y-67298997D01*
X83309003Y-75636196D01*
X83279999Y-75659999D01*
X83228915Y-75722246D01*
X83185026Y-75775724D01*
X83143039Y-75854276D01*
X83114454Y-75907754D01*
X83070997Y-76051015D01*
X83060000Y-76162668D01*
X83060000Y-76162678D01*
X83056324Y-76200000D01*
X83060000Y-76237322D01*
X83060001Y-105372667D01*
X83056324Y-105410000D01*
X83060001Y-105447333D01*
X83070998Y-105558986D01*
X83084180Y-105602442D01*
X83114454Y-105702246D01*
X83185026Y-105834276D01*
X83235734Y-105896063D01*
X83280000Y-105950001D01*
X83308998Y-105973799D01*
X84065000Y-106729802D01*
X84065000Y-106801939D01*
X84104774Y-107001898D01*
X84182795Y-107190256D01*
X84296063Y-107359774D01*
X84440226Y-107503937D01*
X84609744Y-107617205D01*
X84798102Y-107695226D01*
X84998061Y-107735000D01*
X85201939Y-107735000D01*
X85401898Y-107695226D01*
X85590256Y-107617205D01*
X85759774Y-107503937D01*
X85903937Y-107359774D01*
X86017205Y-107190256D01*
X86095226Y-107001898D01*
X86135000Y-106801939D01*
X86135000Y-106598061D01*
X86095226Y-106398102D01*
X86017205Y-106209744D01*
X85903937Y-106040226D01*
X85759774Y-105896063D01*
X85590256Y-105782795D01*
X85401898Y-105704774D01*
X85201939Y-105665000D01*
X85149802Y-105665000D01*
X84580000Y-105095199D01*
X84580000Y-76514801D01*
X92524802Y-68570000D01*
X109847659Y-68570000D01*
X109934880Y-68700535D01*
X110129465Y-68895120D01*
X110358273Y-69048005D01*
X110435515Y-69080000D01*
X110358273Y-69111995D01*
X110129465Y-69264880D01*
X109934880Y-69459465D01*
X109781995Y-69688273D01*
X109676686Y-69942510D01*
X109623000Y-70212408D01*
X109623000Y-70487592D01*
X109676686Y-70757490D01*
X109781995Y-71011727D01*
X109934880Y-71240535D01*
X110129465Y-71435120D01*
X110358273Y-71588005D01*
X110435515Y-71620000D01*
X110358273Y-71651995D01*
X110129465Y-71804880D01*
X109934880Y-71999465D01*
X109781995Y-72228273D01*
X109676686Y-72482510D01*
X109623000Y-72752408D01*
X109623000Y-73027592D01*
X109676686Y-73297490D01*
X109781995Y-73551727D01*
X109934880Y-73780535D01*
X110129465Y-73975120D01*
X110358273Y-74128005D01*
X110435515Y-74160000D01*
X110358273Y-74191995D01*
X110129465Y-74344880D01*
X109934880Y-74539465D01*
X109781995Y-74768273D01*
X109676686Y-75022510D01*
X109623000Y-75292408D01*
X109623000Y-75567592D01*
X109676686Y-75837490D01*
X109781995Y-76091727D01*
X109934880Y-76320535D01*
X110129465Y-76515120D01*
X110358273Y-76668005D01*
X110435515Y-76700000D01*
X110358273Y-76731995D01*
X110129465Y-76884880D01*
X109934880Y-77079465D01*
X109781995Y-77308273D01*
X109676686Y-77562510D01*
X109623000Y-77832408D01*
X109623000Y-78107592D01*
X109676686Y-78377490D01*
X109781995Y-78631727D01*
X109934880Y-78860535D01*
X110129465Y-79055120D01*
X110358273Y-79208005D01*
X110435515Y-79240000D01*
X110358273Y-79271995D01*
X110129465Y-79424880D01*
X109934880Y-79619465D01*
X109781995Y-79848273D01*
X109676686Y-80102510D01*
X109623000Y-80372408D01*
X109623000Y-80647592D01*
X109676686Y-80917490D01*
X109781995Y-81171727D01*
X109934880Y-81400535D01*
X110129465Y-81595120D01*
X110358273Y-81748005D01*
X110435515Y-81780000D01*
X110358273Y-81811995D01*
X110129465Y-81964880D01*
X109934880Y-82159465D01*
X109781995Y-82388273D01*
X109676686Y-82642510D01*
X109623000Y-82912408D01*
X109623000Y-83187592D01*
X109676686Y-83457490D01*
X109781995Y-83711727D01*
X109934880Y-83940535D01*
X110129465Y-84135120D01*
X110358273Y-84288005D01*
X110435515Y-84320000D01*
X110358273Y-84351995D01*
X110129465Y-84504880D01*
X109934880Y-84699465D01*
X109781995Y-84928273D01*
X109676686Y-85182510D01*
X109623000Y-85452408D01*
X109623000Y-85727592D01*
X109676686Y-85997490D01*
X109781995Y-86251727D01*
X109934880Y-86480535D01*
X110129465Y-86675120D01*
X110358273Y-86828005D01*
X110435515Y-86860000D01*
X110358273Y-86891995D01*
X110129465Y-87044880D01*
X109934880Y-87239465D01*
X109781995Y-87468273D01*
X109676686Y-87722510D01*
X109623000Y-87992408D01*
X109623000Y-88267592D01*
X109676686Y-88537490D01*
X109781995Y-88791727D01*
X109934880Y-89020535D01*
X110129465Y-89215120D01*
X110358273Y-89368005D01*
X110435515Y-89400000D01*
X110358273Y-89431995D01*
X110129465Y-89584880D01*
X109934880Y-89779465D01*
X109781995Y-90008273D01*
X109676686Y-90262510D01*
X109623000Y-90532408D01*
X109623000Y-90807592D01*
X109676686Y-91077490D01*
X109781995Y-91331727D01*
X109934880Y-91560535D01*
X110129465Y-91755120D01*
X110358273Y-91908005D01*
X110435515Y-91940000D01*
X110358273Y-91971995D01*
X110129465Y-92124880D01*
X109934880Y-92319465D01*
X109781995Y-92548273D01*
X109676686Y-92802510D01*
X109623000Y-93072408D01*
X109623000Y-93347592D01*
X109676686Y-93617490D01*
X109781995Y-93871727D01*
X109934880Y-94100535D01*
X110129465Y-94295120D01*
X110358273Y-94448005D01*
X110435515Y-94480000D01*
X110358273Y-94511995D01*
X110129465Y-94664880D01*
X109934880Y-94859465D01*
X109781995Y-95088273D01*
X109676686Y-95342510D01*
X109623000Y-95612408D01*
X109623000Y-95887592D01*
X109676686Y-96157490D01*
X109781995Y-96411727D01*
X109934880Y-96640535D01*
X110129465Y-96835120D01*
X110358273Y-96988005D01*
X110435515Y-97020000D01*
X110358273Y-97051995D01*
X110129465Y-97204880D01*
X109934880Y-97399465D01*
X109781995Y-97628273D01*
X109676686Y-97882510D01*
X109623000Y-98152408D01*
X109623000Y-98427592D01*
X109676686Y-98697490D01*
X109781995Y-98951727D01*
X109934880Y-99180535D01*
X110129465Y-99375120D01*
X110358273Y-99528005D01*
X110435515Y-99560000D01*
X110358273Y-99591995D01*
X110129465Y-99744880D01*
X109934880Y-99939465D01*
X109781995Y-100168273D01*
X109676686Y-100422510D01*
X109623000Y-100692408D01*
X109623000Y-100967592D01*
X109676686Y-101237490D01*
X109781995Y-101491727D01*
X109934880Y-101720535D01*
X110129465Y-101915120D01*
X110358273Y-102068005D01*
X110435515Y-102100000D01*
X110358273Y-102131995D01*
X110129465Y-102284880D01*
X109934880Y-102479465D01*
X109781995Y-102708273D01*
X109676686Y-102962510D01*
X109623000Y-103232408D01*
X109623000Y-103507592D01*
X109676686Y-103777490D01*
X109781995Y-104031727D01*
X109934880Y-104260535D01*
X110129465Y-104455120D01*
X110358273Y-104608005D01*
X110435515Y-104640000D01*
X110358273Y-104671995D01*
X110129465Y-104824880D01*
X109934880Y-105019465D01*
X109781995Y-105248273D01*
X109676686Y-105502510D01*
X109623000Y-105772408D01*
X109623000Y-106047592D01*
X109676686Y-106317490D01*
X109781995Y-106571727D01*
X109934880Y-106800535D01*
X110129465Y-106995120D01*
X110358273Y-107148005D01*
X110612510Y-107253314D01*
X110882408Y-107307000D01*
X111157592Y-107307000D01*
X111427490Y-107253314D01*
X111681727Y-107148005D01*
X111910535Y-106995120D01*
X112105120Y-106800535D01*
X112258005Y-106571727D01*
X112363314Y-106317490D01*
X112417000Y-106047592D01*
X112417000Y-105772408D01*
X112363314Y-105502510D01*
X112258005Y-105248273D01*
X112105120Y-105019465D01*
X111910535Y-104824880D01*
X111681727Y-104671995D01*
X111604485Y-104640000D01*
X111681727Y-104608005D01*
X111910535Y-104455120D01*
X112105120Y-104260535D01*
X112258005Y-104031727D01*
X112363314Y-103777490D01*
X112417000Y-103507592D01*
X112417000Y-103232408D01*
X112363314Y-102962510D01*
X112258005Y-102708273D01*
X112105120Y-102479465D01*
X111910535Y-102284880D01*
X111681727Y-102131995D01*
X111604485Y-102100000D01*
X111681727Y-102068005D01*
X111910535Y-101915120D01*
X112105120Y-101720535D01*
X112258005Y-101491727D01*
X112363314Y-101237490D01*
X112417000Y-100967592D01*
X112417000Y-100692408D01*
X112363314Y-100422510D01*
X112258005Y-100168273D01*
X112105120Y-99939465D01*
X111910535Y-99744880D01*
X111681727Y-99591995D01*
X111604485Y-99560000D01*
X111681727Y-99528005D01*
X111910535Y-99375120D01*
X112105120Y-99180535D01*
X112258005Y-98951727D01*
X112363314Y-98697490D01*
X112417000Y-98427592D01*
X112417000Y-98152408D01*
X112363314Y-97882510D01*
X112258005Y-97628273D01*
X112105120Y-97399465D01*
X111910535Y-97204880D01*
X111681727Y-97051995D01*
X111604485Y-97020000D01*
X111681727Y-96988005D01*
X111910535Y-96835120D01*
X112105120Y-96640535D01*
X112258005Y-96411727D01*
X112363314Y-96157490D01*
X112417000Y-95887592D01*
X112417000Y-95612408D01*
X112363314Y-95342510D01*
X112258005Y-95088273D01*
X112105120Y-94859465D01*
X111910535Y-94664880D01*
X111681727Y-94511995D01*
X111604485Y-94480000D01*
X111681727Y-94448005D01*
X111910535Y-94295120D01*
X112105120Y-94100535D01*
X112258005Y-93871727D01*
X112363314Y-93617490D01*
X112417000Y-93347592D01*
X112417000Y-93072408D01*
X112363314Y-92802510D01*
X112258005Y-92548273D01*
X112105120Y-92319465D01*
X111910535Y-92124880D01*
X111681727Y-91971995D01*
X111604485Y-91940000D01*
X111681727Y-91908005D01*
X111910535Y-91755120D01*
X112105120Y-91560535D01*
X112258005Y-91331727D01*
X112363314Y-91077490D01*
X112417000Y-90807592D01*
X112417000Y-90532408D01*
X112363314Y-90262510D01*
X112258005Y-90008273D01*
X112105120Y-89779465D01*
X111910535Y-89584880D01*
X111681727Y-89431995D01*
X111604485Y-89400000D01*
X111681727Y-89368005D01*
X111910535Y-89215120D01*
X112105120Y-89020535D01*
X112258005Y-88791727D01*
X112363314Y-88537490D01*
X112417000Y-88267592D01*
X112417000Y-87992408D01*
X112363314Y-87722510D01*
X112258005Y-87468273D01*
X112105120Y-87239465D01*
X111910535Y-87044880D01*
X111681727Y-86891995D01*
X111604485Y-86860000D01*
X111681727Y-86828005D01*
X111910535Y-86675120D01*
X112105120Y-86480535D01*
X112258005Y-86251727D01*
X112363314Y-85997490D01*
X112417000Y-85727592D01*
X112417000Y-85452408D01*
X112363314Y-85182510D01*
X112258005Y-84928273D01*
X112105120Y-84699465D01*
X111910535Y-84504880D01*
X111681727Y-84351995D01*
X111604485Y-84320000D01*
X111681727Y-84288005D01*
X111910535Y-84135120D01*
X112105120Y-83940535D01*
X112258005Y-83711727D01*
X112363314Y-83457490D01*
X112417000Y-83187592D01*
X112417000Y-82912408D01*
X112363314Y-82642510D01*
X112258005Y-82388273D01*
X112105120Y-82159465D01*
X111910535Y-81964880D01*
X111681727Y-81811995D01*
X111604485Y-81780000D01*
X111681727Y-81748005D01*
X111910535Y-81595120D01*
X112105120Y-81400535D01*
X112258005Y-81171727D01*
X112363314Y-80917490D01*
X112417000Y-80647592D01*
X112417000Y-80372408D01*
X112363314Y-80102510D01*
X112258005Y-79848273D01*
X112105120Y-79619465D01*
X111910535Y-79424880D01*
X111681727Y-79271995D01*
X111604485Y-79240000D01*
X111681727Y-79208005D01*
X111910535Y-79055120D01*
X112105120Y-78860535D01*
X112258005Y-78631727D01*
X112363314Y-78377490D01*
X112417000Y-78107592D01*
X112417000Y-77832408D01*
X112363314Y-77562510D01*
X112258005Y-77308273D01*
X112105120Y-77079465D01*
X111910535Y-76884880D01*
X111681727Y-76731995D01*
X111604485Y-76700000D01*
X111681727Y-76668005D01*
X111910535Y-76515120D01*
X112105120Y-76320535D01*
X112192341Y-76190000D01*
X114515199Y-76190000D01*
X116610000Y-78284803D01*
X116610001Y-102666288D01*
X116566063Y-102710226D01*
X116452795Y-102879744D01*
X116374774Y-103068102D01*
X116335000Y-103268061D01*
X116335000Y-103471939D01*
X116374774Y-103671898D01*
X116452795Y-103860256D01*
X116566063Y-104029774D01*
X116710226Y-104173937D01*
X116879744Y-104287205D01*
X117068102Y-104365226D01*
X117268061Y-104405000D01*
X117471939Y-104405000D01*
X117671898Y-104365226D01*
X117860256Y-104287205D01*
X118029774Y-104173937D01*
X118173937Y-104029774D01*
X118287205Y-103860256D01*
X118365226Y-103671898D01*
X118405000Y-103471939D01*
X118405000Y-103268061D01*
X118371961Y-103101961D01*
X118538061Y-103135000D01*
X118741939Y-103135000D01*
X118941898Y-103095226D01*
X119130256Y-103017205D01*
X119299774Y-102903937D01*
X119443937Y-102759774D01*
X119557205Y-102590256D01*
X119635226Y-102401898D01*
X119675000Y-102201939D01*
X119675000Y-101998061D01*
X119641961Y-101831961D01*
X119808061Y-101865000D01*
X120011939Y-101865000D01*
X120211898Y-101825226D01*
X120400256Y-101747205D01*
X120420000Y-101734012D01*
X120420000Y-103332668D01*
X120420001Y-104565197D01*
X116525199Y-108460000D01*
X84134803Y-108460000D01*
X82040000Y-106365199D01*
X82040000Y-82817322D01*
X82043676Y-82779999D01*
X82040000Y-82742676D01*
X82040000Y-82742667D01*
X82029003Y-82631014D01*
X81985546Y-82487753D01*
X81914974Y-82355724D01*
X81901811Y-82339685D01*
X81843799Y-82268996D01*
X81843795Y-82268992D01*
X81820001Y-82239999D01*
X81791009Y-82216206D01*
X79673804Y-80099002D01*
X79650001Y-80069999D01*
X79534276Y-79975026D01*
X79402247Y-79904454D01*
X79258986Y-79860997D01*
X79147333Y-79850000D01*
X79147322Y-79850000D01*
X79110000Y-79846324D01*
X79072678Y-79850000D01*
X68658133Y-79850000D01*
X68553475Y-79693368D01*
X68346632Y-79486525D01*
X68172240Y-79370000D01*
X68346632Y-79253475D01*
X68553475Y-79046632D01*
X68715990Y-78803411D01*
X68827932Y-78533158D01*
X68885000Y-78246260D01*
X68885000Y-77953740D01*
X68827932Y-77666842D01*
X68715990Y-77396589D01*
X68553475Y-77153368D01*
X68346632Y-76946525D01*
X68164466Y-76824805D01*
X68281355Y-76755178D01*
X68497588Y-76560269D01*
X68671641Y-76326920D01*
X68796825Y-76064099D01*
X68841476Y-75916890D01*
X68720155Y-75687000D01*
X67527000Y-75687000D01*
X67527000Y-75707000D01*
X67273000Y-75707000D01*
X67273000Y-75687000D01*
X66079845Y-75687000D01*
X65958524Y-75916890D01*
X66003175Y-76064099D01*
X66128359Y-76326920D01*
X66302412Y-76560269D01*
X66518645Y-76755178D01*
X66635534Y-76824805D01*
X66453368Y-76946525D01*
X66246525Y-77153368D01*
X66084010Y-77396589D01*
X65972068Y-77666842D01*
X65915000Y-77953740D01*
X64260000Y-77953740D01*
X64260000Y-75203110D01*
X65958524Y-75203110D01*
X66079845Y-75433000D01*
X67273000Y-75433000D01*
X67273000Y-74239186D01*
X67527000Y-74239186D01*
X67527000Y-75433000D01*
X68720155Y-75433000D01*
X68841476Y-75203110D01*
X68796825Y-75055901D01*
X68671641Y-74793080D01*
X68497588Y-74559731D01*
X68281355Y-74364822D01*
X68031252Y-74215843D01*
X67756891Y-74118519D01*
X67527000Y-74239186D01*
X67273000Y-74239186D01*
X67043109Y-74118519D01*
X66768748Y-74215843D01*
X66518645Y-74364822D01*
X66302412Y-74559731D01*
X66128359Y-74793080D01*
X66003175Y-75055901D01*
X65958524Y-75203110D01*
X64260000Y-75203110D01*
X64260000Y-70164801D01*
X69804801Y-64620000D01*
X99371928Y-64620000D01*
X99371928Y-66320000D01*
X99384188Y-66444482D01*
X99420498Y-66564180D01*
X99479463Y-66674494D01*
X99558815Y-66771185D01*
X99655506Y-66850537D01*
X99765820Y-66909502D01*
X99885518Y-66945812D01*
X100010000Y-66958072D01*
X101710000Y-66958072D01*
X101834482Y-66945812D01*
X101954180Y-66909502D01*
X102064494Y-66850537D01*
X102161185Y-66771185D01*
X102240537Y-66674494D01*
X102299502Y-66564180D01*
X102321513Y-66491620D01*
X102453368Y-66623475D01*
X102696589Y-66785990D01*
X102966842Y-66897932D01*
X103253740Y-66955000D01*
X103546260Y-66955000D01*
X103833158Y-66897932D01*
X104103411Y-66785990D01*
X104346632Y-66623475D01*
X104553475Y-66416632D01*
X104675195Y-66234466D01*
X104744822Y-66351355D01*
X104939731Y-66567588D01*
X105173080Y-66741641D01*
X105435901Y-66866825D01*
X105583110Y-66911476D01*
X105813000Y-66790155D01*
X105813000Y-65597000D01*
X106067000Y-65597000D01*
X106067000Y-66790155D01*
X106296890Y-66911476D01*
X106444099Y-66866825D01*
X106706920Y-66741641D01*
X106940269Y-66567588D01*
X107135178Y-66351355D01*
X107284157Y-66101252D01*
X107381481Y-65826891D01*
X107260814Y-65597000D01*
X106067000Y-65597000D01*
X105813000Y-65597000D01*
X105793000Y-65597000D01*
X105793000Y-65343000D01*
X105813000Y-65343000D01*
X105813000Y-64149845D01*
X106067000Y-64149845D01*
X106067000Y-65343000D01*
X107260814Y-65343000D01*
X107381481Y-65113109D01*
X107284157Y-64838748D01*
X107135178Y-64588645D01*
X106940269Y-64372412D01*
X106706920Y-64198359D01*
X106444099Y-64073175D01*
X106296890Y-64028524D01*
X106067000Y-64149845D01*
X105813000Y-64149845D01*
X105583110Y-64028524D01*
X105435901Y-64073175D01*
X105173080Y-64198359D01*
X104939731Y-64372412D01*
X104744822Y-64588645D01*
X104675195Y-64705534D01*
X104553475Y-64523368D01*
X104346632Y-64316525D01*
X104103411Y-64154010D01*
X103833158Y-64042068D01*
X103546260Y-63985000D01*
X103253740Y-63985000D01*
X102966842Y-64042068D01*
X102696589Y-64154010D01*
X102453368Y-64316525D01*
X102321513Y-64448380D01*
X102299502Y-64375820D01*
X102240537Y-64265506D01*
X102161185Y-64168815D01*
X102064494Y-64089463D01*
X101954180Y-64030498D01*
X101834482Y-63994188D01*
X101710000Y-63981928D01*
X100010000Y-63981928D01*
X99885518Y-63994188D01*
X99765820Y-64030498D01*
X99655506Y-64089463D01*
X99558815Y-64168815D01*
X99479463Y-64265506D01*
X99420498Y-64375820D01*
X99384188Y-64495518D01*
X99371928Y-64620000D01*
X69804801Y-64620000D01*
X74162785Y-60262017D01*
X109618090Y-60262017D01*
X109659078Y-60534133D01*
X109752364Y-60793023D01*
X109814344Y-60908980D01*
X110054435Y-60975960D01*
X110840395Y-60190000D01*
X111199605Y-60190000D01*
X111985565Y-60975960D01*
X112225656Y-60908980D01*
X112342756Y-60659952D01*
X112409023Y-60392865D01*
X112421910Y-60117983D01*
X112380922Y-59845867D01*
X112287636Y-59586977D01*
X112225656Y-59471020D01*
X111985565Y-59404040D01*
X111199605Y-60190000D01*
X110840395Y-60190000D01*
X110054435Y-59404040D01*
X109814344Y-59471020D01*
X109697244Y-59720048D01*
X109630977Y-59987135D01*
X109618090Y-60262017D01*
X74162785Y-60262017D01*
X76014803Y-58410000D01*
X109619928Y-58410000D01*
X109619928Y-58412000D01*
X109632188Y-58536482D01*
X109668498Y-58656180D01*
X109727463Y-58766494D01*
X109806815Y-58863185D01*
X109903506Y-58942537D01*
X110013820Y-59001502D01*
X110133518Y-59037812D01*
X110258000Y-59050072D01*
X110282683Y-59050072D01*
X110234040Y-59224435D01*
X111020000Y-60010395D01*
X111805960Y-59224435D01*
X111757317Y-59050072D01*
X111782000Y-59050072D01*
X111906482Y-59037812D01*
X112026180Y-59001502D01*
X112136494Y-58942537D01*
X112233185Y-58863185D01*
X112312537Y-58766494D01*
X112371502Y-58656180D01*
X112407812Y-58536482D01*
X112420072Y-58412000D01*
X112420072Y-56888000D01*
X112407812Y-56763518D01*
X112371502Y-56643820D01*
X112312537Y-56533506D01*
X112233185Y-56436815D01*
X112136494Y-56357463D01*
X112026180Y-56298498D01*
X111906482Y-56262188D01*
X111782000Y-56249928D01*
X110258000Y-56249928D01*
X110133518Y-56262188D01*
X110013820Y-56298498D01*
X109903506Y-56357463D01*
X109806815Y-56436815D01*
X109727463Y-56533506D01*
X109668498Y-56643820D01*
X109632188Y-56763518D01*
X109619928Y-56888000D01*
X109619928Y-56890000D01*
X75737322Y-56890000D01*
X75699999Y-56886324D01*
X75662676Y-56890000D01*
X75662667Y-56890000D01*
X75551014Y-56900997D01*
X75407753Y-56944454D01*
X75275724Y-57015026D01*
X75275722Y-57015027D01*
X75275723Y-57015027D01*
X75188996Y-57086201D01*
X75188992Y-57086205D01*
X75159999Y-57109999D01*
X75136205Y-57138992D01*
X62989003Y-69286196D01*
X62959999Y-69309999D01*
X62904871Y-69377174D01*
X62865026Y-69425724D01*
X62846991Y-69459465D01*
X62794454Y-69557754D01*
X62750997Y-69701015D01*
X62740000Y-69812668D01*
X62740000Y-69812678D01*
X62736324Y-69850000D01*
X56785000Y-69850000D01*
X56785000Y-59051454D01*
X56950285Y-59216739D01*
X57381859Y-59505108D01*
X57861399Y-59703740D01*
X58370475Y-59805001D01*
X58889525Y-59805001D01*
X59398601Y-59703740D01*
X59878141Y-59505108D01*
X60309715Y-59216739D01*
X60676738Y-58849716D01*
X60965107Y-58418142D01*
X61163739Y-57938602D01*
X61265000Y-57429526D01*
X61265000Y-56910476D01*
X61163739Y-56401400D01*
X60965107Y-55921860D01*
X60676738Y-55490286D01*
X60471452Y-55285000D01*
X144788548Y-55285000D01*
X144583262Y-55490286D01*
%TD*%
M02*
