%TF.GenerationSoftware,KiCad,Pcbnew,5.1.6*%
%TF.CreationDate,2020-07-08T21:20:25+02:00*%
%TF.ProjectId,mainboard,6d61696e-626f-4617-9264-2e6b69636164,rev?*%
%TF.SameCoordinates,Original*%
%TF.FileFunction,Legend,Top*%
%TF.FilePolarity,Positive*%
%FSLAX46Y46*%
G04 Gerber Fmt 4.6, Leading zero omitted, Abs format (unit mm)*
G04 Created by KiCad (PCBNEW 5.1.6) date 2020-07-08 21:20:25*
%MOMM*%
%LPD*%
G01*
G04 APERTURE LIST*
%ADD10C,0.300000*%
%ADD11C,0.120000*%
%ADD12C,0.150000*%
G04 APERTURE END LIST*
D10*
X106600000Y-69037857D02*
X106671428Y-68895000D01*
X106671428Y-68680714D01*
X106600000Y-68466428D01*
X106457142Y-68323571D01*
X106314285Y-68252142D01*
X106028571Y-68180714D01*
X105814285Y-68180714D01*
X105528571Y-68252142D01*
X105385714Y-68323571D01*
X105242857Y-68466428D01*
X105171428Y-68680714D01*
X105171428Y-68823571D01*
X105242857Y-69037857D01*
X105314285Y-69109285D01*
X105814285Y-69109285D01*
X105814285Y-68823571D01*
X105171428Y-69752142D02*
X106671428Y-69752142D01*
X105171428Y-70609285D01*
X106671428Y-70609285D01*
X105171428Y-71323571D02*
X106671428Y-71323571D01*
X106671428Y-71680714D01*
X106600000Y-71895000D01*
X106457142Y-72037857D01*
X106314285Y-72109285D01*
X106028571Y-72180714D01*
X105814285Y-72180714D01*
X105528571Y-72109285D01*
X105385714Y-72037857D01*
X105242857Y-71895000D01*
X105171428Y-71680714D01*
X105171428Y-71323571D01*
X102692857Y-68180714D02*
X102621428Y-68395000D01*
X102621428Y-68752142D01*
X102692857Y-68895000D01*
X102764285Y-68966428D01*
X102907142Y-69037857D01*
X103050000Y-69037857D01*
X103192857Y-68966428D01*
X103264285Y-68895000D01*
X103335714Y-68752142D01*
X103407142Y-68466428D01*
X103478571Y-68323571D01*
X103550000Y-68252142D01*
X103692857Y-68180714D01*
X103835714Y-68180714D01*
X103978571Y-68252142D01*
X104050000Y-68323571D01*
X104121428Y-68466428D01*
X104121428Y-68823571D01*
X104050000Y-69037857D01*
X104121428Y-69537857D02*
X102621428Y-69895000D01*
X103692857Y-70180714D01*
X102621428Y-70466428D01*
X104121428Y-70823571D01*
X102764285Y-72252142D02*
X102692857Y-72180714D01*
X102621428Y-71966428D01*
X102621428Y-71823571D01*
X102692857Y-71609285D01*
X102835714Y-71466428D01*
X102978571Y-71395000D01*
X103264285Y-71323571D01*
X103478571Y-71323571D01*
X103764285Y-71395000D01*
X103907142Y-71466428D01*
X104050000Y-71609285D01*
X104121428Y-71823571D01*
X104121428Y-71966428D01*
X104050000Y-72180714D01*
X103978571Y-72252142D01*
X102621428Y-73609285D02*
X102621428Y-72895000D01*
X104121428Y-72895000D01*
X102621428Y-74109285D02*
X104121428Y-74109285D01*
X102621428Y-74966428D02*
X103478571Y-74323571D01*
X104121428Y-74966428D02*
X103264285Y-74109285D01*
X100142857Y-68180714D02*
X100071428Y-68395000D01*
X100071428Y-68752142D01*
X100142857Y-68895000D01*
X100214285Y-68966428D01*
X100357142Y-69037857D01*
X100500000Y-69037857D01*
X100642857Y-68966428D01*
X100714285Y-68895000D01*
X100785714Y-68752142D01*
X100857142Y-68466428D01*
X100928571Y-68323571D01*
X101000000Y-68252142D01*
X101142857Y-68180714D01*
X101285714Y-68180714D01*
X101428571Y-68252142D01*
X101500000Y-68323571D01*
X101571428Y-68466428D01*
X101571428Y-68823571D01*
X101500000Y-69037857D01*
X101571428Y-69537857D02*
X100071428Y-69895000D01*
X101142857Y-70180714D01*
X100071428Y-70466428D01*
X101571428Y-70823571D01*
X100071428Y-71395000D02*
X101571428Y-71395000D01*
X101571428Y-71752142D01*
X101500000Y-71966428D01*
X101357142Y-72109285D01*
X101214285Y-72180714D01*
X100928571Y-72252142D01*
X100714285Y-72252142D01*
X100428571Y-72180714D01*
X100285714Y-72109285D01*
X100142857Y-71966428D01*
X100071428Y-71752142D01*
X100071428Y-71395000D01*
X100071428Y-72895000D02*
X101571428Y-72895000D01*
X101571428Y-73895000D02*
X101571428Y-74180714D01*
X101500000Y-74323571D01*
X101357142Y-74466428D01*
X101071428Y-74537857D01*
X100571428Y-74537857D01*
X100285714Y-74466428D01*
X100142857Y-74323571D01*
X100071428Y-74180714D01*
X100071428Y-73895000D01*
X100142857Y-73752142D01*
X100285714Y-73609285D01*
X100571428Y-73537857D01*
X101071428Y-73537857D01*
X101357142Y-73609285D01*
X101500000Y-73752142D01*
X101571428Y-73895000D01*
X71237857Y-74825000D02*
X71095000Y-74753571D01*
X70880714Y-74753571D01*
X70666428Y-74825000D01*
X70523571Y-74967857D01*
X70452142Y-75110714D01*
X70380714Y-75396428D01*
X70380714Y-75610714D01*
X70452142Y-75896428D01*
X70523571Y-76039285D01*
X70666428Y-76182142D01*
X70880714Y-76253571D01*
X71023571Y-76253571D01*
X71237857Y-76182142D01*
X71309285Y-76110714D01*
X71309285Y-75610714D01*
X71023571Y-75610714D01*
X71952142Y-76253571D02*
X71952142Y-74753571D01*
X72809285Y-76253571D01*
X72809285Y-74753571D01*
X73523571Y-76253571D02*
X73523571Y-74753571D01*
X73880714Y-74753571D01*
X74095000Y-74825000D01*
X74237857Y-74967857D01*
X74309285Y-75110714D01*
X74380714Y-75396428D01*
X74380714Y-75610714D01*
X74309285Y-75896428D01*
X74237857Y-76039285D01*
X74095000Y-76182142D01*
X73880714Y-76253571D01*
X73523571Y-76253571D01*
X71166428Y-77303571D02*
X70452142Y-77303571D01*
X70380714Y-78017857D01*
X70452142Y-77946428D01*
X70595000Y-77875000D01*
X70952142Y-77875000D01*
X71095000Y-77946428D01*
X71166428Y-78017857D01*
X71237857Y-78160714D01*
X71237857Y-78517857D01*
X71166428Y-78660714D01*
X71095000Y-78732142D01*
X70952142Y-78803571D01*
X70595000Y-78803571D01*
X70452142Y-78732142D01*
X70380714Y-78660714D01*
X71666428Y-77303571D02*
X72166428Y-78803571D01*
X72666428Y-77303571D01*
X70452142Y-81353571D02*
X70452142Y-79853571D01*
X71023571Y-79853571D01*
X71166428Y-79925000D01*
X71237857Y-79996428D01*
X71309285Y-80139285D01*
X71309285Y-80353571D01*
X71237857Y-80496428D01*
X71166428Y-80567857D01*
X71023571Y-80639285D01*
X70452142Y-80639285D01*
X71809285Y-79853571D02*
X72166428Y-81353571D01*
X72452142Y-80282142D01*
X72737857Y-81353571D01*
X73095000Y-79853571D01*
X73666428Y-81353571D02*
X73666428Y-79853571D01*
X74166428Y-80925000D01*
X74666428Y-79853571D01*
X74666428Y-81353571D01*
X71237857Y-82475000D02*
X71095000Y-82403571D01*
X70880714Y-82403571D01*
X70666428Y-82475000D01*
X70523571Y-82617857D01*
X70452142Y-82760714D01*
X70380714Y-83046428D01*
X70380714Y-83260714D01*
X70452142Y-83546428D01*
X70523571Y-83689285D01*
X70666428Y-83832142D01*
X70880714Y-83903571D01*
X71023571Y-83903571D01*
X71237857Y-83832142D01*
X71309285Y-83760714D01*
X71309285Y-83260714D01*
X71023571Y-83260714D01*
X71952142Y-83903571D02*
X71952142Y-82403571D01*
X72809285Y-83903571D01*
X72809285Y-82403571D01*
X73523571Y-83903571D02*
X73523571Y-82403571D01*
X73880714Y-82403571D01*
X74095000Y-82475000D01*
X74237857Y-82617857D01*
X74309285Y-82760714D01*
X74380714Y-83046428D01*
X74380714Y-83260714D01*
X74309285Y-83546428D01*
X74237857Y-83689285D01*
X74095000Y-83832142D01*
X73880714Y-83903571D01*
X73523571Y-83903571D01*
X70452142Y-86453571D02*
X70452142Y-84953571D01*
X71309285Y-86453571D01*
X71309285Y-84953571D01*
X72880714Y-86310714D02*
X72809285Y-86382142D01*
X72595000Y-86453571D01*
X72452142Y-86453571D01*
X72237857Y-86382142D01*
X72095000Y-86239285D01*
X72023571Y-86096428D01*
X71952142Y-85810714D01*
X71952142Y-85596428D01*
X72023571Y-85310714D01*
X72095000Y-85167857D01*
X72237857Y-85025000D01*
X72452142Y-84953571D01*
X72595000Y-84953571D01*
X72809285Y-85025000D01*
X72880714Y-85096428D01*
X70452142Y-89003571D02*
X70452142Y-87503571D01*
X70809285Y-87503571D01*
X71023571Y-87575000D01*
X71166428Y-87717857D01*
X71237857Y-87860714D01*
X71309285Y-88146428D01*
X71309285Y-88360714D01*
X71237857Y-88646428D01*
X71166428Y-88789285D01*
X71023571Y-88932142D01*
X70809285Y-89003571D01*
X70452142Y-89003571D01*
X71952142Y-89003571D02*
X71952142Y-87503571D01*
X73523571Y-89003571D02*
X73023571Y-88289285D01*
X72666428Y-89003571D02*
X72666428Y-87503571D01*
X73237857Y-87503571D01*
X73380714Y-87575000D01*
X73452142Y-87646428D01*
X73523571Y-87789285D01*
X73523571Y-88003571D01*
X73452142Y-88146428D01*
X73380714Y-88217857D01*
X73237857Y-88289285D01*
X72666428Y-88289285D01*
X71237857Y-90125000D02*
X71095000Y-90053571D01*
X70880714Y-90053571D01*
X70666428Y-90125000D01*
X70523571Y-90267857D01*
X70452142Y-90410714D01*
X70380714Y-90696428D01*
X70380714Y-90910714D01*
X70452142Y-91196428D01*
X70523571Y-91339285D01*
X70666428Y-91482142D01*
X70880714Y-91553571D01*
X71023571Y-91553571D01*
X71237857Y-91482142D01*
X71309285Y-91410714D01*
X71309285Y-90910714D01*
X71023571Y-90910714D01*
X71952142Y-91553571D02*
X71952142Y-90053571D01*
X72809285Y-91553571D01*
X72809285Y-90053571D01*
X73523571Y-91553571D02*
X73523571Y-90053571D01*
X73880714Y-90053571D01*
X74095000Y-90125000D01*
X74237857Y-90267857D01*
X74309285Y-90410714D01*
X74380714Y-90696428D01*
X74380714Y-90910714D01*
X74309285Y-91196428D01*
X74237857Y-91339285D01*
X74095000Y-91482142D01*
X73880714Y-91553571D01*
X73523571Y-91553571D01*
X70309285Y-92603571D02*
X71237857Y-92603571D01*
X70737857Y-93175000D01*
X70952142Y-93175000D01*
X71095000Y-93246428D01*
X71166428Y-93317857D01*
X71237857Y-93460714D01*
X71237857Y-93817857D01*
X71166428Y-93960714D01*
X71095000Y-94032142D01*
X70952142Y-94103571D01*
X70523571Y-94103571D01*
X70380714Y-94032142D01*
X70309285Y-93960714D01*
X71952142Y-94032142D02*
X71952142Y-94103571D01*
X71880714Y-94246428D01*
X71809285Y-94317857D01*
X72452142Y-92603571D02*
X73380714Y-92603571D01*
X72880714Y-93175000D01*
X73095000Y-93175000D01*
X73237857Y-93246428D01*
X73309285Y-93317857D01*
X73380714Y-93460714D01*
X73380714Y-93817857D01*
X73309285Y-93960714D01*
X73237857Y-94032142D01*
X73095000Y-94103571D01*
X72666428Y-94103571D01*
X72523571Y-94032142D01*
X72452142Y-93960714D01*
X73809285Y-92603571D02*
X74309285Y-94103571D01*
X74809285Y-92603571D01*
X70452142Y-96653571D02*
X70452142Y-95153571D01*
X71166428Y-96653571D02*
X71166428Y-95153571D01*
X72023571Y-96653571D01*
X72023571Y-95153571D01*
X73595000Y-96510714D02*
X73523571Y-96582142D01*
X73309285Y-96653571D01*
X73166428Y-96653571D01*
X72952142Y-96582142D01*
X72809285Y-96439285D01*
X72737857Y-96296428D01*
X72666428Y-96010714D01*
X72666428Y-95796428D01*
X72737857Y-95510714D01*
X72809285Y-95367857D01*
X72952142Y-95225000D01*
X73166428Y-95153571D01*
X73309285Y-95153571D01*
X73523571Y-95225000D01*
X73595000Y-95296428D01*
X75095000Y-96653571D02*
X74595000Y-95939285D01*
X74237857Y-96653571D02*
X74237857Y-95153571D01*
X74809285Y-95153571D01*
X74952142Y-95225000D01*
X75023571Y-95296428D01*
X75095000Y-95439285D01*
X75095000Y-95653571D01*
X75023571Y-95796428D01*
X74952142Y-95867857D01*
X74809285Y-95939285D01*
X74237857Y-95939285D01*
X71237857Y-97775000D02*
X71095000Y-97703571D01*
X70880714Y-97703571D01*
X70666428Y-97775000D01*
X70523571Y-97917857D01*
X70452142Y-98060714D01*
X70380714Y-98346428D01*
X70380714Y-98560714D01*
X70452142Y-98846428D01*
X70523571Y-98989285D01*
X70666428Y-99132142D01*
X70880714Y-99203571D01*
X71023571Y-99203571D01*
X71237857Y-99132142D01*
X71309285Y-99060714D01*
X71309285Y-98560714D01*
X71023571Y-98560714D01*
X71952142Y-99203571D02*
X71952142Y-97703571D01*
X72809285Y-99203571D01*
X72809285Y-97703571D01*
X73523571Y-99203571D02*
X73523571Y-97703571D01*
X73880714Y-97703571D01*
X74095000Y-97775000D01*
X74237857Y-97917857D01*
X74309285Y-98060714D01*
X74380714Y-98346428D01*
X74380714Y-98560714D01*
X74309285Y-98846428D01*
X74237857Y-98989285D01*
X74095000Y-99132142D01*
X73880714Y-99203571D01*
X73523571Y-99203571D01*
X70309285Y-100253571D02*
X71237857Y-100253571D01*
X70737857Y-100825000D01*
X70952142Y-100825000D01*
X71095000Y-100896428D01*
X71166428Y-100967857D01*
X71237857Y-101110714D01*
X71237857Y-101467857D01*
X71166428Y-101610714D01*
X71095000Y-101682142D01*
X70952142Y-101753571D01*
X70523571Y-101753571D01*
X70380714Y-101682142D01*
X70309285Y-101610714D01*
X71952142Y-101682142D02*
X71952142Y-101753571D01*
X71880714Y-101896428D01*
X71809285Y-101967857D01*
X72452142Y-100253571D02*
X73380714Y-100253571D01*
X72880714Y-100825000D01*
X73095000Y-100825000D01*
X73237857Y-100896428D01*
X73309285Y-100967857D01*
X73380714Y-101110714D01*
X73380714Y-101467857D01*
X73309285Y-101610714D01*
X73237857Y-101682142D01*
X73095000Y-101753571D01*
X72666428Y-101753571D01*
X72523571Y-101682142D01*
X72452142Y-101610714D01*
X73809285Y-100253571D02*
X74309285Y-101753571D01*
X74809285Y-100253571D01*
X71309285Y-104160714D02*
X71237857Y-104232142D01*
X71023571Y-104303571D01*
X70880714Y-104303571D01*
X70666428Y-104232142D01*
X70523571Y-104089285D01*
X70452142Y-103946428D01*
X70380714Y-103660714D01*
X70380714Y-103446428D01*
X70452142Y-103160714D01*
X70523571Y-103017857D01*
X70666428Y-102875000D01*
X70880714Y-102803571D01*
X71023571Y-102803571D01*
X71237857Y-102875000D01*
X71309285Y-102946428D01*
X71952142Y-102803571D02*
X71952142Y-104017857D01*
X72023571Y-104160714D01*
X72095000Y-104232142D01*
X72237857Y-104303571D01*
X72523571Y-104303571D01*
X72666428Y-104232142D01*
X72737857Y-104160714D01*
X72809285Y-104017857D01*
X72809285Y-102803571D01*
X74380714Y-104303571D02*
X73880714Y-103589285D01*
X73523571Y-104303571D02*
X73523571Y-102803571D01*
X74095000Y-102803571D01*
X74237857Y-102875000D01*
X74309285Y-102946428D01*
X74380714Y-103089285D01*
X74380714Y-103303571D01*
X74309285Y-103446428D01*
X74237857Y-103517857D01*
X74095000Y-103589285D01*
X73523571Y-103589285D01*
D11*
%TO.C,J1*%
X65960000Y-104830000D02*
X65960000Y-74230000D01*
X65960000Y-74230000D02*
X63300000Y-74230000D01*
X63300000Y-74230000D02*
X63300000Y-104830000D01*
X63300000Y-104830000D02*
X65960000Y-104830000D01*
X63300000Y-103880000D02*
X57300000Y-103880000D01*
X57300000Y-103880000D02*
X57300000Y-103120000D01*
X57300000Y-103120000D02*
X63300000Y-103120000D01*
X63300000Y-103820000D02*
X57300000Y-103820000D01*
X63300000Y-103700000D02*
X57300000Y-103700000D01*
X63300000Y-103580000D02*
X57300000Y-103580000D01*
X63300000Y-103460000D02*
X57300000Y-103460000D01*
X63300000Y-103340000D02*
X57300000Y-103340000D01*
X63300000Y-103220000D02*
X57300000Y-103220000D01*
X66290000Y-103880000D02*
X65960000Y-103880000D01*
X66290000Y-103120000D02*
X65960000Y-103120000D01*
X65960000Y-102230000D02*
X63300000Y-102230000D01*
X63300000Y-101340000D02*
X57300000Y-101340000D01*
X57300000Y-101340000D02*
X57300000Y-100580000D01*
X57300000Y-100580000D02*
X63300000Y-100580000D01*
X66357071Y-101340000D02*
X65960000Y-101340000D01*
X66357071Y-100580000D02*
X65960000Y-100580000D01*
X65960000Y-99690000D02*
X63300000Y-99690000D01*
X63300000Y-98800000D02*
X57300000Y-98800000D01*
X57300000Y-98800000D02*
X57300000Y-98040000D01*
X57300000Y-98040000D02*
X63300000Y-98040000D01*
X66357071Y-98800000D02*
X65960000Y-98800000D01*
X66357071Y-98040000D02*
X65960000Y-98040000D01*
X65960000Y-97150000D02*
X63300000Y-97150000D01*
X63300000Y-96260000D02*
X57300000Y-96260000D01*
X57300000Y-96260000D02*
X57300000Y-95500000D01*
X57300000Y-95500000D02*
X63300000Y-95500000D01*
X66357071Y-96260000D02*
X65960000Y-96260000D01*
X66357071Y-95500000D02*
X65960000Y-95500000D01*
X65960000Y-94610000D02*
X63300000Y-94610000D01*
X63300000Y-93720000D02*
X57300000Y-93720000D01*
X57300000Y-93720000D02*
X57300000Y-92960000D01*
X57300000Y-92960000D02*
X63300000Y-92960000D01*
X66357071Y-93720000D02*
X65960000Y-93720000D01*
X66357071Y-92960000D02*
X65960000Y-92960000D01*
X65960000Y-92070000D02*
X63300000Y-92070000D01*
X63300000Y-91180000D02*
X57300000Y-91180000D01*
X57300000Y-91180000D02*
X57300000Y-90420000D01*
X57300000Y-90420000D02*
X63300000Y-90420000D01*
X66357071Y-91180000D02*
X65960000Y-91180000D01*
X66357071Y-90420000D02*
X65960000Y-90420000D01*
X65960000Y-89530000D02*
X63300000Y-89530000D01*
X63300000Y-88640000D02*
X57300000Y-88640000D01*
X57300000Y-88640000D02*
X57300000Y-87880000D01*
X57300000Y-87880000D02*
X63300000Y-87880000D01*
X66357071Y-88640000D02*
X65960000Y-88640000D01*
X66357071Y-87880000D02*
X65960000Y-87880000D01*
X65960000Y-86990000D02*
X63300000Y-86990000D01*
X63300000Y-86100000D02*
X57300000Y-86100000D01*
X57300000Y-86100000D02*
X57300000Y-85340000D01*
X57300000Y-85340000D02*
X63300000Y-85340000D01*
X66357071Y-86100000D02*
X65960000Y-86100000D01*
X66357071Y-85340000D02*
X65960000Y-85340000D01*
X65960000Y-84450000D02*
X63300000Y-84450000D01*
X63300000Y-83560000D02*
X57300000Y-83560000D01*
X57300000Y-83560000D02*
X57300000Y-82800000D01*
X57300000Y-82800000D02*
X63300000Y-82800000D01*
X66357071Y-83560000D02*
X65960000Y-83560000D01*
X66357071Y-82800000D02*
X65960000Y-82800000D01*
X65960000Y-81910000D02*
X63300000Y-81910000D01*
X63300000Y-81020000D02*
X57300000Y-81020000D01*
X57300000Y-81020000D02*
X57300000Y-80260000D01*
X57300000Y-80260000D02*
X63300000Y-80260000D01*
X66357071Y-81020000D02*
X65960000Y-81020000D01*
X66357071Y-80260000D02*
X65960000Y-80260000D01*
X65960000Y-79370000D02*
X63300000Y-79370000D01*
X63300000Y-78480000D02*
X57300000Y-78480000D01*
X57300000Y-78480000D02*
X57300000Y-77720000D01*
X57300000Y-77720000D02*
X63300000Y-77720000D01*
X66357071Y-78480000D02*
X65960000Y-78480000D01*
X66357071Y-77720000D02*
X65960000Y-77720000D01*
X65960000Y-76830000D02*
X63300000Y-76830000D01*
X63300000Y-75940000D02*
X57300000Y-75940000D01*
X57300000Y-75940000D02*
X57300000Y-75180000D01*
X57300000Y-75180000D02*
X63300000Y-75180000D01*
X66357071Y-75940000D02*
X65960000Y-75940000D01*
X66357071Y-75180000D02*
X65960000Y-75180000D01*
X68670000Y-103500000D02*
X68670000Y-104770000D01*
X68670000Y-104770000D02*
X67400000Y-104770000D01*
%TO.C,GLCD1*%
X60030000Y-114770001D02*
X60030000Y-64570001D01*
X145230000Y-64570001D02*
X145230000Y-114770001D01*
X60030000Y-114770001D02*
X145230000Y-114770001D01*
X60030000Y-64570001D02*
X145230000Y-64570001D01*
X56130000Y-54670001D02*
X56130000Y-124670001D01*
X149130000Y-54670001D02*
X56130000Y-54670001D01*
X149130000Y-124670001D02*
X149130000Y-54670001D01*
X56130000Y-124670001D02*
X149130000Y-124670001D01*
X117090000Y-123630001D02*
X117090000Y-120630001D01*
X119460000Y-120630001D02*
X119460000Y-123630001D01*
X69000000Y-120630001D02*
X119460000Y-120630001D01*
X69000000Y-123630001D02*
X69000000Y-120630001D01*
X119460000Y-123630001D02*
X69000000Y-123630001D01*
%TO.C,A1*%
X112350000Y-56320000D02*
X127590000Y-56320000D01*
X127590000Y-107240000D02*
X109690000Y-107240000D01*
X127590000Y-56320000D02*
X127590000Y-107240000D01*
X109690000Y-107240000D02*
X109690000Y-58920000D01*
X112350000Y-56320000D02*
X112350000Y-107240000D01*
X124930000Y-107240000D02*
X124930000Y-56320000D01*
X109690000Y-58920000D02*
X112350000Y-58920000D01*
X111020000Y-56320000D02*
X109690000Y-56320000D01*
X109690000Y-56320000D02*
X109690000Y-57650000D01*
%TO.C,C1*%
X158240000Y-78568733D02*
X158240000Y-78911267D01*
X159260000Y-78568733D02*
X159260000Y-78911267D01*
%TO.C,C2*%
X153160000Y-78911267D02*
X153160000Y-78568733D01*
X154180000Y-78911267D02*
X154180000Y-78568733D01*
%TO.C,J2*%
X99530000Y-64030000D02*
X107270000Y-64030000D01*
X107270000Y-64030000D02*
X107270000Y-61370000D01*
X107270000Y-61370000D02*
X99530000Y-61370000D01*
X99530000Y-61370000D02*
X99530000Y-64030000D01*
X100480000Y-61370000D02*
X100480000Y-55370000D01*
X100480000Y-55370000D02*
X101240000Y-55370000D01*
X101240000Y-55370000D02*
X101240000Y-61370000D01*
X100540000Y-61370000D02*
X100540000Y-55370000D01*
X100660000Y-61370000D02*
X100660000Y-55370000D01*
X100780000Y-61370000D02*
X100780000Y-55370000D01*
X100900000Y-61370000D02*
X100900000Y-55370000D01*
X101020000Y-61370000D02*
X101020000Y-55370000D01*
X101140000Y-61370000D02*
X101140000Y-55370000D01*
X100480000Y-64360000D02*
X100480000Y-64030000D01*
X101240000Y-64360000D02*
X101240000Y-64030000D01*
X102130000Y-64030000D02*
X102130000Y-61370000D01*
X103020000Y-61370000D02*
X103020000Y-55370000D01*
X103020000Y-55370000D02*
X103780000Y-55370000D01*
X103780000Y-55370000D02*
X103780000Y-61370000D01*
X103020000Y-64427071D02*
X103020000Y-64030000D01*
X103780000Y-64427071D02*
X103780000Y-64030000D01*
X104670000Y-64030000D02*
X104670000Y-61370000D01*
X105560000Y-61370000D02*
X105560000Y-55370000D01*
X105560000Y-55370000D02*
X106320000Y-55370000D01*
X106320000Y-55370000D02*
X106320000Y-61370000D01*
X105560000Y-64427071D02*
X105560000Y-64030000D01*
X106320000Y-64427071D02*
X106320000Y-64030000D01*
X100860000Y-66740000D02*
X99590000Y-66740000D01*
X99590000Y-66740000D02*
X99590000Y-65470000D01*
%TO.C,SW1*%
X156250000Y-89550000D02*
X156250000Y-90550000D01*
X156750000Y-90050000D02*
X155750000Y-90050000D01*
X152750000Y-96150000D02*
X150350000Y-96150000D01*
X157550000Y-96150000D02*
X154950000Y-96150000D01*
X162150000Y-96150000D02*
X159750000Y-96150000D01*
X160350000Y-82850000D02*
X160050000Y-82550000D01*
X160350000Y-82250000D02*
X160350000Y-82850000D01*
X160050000Y-82550000D02*
X160350000Y-82250000D01*
X162150000Y-83950000D02*
X150350000Y-83950000D01*
X162150000Y-88050000D02*
X162150000Y-83950000D01*
X150350000Y-88050000D02*
X150350000Y-83950000D01*
X150350000Y-96150000D02*
X150350000Y-92050000D01*
X162150000Y-92050000D02*
X162150000Y-96150000D01*
X159250000Y-90050000D02*
G75*
G03*
X159250000Y-90050000I-3000000J0D01*
G01*
%TO.C,J1*%
D12*
X62681666Y-105222380D02*
X62681666Y-105936666D01*
X62634047Y-106079523D01*
X62538809Y-106174761D01*
X62395952Y-106222380D01*
X62300714Y-106222380D01*
X63681666Y-106222380D02*
X63110238Y-106222380D01*
X63395952Y-106222380D02*
X63395952Y-105222380D01*
X63300714Y-105365238D01*
X63205476Y-105460476D01*
X63110238Y-105508095D01*
%TO.C,H1*%
X156828095Y-122952380D02*
X156828095Y-121952380D01*
X156828095Y-122428571D02*
X157399523Y-122428571D01*
X157399523Y-122952380D02*
X157399523Y-121952380D01*
X158399523Y-122952380D02*
X157828095Y-122952380D01*
X158113809Y-122952380D02*
X158113809Y-121952380D01*
X158018571Y-122095238D01*
X157923333Y-122190476D01*
X157828095Y-122238095D01*
%TO.C,H2*%
X156638095Y-57752380D02*
X156638095Y-56752380D01*
X156638095Y-57228571D02*
X157209523Y-57228571D01*
X157209523Y-57752380D02*
X157209523Y-56752380D01*
X157638095Y-56847619D02*
X157685714Y-56800000D01*
X157780952Y-56752380D01*
X158019047Y-56752380D01*
X158114285Y-56800000D01*
X158161904Y-56847619D01*
X158209523Y-56942857D01*
X158209523Y-57038095D01*
X158161904Y-57180952D01*
X157590476Y-57752380D01*
X158209523Y-57752380D01*
%TO.C,GLCD1*%
X92610952Y-119130001D02*
X92515714Y-119082381D01*
X92372857Y-119082381D01*
X92230000Y-119130001D01*
X92134761Y-119225239D01*
X92087142Y-119320477D01*
X92039523Y-119510953D01*
X92039523Y-119653810D01*
X92087142Y-119844286D01*
X92134761Y-119939524D01*
X92230000Y-120034762D01*
X92372857Y-120082381D01*
X92468095Y-120082381D01*
X92610952Y-120034762D01*
X92658571Y-119987143D01*
X92658571Y-119653810D01*
X92468095Y-119653810D01*
X93563333Y-120082381D02*
X93087142Y-120082381D01*
X93087142Y-119082381D01*
X94468095Y-119987143D02*
X94420476Y-120034762D01*
X94277619Y-120082381D01*
X94182380Y-120082381D01*
X94039523Y-120034762D01*
X93944285Y-119939524D01*
X93896666Y-119844286D01*
X93849047Y-119653810D01*
X93849047Y-119510953D01*
X93896666Y-119320477D01*
X93944285Y-119225239D01*
X94039523Y-119130001D01*
X94182380Y-119082381D01*
X94277619Y-119082381D01*
X94420476Y-119130001D01*
X94468095Y-119177620D01*
X94896666Y-120082381D02*
X94896666Y-119082381D01*
X95134761Y-119082381D01*
X95277619Y-119130001D01*
X95372857Y-119225239D01*
X95420476Y-119320477D01*
X95468095Y-119510953D01*
X95468095Y-119653810D01*
X95420476Y-119844286D01*
X95372857Y-119939524D01*
X95277619Y-120034762D01*
X95134761Y-120082381D01*
X94896666Y-120082381D01*
X96420476Y-120082381D02*
X95849047Y-120082381D01*
X96134761Y-120082381D02*
X96134761Y-119082381D01*
X96039523Y-119225239D01*
X95944285Y-119320477D01*
X95849047Y-119368096D01*
%TO.C,A1*%
X117885714Y-62266666D02*
X118361904Y-62266666D01*
X117790476Y-62552380D02*
X118123809Y-61552380D01*
X118457142Y-62552380D01*
X119314285Y-62552380D02*
X118742857Y-62552380D01*
X119028571Y-62552380D02*
X119028571Y-61552380D01*
X118933333Y-61695238D01*
X118838095Y-61790476D01*
X118742857Y-61838095D01*
%TO.C,C1*%
X160533333Y-79097142D02*
X160485714Y-79144761D01*
X160342857Y-79192380D01*
X160247619Y-79192380D01*
X160104761Y-79144761D01*
X160009523Y-79049523D01*
X159961904Y-78954285D01*
X159914285Y-78763809D01*
X159914285Y-78620952D01*
X159961904Y-78430476D01*
X160009523Y-78335238D01*
X160104761Y-78240000D01*
X160247619Y-78192380D01*
X160342857Y-78192380D01*
X160485714Y-78240000D01*
X160533333Y-78287619D01*
X161485714Y-79192380D02*
X160914285Y-79192380D01*
X161200000Y-79192380D02*
X161200000Y-78192380D01*
X161104761Y-78335238D01*
X161009523Y-78430476D01*
X160914285Y-78478095D01*
%TO.C,C2*%
X151433333Y-79157142D02*
X151385714Y-79204761D01*
X151242857Y-79252380D01*
X151147619Y-79252380D01*
X151004761Y-79204761D01*
X150909523Y-79109523D01*
X150861904Y-79014285D01*
X150814285Y-78823809D01*
X150814285Y-78680952D01*
X150861904Y-78490476D01*
X150909523Y-78395238D01*
X151004761Y-78300000D01*
X151147619Y-78252380D01*
X151242857Y-78252380D01*
X151385714Y-78300000D01*
X151433333Y-78347619D01*
X151814285Y-78347619D02*
X151861904Y-78300000D01*
X151957142Y-78252380D01*
X152195238Y-78252380D01*
X152290476Y-78300000D01*
X152338095Y-78347619D01*
X152385714Y-78442857D01*
X152385714Y-78538095D01*
X152338095Y-78680952D01*
X151766666Y-79252380D01*
X152385714Y-79252380D01*
%TO.C,J2*%
X97366666Y-59552380D02*
X97366666Y-60266666D01*
X97319047Y-60409523D01*
X97223809Y-60504761D01*
X97080952Y-60552380D01*
X96985714Y-60552380D01*
X97795238Y-59647619D02*
X97842857Y-59600000D01*
X97938095Y-59552380D01*
X98176190Y-59552380D01*
X98271428Y-59600000D01*
X98319047Y-59647619D01*
X98366666Y-59742857D01*
X98366666Y-59838095D01*
X98319047Y-59980952D01*
X97747619Y-60552380D01*
X98366666Y-60552380D01*
%TO.C,SW1*%
X154966666Y-100504761D02*
X155109523Y-100552380D01*
X155347619Y-100552380D01*
X155442857Y-100504761D01*
X155490476Y-100457142D01*
X155538095Y-100361904D01*
X155538095Y-100266666D01*
X155490476Y-100171428D01*
X155442857Y-100123809D01*
X155347619Y-100076190D01*
X155157142Y-100028571D01*
X155061904Y-99980952D01*
X155014285Y-99933333D01*
X154966666Y-99838095D01*
X154966666Y-99742857D01*
X155014285Y-99647619D01*
X155061904Y-99600000D01*
X155157142Y-99552380D01*
X155395238Y-99552380D01*
X155538095Y-99600000D01*
X155871428Y-99552380D02*
X156109523Y-100552380D01*
X156300000Y-99838095D01*
X156490476Y-100552380D01*
X156728571Y-99552380D01*
X157633333Y-100552380D02*
X157061904Y-100552380D01*
X157347619Y-100552380D02*
X157347619Y-99552380D01*
X157252380Y-99695238D01*
X157157142Y-99790476D01*
X157061904Y-99838095D01*
%TD*%
M02*
