M48
; DRILL file {KiCad 5.1.6} date Tue Jul  7 22:12:26 2020
; FORMAT={-:-/ absolute / inch / decimal}
; #@! TF.CreationDate,2020-07-07T22:12:26+02:00
; #@! TF.GenerationSoftware,Kicad,Pcbnew,5.1.6
FMAT,2
INCH
T1C0.0157
T2C0.0300
T3C0.0315
T4C0.0394
T5C0.0591
T6C0.1181
%
G90
G05
T1
X2.85Y-3.6
X2.85Y-3.6
X3.15Y-4.35
X3.3504Y-4.2008
X4.5Y-4.45
X4.6209Y-4.0697
X4.6709Y-4.0197
X4.7209Y-3.9697
X5.2709Y-4.2
X5.3709Y-4.2
X5.65Y-3.4
T2
X4.3709Y-2.2697
X4.3709Y-2.3697
X4.3709Y-2.4697
X4.3709Y-2.5697
X4.3709Y-2.6697
X4.3709Y-2.7697
X4.3709Y-2.8697
X4.3709Y-2.9697
X4.3709Y-3.0697
X4.3709Y-3.1697
X4.3709Y-3.2697
X4.3709Y-3.3697
X4.3709Y-3.4697
X4.3709Y-3.5697
X4.3709Y-3.6697
X4.3709Y-3.7697
X4.3709Y-3.8697
X4.3709Y-3.9697
X4.3709Y-4.0697
X4.3709Y-4.1697
X4.9709Y-2.2697
X4.9709Y-2.3697
X4.9709Y-2.4697
X4.9709Y-2.5697
X4.9709Y-2.6697
X4.9709Y-2.7697
X4.9709Y-2.8697
X4.9709Y-2.9697
X4.9709Y-3.0697
X4.9709Y-3.1697
X4.9709Y-3.2697
X4.9709Y-3.3697
X4.9709Y-3.4697
X4.9709Y-3.5697
X4.9709Y-3.6697
X4.9709Y-3.7697
X4.9709Y-3.8697
X4.9709Y-3.9697
X4.9709Y-4.0697
X4.9709Y-4.1697
T3
X2.7598Y-4.8083
X2.8598Y-4.8083
X2.9598Y-4.8083
X3.0598Y-4.8083
X3.1598Y-4.8083
X3.2598Y-4.8083
X3.3598Y-4.8083
X3.4598Y-4.8083
X3.5598Y-4.8083
X3.6598Y-4.8083
X3.7598Y-4.8083
X3.8598Y-4.8083
X3.9598Y-4.8083
X4.0598Y-4.8083
X4.1598Y-4.8083
X4.2598Y-4.8083
X4.3598Y-4.8083
X4.4598Y-4.8083
X4.5598Y-4.8083
X4.6598Y-4.8083
T4
X3.9709Y-2.5776
X4.0709Y-2.5776
X4.1709Y-2.5776
X6.0531Y-3.25
X6.0531Y-3.8209
X6.1516Y-3.25
X6.25Y-3.25
X6.25Y-3.8209
X2.6535Y-2.9748
X2.6535Y-3.0748
X2.6535Y-3.1748
X2.6535Y-3.2748
X2.6535Y-3.3748
X2.6535Y-3.4748
X2.6535Y-3.5748
X2.6535Y-3.6748
X2.6535Y-3.7748
X2.6535Y-3.8748
X2.6535Y-3.9748
X2.6535Y-4.0748
T6
X6.3543Y-4.811
X6.3543Y-2.25
X2.3083Y-2.2508
X2.3083Y-4.8098
X5.7728Y-2.2508
X5.7728Y-4.8098
T5
G00X5.9311Y-3.5197
M15
G01X5.9311Y-3.5709
M16
G05
G00X6.372Y-3.5197
M15
G01X6.372Y-3.5709
M16
G05
T0
M30
