%TF.GenerationSoftware,KiCad,Pcbnew,5.1.6*%
%TF.CreationDate,2020-07-08T21:20:25+02:00*%
%TF.ProjectId,mainboard,6d61696e-626f-4617-9264-2e6b69636164,rev?*%
%TF.SameCoordinates,Original*%
%TF.FileFunction,Legend,Bot*%
%TF.FilePolarity,Positive*%
%FSLAX46Y46*%
G04 Gerber Fmt 4.6, Leading zero omitted, Abs format (unit mm)*
G04 Created by KiCad (PCBNEW 5.1.6) date 2020-07-08 21:20:25*
%MOMM*%
%LPD*%
G01*
G04 APERTURE LIST*
%ADD10C,0.300000*%
%ADD11C,0.010000*%
G04 APERTURE END LIST*
D10*
X106792857Y-82578571D02*
X106792857Y-81078571D01*
X106435714Y-81078571D01*
X106221428Y-81150000D01*
X106078571Y-81292857D01*
X106007142Y-81435714D01*
X105935714Y-81721428D01*
X105935714Y-81935714D01*
X106007142Y-82221428D01*
X106078571Y-82364285D01*
X106221428Y-82507142D01*
X106435714Y-82578571D01*
X106792857Y-82578571D01*
X105292857Y-82578571D02*
X105292857Y-81578571D01*
X105292857Y-81864285D02*
X105221428Y-81721428D01*
X105150000Y-81650000D01*
X105007142Y-81578571D01*
X104864285Y-81578571D01*
X104364285Y-82578571D02*
X104364285Y-81578571D01*
X104364285Y-81078571D02*
X104435714Y-81150000D01*
X104364285Y-81221428D01*
X104292857Y-81150000D01*
X104364285Y-81078571D01*
X104364285Y-81221428D01*
X103435714Y-82578571D02*
X103578571Y-82507142D01*
X103650000Y-82364285D01*
X103650000Y-81078571D01*
X102650000Y-82578571D02*
X102792857Y-82507142D01*
X102864285Y-82364285D01*
X102864285Y-81078571D01*
X102078571Y-82007142D02*
X100935714Y-82007142D01*
X99364285Y-82435714D02*
X99435714Y-82507142D01*
X99650000Y-82578571D01*
X99792857Y-82578571D01*
X100007142Y-82507142D01*
X100150000Y-82364285D01*
X100221428Y-82221428D01*
X100292857Y-81935714D01*
X100292857Y-81721428D01*
X100221428Y-81435714D01*
X100150000Y-81292857D01*
X100007142Y-81150000D01*
X99792857Y-81078571D01*
X99650000Y-81078571D01*
X99435714Y-81150000D01*
X99364285Y-81221428D01*
X98935714Y-81578571D02*
X98364285Y-81578571D01*
X98721428Y-81078571D02*
X98721428Y-82364285D01*
X98650000Y-82507142D01*
X98507142Y-82578571D01*
X98364285Y-82578571D01*
X97864285Y-82578571D02*
X97864285Y-81578571D01*
X97864285Y-81864285D02*
X97792857Y-81721428D01*
X97721428Y-81650000D01*
X97578571Y-81578571D01*
X97435714Y-81578571D01*
X96721428Y-82578571D02*
X96864285Y-82507142D01*
X96935714Y-82364285D01*
X96935714Y-81078571D01*
X95150000Y-81578571D02*
X94792857Y-82578571D01*
X94435714Y-81578571D01*
X93578571Y-81078571D02*
X93435714Y-81078571D01*
X93292857Y-81150000D01*
X93221428Y-81221428D01*
X93150000Y-81364285D01*
X93078571Y-81650000D01*
X93078571Y-82007142D01*
X93150000Y-82292857D01*
X93221428Y-82435714D01*
X93292857Y-82507142D01*
X93435714Y-82578571D01*
X93578571Y-82578571D01*
X93721428Y-82507142D01*
X93792857Y-82435714D01*
X93864285Y-82292857D01*
X93935714Y-82007142D01*
X93935714Y-81650000D01*
X93864285Y-81364285D01*
X93792857Y-81221428D01*
X93721428Y-81150000D01*
X93578571Y-81078571D01*
X92435714Y-82435714D02*
X92364285Y-82507142D01*
X92435714Y-82578571D01*
X92507142Y-82507142D01*
X92435714Y-82435714D01*
X92435714Y-82578571D01*
X90935714Y-82578571D02*
X91792857Y-82578571D01*
X91364285Y-82578571D02*
X91364285Y-81078571D01*
X91507142Y-81292857D01*
X91650000Y-81435714D01*
X91792857Y-81507142D01*
D11*
%TO.C,REF\u002A\u002A*%
G36*
X98690986Y-84452998D02*
G01*
X98532994Y-84453863D01*
X98418653Y-84456205D01*
X98340593Y-84460762D01*
X98291446Y-84468270D01*
X98263841Y-84479466D01*
X98250408Y-84495088D01*
X98243779Y-84515873D01*
X98243135Y-84518563D01*
X98233065Y-84567113D01*
X98214425Y-84662905D01*
X98189155Y-84795743D01*
X98159193Y-84955431D01*
X98126478Y-85131774D01*
X98125336Y-85137967D01*
X98092567Y-85310782D01*
X98061907Y-85463469D01*
X98035336Y-85586871D01*
X98014833Y-85671831D01*
X98002374Y-85709190D01*
X98001780Y-85709852D01*
X97965081Y-85728095D01*
X97889414Y-85758497D01*
X97791122Y-85794493D01*
X97790575Y-85794685D01*
X97666767Y-85841222D01*
X97520804Y-85900504D01*
X97383219Y-85960109D01*
X97376707Y-85963056D01*
X97152610Y-86064765D01*
X96656381Y-85725897D01*
X96504154Y-85622592D01*
X96366259Y-85530237D01*
X96250685Y-85454084D01*
X96165421Y-85399385D01*
X96118456Y-85371393D01*
X96113996Y-85369317D01*
X96079866Y-85378560D01*
X96016119Y-85423156D01*
X95920269Y-85505209D01*
X95789831Y-85626821D01*
X95656672Y-85756205D01*
X95528306Y-85883702D01*
X95413419Y-86000046D01*
X95318927Y-86098052D01*
X95251747Y-86170536D01*
X95218794Y-86210313D01*
X95217568Y-86212361D01*
X95213926Y-86239656D01*
X95227650Y-86284234D01*
X95262131Y-86352112D01*
X95320761Y-86449311D01*
X95406930Y-86581851D01*
X95521800Y-86752476D01*
X95623746Y-86902655D01*
X95714877Y-87037350D01*
X95789927Y-87148740D01*
X95843631Y-87229005D01*
X95870720Y-87270325D01*
X95872426Y-87273130D01*
X95869118Y-87312721D01*
X95844047Y-87389669D01*
X95802202Y-87489432D01*
X95787288Y-87521291D01*
X95722214Y-87663226D01*
X95652788Y-87824273D01*
X95596391Y-87963621D01*
X95555753Y-88067044D01*
X95523474Y-88145642D01*
X95504822Y-88186720D01*
X95502503Y-88189885D01*
X95468197Y-88195128D01*
X95387331Y-88209494D01*
X95270657Y-88230937D01*
X95128925Y-88257413D01*
X94972890Y-88286877D01*
X94813302Y-88317283D01*
X94660915Y-88346588D01*
X94526479Y-88372745D01*
X94420748Y-88393710D01*
X94354474Y-88407439D01*
X94338218Y-88411320D01*
X94321427Y-88420900D01*
X94308751Y-88442536D01*
X94299622Y-88483531D01*
X94293469Y-88551189D01*
X94289720Y-88652812D01*
X94287808Y-88795703D01*
X94287160Y-88987165D01*
X94287126Y-89065645D01*
X94287126Y-89703906D01*
X94440402Y-89734160D01*
X94525678Y-89750564D01*
X94652930Y-89774509D01*
X94806685Y-89803107D01*
X94971466Y-89833467D01*
X95017011Y-89841806D01*
X95169068Y-89871370D01*
X95301532Y-89900442D01*
X95403286Y-89926329D01*
X95463212Y-89946337D01*
X95473195Y-89952301D01*
X95497707Y-89994534D01*
X95532852Y-90076370D01*
X95571827Y-90181683D01*
X95579558Y-90204368D01*
X95630640Y-90345018D01*
X95694046Y-90503714D01*
X95756096Y-90646225D01*
X95756402Y-90646886D01*
X95859733Y-90870440D01*
X95180039Y-91870232D01*
X95616379Y-92307300D01*
X95748351Y-92437381D01*
X95868721Y-92552048D01*
X95970727Y-92645181D01*
X96047609Y-92710658D01*
X96092607Y-92742357D01*
X96099062Y-92744368D01*
X96136960Y-92728529D01*
X96214292Y-92684496D01*
X96322611Y-92617490D01*
X96453468Y-92532734D01*
X96594948Y-92437816D01*
X96738539Y-92340998D01*
X96866565Y-92256751D01*
X96970895Y-92190258D01*
X97043400Y-92146702D01*
X97075842Y-92131264D01*
X97115424Y-92144328D01*
X97190481Y-92178750D01*
X97285532Y-92227380D01*
X97295608Y-92232785D01*
X97423609Y-92296980D01*
X97511382Y-92328463D01*
X97565972Y-92328798D01*
X97594425Y-92299548D01*
X97594590Y-92299138D01*
X97608812Y-92264498D01*
X97642731Y-92182269D01*
X97693716Y-92058814D01*
X97759138Y-91900498D01*
X97836366Y-91713686D01*
X97922771Y-91504742D01*
X98006449Y-91302446D01*
X98098412Y-91079200D01*
X98182850Y-90872392D01*
X98257231Y-90688362D01*
X98319026Y-90533451D01*
X98365703Y-90413996D01*
X98394732Y-90336339D01*
X98403678Y-90307356D01*
X98381244Y-90274110D01*
X98322561Y-90221123D01*
X98244311Y-90162704D01*
X98021466Y-89977952D01*
X97847282Y-89766182D01*
X97723846Y-89531856D01*
X97653246Y-89279434D01*
X97637569Y-89013377D01*
X97648964Y-88890575D01*
X97711050Y-88635793D01*
X97817977Y-88410801D01*
X97963111Y-88217817D01*
X98139822Y-88059061D01*
X98341478Y-87936750D01*
X98561446Y-87853105D01*
X98793094Y-87810344D01*
X99029791Y-87810687D01*
X99264905Y-87856352D01*
X99491804Y-87949559D01*
X99703856Y-88092527D01*
X99792364Y-88173383D01*
X99962111Y-88381007D01*
X100080301Y-88607895D01*
X100147722Y-88847433D01*
X100165160Y-89093007D01*
X100133402Y-89338003D01*
X100053235Y-89575808D01*
X99925445Y-89799807D01*
X99750820Y-90003387D01*
X99555688Y-90162704D01*
X99474409Y-90223602D01*
X99416991Y-90276015D01*
X99396322Y-90307406D01*
X99407144Y-90341639D01*
X99437923Y-90423419D01*
X99486126Y-90546407D01*
X99549222Y-90704263D01*
X99624678Y-90890649D01*
X99709962Y-91099226D01*
X99793781Y-91302496D01*
X99886255Y-91525933D01*
X99971911Y-91732984D01*
X100048118Y-91917286D01*
X100112247Y-92072475D01*
X100161668Y-92192188D01*
X100193752Y-92270061D01*
X100205641Y-92299138D01*
X100233726Y-92328677D01*
X100288051Y-92328591D01*
X100375605Y-92297326D01*
X100503381Y-92233329D01*
X100504392Y-92232785D01*
X100600598Y-92183121D01*
X100678369Y-92146945D01*
X100722223Y-92131408D01*
X100724158Y-92131264D01*
X100757171Y-92147024D01*
X100830054Y-92190850D01*
X100934678Y-92257557D01*
X101062910Y-92341964D01*
X101205052Y-92437816D01*
X101349767Y-92534867D01*
X101480196Y-92619270D01*
X101587890Y-92685801D01*
X101664402Y-92729238D01*
X101700938Y-92744368D01*
X101734582Y-92724482D01*
X101802224Y-92668903D01*
X101897107Y-92583754D01*
X102012470Y-92475153D01*
X102141555Y-92349221D01*
X102183771Y-92307149D01*
X102620261Y-91869931D01*
X102288023Y-91382340D01*
X102187054Y-91232605D01*
X102098438Y-91098220D01*
X102027146Y-90986969D01*
X101978150Y-90906639D01*
X101956422Y-90865014D01*
X101955785Y-90862053D01*
X101967240Y-90822818D01*
X101998051Y-90743895D01*
X102042884Y-90638509D01*
X102074353Y-90567954D01*
X102133192Y-90432876D01*
X102188604Y-90296409D01*
X102231564Y-90181103D01*
X102243234Y-90145977D01*
X102276389Y-90052174D01*
X102308799Y-89979694D01*
X102326601Y-89952301D01*
X102365886Y-89935536D01*
X102451626Y-89911770D01*
X102572697Y-89883697D01*
X102717973Y-89854009D01*
X102782988Y-89841806D01*
X102948087Y-89811468D01*
X103106448Y-89782093D01*
X103242596Y-89756569D01*
X103341057Y-89737785D01*
X103359598Y-89734160D01*
X103512873Y-89703906D01*
X103512873Y-89065645D01*
X103512529Y-88855770D01*
X103511116Y-88696980D01*
X103508064Y-88581973D01*
X103502803Y-88503446D01*
X103494763Y-88454096D01*
X103483373Y-88426619D01*
X103468063Y-88413713D01*
X103461782Y-88411320D01*
X103423896Y-88402833D01*
X103340195Y-88385900D01*
X103221433Y-88362566D01*
X103078361Y-88334875D01*
X102921732Y-88304873D01*
X102762297Y-88274604D01*
X102610809Y-88246115D01*
X102478019Y-88221449D01*
X102374681Y-88202651D01*
X102311545Y-88191767D01*
X102297497Y-88189885D01*
X102284770Y-88164704D01*
X102256600Y-88097622D01*
X102218252Y-88001333D01*
X102203609Y-87963621D01*
X102144548Y-87817921D01*
X102075000Y-87656951D01*
X102012712Y-87521291D01*
X101966879Y-87417561D01*
X101936387Y-87332326D01*
X101926208Y-87280126D01*
X101927831Y-87273130D01*
X101949343Y-87240102D01*
X101998465Y-87166643D01*
X102069923Y-87060577D01*
X102158445Y-86929726D01*
X102258759Y-86781912D01*
X102278594Y-86752734D01*
X102394988Y-86579863D01*
X102480548Y-86448226D01*
X102538684Y-86351761D01*
X102572808Y-86284408D01*
X102586331Y-86240106D01*
X102582664Y-86212794D01*
X102582570Y-86212620D01*
X102553707Y-86176746D01*
X102489867Y-86107391D01*
X102397969Y-86011745D01*
X102284933Y-85896999D01*
X102157679Y-85770341D01*
X102143328Y-85756205D01*
X101982957Y-85600903D01*
X101859195Y-85486870D01*
X101769555Y-85412002D01*
X101711552Y-85374196D01*
X101686004Y-85369317D01*
X101648718Y-85390603D01*
X101571343Y-85439773D01*
X101461867Y-85511575D01*
X101328280Y-85600755D01*
X101178570Y-85702063D01*
X101143618Y-85725897D01*
X100647390Y-86064765D01*
X100423293Y-85963056D01*
X100287011Y-85903783D01*
X100140724Y-85844170D01*
X100014965Y-85796640D01*
X100009425Y-85794685D01*
X99911057Y-85758677D01*
X99835229Y-85728229D01*
X99798282Y-85709905D01*
X99798220Y-85709852D01*
X99786496Y-85676729D01*
X99766568Y-85595267D01*
X99740413Y-85474625D01*
X99710010Y-85323959D01*
X99677337Y-85152428D01*
X99674664Y-85137967D01*
X99641890Y-84961235D01*
X99611802Y-84800810D01*
X99586339Y-84666888D01*
X99567441Y-84569663D01*
X99557047Y-84519332D01*
X99556865Y-84518563D01*
X99550539Y-84497153D01*
X99538239Y-84480988D01*
X99512594Y-84469331D01*
X99466235Y-84461445D01*
X99391792Y-84456593D01*
X99281895Y-84454039D01*
X99129175Y-84453045D01*
X98926262Y-84452874D01*
X98900000Y-84452874D01*
X98690986Y-84452998D01*
G37*
X98690986Y-84452998D02*
X98532994Y-84453863D01*
X98418653Y-84456205D01*
X98340593Y-84460762D01*
X98291446Y-84468270D01*
X98263841Y-84479466D01*
X98250408Y-84495088D01*
X98243779Y-84515873D01*
X98243135Y-84518563D01*
X98233065Y-84567113D01*
X98214425Y-84662905D01*
X98189155Y-84795743D01*
X98159193Y-84955431D01*
X98126478Y-85131774D01*
X98125336Y-85137967D01*
X98092567Y-85310782D01*
X98061907Y-85463469D01*
X98035336Y-85586871D01*
X98014833Y-85671831D01*
X98002374Y-85709190D01*
X98001780Y-85709852D01*
X97965081Y-85728095D01*
X97889414Y-85758497D01*
X97791122Y-85794493D01*
X97790575Y-85794685D01*
X97666767Y-85841222D01*
X97520804Y-85900504D01*
X97383219Y-85960109D01*
X97376707Y-85963056D01*
X97152610Y-86064765D01*
X96656381Y-85725897D01*
X96504154Y-85622592D01*
X96366259Y-85530237D01*
X96250685Y-85454084D01*
X96165421Y-85399385D01*
X96118456Y-85371393D01*
X96113996Y-85369317D01*
X96079866Y-85378560D01*
X96016119Y-85423156D01*
X95920269Y-85505209D01*
X95789831Y-85626821D01*
X95656672Y-85756205D01*
X95528306Y-85883702D01*
X95413419Y-86000046D01*
X95318927Y-86098052D01*
X95251747Y-86170536D01*
X95218794Y-86210313D01*
X95217568Y-86212361D01*
X95213926Y-86239656D01*
X95227650Y-86284234D01*
X95262131Y-86352112D01*
X95320761Y-86449311D01*
X95406930Y-86581851D01*
X95521800Y-86752476D01*
X95623746Y-86902655D01*
X95714877Y-87037350D01*
X95789927Y-87148740D01*
X95843631Y-87229005D01*
X95870720Y-87270325D01*
X95872426Y-87273130D01*
X95869118Y-87312721D01*
X95844047Y-87389669D01*
X95802202Y-87489432D01*
X95787288Y-87521291D01*
X95722214Y-87663226D01*
X95652788Y-87824273D01*
X95596391Y-87963621D01*
X95555753Y-88067044D01*
X95523474Y-88145642D01*
X95504822Y-88186720D01*
X95502503Y-88189885D01*
X95468197Y-88195128D01*
X95387331Y-88209494D01*
X95270657Y-88230937D01*
X95128925Y-88257413D01*
X94972890Y-88286877D01*
X94813302Y-88317283D01*
X94660915Y-88346588D01*
X94526479Y-88372745D01*
X94420748Y-88393710D01*
X94354474Y-88407439D01*
X94338218Y-88411320D01*
X94321427Y-88420900D01*
X94308751Y-88442536D01*
X94299622Y-88483531D01*
X94293469Y-88551189D01*
X94289720Y-88652812D01*
X94287808Y-88795703D01*
X94287160Y-88987165D01*
X94287126Y-89065645D01*
X94287126Y-89703906D01*
X94440402Y-89734160D01*
X94525678Y-89750564D01*
X94652930Y-89774509D01*
X94806685Y-89803107D01*
X94971466Y-89833467D01*
X95017011Y-89841806D01*
X95169068Y-89871370D01*
X95301532Y-89900442D01*
X95403286Y-89926329D01*
X95463212Y-89946337D01*
X95473195Y-89952301D01*
X95497707Y-89994534D01*
X95532852Y-90076370D01*
X95571827Y-90181683D01*
X95579558Y-90204368D01*
X95630640Y-90345018D01*
X95694046Y-90503714D01*
X95756096Y-90646225D01*
X95756402Y-90646886D01*
X95859733Y-90870440D01*
X95180039Y-91870232D01*
X95616379Y-92307300D01*
X95748351Y-92437381D01*
X95868721Y-92552048D01*
X95970727Y-92645181D01*
X96047609Y-92710658D01*
X96092607Y-92742357D01*
X96099062Y-92744368D01*
X96136960Y-92728529D01*
X96214292Y-92684496D01*
X96322611Y-92617490D01*
X96453468Y-92532734D01*
X96594948Y-92437816D01*
X96738539Y-92340998D01*
X96866565Y-92256751D01*
X96970895Y-92190258D01*
X97043400Y-92146702D01*
X97075842Y-92131264D01*
X97115424Y-92144328D01*
X97190481Y-92178750D01*
X97285532Y-92227380D01*
X97295608Y-92232785D01*
X97423609Y-92296980D01*
X97511382Y-92328463D01*
X97565972Y-92328798D01*
X97594425Y-92299548D01*
X97594590Y-92299138D01*
X97608812Y-92264498D01*
X97642731Y-92182269D01*
X97693716Y-92058814D01*
X97759138Y-91900498D01*
X97836366Y-91713686D01*
X97922771Y-91504742D01*
X98006449Y-91302446D01*
X98098412Y-91079200D01*
X98182850Y-90872392D01*
X98257231Y-90688362D01*
X98319026Y-90533451D01*
X98365703Y-90413996D01*
X98394732Y-90336339D01*
X98403678Y-90307356D01*
X98381244Y-90274110D01*
X98322561Y-90221123D01*
X98244311Y-90162704D01*
X98021466Y-89977952D01*
X97847282Y-89766182D01*
X97723846Y-89531856D01*
X97653246Y-89279434D01*
X97637569Y-89013377D01*
X97648964Y-88890575D01*
X97711050Y-88635793D01*
X97817977Y-88410801D01*
X97963111Y-88217817D01*
X98139822Y-88059061D01*
X98341478Y-87936750D01*
X98561446Y-87853105D01*
X98793094Y-87810344D01*
X99029791Y-87810687D01*
X99264905Y-87856352D01*
X99491804Y-87949559D01*
X99703856Y-88092527D01*
X99792364Y-88173383D01*
X99962111Y-88381007D01*
X100080301Y-88607895D01*
X100147722Y-88847433D01*
X100165160Y-89093007D01*
X100133402Y-89338003D01*
X100053235Y-89575808D01*
X99925445Y-89799807D01*
X99750820Y-90003387D01*
X99555688Y-90162704D01*
X99474409Y-90223602D01*
X99416991Y-90276015D01*
X99396322Y-90307406D01*
X99407144Y-90341639D01*
X99437923Y-90423419D01*
X99486126Y-90546407D01*
X99549222Y-90704263D01*
X99624678Y-90890649D01*
X99709962Y-91099226D01*
X99793781Y-91302496D01*
X99886255Y-91525933D01*
X99971911Y-91732984D01*
X100048118Y-91917286D01*
X100112247Y-92072475D01*
X100161668Y-92192188D01*
X100193752Y-92270061D01*
X100205641Y-92299138D01*
X100233726Y-92328677D01*
X100288051Y-92328591D01*
X100375605Y-92297326D01*
X100503381Y-92233329D01*
X100504392Y-92232785D01*
X100600598Y-92183121D01*
X100678369Y-92146945D01*
X100722223Y-92131408D01*
X100724158Y-92131264D01*
X100757171Y-92147024D01*
X100830054Y-92190850D01*
X100934678Y-92257557D01*
X101062910Y-92341964D01*
X101205052Y-92437816D01*
X101349767Y-92534867D01*
X101480196Y-92619270D01*
X101587890Y-92685801D01*
X101664402Y-92729238D01*
X101700938Y-92744368D01*
X101734582Y-92724482D01*
X101802224Y-92668903D01*
X101897107Y-92583754D01*
X102012470Y-92475153D01*
X102141555Y-92349221D01*
X102183771Y-92307149D01*
X102620261Y-91869931D01*
X102288023Y-91382340D01*
X102187054Y-91232605D01*
X102098438Y-91098220D01*
X102027146Y-90986969D01*
X101978150Y-90906639D01*
X101956422Y-90865014D01*
X101955785Y-90862053D01*
X101967240Y-90822818D01*
X101998051Y-90743895D01*
X102042884Y-90638509D01*
X102074353Y-90567954D01*
X102133192Y-90432876D01*
X102188604Y-90296409D01*
X102231564Y-90181103D01*
X102243234Y-90145977D01*
X102276389Y-90052174D01*
X102308799Y-89979694D01*
X102326601Y-89952301D01*
X102365886Y-89935536D01*
X102451626Y-89911770D01*
X102572697Y-89883697D01*
X102717973Y-89854009D01*
X102782988Y-89841806D01*
X102948087Y-89811468D01*
X103106448Y-89782093D01*
X103242596Y-89756569D01*
X103341057Y-89737785D01*
X103359598Y-89734160D01*
X103512873Y-89703906D01*
X103512873Y-89065645D01*
X103512529Y-88855770D01*
X103511116Y-88696980D01*
X103508064Y-88581973D01*
X103502803Y-88503446D01*
X103494763Y-88454096D01*
X103483373Y-88426619D01*
X103468063Y-88413713D01*
X103461782Y-88411320D01*
X103423896Y-88402833D01*
X103340195Y-88385900D01*
X103221433Y-88362566D01*
X103078361Y-88334875D01*
X102921732Y-88304873D01*
X102762297Y-88274604D01*
X102610809Y-88246115D01*
X102478019Y-88221449D01*
X102374681Y-88202651D01*
X102311545Y-88191767D01*
X102297497Y-88189885D01*
X102284770Y-88164704D01*
X102256600Y-88097622D01*
X102218252Y-88001333D01*
X102203609Y-87963621D01*
X102144548Y-87817921D01*
X102075000Y-87656951D01*
X102012712Y-87521291D01*
X101966879Y-87417561D01*
X101936387Y-87332326D01*
X101926208Y-87280126D01*
X101927831Y-87273130D01*
X101949343Y-87240102D01*
X101998465Y-87166643D01*
X102069923Y-87060577D01*
X102158445Y-86929726D01*
X102258759Y-86781912D01*
X102278594Y-86752734D01*
X102394988Y-86579863D01*
X102480548Y-86448226D01*
X102538684Y-86351761D01*
X102572808Y-86284408D01*
X102586331Y-86240106D01*
X102582664Y-86212794D01*
X102582570Y-86212620D01*
X102553707Y-86176746D01*
X102489867Y-86107391D01*
X102397969Y-86011745D01*
X102284933Y-85896999D01*
X102157679Y-85770341D01*
X102143328Y-85756205D01*
X101982957Y-85600903D01*
X101859195Y-85486870D01*
X101769555Y-85412002D01*
X101711552Y-85374196D01*
X101686004Y-85369317D01*
X101648718Y-85390603D01*
X101571343Y-85439773D01*
X101461867Y-85511575D01*
X101328280Y-85600755D01*
X101178570Y-85702063D01*
X101143618Y-85725897D01*
X100647390Y-86064765D01*
X100423293Y-85963056D01*
X100287011Y-85903783D01*
X100140724Y-85844170D01*
X100014965Y-85796640D01*
X100009425Y-85794685D01*
X99911057Y-85758677D01*
X99835229Y-85728229D01*
X99798282Y-85709905D01*
X99798220Y-85709852D01*
X99786496Y-85676729D01*
X99766568Y-85595267D01*
X99740413Y-85474625D01*
X99710010Y-85323959D01*
X99677337Y-85152428D01*
X99674664Y-85137967D01*
X99641890Y-84961235D01*
X99611802Y-84800810D01*
X99586339Y-84666888D01*
X99567441Y-84569663D01*
X99557047Y-84519332D01*
X99556865Y-84518563D01*
X99550539Y-84497153D01*
X99538239Y-84480988D01*
X99512594Y-84469331D01*
X99466235Y-84461445D01*
X99391792Y-84456593D01*
X99281895Y-84454039D01*
X99129175Y-84453045D01*
X98926262Y-84452874D01*
X98900000Y-84452874D01*
X98690986Y-84452998D01*
G36*
X92556561Y-93956540D02*
G01*
X92441050Y-94032034D01*
X92385336Y-94099617D01*
X92341196Y-94222255D01*
X92337691Y-94319298D01*
X92345632Y-94449056D01*
X92644885Y-94580039D01*
X92790389Y-94646958D01*
X92885463Y-94700790D01*
X92934899Y-94747416D01*
X92943489Y-94792720D01*
X92916028Y-94842582D01*
X92885747Y-94875632D01*
X92797637Y-94928633D01*
X92701804Y-94932347D01*
X92613788Y-94891041D01*
X92549131Y-94808983D01*
X92537567Y-94780008D01*
X92482175Y-94689509D01*
X92418447Y-94650940D01*
X92331034Y-94617946D01*
X92331034Y-94743034D01*
X92338762Y-94828156D01*
X92369034Y-94899938D01*
X92432482Y-94982356D01*
X92441912Y-94993066D01*
X92512487Y-95066391D01*
X92573153Y-95105742D01*
X92649050Y-95123845D01*
X92711970Y-95129774D01*
X92824513Y-95131251D01*
X92904630Y-95112535D01*
X92954610Y-95084747D01*
X93033162Y-95023641D01*
X93087537Y-94957554D01*
X93121948Y-94874441D01*
X93140612Y-94762254D01*
X93147744Y-94608946D01*
X93148313Y-94531136D01*
X93146378Y-94437853D01*
X92970101Y-94437853D01*
X92968056Y-94487896D01*
X92962961Y-94496092D01*
X92929334Y-94484958D01*
X92856970Y-94455493D01*
X92760253Y-94413601D01*
X92740027Y-94404597D01*
X92617797Y-94342442D01*
X92550453Y-94287815D01*
X92535652Y-94236649D01*
X92571053Y-94184876D01*
X92600289Y-94162000D01*
X92705784Y-94116250D01*
X92804524Y-94123808D01*
X92887188Y-94179651D01*
X92944452Y-94278753D01*
X92962812Y-94357414D01*
X92970101Y-94437853D01*
X93146378Y-94437853D01*
X93144541Y-94349351D01*
X93130641Y-94214853D01*
X93103106Y-94116916D01*
X93058428Y-94044811D01*
X92993099Y-93987813D01*
X92964617Y-93969393D01*
X92835237Y-93921422D01*
X92693588Y-93918403D01*
X92556561Y-93956540D01*
G37*
X92556561Y-93956540D02*
X92441050Y-94032034D01*
X92385336Y-94099617D01*
X92341196Y-94222255D01*
X92337691Y-94319298D01*
X92345632Y-94449056D01*
X92644885Y-94580039D01*
X92790389Y-94646958D01*
X92885463Y-94700790D01*
X92934899Y-94747416D01*
X92943489Y-94792720D01*
X92916028Y-94842582D01*
X92885747Y-94875632D01*
X92797637Y-94928633D01*
X92701804Y-94932347D01*
X92613788Y-94891041D01*
X92549131Y-94808983D01*
X92537567Y-94780008D01*
X92482175Y-94689509D01*
X92418447Y-94650940D01*
X92331034Y-94617946D01*
X92331034Y-94743034D01*
X92338762Y-94828156D01*
X92369034Y-94899938D01*
X92432482Y-94982356D01*
X92441912Y-94993066D01*
X92512487Y-95066391D01*
X92573153Y-95105742D01*
X92649050Y-95123845D01*
X92711970Y-95129774D01*
X92824513Y-95131251D01*
X92904630Y-95112535D01*
X92954610Y-95084747D01*
X93033162Y-95023641D01*
X93087537Y-94957554D01*
X93121948Y-94874441D01*
X93140612Y-94762254D01*
X93147744Y-94608946D01*
X93148313Y-94531136D01*
X93146378Y-94437853D01*
X92970101Y-94437853D01*
X92968056Y-94487896D01*
X92962961Y-94496092D01*
X92929334Y-94484958D01*
X92856970Y-94455493D01*
X92760253Y-94413601D01*
X92740027Y-94404597D01*
X92617797Y-94342442D01*
X92550453Y-94287815D01*
X92535652Y-94236649D01*
X92571053Y-94184876D01*
X92600289Y-94162000D01*
X92705784Y-94116250D01*
X92804524Y-94123808D01*
X92887188Y-94179651D01*
X92944452Y-94278753D01*
X92962812Y-94357414D01*
X92970101Y-94437853D01*
X93146378Y-94437853D01*
X93144541Y-94349351D01*
X93130641Y-94214853D01*
X93103106Y-94116916D01*
X93058428Y-94044811D01*
X92993099Y-93987813D01*
X92964617Y-93969393D01*
X92835237Y-93921422D01*
X92693588Y-93918403D01*
X92556561Y-93956540D01*
G36*
X93564310Y-93940018D02*
G01*
X93529415Y-93955269D01*
X93446123Y-94021235D01*
X93374897Y-94116618D01*
X93330847Y-94218406D01*
X93323678Y-94268587D01*
X93347715Y-94338647D01*
X93400439Y-94375717D01*
X93456969Y-94398164D01*
X93482854Y-94402300D01*
X93495458Y-94372283D01*
X93520346Y-94306961D01*
X93531265Y-94277445D01*
X93592492Y-94175348D01*
X93681139Y-94124423D01*
X93794807Y-94125989D01*
X93803226Y-94127994D01*
X93863912Y-94156767D01*
X93908526Y-94212859D01*
X93938998Y-94303163D01*
X93957256Y-94434571D01*
X93965229Y-94613974D01*
X93965977Y-94709433D01*
X93966348Y-94859913D01*
X93968777Y-94962495D01*
X93975240Y-95027672D01*
X93987712Y-95065938D01*
X94008167Y-95087785D01*
X94038581Y-95103707D01*
X94040339Y-95104509D01*
X94098909Y-95129272D01*
X94127925Y-95138391D01*
X94132384Y-95110822D01*
X94136201Y-95034620D01*
X94139101Y-94919541D01*
X94140809Y-94775341D01*
X94141149Y-94669814D01*
X94139412Y-94465613D01*
X94132618Y-94310697D01*
X94118393Y-94196024D01*
X94094362Y-94112551D01*
X94058152Y-94051236D01*
X94007388Y-94003034D01*
X93957261Y-93969393D01*
X93836725Y-93924619D01*
X93696443Y-93914521D01*
X93564310Y-93940018D01*
G37*
X93564310Y-93940018D02*
X93529415Y-93955269D01*
X93446123Y-94021235D01*
X93374897Y-94116618D01*
X93330847Y-94218406D01*
X93323678Y-94268587D01*
X93347715Y-94338647D01*
X93400439Y-94375717D01*
X93456969Y-94398164D01*
X93482854Y-94402300D01*
X93495458Y-94372283D01*
X93520346Y-94306961D01*
X93531265Y-94277445D01*
X93592492Y-94175348D01*
X93681139Y-94124423D01*
X93794807Y-94125989D01*
X93803226Y-94127994D01*
X93863912Y-94156767D01*
X93908526Y-94212859D01*
X93938998Y-94303163D01*
X93957256Y-94434571D01*
X93965229Y-94613974D01*
X93965977Y-94709433D01*
X93966348Y-94859913D01*
X93968777Y-94962495D01*
X93975240Y-95027672D01*
X93987712Y-95065938D01*
X94008167Y-95087785D01*
X94038581Y-95103707D01*
X94040339Y-95104509D01*
X94098909Y-95129272D01*
X94127925Y-95138391D01*
X94132384Y-95110822D01*
X94136201Y-95034620D01*
X94139101Y-94919541D01*
X94140809Y-94775341D01*
X94141149Y-94669814D01*
X94139412Y-94465613D01*
X94132618Y-94310697D01*
X94118393Y-94196024D01*
X94094362Y-94112551D01*
X94058152Y-94051236D01*
X94007388Y-94003034D01*
X93957261Y-93969393D01*
X93836725Y-93924619D01*
X93696443Y-93914521D01*
X93564310Y-93940018D01*
G36*
X94585594Y-93935156D02*
G01*
X94501531Y-93973393D01*
X94435550Y-94019726D01*
X94387206Y-94071532D01*
X94353828Y-94138363D01*
X94332747Y-94229769D01*
X94321293Y-94355301D01*
X94316797Y-94524508D01*
X94316322Y-94635933D01*
X94316322Y-95070627D01*
X94390684Y-95104509D01*
X94449254Y-95129272D01*
X94478270Y-95138391D01*
X94483821Y-95111257D01*
X94488225Y-95038094D01*
X94490922Y-94931263D01*
X94491494Y-94846437D01*
X94493954Y-94723887D01*
X94500588Y-94626668D01*
X94510274Y-94567134D01*
X94517968Y-94554483D01*
X94569689Y-94567402D01*
X94650883Y-94600539D01*
X94744898Y-94645461D01*
X94835083Y-94693735D01*
X94904785Y-94736928D01*
X94937352Y-94766608D01*
X94937481Y-94766929D01*
X94934680Y-94821857D01*
X94909561Y-94874292D01*
X94865459Y-94916881D01*
X94801091Y-94931126D01*
X94746079Y-94929466D01*
X94668165Y-94928245D01*
X94627268Y-94946498D01*
X94602705Y-94994726D01*
X94599608Y-95003820D01*
X94588960Y-95072598D01*
X94617435Y-95114360D01*
X94691656Y-95134263D01*
X94771832Y-95137944D01*
X94916110Y-95110658D01*
X94990797Y-95071690D01*
X95083037Y-94980148D01*
X95131957Y-94867782D01*
X95136346Y-94749051D01*
X95094999Y-94638411D01*
X95032803Y-94569080D01*
X94970706Y-94530265D01*
X94873105Y-94481125D01*
X94759368Y-94431292D01*
X94740410Y-94423677D01*
X94615479Y-94368545D01*
X94543461Y-94319954D01*
X94520300Y-94271647D01*
X94541936Y-94217370D01*
X94579080Y-94174943D01*
X94666873Y-94122702D01*
X94763470Y-94118784D01*
X94852056Y-94159041D01*
X94915814Y-94239326D01*
X94924183Y-94260040D01*
X94972904Y-94336225D01*
X95044035Y-94392785D01*
X95133793Y-94439201D01*
X95133793Y-94307584D01*
X95128510Y-94227168D01*
X95105858Y-94163786D01*
X95055633Y-94096163D01*
X95007418Y-94044076D01*
X94932446Y-93970322D01*
X94874194Y-93930702D01*
X94811628Y-93914810D01*
X94740807Y-93912184D01*
X94585594Y-93935156D01*
G37*
X94585594Y-93935156D02*
X94501531Y-93973393D01*
X94435550Y-94019726D01*
X94387206Y-94071532D01*
X94353828Y-94138363D01*
X94332747Y-94229769D01*
X94321293Y-94355301D01*
X94316797Y-94524508D01*
X94316322Y-94635933D01*
X94316322Y-95070627D01*
X94390684Y-95104509D01*
X94449254Y-95129272D01*
X94478270Y-95138391D01*
X94483821Y-95111257D01*
X94488225Y-95038094D01*
X94490922Y-94931263D01*
X94491494Y-94846437D01*
X94493954Y-94723887D01*
X94500588Y-94626668D01*
X94510274Y-94567134D01*
X94517968Y-94554483D01*
X94569689Y-94567402D01*
X94650883Y-94600539D01*
X94744898Y-94645461D01*
X94835083Y-94693735D01*
X94904785Y-94736928D01*
X94937352Y-94766608D01*
X94937481Y-94766929D01*
X94934680Y-94821857D01*
X94909561Y-94874292D01*
X94865459Y-94916881D01*
X94801091Y-94931126D01*
X94746079Y-94929466D01*
X94668165Y-94928245D01*
X94627268Y-94946498D01*
X94602705Y-94994726D01*
X94599608Y-95003820D01*
X94588960Y-95072598D01*
X94617435Y-95114360D01*
X94691656Y-95134263D01*
X94771832Y-95137944D01*
X94916110Y-95110658D01*
X94990797Y-95071690D01*
X95083037Y-94980148D01*
X95131957Y-94867782D01*
X95136346Y-94749051D01*
X95094999Y-94638411D01*
X95032803Y-94569080D01*
X94970706Y-94530265D01*
X94873105Y-94481125D01*
X94759368Y-94431292D01*
X94740410Y-94423677D01*
X94615479Y-94368545D01*
X94543461Y-94319954D01*
X94520300Y-94271647D01*
X94541936Y-94217370D01*
X94579080Y-94174943D01*
X94666873Y-94122702D01*
X94763470Y-94118784D01*
X94852056Y-94159041D01*
X94915814Y-94239326D01*
X94924183Y-94260040D01*
X94972904Y-94336225D01*
X95044035Y-94392785D01*
X95133793Y-94439201D01*
X95133793Y-94307584D01*
X95128510Y-94227168D01*
X95105858Y-94163786D01*
X95055633Y-94096163D01*
X95007418Y-94044076D01*
X94932446Y-93970322D01*
X94874194Y-93930702D01*
X94811628Y-93914810D01*
X94740807Y-93912184D01*
X94585594Y-93935156D01*
G36*
X95319876Y-93939840D02*
G01*
X95315421Y-94016653D01*
X95311929Y-94133391D01*
X95309685Y-94280821D01*
X95308965Y-94435455D01*
X95308965Y-94958727D01*
X95401355Y-95051117D01*
X95465022Y-95108047D01*
X95520911Y-95131107D01*
X95597298Y-95129647D01*
X95627620Y-95125934D01*
X95722390Y-95115126D01*
X95800778Y-95108933D01*
X95819885Y-95108361D01*
X95884301Y-95112102D01*
X95976429Y-95121494D01*
X96012150Y-95125934D01*
X96099886Y-95132801D01*
X96158847Y-95117885D01*
X96217310Y-95071835D01*
X96238415Y-95051117D01*
X96330805Y-94958727D01*
X96330805Y-93979947D01*
X96256442Y-93946066D01*
X96192410Y-93920970D01*
X96154948Y-93912184D01*
X96145343Y-93939950D01*
X96136365Y-94017530D01*
X96128614Y-94136348D01*
X96122686Y-94287828D01*
X96119827Y-94415805D01*
X96111839Y-94919425D01*
X96042152Y-94929278D01*
X95978771Y-94922389D01*
X95947714Y-94900083D01*
X95939033Y-94858379D01*
X95931622Y-94769544D01*
X95926069Y-94644834D01*
X95922964Y-94495507D01*
X95922516Y-94418661D01*
X95922069Y-93976287D01*
X95830126Y-93944235D01*
X95765051Y-93922443D01*
X95729653Y-93912281D01*
X95728632Y-93912184D01*
X95725080Y-93939809D01*
X95721177Y-94016411D01*
X95717249Y-94132579D01*
X95713624Y-94278904D01*
X95711092Y-94415805D01*
X95703103Y-94919425D01*
X95527931Y-94919425D01*
X95519893Y-94459965D01*
X95511854Y-94000505D01*
X95426457Y-93956344D01*
X95363407Y-93926019D01*
X95326090Y-93912258D01*
X95325013Y-93912184D01*
X95319876Y-93939840D01*
G37*
X95319876Y-93939840D02*
X95315421Y-94016653D01*
X95311929Y-94133391D01*
X95309685Y-94280821D01*
X95308965Y-94435455D01*
X95308965Y-94958727D01*
X95401355Y-95051117D01*
X95465022Y-95108047D01*
X95520911Y-95131107D01*
X95597298Y-95129647D01*
X95627620Y-95125934D01*
X95722390Y-95115126D01*
X95800778Y-95108933D01*
X95819885Y-95108361D01*
X95884301Y-95112102D01*
X95976429Y-95121494D01*
X96012150Y-95125934D01*
X96099886Y-95132801D01*
X96158847Y-95117885D01*
X96217310Y-95071835D01*
X96238415Y-95051117D01*
X96330805Y-94958727D01*
X96330805Y-93979947D01*
X96256442Y-93946066D01*
X96192410Y-93920970D01*
X96154948Y-93912184D01*
X96145343Y-93939950D01*
X96136365Y-94017530D01*
X96128614Y-94136348D01*
X96122686Y-94287828D01*
X96119827Y-94415805D01*
X96111839Y-94919425D01*
X96042152Y-94929278D01*
X95978771Y-94922389D01*
X95947714Y-94900083D01*
X95939033Y-94858379D01*
X95931622Y-94769544D01*
X95926069Y-94644834D01*
X95922964Y-94495507D01*
X95922516Y-94418661D01*
X95922069Y-93976287D01*
X95830126Y-93944235D01*
X95765051Y-93922443D01*
X95729653Y-93912281D01*
X95728632Y-93912184D01*
X95725080Y-93939809D01*
X95721177Y-94016411D01*
X95717249Y-94132579D01*
X95713624Y-94278904D01*
X95711092Y-94415805D01*
X95703103Y-94919425D01*
X95527931Y-94919425D01*
X95519893Y-94459965D01*
X95511854Y-94000505D01*
X95426457Y-93956344D01*
X95363407Y-93926019D01*
X95326090Y-93912258D01*
X95325013Y-93912184D01*
X95319876Y-93939840D01*
G36*
X96506086Y-94154455D02*
G01*
X96506457Y-94372661D01*
X96507892Y-94540519D01*
X96510998Y-94666070D01*
X96516378Y-94757355D01*
X96524638Y-94822415D01*
X96536384Y-94869291D01*
X96552219Y-94906024D01*
X96564210Y-94926991D01*
X96663510Y-95040694D01*
X96789412Y-95111965D01*
X96928709Y-95137538D01*
X97068195Y-95114150D01*
X97151257Y-95072119D01*
X97238455Y-94999411D01*
X97297883Y-94910612D01*
X97333739Y-94794320D01*
X97350219Y-94639135D01*
X97352553Y-94525287D01*
X97352239Y-94517106D01*
X97148276Y-94517106D01*
X97147030Y-94647657D01*
X97141322Y-94734080D01*
X97128196Y-94790618D01*
X97104694Y-94831514D01*
X97076614Y-94862362D01*
X96982312Y-94921905D01*
X96881060Y-94926992D01*
X96785364Y-94877279D01*
X96777916Y-94870543D01*
X96746126Y-94835502D01*
X96726192Y-94793811D01*
X96715400Y-94731762D01*
X96711035Y-94635644D01*
X96710345Y-94529379D01*
X96711841Y-94395880D01*
X96718036Y-94306822D01*
X96731486Y-94248293D01*
X96754749Y-94206382D01*
X96773825Y-94184123D01*
X96862437Y-94127985D01*
X96964492Y-94121235D01*
X97061905Y-94164114D01*
X97080704Y-94180032D01*
X97112707Y-94215382D01*
X97132682Y-94257502D01*
X97143407Y-94320251D01*
X97147661Y-94417487D01*
X97148276Y-94517106D01*
X97352239Y-94517106D01*
X97345496Y-94341947D01*
X97321528Y-94204195D01*
X97276452Y-94100632D01*
X97206072Y-94019856D01*
X97151257Y-93978455D01*
X97051624Y-93933728D01*
X96936145Y-93912967D01*
X96828801Y-93918525D01*
X96768736Y-93940943D01*
X96745165Y-93947323D01*
X96729523Y-93923535D01*
X96718605Y-93859788D01*
X96710345Y-93762687D01*
X96701301Y-93654541D01*
X96688739Y-93589475D01*
X96665881Y-93552268D01*
X96625949Y-93527699D01*
X96600862Y-93516819D01*
X96505977Y-93477072D01*
X96506086Y-94154455D01*
G37*
X96506086Y-94154455D02*
X96506457Y-94372661D01*
X96507892Y-94540519D01*
X96510998Y-94666070D01*
X96516378Y-94757355D01*
X96524638Y-94822415D01*
X96536384Y-94869291D01*
X96552219Y-94906024D01*
X96564210Y-94926991D01*
X96663510Y-95040694D01*
X96789412Y-95111965D01*
X96928709Y-95137538D01*
X97068195Y-95114150D01*
X97151257Y-95072119D01*
X97238455Y-94999411D01*
X97297883Y-94910612D01*
X97333739Y-94794320D01*
X97350219Y-94639135D01*
X97352553Y-94525287D01*
X97352239Y-94517106D01*
X97148276Y-94517106D01*
X97147030Y-94647657D01*
X97141322Y-94734080D01*
X97128196Y-94790618D01*
X97104694Y-94831514D01*
X97076614Y-94862362D01*
X96982312Y-94921905D01*
X96881060Y-94926992D01*
X96785364Y-94877279D01*
X96777916Y-94870543D01*
X96746126Y-94835502D01*
X96726192Y-94793811D01*
X96715400Y-94731762D01*
X96711035Y-94635644D01*
X96710345Y-94529379D01*
X96711841Y-94395880D01*
X96718036Y-94306822D01*
X96731486Y-94248293D01*
X96754749Y-94206382D01*
X96773825Y-94184123D01*
X96862437Y-94127985D01*
X96964492Y-94121235D01*
X97061905Y-94164114D01*
X97080704Y-94180032D01*
X97112707Y-94215382D01*
X97132682Y-94257502D01*
X97143407Y-94320251D01*
X97147661Y-94417487D01*
X97148276Y-94517106D01*
X97352239Y-94517106D01*
X97345496Y-94341947D01*
X97321528Y-94204195D01*
X97276452Y-94100632D01*
X97206072Y-94019856D01*
X97151257Y-93978455D01*
X97051624Y-93933728D01*
X96936145Y-93912967D01*
X96828801Y-93918525D01*
X96768736Y-93940943D01*
X96745165Y-93947323D01*
X96729523Y-93923535D01*
X96718605Y-93859788D01*
X96710345Y-93762687D01*
X96701301Y-93654541D01*
X96688739Y-93589475D01*
X96665881Y-93552268D01*
X96625949Y-93527699D01*
X96600862Y-93516819D01*
X96505977Y-93477072D01*
X96506086Y-94154455D01*
G36*
X97834057Y-93921920D02*
G01*
X97701435Y-93970859D01*
X97593990Y-94057419D01*
X97551968Y-94118352D01*
X97506157Y-94230161D01*
X97507109Y-94311006D01*
X97555192Y-94365378D01*
X97572983Y-94374624D01*
X97649796Y-94403450D01*
X97689024Y-94396065D01*
X97702311Y-94347658D01*
X97702988Y-94320920D01*
X97727314Y-94222548D01*
X97790719Y-94153734D01*
X97878846Y-94120498D01*
X97977337Y-94128861D01*
X98057398Y-94172296D01*
X98084439Y-94197072D01*
X98103606Y-94227129D01*
X98116554Y-94272565D01*
X98124936Y-94343476D01*
X98130407Y-94449960D01*
X98134622Y-94602112D01*
X98135713Y-94650287D01*
X98139693Y-94815095D01*
X98144219Y-94931088D01*
X98151005Y-95007833D01*
X98161769Y-95054893D01*
X98178227Y-95081835D01*
X98202094Y-95098223D01*
X98217374Y-95105463D01*
X98282267Y-95130220D01*
X98320466Y-95138391D01*
X98333088Y-95111103D01*
X98340792Y-95028603D01*
X98343620Y-94889941D01*
X98341614Y-94694162D01*
X98340989Y-94663965D01*
X98336579Y-94485349D01*
X98331365Y-94354923D01*
X98323945Y-94262492D01*
X98312918Y-94197858D01*
X98296883Y-94150825D01*
X98274439Y-94111196D01*
X98262698Y-94094215D01*
X98195381Y-94019080D01*
X98120090Y-93960638D01*
X98110872Y-93955536D01*
X97975867Y-93915260D01*
X97834057Y-93921920D01*
G37*
X97834057Y-93921920D02*
X97701435Y-93970859D01*
X97593990Y-94057419D01*
X97551968Y-94118352D01*
X97506157Y-94230161D01*
X97507109Y-94311006D01*
X97555192Y-94365378D01*
X97572983Y-94374624D01*
X97649796Y-94403450D01*
X97689024Y-94396065D01*
X97702311Y-94347658D01*
X97702988Y-94320920D01*
X97727314Y-94222548D01*
X97790719Y-94153734D01*
X97878846Y-94120498D01*
X97977337Y-94128861D01*
X98057398Y-94172296D01*
X98084439Y-94197072D01*
X98103606Y-94227129D01*
X98116554Y-94272565D01*
X98124936Y-94343476D01*
X98130407Y-94449960D01*
X98134622Y-94602112D01*
X98135713Y-94650287D01*
X98139693Y-94815095D01*
X98144219Y-94931088D01*
X98151005Y-95007833D01*
X98161769Y-95054893D01*
X98178227Y-95081835D01*
X98202094Y-95098223D01*
X98217374Y-95105463D01*
X98282267Y-95130220D01*
X98320466Y-95138391D01*
X98333088Y-95111103D01*
X98340792Y-95028603D01*
X98343620Y-94889941D01*
X98341614Y-94694162D01*
X98340989Y-94663965D01*
X98336579Y-94485349D01*
X98331365Y-94354923D01*
X98323945Y-94262492D01*
X98312918Y-94197858D01*
X98296883Y-94150825D01*
X98274439Y-94111196D01*
X98262698Y-94094215D01*
X98195381Y-94019080D01*
X98120090Y-93960638D01*
X98110872Y-93955536D01*
X97975867Y-93915260D01*
X97834057Y-93921920D01*
G36*
X98820056Y-93924360D02*
G01*
X98705657Y-93966842D01*
X98704348Y-93967658D01*
X98633597Y-94019730D01*
X98581364Y-94080584D01*
X98544629Y-94159887D01*
X98520366Y-94267309D01*
X98505555Y-94412517D01*
X98497171Y-94605179D01*
X98496436Y-94632628D01*
X98485880Y-95046521D01*
X98574709Y-95092456D01*
X98638982Y-95123498D01*
X98677790Y-95138206D01*
X98679585Y-95138391D01*
X98686300Y-95111250D01*
X98691635Y-95038041D01*
X98694917Y-94931081D01*
X98695632Y-94844469D01*
X98695649Y-94704162D01*
X98702063Y-94616051D01*
X98724420Y-94574025D01*
X98772268Y-94571975D01*
X98855151Y-94603790D01*
X98980287Y-94662272D01*
X99072303Y-94710845D01*
X99119629Y-94752986D01*
X99133542Y-94798916D01*
X99133563Y-94801189D01*
X99110605Y-94880311D01*
X99042630Y-94923055D01*
X98938602Y-94929246D01*
X98863670Y-94928172D01*
X98824161Y-94949753D01*
X98799522Y-95001591D01*
X98785341Y-95067632D01*
X98805777Y-95105104D01*
X98813472Y-95110467D01*
X98885917Y-95132006D01*
X98987367Y-95135055D01*
X99091843Y-95120778D01*
X99165875Y-95094688D01*
X99268228Y-95007785D01*
X99326409Y-94886816D01*
X99337931Y-94792308D01*
X99329138Y-94707062D01*
X99297320Y-94637476D01*
X99234316Y-94575672D01*
X99131969Y-94513772D01*
X98982118Y-94443897D01*
X98972988Y-94439948D01*
X98838003Y-94377588D01*
X98754706Y-94326446D01*
X98719003Y-94280488D01*
X98726797Y-94233683D01*
X98773993Y-94179998D01*
X98788106Y-94167644D01*
X98882641Y-94119741D01*
X98980594Y-94121758D01*
X99065903Y-94168724D01*
X99122504Y-94255669D01*
X99127763Y-94272734D01*
X99178977Y-94355504D01*
X99243963Y-94395372D01*
X99337931Y-94434882D01*
X99337931Y-94332658D01*
X99309347Y-94184072D01*
X99224505Y-94047784D01*
X99180355Y-94002191D01*
X99079995Y-93943674D01*
X98952365Y-93917184D01*
X98820056Y-93924360D01*
G37*
X98820056Y-93924360D02*
X98705657Y-93966842D01*
X98704348Y-93967658D01*
X98633597Y-94019730D01*
X98581364Y-94080584D01*
X98544629Y-94159887D01*
X98520366Y-94267309D01*
X98505555Y-94412517D01*
X98497171Y-94605179D01*
X98496436Y-94632628D01*
X98485880Y-95046521D01*
X98574709Y-95092456D01*
X98638982Y-95123498D01*
X98677790Y-95138206D01*
X98679585Y-95138391D01*
X98686300Y-95111250D01*
X98691635Y-95038041D01*
X98694917Y-94931081D01*
X98695632Y-94844469D01*
X98695649Y-94704162D01*
X98702063Y-94616051D01*
X98724420Y-94574025D01*
X98772268Y-94571975D01*
X98855151Y-94603790D01*
X98980287Y-94662272D01*
X99072303Y-94710845D01*
X99119629Y-94752986D01*
X99133542Y-94798916D01*
X99133563Y-94801189D01*
X99110605Y-94880311D01*
X99042630Y-94923055D01*
X98938602Y-94929246D01*
X98863670Y-94928172D01*
X98824161Y-94949753D01*
X98799522Y-95001591D01*
X98785341Y-95067632D01*
X98805777Y-95105104D01*
X98813472Y-95110467D01*
X98885917Y-95132006D01*
X98987367Y-95135055D01*
X99091843Y-95120778D01*
X99165875Y-95094688D01*
X99268228Y-95007785D01*
X99326409Y-94886816D01*
X99337931Y-94792308D01*
X99329138Y-94707062D01*
X99297320Y-94637476D01*
X99234316Y-94575672D01*
X99131969Y-94513772D01*
X98982118Y-94443897D01*
X98972988Y-94439948D01*
X98838003Y-94377588D01*
X98754706Y-94326446D01*
X98719003Y-94280488D01*
X98726797Y-94233683D01*
X98773993Y-94179998D01*
X98788106Y-94167644D01*
X98882641Y-94119741D01*
X98980594Y-94121758D01*
X99065903Y-94168724D01*
X99122504Y-94255669D01*
X99127763Y-94272734D01*
X99178977Y-94355504D01*
X99243963Y-94395372D01*
X99337931Y-94434882D01*
X99337931Y-94332658D01*
X99309347Y-94184072D01*
X99224505Y-94047784D01*
X99180355Y-94002191D01*
X99079995Y-93943674D01*
X98952365Y-93917184D01*
X98820056Y-93924360D01*
G36*
X100155402Y-93723857D02*
G01*
X100146846Y-93843188D01*
X100137019Y-93913506D01*
X100123401Y-93944179D01*
X100103473Y-93944571D01*
X100097011Y-93940910D01*
X100011060Y-93914398D01*
X99899255Y-93915946D01*
X99785586Y-93943199D01*
X99714490Y-93978455D01*
X99641595Y-94034778D01*
X99588307Y-94098519D01*
X99551725Y-94179510D01*
X99528950Y-94287586D01*
X99517081Y-94432580D01*
X99513218Y-94624326D01*
X99513149Y-94661109D01*
X99513103Y-95074288D01*
X99605046Y-95106339D01*
X99670348Y-95128144D01*
X99706176Y-95138297D01*
X99707230Y-95138391D01*
X99710758Y-95110860D01*
X99713761Y-95034923D01*
X99716010Y-94920565D01*
X99717276Y-94777769D01*
X99717471Y-94690951D01*
X99717877Y-94519773D01*
X99719968Y-94397088D01*
X99725053Y-94313000D01*
X99734440Y-94257614D01*
X99749439Y-94221032D01*
X99771358Y-94193359D01*
X99785043Y-94180032D01*
X99879051Y-94126328D01*
X99981636Y-94122307D01*
X100074710Y-94167725D01*
X100091922Y-94184123D01*
X100117168Y-94214957D01*
X100134680Y-94251531D01*
X100145858Y-94304415D01*
X100152104Y-94384177D01*
X100154818Y-94501385D01*
X100155402Y-94662991D01*
X100155402Y-95074288D01*
X100247345Y-95106339D01*
X100312647Y-95128144D01*
X100348475Y-95138297D01*
X100349529Y-95138391D01*
X100352225Y-95110448D01*
X100354655Y-95031630D01*
X100356722Y-94909453D01*
X100358329Y-94751432D01*
X100359377Y-94565083D01*
X100359769Y-94357920D01*
X100359770Y-94348706D01*
X100359770Y-93559020D01*
X100264885Y-93518997D01*
X100170000Y-93478973D01*
X100155402Y-93723857D01*
G37*
X100155402Y-93723857D02*
X100146846Y-93843188D01*
X100137019Y-93913506D01*
X100123401Y-93944179D01*
X100103473Y-93944571D01*
X100097011Y-93940910D01*
X100011060Y-93914398D01*
X99899255Y-93915946D01*
X99785586Y-93943199D01*
X99714490Y-93978455D01*
X99641595Y-94034778D01*
X99588307Y-94098519D01*
X99551725Y-94179510D01*
X99528950Y-94287586D01*
X99517081Y-94432580D01*
X99513218Y-94624326D01*
X99513149Y-94661109D01*
X99513103Y-95074288D01*
X99605046Y-95106339D01*
X99670348Y-95128144D01*
X99706176Y-95138297D01*
X99707230Y-95138391D01*
X99710758Y-95110860D01*
X99713761Y-95034923D01*
X99716010Y-94920565D01*
X99717276Y-94777769D01*
X99717471Y-94690951D01*
X99717877Y-94519773D01*
X99719968Y-94397088D01*
X99725053Y-94313000D01*
X99734440Y-94257614D01*
X99749439Y-94221032D01*
X99771358Y-94193359D01*
X99785043Y-94180032D01*
X99879051Y-94126328D01*
X99981636Y-94122307D01*
X100074710Y-94167725D01*
X100091922Y-94184123D01*
X100117168Y-94214957D01*
X100134680Y-94251531D01*
X100145858Y-94304415D01*
X100152104Y-94384177D01*
X100154818Y-94501385D01*
X100155402Y-94662991D01*
X100155402Y-95074288D01*
X100247345Y-95106339D01*
X100312647Y-95128144D01*
X100348475Y-95138297D01*
X100349529Y-95138391D01*
X100352225Y-95110448D01*
X100354655Y-95031630D01*
X100356722Y-94909453D01*
X100358329Y-94751432D01*
X100359377Y-94565083D01*
X100359769Y-94357920D01*
X100359770Y-94348706D01*
X100359770Y-93559020D01*
X100264885Y-93518997D01*
X100170000Y-93478973D01*
X100155402Y-93723857D01*
G36*
X102584448Y-93884676D02*
G01*
X102469342Y-93962111D01*
X102380389Y-94073949D01*
X102327251Y-94216265D01*
X102316503Y-94321015D01*
X102317724Y-94364726D01*
X102327944Y-94398194D01*
X102356039Y-94428179D01*
X102410884Y-94461440D01*
X102501355Y-94504738D01*
X102636328Y-94564833D01*
X102637011Y-94565134D01*
X102761249Y-94622037D01*
X102863127Y-94672565D01*
X102932233Y-94711280D01*
X102958154Y-94732740D01*
X102958161Y-94732913D01*
X102935315Y-94779644D01*
X102881891Y-94831154D01*
X102820558Y-94868261D01*
X102789485Y-94875632D01*
X102704711Y-94850138D01*
X102631707Y-94786291D01*
X102596087Y-94716094D01*
X102561820Y-94664343D01*
X102494697Y-94605409D01*
X102415792Y-94554496D01*
X102346179Y-94526809D01*
X102331623Y-94525287D01*
X102315237Y-94550321D01*
X102314250Y-94614311D01*
X102326292Y-94700593D01*
X102348993Y-94792501D01*
X102379986Y-94873369D01*
X102381552Y-94876509D01*
X102474819Y-95006734D01*
X102595696Y-95095311D01*
X102732973Y-95138786D01*
X102875440Y-95133706D01*
X103011888Y-95076616D01*
X103017955Y-95072602D01*
X103125290Y-94975326D01*
X103195868Y-94848409D01*
X103234926Y-94681526D01*
X103240168Y-94634639D01*
X103249452Y-94413329D01*
X103238322Y-94310124D01*
X102958161Y-94310124D01*
X102954521Y-94374503D01*
X102934611Y-94393291D01*
X102884974Y-94379235D01*
X102806733Y-94346009D01*
X102719274Y-94304359D01*
X102717101Y-94303256D01*
X102642970Y-94264265D01*
X102613219Y-94238244D01*
X102620555Y-94210965D01*
X102651447Y-94175121D01*
X102730040Y-94123251D01*
X102814677Y-94119439D01*
X102890597Y-94157189D01*
X102943035Y-94230001D01*
X102958161Y-94310124D01*
X103238322Y-94310124D01*
X103230356Y-94236261D01*
X103181366Y-94095829D01*
X103113164Y-93997447D01*
X102990065Y-93898030D01*
X102854472Y-93848711D01*
X102716045Y-93845568D01*
X102584448Y-93884676D01*
G37*
X102584448Y-93884676D02*
X102469342Y-93962111D01*
X102380389Y-94073949D01*
X102327251Y-94216265D01*
X102316503Y-94321015D01*
X102317724Y-94364726D01*
X102327944Y-94398194D01*
X102356039Y-94428179D01*
X102410884Y-94461440D01*
X102501355Y-94504738D01*
X102636328Y-94564833D01*
X102637011Y-94565134D01*
X102761249Y-94622037D01*
X102863127Y-94672565D01*
X102932233Y-94711280D01*
X102958154Y-94732740D01*
X102958161Y-94732913D01*
X102935315Y-94779644D01*
X102881891Y-94831154D01*
X102820558Y-94868261D01*
X102789485Y-94875632D01*
X102704711Y-94850138D01*
X102631707Y-94786291D01*
X102596087Y-94716094D01*
X102561820Y-94664343D01*
X102494697Y-94605409D01*
X102415792Y-94554496D01*
X102346179Y-94526809D01*
X102331623Y-94525287D01*
X102315237Y-94550321D01*
X102314250Y-94614311D01*
X102326292Y-94700593D01*
X102348993Y-94792501D01*
X102379986Y-94873369D01*
X102381552Y-94876509D01*
X102474819Y-95006734D01*
X102595696Y-95095311D01*
X102732973Y-95138786D01*
X102875440Y-95133706D01*
X103011888Y-95076616D01*
X103017955Y-95072602D01*
X103125290Y-94975326D01*
X103195868Y-94848409D01*
X103234926Y-94681526D01*
X103240168Y-94634639D01*
X103249452Y-94413329D01*
X103238322Y-94310124D01*
X102958161Y-94310124D01*
X102954521Y-94374503D01*
X102934611Y-94393291D01*
X102884974Y-94379235D01*
X102806733Y-94346009D01*
X102719274Y-94304359D01*
X102717101Y-94303256D01*
X102642970Y-94264265D01*
X102613219Y-94238244D01*
X102620555Y-94210965D01*
X102651447Y-94175121D01*
X102730040Y-94123251D01*
X102814677Y-94119439D01*
X102890597Y-94157189D01*
X102943035Y-94230001D01*
X102958161Y-94310124D01*
X103238322Y-94310124D01*
X103230356Y-94236261D01*
X103181366Y-94095829D01*
X103113164Y-93997447D01*
X102990065Y-93898030D01*
X102854472Y-93848711D01*
X102716045Y-93845568D01*
X102584448Y-93884676D01*
G36*
X104851779Y-93866015D02*
G01*
X104714939Y-93937968D01*
X104613949Y-94053766D01*
X104578075Y-94128213D01*
X104550161Y-94239992D01*
X104535871Y-94381227D01*
X104534516Y-94535371D01*
X104545405Y-94685879D01*
X104567847Y-94816205D01*
X104601150Y-94909803D01*
X104611385Y-94925922D01*
X104732618Y-95046249D01*
X104876613Y-95118317D01*
X105032861Y-95139408D01*
X105190852Y-95106802D01*
X105234820Y-95087253D01*
X105320444Y-95027012D01*
X105395592Y-94947135D01*
X105402694Y-94937004D01*
X105431561Y-94888181D01*
X105450643Y-94835990D01*
X105461916Y-94767285D01*
X105467355Y-94668918D01*
X105468938Y-94527744D01*
X105468965Y-94496092D01*
X105468893Y-94486019D01*
X105177011Y-94486019D01*
X105175313Y-94619256D01*
X105168628Y-94707674D01*
X105154575Y-94764785D01*
X105130771Y-94804102D01*
X105118621Y-94817241D01*
X105048764Y-94867172D01*
X104980941Y-94864895D01*
X104912365Y-94821584D01*
X104871465Y-94775346D01*
X104847242Y-94707857D01*
X104833639Y-94601433D01*
X104832706Y-94589020D01*
X104830384Y-94396147D01*
X104854650Y-94252900D01*
X104905176Y-94160160D01*
X104981632Y-94118807D01*
X105008924Y-94116552D01*
X105080589Y-94127893D01*
X105129610Y-94167184D01*
X105159582Y-94242326D01*
X105174101Y-94361222D01*
X105177011Y-94486019D01*
X105468893Y-94486019D01*
X105467878Y-94345659D01*
X105463312Y-94240549D01*
X105453312Y-94167714D01*
X105435921Y-94114108D01*
X105409184Y-94066681D01*
X105403276Y-94057864D01*
X105303968Y-93939007D01*
X105195758Y-93870008D01*
X105064019Y-93842619D01*
X105019283Y-93841281D01*
X104851779Y-93866015D01*
G37*
X104851779Y-93866015D02*
X104714939Y-93937968D01*
X104613949Y-94053766D01*
X104578075Y-94128213D01*
X104550161Y-94239992D01*
X104535871Y-94381227D01*
X104534516Y-94535371D01*
X104545405Y-94685879D01*
X104567847Y-94816205D01*
X104601150Y-94909803D01*
X104611385Y-94925922D01*
X104732618Y-95046249D01*
X104876613Y-95118317D01*
X105032861Y-95139408D01*
X105190852Y-95106802D01*
X105234820Y-95087253D01*
X105320444Y-95027012D01*
X105395592Y-94947135D01*
X105402694Y-94937004D01*
X105431561Y-94888181D01*
X105450643Y-94835990D01*
X105461916Y-94767285D01*
X105467355Y-94668918D01*
X105468938Y-94527744D01*
X105468965Y-94496092D01*
X105468893Y-94486019D01*
X105177011Y-94486019D01*
X105175313Y-94619256D01*
X105168628Y-94707674D01*
X105154575Y-94764785D01*
X105130771Y-94804102D01*
X105118621Y-94817241D01*
X105048764Y-94867172D01*
X104980941Y-94864895D01*
X104912365Y-94821584D01*
X104871465Y-94775346D01*
X104847242Y-94707857D01*
X104833639Y-94601433D01*
X104832706Y-94589020D01*
X104830384Y-94396147D01*
X104854650Y-94252900D01*
X104905176Y-94160160D01*
X104981632Y-94118807D01*
X105008924Y-94116552D01*
X105080589Y-94127893D01*
X105129610Y-94167184D01*
X105159582Y-94242326D01*
X105174101Y-94361222D01*
X105177011Y-94486019D01*
X105468893Y-94486019D01*
X105467878Y-94345659D01*
X105463312Y-94240549D01*
X105453312Y-94167714D01*
X105435921Y-94114108D01*
X105409184Y-94066681D01*
X105403276Y-94057864D01*
X105303968Y-93939007D01*
X105195758Y-93870008D01*
X105064019Y-93842619D01*
X105019283Y-93841281D01*
X104851779Y-93866015D01*
G36*
X101482571Y-93877719D02*
G01*
X101388877Y-93931914D01*
X101323736Y-93985707D01*
X101276093Y-94042066D01*
X101243272Y-94110987D01*
X101222594Y-94202468D01*
X101211380Y-94326506D01*
X101206951Y-94493098D01*
X101206437Y-94612851D01*
X101206437Y-95053659D01*
X101330517Y-95109283D01*
X101454598Y-95164907D01*
X101469195Y-94682095D01*
X101475227Y-94501779D01*
X101481555Y-94370901D01*
X101489394Y-94280511D01*
X101499963Y-94221664D01*
X101514477Y-94185413D01*
X101534152Y-94162810D01*
X101540465Y-94157917D01*
X101636112Y-94119706D01*
X101732793Y-94134827D01*
X101790345Y-94174943D01*
X101813755Y-94203370D01*
X101829961Y-94240672D01*
X101840259Y-94297223D01*
X101845951Y-94383394D01*
X101848336Y-94509558D01*
X101848736Y-94641042D01*
X101848814Y-94805999D01*
X101851639Y-94922761D01*
X101861093Y-95001510D01*
X101881060Y-95052431D01*
X101915424Y-95085706D01*
X101968068Y-95111520D01*
X102038383Y-95138344D01*
X102115180Y-95167542D01*
X102106038Y-94649346D01*
X102102357Y-94462539D01*
X102098050Y-94324490D01*
X102091877Y-94225568D01*
X102082598Y-94156145D01*
X102068973Y-94106590D01*
X102049761Y-94067273D01*
X102026598Y-94032584D01*
X101914848Y-93921770D01*
X101778487Y-93857689D01*
X101630175Y-93842339D01*
X101482571Y-93877719D01*
G37*
X101482571Y-93877719D02*
X101388877Y-93931914D01*
X101323736Y-93985707D01*
X101276093Y-94042066D01*
X101243272Y-94110987D01*
X101222594Y-94202468D01*
X101211380Y-94326506D01*
X101206951Y-94493098D01*
X101206437Y-94612851D01*
X101206437Y-95053659D01*
X101330517Y-95109283D01*
X101454598Y-95164907D01*
X101469195Y-94682095D01*
X101475227Y-94501779D01*
X101481555Y-94370901D01*
X101489394Y-94280511D01*
X101499963Y-94221664D01*
X101514477Y-94185413D01*
X101534152Y-94162810D01*
X101540465Y-94157917D01*
X101636112Y-94119706D01*
X101732793Y-94134827D01*
X101790345Y-94174943D01*
X101813755Y-94203370D01*
X101829961Y-94240672D01*
X101840259Y-94297223D01*
X101845951Y-94383394D01*
X101848336Y-94509558D01*
X101848736Y-94641042D01*
X101848814Y-94805999D01*
X101851639Y-94922761D01*
X101861093Y-95001510D01*
X101881060Y-95052431D01*
X101915424Y-95085706D01*
X101968068Y-95111520D01*
X102038383Y-95138344D01*
X102115180Y-95167542D01*
X102106038Y-94649346D01*
X102102357Y-94462539D01*
X102098050Y-94324490D01*
X102091877Y-94225568D01*
X102082598Y-94156145D01*
X102068973Y-94106590D01*
X102049761Y-94067273D01*
X102026598Y-94032584D01*
X101914848Y-93921770D01*
X101778487Y-93857689D01*
X101630175Y-93842339D01*
X101482571Y-93877719D01*
G36*
X103728100Y-93861903D02*
G01*
X103616550Y-93917522D01*
X103518092Y-94019931D01*
X103490977Y-94057864D01*
X103461438Y-94107500D01*
X103442272Y-94161412D01*
X103431307Y-94233364D01*
X103426371Y-94337122D01*
X103425287Y-94474101D01*
X103430182Y-94661815D01*
X103447196Y-94802758D01*
X103479823Y-94907908D01*
X103531558Y-94988243D01*
X103605896Y-95054741D01*
X103611358Y-95058678D01*
X103684620Y-95098953D01*
X103772840Y-95118880D01*
X103885038Y-95123793D01*
X104067433Y-95123793D01*
X104067509Y-95300857D01*
X104069207Y-95399470D01*
X104079550Y-95457314D01*
X104106578Y-95492006D01*
X104158332Y-95521164D01*
X104170761Y-95527121D01*
X104228923Y-95555039D01*
X104273956Y-95572672D01*
X104307441Y-95574194D01*
X104330962Y-95553781D01*
X104346100Y-95505607D01*
X104354437Y-95423846D01*
X104357556Y-95302672D01*
X104357040Y-95136260D01*
X104354471Y-94918785D01*
X104353668Y-94853736D01*
X104350778Y-94629502D01*
X104348188Y-94482821D01*
X104067586Y-94482821D01*
X104066009Y-94607326D01*
X104059000Y-94688787D01*
X104043142Y-94742515D01*
X104015019Y-94783823D01*
X103995925Y-94803971D01*
X103917865Y-94862921D01*
X103848753Y-94867720D01*
X103777440Y-94819038D01*
X103775632Y-94817241D01*
X103746617Y-94779618D01*
X103728967Y-94728484D01*
X103720064Y-94649738D01*
X103717291Y-94529276D01*
X103717241Y-94502588D01*
X103723942Y-94336583D01*
X103745752Y-94221505D01*
X103785235Y-94151254D01*
X103844956Y-94119729D01*
X103879472Y-94116552D01*
X103961389Y-94131460D01*
X104017579Y-94180548D01*
X104051402Y-94270362D01*
X104066220Y-94407445D01*
X104067586Y-94482821D01*
X104348188Y-94482821D01*
X104347713Y-94455952D01*
X104343753Y-94325382D01*
X104338174Y-94230087D01*
X104330254Y-94162364D01*
X104319269Y-94114507D01*
X104304499Y-94078813D01*
X104285218Y-94047578D01*
X104276951Y-94035824D01*
X104167288Y-93924797D01*
X104028635Y-93861847D01*
X103868246Y-93844297D01*
X103728100Y-93861903D01*
G37*
X103728100Y-93861903D02*
X103616550Y-93917522D01*
X103518092Y-94019931D01*
X103490977Y-94057864D01*
X103461438Y-94107500D01*
X103442272Y-94161412D01*
X103431307Y-94233364D01*
X103426371Y-94337122D01*
X103425287Y-94474101D01*
X103430182Y-94661815D01*
X103447196Y-94802758D01*
X103479823Y-94907908D01*
X103531558Y-94988243D01*
X103605896Y-95054741D01*
X103611358Y-95058678D01*
X103684620Y-95098953D01*
X103772840Y-95118880D01*
X103885038Y-95123793D01*
X104067433Y-95123793D01*
X104067509Y-95300857D01*
X104069207Y-95399470D01*
X104079550Y-95457314D01*
X104106578Y-95492006D01*
X104158332Y-95521164D01*
X104170761Y-95527121D01*
X104228923Y-95555039D01*
X104273956Y-95572672D01*
X104307441Y-95574194D01*
X104330962Y-95553781D01*
X104346100Y-95505607D01*
X104354437Y-95423846D01*
X104357556Y-95302672D01*
X104357040Y-95136260D01*
X104354471Y-94918785D01*
X104353668Y-94853736D01*
X104350778Y-94629502D01*
X104348188Y-94482821D01*
X104067586Y-94482821D01*
X104066009Y-94607326D01*
X104059000Y-94688787D01*
X104043142Y-94742515D01*
X104015019Y-94783823D01*
X103995925Y-94803971D01*
X103917865Y-94862921D01*
X103848753Y-94867720D01*
X103777440Y-94819038D01*
X103775632Y-94817241D01*
X103746617Y-94779618D01*
X103728967Y-94728484D01*
X103720064Y-94649738D01*
X103717291Y-94529276D01*
X103717241Y-94502588D01*
X103723942Y-94336583D01*
X103745752Y-94221505D01*
X103785235Y-94151254D01*
X103844956Y-94119729D01*
X103879472Y-94116552D01*
X103961389Y-94131460D01*
X104017579Y-94180548D01*
X104051402Y-94270362D01*
X104066220Y-94407445D01*
X104067586Y-94482821D01*
X104348188Y-94482821D01*
X104347713Y-94455952D01*
X104343753Y-94325382D01*
X104338174Y-94230087D01*
X104330254Y-94162364D01*
X104319269Y-94114507D01*
X104304499Y-94078813D01*
X104285218Y-94047578D01*
X104276951Y-94035824D01*
X104167288Y-93924797D01*
X104028635Y-93861847D01*
X103868246Y-93844297D01*
X103728100Y-93861903D01*
%TD*%
M02*
